<svg width="360" height="359" viewBox="0 0 360 359" fill="none" xmlns="http://www.w3.org/2000/svg">
<path d="M0 179.333V358.667H4.93333C8 358.667 13.8667 356.8 20 353.733C34 346.8 42.5333 346.267 58.2667 351.733C73.8667 357.067 84.1333 358.933 95.3333 358.4L104.667 358L104.267 345.467C103.2 316.8 91.6 288.267 71.0667 264.8C64.2667 257.067 64 256.4 64 249.2V241.6L75.6 233.2C104.267 212.4 126.267 182.267 137.067 149.333C142.133 134.133 144.267 121.2 144.933 101.733L145.733 82.9334L154.667 74.8001C163.733 66.6667 174.8 51.8667 177.467 44.1334C178.267 41.8667 179.467 40.0001 180 40.0001C180.533 40.0001 181.733 41.8667 182.533 44.1334C185.2 51.8667 196.267 66.6667 205.2 74.8001L214.267 82.9334L215.067 102.4C216 124.533 218.667 138.4 225.733 157.067C237.067 187.067 257.6 213.733 284.533 233.333L296 241.6V249.2C296 256.4 295.733 257.067 288.933 264.8C268.4 288.267 256.533 317.2 255.733 345.733L255.333 358L269.333 357.867C281.733 357.733 285.067 357.2 298.533 352.667C318.133 346.267 325.467 346.4 340.133 353.733C346.267 356.667 352.133 358.667 355.067 358.667H360V179.333V6.26743e-05H180H0V179.333ZM30.1333 16.9334C31.3333 23.7334 35.6 34.2667 38.8 38.9334C41.6 42.8001 42.5333 42.8001 48.4 38.1334C50.5333 36.4001 50.5333 35.8667 46.8 27.8667C44.6667 23.2001 42.5333 17.7334 42.1333 15.6001L41.3333 12.0001H49.7333H58.2667L60.5333 17.7334C65.7333 31.3334 78.2667 40.0001 92.6667 40.0001C101.467 40.0001 109.333 38.0001 109.333 35.7334C109.333 35.0667 108.267 32.6667 107.067 30.5334C104.8 26.8001 104.267 26.6667 99.3333 27.4667C88.4 29.4667 81.7333 27.3334 75.4667 20.0001C69.0667 12.2667 69.7333 12.0001 93.3333 12.0001C105.067 12.0001 114.667 12.4001 114.667 12.8001C114.667 13.2001 114 14.8001 113.2 16.4001C111.867 18.8001 112.133 19.7334 116.133 22.9334L120.667 26.6667L122.933 23.7334C124.267 22.0001 125.6 18.6667 126.133 16.2667L126.933 12.0001H135.6H144.4L143.6 16.9334C141.333 30.4001 129.467 45.2001 114.8 52.4001C106.8 56.2667 104.933 56.6667 93.3333 56.6667C79.7333 56.6667 73.3333 54.6667 62.4 47.0667L57.4667 43.7334L54.1333 47.4667C52.2667 49.6001 50.6667 51.7334 50.6667 52.2667C50.6667 53.8667 58.4 59.6001 64.5333 62.6667C89.4667 74.6667 117.467 70.2667 137.6 50.9334C146.533 42.4001 154.133 28.6667 155.467 18.5334L156.4 12.0001H164.8C174.667 12.0001 174.8 12.2667 171.333 25.8667C165.867 47.0667 148.667 68.1334 129.2 77.7334C84.9333 99.4667 33.2 78.1334 16.6667 31.0667C14.8 26.1334 13.3333 19.7334 13.3333 16.9334V12.0001H21.3333H29.2L30.1333 16.9334ZM204 15.2001C204 17.0667 204.533 20.0001 205.333 21.8667C206.533 25.0667 206.667 25.2001 211.6 23.4667C216.4 21.8667 216.667 21.4667 216.267 16.8001L215.733 12.0001H223.867H231.867L234.667 18.2667C240 30.2667 252.267 39.8667 262.4 40.0001C266.8 40.0001 266.8 40.0001 266.4 34.4001C266 29.3334 265.6 28.6667 261.333 27.6001C255.2 26.0001 249.733 22.0001 247.333 17.3334C246.267 15.2001 245.333 13.2001 245.333 12.6667C245.333 12.2667 254.933 12.0001 266.667 12.0001C291.333 12.0001 292.133 12.5334 282.267 21.8667L276.533 27.3334L278.533 32.4001C279.467 35.0667 280.8 37.3334 281.467 37.3334C282 37.3334 285.067 35.3334 288.267 32.9334C292.133 30.0001 295.333 25.8667 298 20.2667L302 12.1334L310.4 12.0001H318.667L317.867 15.6001C317.333 17.7334 315.867 22.0001 314.533 25.2001C311.2 32.9334 311.333 33.7334 316.267 36.5334C320.4 39.0667 320.533 39.0667 322.667 36.2667C324.667 33.7334 328 24.4001 329.867 15.6001C330.667 12.1334 331.067 12.0001 339.333 12.0001H348L347.2 16.2667C339.2 62.9334 297.067 93.3334 252.133 84.9334C222.133 79.2001 196.4 55.3334 188.667 25.8667C185.2 12.2667 185.333 12.0001 195.333 12.0001C203.6 12.0001 204 12.1334 204 15.2001ZM29.4667 72.2667C41.3333 84.0001 55.6 91.8667 71.7333 95.7334L81.6 98.0001L80.6667 109.333C77.3333 150.8 61.4667 193.067 36.9333 225.067L31.6 232.133L22.1333 231.733L12.6667 231.333L12.4 142L12.1333 52.6667L15.6 57.3334C17.6 59.8667 23.7333 66.5334 29.4667 72.2667ZM347.333 230.4C346.933 231.6 344 232 337.067 231.733L327.467 231.333L319.733 220.667C310.133 207.467 294.667 176.667 289.467 160.4C284.667 145.733 280.533 124.8 279.333 109.333L278.4 98.0001L288.267 95.7334C308.933 90.8001 329.467 77.0667 342.267 59.6001L347.333 52.8001L347.733 140.667C347.867 189.067 347.733 229.467 347.333 230.4ZM132 116.933C128.133 146.533 117.867 170.4 98.4 195.067C82.1333 215.733 54 236.267 49.0667 231.2C48.5333 230.8 51.4667 225.6 55.4667 219.6C75.2 190 88.2667 152.8 92.1333 114.533L93.7333 98.9334L105.2 97.3334C111.467 96.5334 120.267 94.4001 124.667 92.9334L132.667 90.0001L133.067 98.0001C133.333 102.4 132.8 110.933 132 116.933ZM236.533 93.3334C240.8 94.8001 249.2 96.6667 255.2 97.4667L266.267 99.0667L267.867 114.533C271.733 152.667 285.2 190.8 305.333 220.667C308.933 226 311.467 230.8 311.067 231.2C305.067 237.2 269.733 208.667 254.267 185.6C240.8 165.467 232.267 144.133 228.667 122C226.533 108.8 226 90.6667 227.733 90.6667C228.4 90.6667 232.4 91.8667 236.533 93.3334ZM52 248.667V254.8L32.4 254.4L12.6667 254L12.2667 250.267C11.3333 242.8 11.6 242.667 32.6667 242.667H52V248.667ZM347.333 248.667V254L327.733 254.4L308 254.8V248.667V242.533L327.733 242.933L347.333 243.333V248.667ZM33.3333 276.667C43.2 292 52 317.733 52 332V336H42C35.0667 336 29.4667 336.933 24.2667 338.8C20.1333 340.267 15.6 341.867 14.4 342.267C12.1333 342.933 12 340.533 12 304.8V266.667H19.3333H26.6667L33.3333 276.667ZM65.2 276.667C81.3333 296.8 88.9333 314.667 92.5333 341.867L93.2 347.067L85.6 346.267C81.4667 345.733 74.9333 344.533 71.2 343.333L64.4 341.333L63.6 329.733C62.4 313.2 58.2667 298.933 50.2667 282.667C46.4 275.067 43.2 268.267 42.9333 267.733C42.6667 267.2 45.7333 266.667 49.7333 266.667H57.0667L65.2 276.667ZM317.067 267.6C316.8 268.267 313.467 274.933 309.733 282.667C301.867 298.533 297.467 314 296.4 330.267L295.6 341.333L288.8 343.333C285.067 344.533 278.667 345.733 274.533 346.267L267.067 347.067L268.267 337.467C270.8 316.267 279.733 295.6 294.133 277.6L302.8 266.667H310.267C314.267 266.667 317.333 267.067 317.067 267.6ZM348 304.8C348 340.533 347.867 342.933 345.733 342.267C344.4 341.867 339.867 340.267 335.733 338.8C330.533 336.933 324.933 336 318 336H308V332C308 317.733 316.8 292 326.667 276.667L333.333 266.667H340.667H348V304.8Z" fill="#ACACAC"/>
<path d="M215.733 34.4C213.6 35.6 212 37.3333 212 38.2667C212 39.2 215.6 43.7333 220 48.4C243.733 73.8667 282.8 76.2667 308.667 54L314 49.4667L309.733 45.2L305.6 40.9333L300.267 45.2C297.333 47.4667 291.333 51.0667 287.067 53.0667C280.4 56.1333 277.733 56.6667 266.667 56.6667C254.933 56.6667 253.2 56.2667 245.067 52.2667C239.2 49.3333 233.867 45.3333 228.8 40C224.8 35.6 220.933 32 220.4 32C219.867 32 217.733 33.0667 215.733 34.4Z" fill="#ACACAC"/>
</svg>
