<svg width="414" height="414" viewBox="0 0 414 414" fill="none" xmlns="http://www.w3.org/2000/svg">
<path d="M200 31.9999V64.1332L183.467 81.8666C154.267 112.933 135.2 129.467 109.333 145.333C95.8665 153.733 67.7332 167.733 55.5999 172.133L46.6665 175.333V187.6V200H39.8665H33.1999L33.5999 206.933L33.9999 214L41.9999 214.4L49.9999 214.8L64.5332 236.8C72.5332 248.8 79.3332 258.667 79.5999 258.667C79.9999 258.667 81.4665 257.333 82.7999 255.6L85.4665 252.667L84.6665 260C79.4665 306 64.9332 350.133 41.1999 390.933C36.6665 398.667 35.4665 399.867 31.5999 400.267C27.4665 400.667 27.3332 400.933 26.9332 406.933L26.5332 413.333H206.533H386.667V406.8V400.133L381.733 399.733C376.8 399.333 376.4 398.933 368.8 385.333C348.8 349.6 336 311.867 330.133 271.6C327.333 252.667 327.333 251.733 330.667 256C332.4 258.133 333.6 258.8 334.267 257.867C334.933 257.067 341.6 247.067 349.333 235.6L363.333 214.8L371.333 214.4L379.333 214L379.733 206.933L380.133 200H373.467H366.8L366.4 187.733L366 175.6L352.667 170C302.267 149.067 270 125.6 226.4 78.2666C214 64.7999 213.2 63.5999 213.6 58.9332L214 53.9999L246.267 53.3332L278.667 52.6666L270.667 40.6666C266.267 33.9999 262.667 27.8666 262.667 26.9332C262.667 25.9999 266.267 19.8666 270.667 13.3332C275.067 6.7999 278.667 1.06656 278.667 0.666565C278.667 0.266571 260.933 -9.15527e-05 239.333 -9.15527e-05H200V31.9999ZM252 15.7332C252 16.2666 250.533 18.7999 248.667 21.3332C246.8 23.8666 245.333 26.3999 245.333 26.9332C245.333 27.5999 246.8 30.3999 248.667 33.0666C250.533 35.7332 252 38.3999 252 38.9332C252 39.5999 243.333 39.9999 232.667 39.9999H213.333V27.3332V14.6666H232.667C243.333 14.6666 252 15.1999 252 15.7332ZM256.4 127.733C272.133 141.067 289.467 153.2 307.467 163.6C322.933 172.533 323.067 172.667 318.267 173.067L313.333 173.467V180V186.533L333.067 186.933L352.667 187.333L353.067 193.6L353.467 200H206.667H59.8665L60.2665 193.6L60.6665 187.333L180.4 186.933L300 186.667V180V173.333H287.6H275.2L263.067 160.933C242.8 140.4 234 128.4 224.8 109.2C214.267 87.3332 214.933 86.6666 231.2 103.6C238.933 111.733 250.4 122.667 256.4 127.733ZM195.2 93.5999C194.8 95.3332 192.267 101.2 189.733 106.667C181.2 125.333 170.933 139.6 151.467 159.6L138.267 173.333H113.467H88.6665L102 165.867C132 148.933 158.267 128.667 180.667 104.933C188 97.1999 194.533 90.7999 195.067 90.7999C195.733 90.6666 195.733 91.9999 195.2 93.5999ZM212.933 117.067C219.467 130.8 231.067 147.467 244 161.6C249.067 167.2 253.333 172.133 253.333 172.533C253.333 172.933 232 173.333 205.867 173.333H158.533L168 162.933C180.933 148.8 193.467 130.933 200.267 117.067C203.467 110.667 206.267 105.333 206.667 105.333C207.067 105.467 209.867 110.667 212.933 117.067ZM91.9999 215.6C91.9999 217.067 81.0665 233.333 79.9999 233.333C79.4665 233.333 76.2665 229.067 72.7999 224L66.6665 214.667H79.3332C86.2665 214.667 91.9999 215.067 91.9999 215.6ZM152 215.6C152 217.067 141.067 233.333 140 233.333C139.467 233.333 136.267 229.067 132.8 224L126.667 214.667H139.333C146.267 214.667 152 215.067 152 215.6ZM191.2 236.667C199.2 248.8 206.133 258.667 206.533 258.667C206.933 258.667 213.867 248.667 221.867 236.667L236.4 214.667H243.2H250L264.533 236.667C272.533 248.8 279.467 258.667 279.867 258.667C280.267 258.667 286.267 250.267 293.067 240C299.733 229.733 306 221.333 306.667 221.333C310 221.333 313.333 230 313.333 238.667C313.333 261.867 320.533 302.8 329.467 329.867C332.267 338.533 334.667 346 334.667 346.267C334.667 346.4 320.933 346.667 304 346.667H273.333V335.6C273.333 305.467 256.8 281.2 229.2 270.933C193.333 257.6 151.733 279.467 142 316.667C140.933 321.067 140 329.6 140 335.6V346.667H109.333C92.5332 346.667 78.6665 346.267 78.6665 345.6C78.6665 345.067 79.8665 341.333 81.3332 337.333C91.1999 310.267 99.9999 264 99.9999 238.8C99.9999 231.333 100.667 229.067 104.267 223.067C106.667 219.2 109.067 216 109.6 216C110.133 216 117.067 225.6 124.933 237.333C132.667 249.067 139.467 258.667 139.867 258.667C140.267 258.667 147.2 248.667 155.2 236.667C167.867 217.467 170.133 214.667 173.2 214.667C176.133 214.667 178.667 217.733 191.2 236.667ZM213.867 224C210.4 229.067 207.2 233.333 206.667 233.333C206.133 233.333 202.933 229.067 199.467 224L193.333 214.667H206.667H220L213.867 224ZM292 215.6C292 217.067 281.067 233.333 280 233.333C279.467 233.333 276.267 229.067 272.8 224L266.667 214.667H279.333C286.267 214.667 292 215.067 292 215.6ZM340.533 224C337.067 229.067 333.867 233.333 333.333 233.333C332.8 233.333 329.6 229.067 326.133 224L320 214.667H333.333H346.667L340.533 224ZM228.4 285.6C239.6 290.8 249.333 300.8 254.8 312.4L259.333 322L259.733 360.933L260.133 400H206.667H153.2L153.6 360.933C154.133 315.2 154.8 312.533 167.733 298.533C179.733 285.6 190 281.333 208 281.733C218.533 282 222 282.667 228.4 285.6ZM140 380.667V400H95.9999H52.1332L57.4665 390.267C60.3999 385.067 64.7999 376.267 67.3332 370.933L71.8665 361.333H105.867H140V380.667ZM350.133 379.467C355.2 389.467 359.6 398.133 359.733 398.8C360 399.467 341.2 400 316.8 400H273.333V380.667V361.333H307.067H340.8L350.133 379.467Z" fill="#ACACAC"/>
<path d="M80.2672 380.267L80.6672 387.333H86.6672H92.6672L93.0672 380.267L93.4672 373.333H86.6672H79.8672L80.2672 380.267Z" fill="#ACACAC"/>
<path d="M106.666 380.8V388.133L113.066 387.733L119.333 387.333L119.733 380.267L120.133 373.333H113.466H106.666V380.8Z" fill="#ACACAC"/>
<path d="M293.599 380.267L293.999 387.333H299.999H305.999L306.399 380.267L306.799 373.333H299.999H293.199L293.599 380.267Z" fill="#ACACAC"/>
<path d="M320.267 380.267L320.667 387.333H326.667H332.667L333.067 380.267L333.467 373.333H326.667H319.867L320.267 380.267Z" fill="#ACACAC"/>
<path d="M0 406.533V413.333H6.8H13.4667L13.0667 406.933L12.6667 400.667L6.4 400.267L0 399.867V406.533Z" fill="#ACACAC"/>
<path d="M400 406.667V413.333H406.667H413.333V406.667V400H406.667H400V406.667Z" fill="#ACACAC"/>
</svg>
