<svg width="359" height="360" viewBox="0 0 359 360" fill="none" xmlns="http://www.w3.org/2000/svg">
<path d="M164.4 2.19698C151.6 6.73032 143.866 13.6637 137.333 26.4637C132.666 35.397 132 52.4637 136 62.7303C139.866 73.1303 148.8 82.7303 159.6 88.0637C167.333 91.797 169.6 92.3303 179.2 92.3303C188 92.3303 191.333 91.6637 197.6 88.8637C207.6 84.197 216.4 75.9303 220.933 66.7303C226 56.197 226.8 40.8637 222.533 29.797C218.8 19.797 208.933 9.13032 198.933 4.19698C189.333 -0.469681 174.4 -1.40302 164.4 2.19698ZM190.8 13.797C204.666 18.597 213.333 31.1303 213.333 46.3303C213.333 77.6637 175.066 92.4637 154.266 69.1303C147.466 61.797 145.066 55.6637 145.066 46.197C145.066 22.4637 168.133 6.06365 190.8 13.797Z" fill="#ACACAC"/>
<path d="M171.6 24.4637C168.8 25.3971 165.2 27.2637 163.733 28.7304C160.267 31.7971 156 40.1971 156 43.7971C156 46.0637 156.8 46.4637 161.733 46.4637C166.667 46.4637 167.6 45.9304 169.333 42.1971C170.4 39.7971 173.2 36.9971 175.333 35.7971C178.667 33.9304 179.333 32.7304 179.333 28.4637C179.333 22.4637 178.4 21.9304 171.6 24.4637Z" fill="#ACACAC"/>
<path d="M87.3333 52.5971C73.7333 62.4638 48 90.1971 48 95.1304C48 96.7304 56.8 102.197 57.7333 101.13C70.5333 83.2638 81.2 72.0638 93.7333 63.1304C97.8667 60.1971 101.333 57.2638 101.333 56.7304C101.333 55.1304 96 47.7971 94.9333 47.7971C94.4 47.7971 91.0667 50.0638 87.3333 52.5971Z" fill="#ACACAC"/>
<path d="M260.134 51.6637C256.4 56.7304 256.667 58.0637 261.2 60.4637C266.8 63.2637 287.2 82.9971 294.4 92.3304C297.734 96.8637 300.667 100.73 300.934 101.13C301.734 102.064 310.667 96.7304 310.667 95.2637C310.667 92.4637 297.334 76.1971 287.067 66.3304C277.867 57.5304 265.467 47.7971 263.467 47.7971C263.2 47.7971 261.6 49.5304 260.134 51.6637Z" fill="#ACACAC"/>
<path d="M95.066 76.1971C86.3993 83.2638 66.666 105.13 66.666 107.664C66.666 108.064 68.9327 109.93 71.5993 111.664L76.5327 114.864L78.666 111.664C85.7327 100.864 108.399 78.4638 112.266 78.4638C113.999 78.4638 113.466 74.5971 111.199 71.1304C109.999 69.2638 108.266 67.7971 107.199 67.7971C106.266 67.7971 100.799 71.5304 95.066 76.1971Z" fill="#ACACAC"/>
<path d="M247.468 70.997C244.134 76.197 244.268 76.4636 252.934 82.997C261.734 89.6636 273.068 101.397 278.401 109.397L281.734 114.464L286.801 111.53C289.734 109.93 292.001 108.197 292.001 107.797C292.001 107.397 288.001 101.93 283.068 95.797C274.134 84.7303 254.934 67.797 251.468 67.797C250.401 67.797 248.668 69.2636 247.468 70.997Z" fill="#ACACAC"/>
<path d="M31.066 135.53C18.266 140.064 10.7993 146.73 3.86602 159.797C1.06602 164.997 0.666016 167.664 0.666016 179.13C0.666016 191.797 0.932682 192.864 5.19935 200.864C13.9993 216.997 27.5993 225.13 45.9994 225.13C59.9994 225.13 69.1994 221.397 78.7994 211.93C89.066 201.664 92.3994 192.597 91.7327 177.13C91.1994 163.664 87.866 155.53 78.9327 146.73C66.9327 134.597 46.7994 129.93 31.066 135.53ZM59.3327 147.664C72.5327 153.664 79.9994 165.13 79.9994 179.397C79.9994 189.53 77.866 194.997 71.3327 202.197C61.7327 212.864 45.466 216.73 33.066 211.264C9.46602 200.997 4.66602 168.597 24.1327 152.864C33.7327 145.13 48.9327 142.864 59.3327 147.664Z" fill="#ACACAC"/>
<path d="M22.666 181.797C22.666 190.864 34.666 202.464 44.1327 202.464C46.266 202.464 46.666 201.53 46.666 197.13C46.666 192.464 46.1327 191.664 42.1327 189.797C39.466 188.597 36.9327 185.93 35.9993 183.664C34.5327 180.197 33.7327 179.797 28.5327 179.797C24.1327 179.797 22.666 180.33 22.666 181.797Z" fill="#ACACAC"/>
<path d="M295.599 136.33C285.733 140.464 279.733 145.13 274.666 152.464C268.799 160.997 266.666 168.064 266.666 179.264C266.666 197.13 275.466 212.064 290.933 220.464C296.933 223.797 299.866 224.464 309.999 224.864C325.333 225.53 334.133 222.464 343.733 213.397C353.333 204.33 357.599 194.997 358.399 181.797C359.066 167.53 355.866 158.597 345.866 147.93C336.533 137.93 328.399 134.197 313.999 133.53C304.933 133.13 302.133 133.53 295.599 136.33ZM322.933 146.464C330.533 148.597 338.799 155.664 342.933 163.664C354.533 185.797 338.266 213.397 313.333 213.664C303.199 213.664 296.533 211.13 289.199 204.197C262.533 179.264 287.599 136.73 322.933 146.464Z" fill="#ACACAC"/>
<path d="M312.933 156.73C312.4 157.13 312 159.664 312 162.33C312 166.464 312.667 167.397 316.4 169.13C318.8 170.197 321.6 172.997 322.667 175.397C324.4 179.264 325.2 179.797 330.4 179.797C336.933 179.797 337.467 178.33 333.467 169.797C330.533 163.397 327.6 160.597 320.933 157.797C315.6 155.53 314.133 155.397 312.933 156.73Z" fill="#ACACAC"/>
<path d="M87.2 218.73C82.4 223.264 80.2667 229.264 81.0667 236.197C81.3333 238.73 84.8 243.397 90.9333 249.93L100.4 259.797H82.6667H64.9333L47.4667 247.397C26.1333 232.064 25.6 231.797 18.4 231.797C7.73333 231.797 0 239.53 0 250.064C0.133333 256.997 1.2 258.597 18.6667 277.397C49.0667 310.197 47.4667 309.13 80.6667 313.797C104.267 317.13 110 318.997 113.2 323.93C117.2 330.464 120.533 341.264 121.2 349.797L122 359.13H127.333C132.667 359.13 132.667 359.13 133.067 353.397L133.467 347.797H147.333H161.2L161.6 353.397C162 359.13 162 359.13 167.333 359.13H172.667V317.797V276.464L168.4 267.797C166.133 262.997 162.533 257.264 160.4 254.864C156.933 250.997 114.4 219.264 108.267 215.93C106.8 215.13 102.4 214.464 98.8 214.464C92.9333 214.464 91.3333 215.13 87.2 218.73ZM127.067 244.064C151.867 262.33 157.067 267.664 160 278.464C160.667 280.997 161.333 294.997 161.333 309.397V335.797H146.8C130.667 335.797 131.067 335.93 127.333 325.93C124.4 317.93 117.733 310.33 111.067 307.397C108.267 306.197 95.7333 303.664 83.3333 301.93C68.8 299.93 58.8 297.93 55.6 296.197C48.8 292.73 12 253.53 12 249.797C12 246.064 14.4 243.797 18.4 243.797C20.4 243.797 29.3333 249.264 41.3333 257.797L61.0667 271.797H86.5333H112L117.2 276.464C120 278.997 122.8 281.13 123.467 281.13C125.067 281.13 130.667 275.53 130.667 273.93C130.667 273.13 122.533 264.33 112.533 254.464C102.667 244.597 94 235.53 93.4667 234.464C92.8 233.397 92.8 231.13 93.4667 229.397C94.2667 227.264 95.6 226.464 98.8 226.464C102 226.464 108.267 230.33 127.067 244.064Z" fill="#ACACAC"/>
<path d="M247.467 217.797C244.8 219.53 232.8 228.197 220.933 236.997C198.8 253.13 194.8 257.397 189.067 269.797C186.133 276.33 186 277.53 186 317.797V359.13L189.733 359.53C194.8 360.197 197.333 357.664 197.333 352.33V347.797H211.2H225.2L225.6 353.397C226 359.13 226 359.13 231.333 359.13H236.667L237.467 349.797C238.4 337.664 242.8 326.464 248.8 321.264C251.333 318.997 253.867 317.13 254.4 317.13C254.933 317.13 265.733 315.664 278.533 313.797C293.867 311.664 303.733 309.53 307.6 307.664C312.933 305.13 326.4 292.064 348.267 268.464C357.2 258.864 358.667 256.064 358.667 249.797C358.667 239.397 350.8 231.797 340.267 231.797C333.067 231.797 332.533 232.064 311.2 247.397L293.733 259.797H275.867H258.133L266.267 251.397C276.133 241.397 277.333 239.13 277.333 230.997C277.333 225.53 276.667 224.197 272.133 219.664C267.467 214.864 266.4 214.464 259.733 214.464C254.133 214.464 251.2 215.264 247.467 217.797ZM265.467 230.597C266.8 233.13 264.933 235.397 247.467 252.997C236.8 263.797 228 273.13 228 273.797C228 275.53 233.6 281.13 235.333 281.13C236.133 281.13 238.8 278.997 241.333 276.464L245.867 271.797H271.733H297.6L317.333 257.797C329.733 248.997 338.267 243.797 340.4 243.797C344.4 243.797 347.067 246.73 346.4 250.33C346.133 251.797 337.333 262.33 326.8 273.664C311.867 289.664 306.267 294.864 301.467 296.864C298.133 298.33 285.6 300.73 273.467 302.33C243.6 306.33 238.667 309.264 230.8 326.73L226.8 335.797H212H197.333V308.064C197.467 268.997 197.333 268.997 231.733 244.064C244.667 234.597 256.267 226.597 257.333 226.197C260 225.264 263.6 227.264 265.467 230.597Z" fill="#ACACAC"/>
</svg>
