<svg width="513" height="63" viewBox="0 0 513 63" fill="none" xmlns="http://www.w3.org/2000/svg">
<path fill-rule="evenodd" clip-rule="evenodd" d="M82.903 31.4407C80.8139 29.3516 77.9274 28.0591 74.739 28.0591C71.5505 28.0591 68.6637 29.3516 66.5749 31.4407C64.4858 33.5298 63.1934 36.4163 63.1934 39.6047C63.1934 42.7931 64.4858 45.68 66.5749 47.7683C68.6641 49.8574 71.5505 51.1499 74.739 51.1499C77.9274 51.1499 80.8143 49.8574 82.9026 47.7687C84.9917 45.6796 86.2842 42.7931 86.2842 39.6047C86.2842 36.4163 84.9917 33.5294 82.903 31.4407Z" fill="#D03438"/>
<path fill-rule="evenodd" clip-rule="evenodd" d="M13.1895 39.7932C13.1895 42.7412 14.2896 45.2804 16.4904 47.3965C18.6624 49.5265 21.244 50.5846 24.2205 50.5846C27.2248 50.5846 29.8067 49.5265 31.993 47.3965C34.1935 45.2804 35.2936 42.7412 35.2936 39.7932C35.2936 37.8747 34.7861 36.1112 33.77 34.5033C32.7405 32.8808 31.3861 31.5834 29.6796 30.624C27.9869 29.6646 26.1667 29.1706 24.2205 29.1706C22.316 29.1706 20.5104 29.6646 18.8039 30.624C17.0966 31.5834 15.7283 32.8808 14.713 34.5033C13.6973 36.1112 13.1895 37.8747 13.1895 39.7932ZM74.7387 24.2798C78.9702 24.2798 82.8018 25.9957 85.575 28.7686C88.3475 31.5414 90.0634 35.3734 90.0634 39.6049C90.0634 43.8364 88.3475 47.668 85.5747 50.4413C82.8022 53.2137 78.9702 54.9297 74.7387 54.9297C70.5072 54.9297 66.6756 53.2137 63.9023 50.4409C61.1295 47.6684 59.4136 43.8364 59.4136 39.6049C59.4136 35.3734 61.1295 31.5418 63.9023 28.7686C66.6752 25.9957 70.5072 24.2798 74.7387 24.2798ZM0 2.27027L13.1895 2.22826V19.6774L14.1347 19.2539L15.0795 18.8451C18.056 17.7728 21.103 17.2368 24.2205 17.2368C27.3519 17.2368 30.4128 17.7728 33.3897 18.8451C36.2815 19.9174 38.8912 21.4972 41.2042 23.599C43.4898 25.6585 45.2673 28.0706 46.5369 30.8355C47.8342 33.6144 48.4834 36.6052 48.4834 39.7928C48.4834 43.0795 47.8488 46.0841 46.5792 48.8067C45.3093 51.529 43.518 53.9556 41.2046 56.0856C38.863 58.2014 36.2533 59.7811 33.3901 60.8396C30.498 61.9678 27.4371 62.5319 24.2209 62.5319C20.0029 62.5319 16.025 61.5304 12.2728 59.5553C8.5207 57.5945 5.55807 54.9004 3.34369 51.4442C1.14282 48.0589 0.0284961 44.2782 0.000366274 40.0887V2.26989L0 2.27027ZM74.7635 62.5326C70.5455 62.5326 66.5675 61.5312 62.8154 59.5561C59.0633 57.5671 56.1006 54.8588 53.8862 51.4168C51.6576 47.9325 50.5429 44.0532 50.5429 39.7508C50.5429 36.5343 51.1918 33.5296 52.4899 30.7511C53.7872 27.958 55.565 25.5599 57.8222 23.5147C60.1074 21.4552 62.7025 19.8612 65.6228 18.7607C68.5993 17.6607 71.6463 17.1101 74.7638 17.1101C77.8952 17.1101 80.9561 17.6603 83.933 18.7607C86.8248 19.8045 89.4344 21.3843 91.7475 23.4723C94.0331 25.5741 95.8105 27.9862 97.0801 30.7511C98.3775 33.53 99.0267 36.5346 99.0267 39.7508C99.0267 43.0375 98.3921 46.0421 97.1225 48.7647C95.8526 51.5155 94.0612 53.956 91.7479 56.086C89.4063 58.174 86.7966 59.7537 83.9334 60.8399C81.0413 61.9681 77.9804 62.5322 74.7642 62.5322L74.7635 62.5326ZM133.657 31.6115C132.472 30.6244 131.174 29.8769 129.764 29.3829C128.311 28.8893 126.759 28.6354 125.137 28.6354C122.104 28.6354 119.551 29.623 117.449 31.5695C115.333 33.5304 114.275 35.9567 114.275 38.8484C114.275 41.1056 114.726 43.1365 115.629 44.9282C116.518 46.7195 117.83 48.1305 119.565 49.1739C121.244 50.2601 123.176 50.7965 125.391 50.7965C128.635 50.7965 131.414 49.7527 133.742 47.6932L140.964 56.862C139.92 57.9624 138.453 58.95 136.591 59.7965C134.687 60.6569 132.726 61.2915 130.723 61.7007C128.706 62.1099 126.844 62.3214 125.137 62.3214C120.341 62.3214 116.109 61.3204 112.455 59.3029C108.787 57.2719 105.98 54.5914 104.02 51.2908C102.059 47.9336 101.085 44.3363 101.085 40.4994C101.085 37.0012 101.678 33.827 102.863 30.9916C104.076 28.0998 105.741 25.6173 107.856 23.5578C109.958 21.5407 112.512 19.9609 115.502 18.8038C118.479 17.6753 121.695 17.1112 125.137 17.1112C127.944 17.1112 130.695 17.5485 133.361 18.4374C136.069 19.3398 138.439 20.624 140.513 22.2739L133.657 31.6123V31.6115ZM153.124 34.4189C154.14 32.7964 155.508 31.499 157.215 30.5396C158.922 29.6083 160.727 29.1286 162.632 29.1286C164.578 29.1286 166.398 29.6083 168.091 30.5396C169.798 31.499 171.152 32.7964 172.181 34.4189C173.197 36.0549 173.705 37.8327 173.705 39.7512C173.705 42.6711 172.605 45.196 170.404 47.326C168.217 49.414 165.636 50.4578 162.632 50.4578C159.655 50.4578 157.074 49.414 154.902 47.326C152.701 45.196 151.601 42.6711 151.601 39.7512C151.601 37.8327 152.108 36.0553 153.124 34.4189ZM173.747 61.1644L186.852 61.2915L186.895 39.7512C186.895 36.5346 186.246 33.53 184.948 30.7515C183.678 28.0432 181.887 25.645 179.574 23.557C177.373 21.5114 174.777 19.9455 171.801 18.8455C168.824 17.7454 165.763 17.1948 162.632 17.1948C159.458 17.1948 156.397 17.7589 153.449 18.8875C150.501 19.9598 147.919 21.5111 145.69 23.5567C143.433 25.5876 141.656 27.9858 140.358 30.7511C139.06 33.53 138.411 36.5346 138.411 39.7508C138.411 44.025 139.526 47.904 141.754 51.3744C143.969 54.7883 146.931 57.4824 150.684 59.4713C154.436 61.4322 158.414 62.4054 162.632 62.4054C165.82 62.4054 168.881 61.8417 171.801 60.7132C172.224 60.5718 172.859 60.304 173.747 59.9233V61.1644ZM210.65 17.3925C209.775 17.2653 208.872 17.1809 207.969 17.1524H207.222C195.048 17.7589 188.954 24.0788 188.954 36.1258V61.1644H202.186V36.1258C202.186 31.5692 203.864 29.2276 207.222 29.1009H207.969C209.07 29.1432 209.959 29.411 210.65 29.8769V17.3929L210.65 17.3925ZM234.419 17.3925C233.544 17.2653 232.641 17.1809 231.738 17.1524H230.99C218.817 17.7589 212.723 24.0788 212.723 36.1258V61.1644H225.955V36.1258C225.955 31.5692 227.633 29.2276 230.991 29.1009H231.738C232.839 29.1432 233.728 29.411 234.419 29.8769V17.3929L234.419 17.3925ZM251.205 34.4189C252.221 32.7964 253.589 31.499 255.296 30.5396C257.003 29.6083 258.808 29.1286 260.712 29.1286C262.659 29.1286 264.479 29.6083 266.172 30.5396C267.878 31.499 269.232 32.7964 270.262 34.4189C271.278 36.0549 271.785 37.8327 271.785 39.7512C271.785 42.6711 270.685 45.196 268.485 47.326C266.298 49.414 263.717 50.4578 260.712 50.4578C257.736 50.4578 255.154 49.414 252.982 47.326C250.782 45.196 249.681 42.6711 249.681 39.7512C249.681 37.8327 250.189 36.0553 251.205 34.4189ZM271.828 61.1644L284.933 61.2915L284.975 39.7512C284.975 36.5346 284.326 33.53 283.029 30.7515C281.759 28.0432 279.967 25.645 277.654 23.557C275.454 21.5114 272.858 19.9455 269.882 18.8455C266.905 17.7454 263.844 17.1948 260.713 17.1948C257.539 17.1948 254.478 17.7589 251.529 18.8875C248.581 19.9598 246 21.5111 243.771 23.5567C241.514 25.5876 239.737 27.9858 238.439 30.7511C237.141 33.53 236.492 36.5346 236.492 39.7508C236.492 44.025 237.607 47.904 239.835 51.3744C242.05 54.7883 245.012 57.4824 248.764 59.4713C252.517 61.4322 256.494 62.4054 260.712 62.4054C263.9 62.4054 266.961 61.8417 269.882 60.7132C270.305 60.5718 270.94 60.304 271.828 59.9233V61.1644ZM330.595 31.6115C329.41 30.6244 328.112 29.8769 326.702 29.3829C325.249 28.8893 323.697 28.6354 322.075 28.6354C319.042 28.6354 316.489 29.623 314.387 31.5695C312.271 33.5304 311.213 35.9567 311.213 38.8484C311.213 41.1056 311.664 43.1365 312.567 44.9282C313.456 46.7195 314.768 48.1305 316.503 49.1739C318.182 50.2601 320.114 50.7965 322.329 50.7965C325.573 50.7965 328.352 49.7527 330.68 47.6932L337.902 56.862C336.858 57.9624 335.392 58.95 333.529 59.7965C331.625 60.6569 329.664 61.2915 327.661 61.7007C325.644 62.1099 323.782 62.3214 322.075 62.3214C317.279 62.3214 313.047 61.3204 309.393 59.3029C305.725 57.2719 302.918 54.5914 300.958 51.2908C298.997 47.9336 298.023 44.3363 298.023 40.4994C298.023 37.0012 298.616 33.827 299.801 30.9916C301.014 28.0998 302.679 25.6173 304.795 23.5578C306.896 21.5407 309.45 19.9609 312.44 18.8038C315.417 17.6753 318.633 17.1112 322.075 17.1112C324.882 17.1112 327.633 17.5485 330.299 18.4374C333.007 19.3398 335.377 20.624 337.451 22.2739L330.595 31.6123V31.6115ZM353.659 18.8879V61.2491H340.47V18.9303L353.659 18.8879ZM353.701 6.89743C353.701 8.22366 353.391 9.39461 352.784 10.4103C352.178 11.4398 351.36 12.2582 350.301 12.8932C349.258 13.5278 348.101 13.8526 346.831 13.8526C345.562 13.8526 344.419 13.5424 343.403 12.9356C342.36 12.3006 341.528 11.4683 340.921 10.4107C340.286 9.3106 339.976 8.13965 339.976 6.89781C339.976 5.62822 340.272 4.47189 340.878 3.42771C341.541 2.3554 342.388 1.50926 343.403 0.902782C344.419 0.310556 345.561 0 346.831 0C348.101 0 349.257 0.310556 350.301 0.902782C351.331 1.50926 352.149 2.35578 352.784 3.42771C353.39 4.47152 353.701 5.62822 353.701 6.89781L353.701 6.89743ZM377.456 17.3929C376.582 17.2657 375.679 17.1813 374.776 17.1528H374.028C361.855 17.7593 355.761 24.0791 355.761 36.1262V61.1647H368.993V36.1262C368.993 31.5695 370.671 29.228 374.029 29.1012H374.776C375.877 29.1436 376.766 29.4114 377.457 29.8772V17.3932L377.456 17.3929ZM412.102 31.6119C410.917 30.6248 409.619 29.8773 408.208 29.3833C406.755 28.8897 405.204 28.6358 403.582 28.6358C400.548 28.6358 397.995 29.6233 395.893 31.5699C393.777 33.5308 392.719 35.957 392.719 38.8488C392.719 41.1059 393.171 43.1369 394.074 44.9286C394.962 46.7199 396.274 48.1309 398.009 49.1743C399.688 50.2605 401.621 50.7968 403.835 50.7968C407.08 50.7968 409.859 49.753 412.186 47.6936L419.409 56.8624C418.365 57.9628 416.898 58.9504 415.036 59.7969C413.131 60.6573 411.17 61.2919 409.167 61.7011C407.15 62.1103 405.288 62.3218 403.581 62.3218C398.785 62.3218 394.553 61.3208 390.9 59.3033C387.232 57.2723 384.425 54.5917 382.464 51.2912C380.503 47.934 379.53 44.3367 379.53 40.4998C379.53 37.0016 380.122 33.8274 381.307 30.9919C382.52 28.1002 384.185 25.6176 386.301 23.5582C388.403 21.5411 390.956 19.9613 393.947 18.8042C396.923 17.6757 400.139 17.1116 403.581 17.1116C406.388 17.1116 409.139 17.5489 411.805 18.4378C414.514 19.3402 416.883 20.6244 418.957 22.2743L412.102 31.6127V31.6119ZM439.75 50.4581C436.393 50.3453 434.714 48.0176 434.714 43.4756V18.8459H421.482V43.4756C421.482 55.466 427.576 61.7855 439.749 62.4486H440.497C452.671 61.7855 458.765 55.4664 458.765 43.4756V18.8459H445.533V43.4756C445.533 48.018 443.854 50.3453 440.497 50.4581H439.749H439.75ZM467.525 47.8623C470.135 50.472 473.337 51.784 477.104 51.784C481.053 51.784 483.014 50.6273 483.014 48.3139C483.014 47.1006 481.928 46.1978 479.755 45.6194C478.204 45.2669 475.763 44.6462 472.392 43.7715C469.67 43.0518 467.37 41.7259 465.494 39.7936C463.646 37.9029 462.729 34.9834 462.729 31.0336C462.729 28.0008 463.491 25.4474 465 23.3455C466.538 21.2575 468.541 19.7063 470.995 18.7187C473.492 17.703 476.243 17.1952 479.219 17.1952C480.898 17.1952 482.605 17.421 484.34 17.9003C486.216 18.479 487.895 19.1842 489.376 20.0446C491.012 20.9473 492.437 21.9773 493.678 23.1058L486.414 30.3281C484.284 28.7341 481.97 27.9438 479.459 27.9438C476.455 27.9438 474.959 28.7761 474.959 30.4549C474.959 31.9784 476.074 33.0364 478.302 33.6429C480.757 34.306 483.225 34.9264 485.708 35.5047C488.431 36.1821 490.702 37.4517 492.522 39.2992C494.37 41.1753 495.286 44.1237 495.286 48.144C495.286 51.1486 494.496 53.7441 492.888 55.9165C491.294 58.117 489.164 59.7534 486.484 60.8396C483.818 61.9678 481.053 62.5319 478.176 62.5319C475.792 62.5319 473.619 62.3346 471.701 61.9535C469.768 61.5871 467.962 60.9802 466.284 60.1337C464.549 59.2733 462.73 58.1308 460.825 56.706L467.525 47.8612V47.8623Z" fill="#FEFEFE"/>
<path fill-rule="evenodd" clip-rule="evenodd" d="M497.359 54.6331C497.359 53.2787 497.698 52.0515 498.389 50.9514C499.109 49.7947 500.025 48.9058 501.168 48.2712C502.325 47.6081 503.552 47.2837 504.836 47.2837C506.134 47.2837 507.361 47.6085 508.518 48.2712C509.646 48.9625 510.563 49.8649 511.24 50.9934C511.931 52.0935 512.284 53.3068 512.284 54.6327C512.284 56.8336 511.564 58.6534 510.125 60.0918C508.672 61.5451 506.909 62.2788 504.836 62.2788C503.467 62.2788 502.212 61.954 501.083 61.2912C499.927 60.6281 499.01 59.6972 498.347 58.512C497.683 57.3133 497.359 56.0152 497.359 54.6327V54.6331Z" fill="#D03438"/>
</svg>
