<svg width="514" height="63" viewBox="0 0 514 63" fill="none" xmlns="http://www.w3.org/2000/svg">
<path fill-rule="evenodd" clip-rule="evenodd" d="M83.833 31.7795C81.744 29.6905 78.8571 28.3979 75.6688 28.3979C72.4805 28.3979 69.5936 29.6905 67.5046 31.7795C65.4156 33.8685 64.123 36.7554 64.123 39.9437C64.123 43.132 65.4156 46.0189 67.5046 48.1075C69.5936 50.1965 72.4805 51.4891 75.6688 51.4891C78.8571 51.4891 81.7441 50.1965 83.8327 48.1075C85.9216 46.0189 87.2142 43.132 87.2142 39.9437C87.2142 36.7558 85.9216 33.8685 83.833 31.7795Z" fill="#D03438"/>
<path fill-rule="evenodd" clip-rule="evenodd" d="M14.119 40.1317C14.119 43.0799 15.219 45.6189 17.42 47.7351C19.5921 49.8653 22.1735 50.9231 25.15 50.9231C28.1546 50.9231 30.7363 49.8653 32.9225 47.7351C35.123 45.6189 36.2231 43.0799 36.2231 40.1317C36.2231 38.2133 35.7156 36.4495 34.6995 34.842C33.6701 33.2192 32.3159 31.9218 30.6088 30.9627C28.9162 30.0033 27.0961 29.5094 25.1497 29.5094C23.2452 29.5094 21.4399 30.0033 19.7328 30.9627C18.0258 31.9221 16.6576 33.2196 15.6418 34.842C14.6265 36.4499 14.119 38.2133 14.119 40.1317ZM75.668 24.6183C79.8997 24.6183 83.7312 26.334 86.5043 29.1071C89.277 31.8802 90.9928 35.7117 90.9928 39.9434C90.9928 44.1743 89.2774 48.0063 86.504 50.7794C83.7309 53.5528 79.8989 55.2682 75.668 55.2682C71.4363 55.2682 67.6048 53.5524 64.8317 50.7794C62.0582 48.0063 60.3428 44.1743 60.3428 39.9434C60.3428 35.7117 62.0586 31.8802 64.8317 29.1071C67.6048 26.334 71.4363 24.6183 75.668 24.6183ZM0.929688 2.60867L14.119 2.56668V20.016L15.0644 19.5928L16.0094 19.184C18.9859 18.1119 22.0328 17.5757 25.1504 17.5757C28.2816 17.5757 31.3429 18.1115 34.3194 19.184C37.2112 20.2561 39.821 21.8361 42.1338 23.9379C44.4195 25.9974 46.1968 28.4094 47.4663 31.1745C48.7638 33.9533 49.4127 36.9438 49.4127 40.1321C49.4127 43.4187 48.7782 46.4236 47.5087 49.1461C46.2388 51.8685 44.4474 54.2948 42.1338 56.425C39.7922 58.5408 37.1825 60.1204 34.3194 61.1789C31.4272 62.307 28.3663 62.8712 25.1504 62.8712C20.9324 62.8712 16.9544 61.8694 13.2023 59.8946C9.45012 57.9339 6.48759 55.2398 4.27305 51.7834C2.07213 48.398 0.95805 44.6175 0.929688 40.4278V2.60867ZM75.693 62.8708C71.4749 62.8708 67.497 61.8691 63.7448 59.8943C59.9927 57.9055 57.0301 55.1971 54.8156 51.755C52.5867 48.2706 51.4722 44.3914 51.4722 40.089C51.4722 36.8727 52.1212 33.8678 53.419 31.089C54.7165 28.2959 56.4939 25.898 58.7512 23.8525C61.0364 21.793 63.6318 20.1986 66.5516 19.0986C69.5281 17.9985 72.575 17.4479 75.6926 17.4479C78.8238 17.4479 81.885 17.9981 84.8616 19.0986C87.7534 20.1423 90.3631 21.7223 92.676 23.8101C94.9616 25.912 96.739 28.3239 98.0085 31.089C99.306 33.8678 99.9549 36.8723 99.9549 40.089C99.9549 43.3756 99.3204 46.3805 98.0509 49.103C96.781 51.8537 94.9896 54.294 92.676 56.4242C90.3344 58.5121 87.7247 60.0921 84.8616 61.1782C81.9694 62.3062 78.9089 62.8708 75.693 62.8708ZM134.587 31.9497C133.402 30.9624 132.104 30.2151 130.693 29.7208C129.24 29.2273 127.688 28.9732 126.066 28.9732C123.034 28.9732 120.48 29.961 118.378 31.9074C116.262 33.8682 115.204 36.2945 115.204 39.1863C115.204 41.4436 115.656 43.4747 116.559 45.2661C117.447 47.0575 118.759 48.4684 120.494 49.5121C122.173 50.5982 124.106 51.1348 126.32 51.1348C129.564 51.1348 132.343 50.0911 134.671 48.0316L141.893 57.2002C140.85 58.3007 139.383 59.2881 137.521 60.1348C135.616 60.9951 133.655 61.6301 131.653 62.0389C129.635 62.448 127.773 62.6594 126.066 62.6594C121.27 62.6594 117.038 61.658 113.385 59.6409C109.717 57.6098 106.91 54.9293 104.949 51.6287C102.989 48.2714 102.015 44.6743 102.015 40.8374C102.015 37.339 102.608 34.165 103.793 31.3296C105.005 28.4377 106.67 25.9551 108.786 23.8956C110.888 21.8785 113.441 20.2985 116.432 19.1417C119.408 18.0132 122.625 17.449 126.067 17.449C128.874 17.449 131.625 17.8862 134.291 18.7752C136.999 19.6779 139.369 20.9618 141.443 22.6117L134.587 31.9497ZM154.053 34.7572C155.069 33.1345 156.437 31.8371 158.144 30.878C159.851 29.9466 161.657 29.4671 163.561 29.4671C165.508 29.4671 167.327 29.9466 169.02 30.878C170.727 31.8374 172.081 33.1349 173.111 34.7572C174.127 36.3936 174.635 38.1709 174.635 40.0894C174.635 43.0096 173.535 45.5342 171.334 47.6644C169.147 49.7523 166.566 50.796 163.562 50.796C160.585 50.796 158.003 49.7523 155.831 47.6644C153.631 45.5342 152.53 43.0096 152.53 40.0894C152.53 38.1709 153.038 36.3936 154.053 34.7572ZM174.677 61.5026L187.781 61.6297L187.824 40.0894C187.824 36.8731 187.175 33.8682 185.877 31.0894C184.608 28.381 182.816 25.9831 180.503 23.8952C178.302 21.8497 175.706 20.2837 172.73 19.1836C169.753 18.0836 166.692 17.533 163.561 17.533C160.387 17.533 157.326 18.0972 154.378 19.2256C151.43 20.2977 148.848 21.8493 146.62 23.8948C144.362 25.926 142.585 28.3239 141.288 31.089C139.99 33.8678 139.341 36.8723 139.341 40.089C139.341 44.3634 140.455 48.2422 142.684 51.7127C144.899 55.1264 147.861 57.8208 151.613 59.8096C155.366 61.7703 159.344 62.7437 163.562 62.7437C166.75 62.7437 169.811 62.1799 172.731 61.0515C173.153 60.91 173.788 60.6423 174.677 60.2615L174.677 61.5026ZM211.579 17.7307C210.704 17.6037 209.801 17.519 208.898 17.4906H208.151C195.977 18.0972 189.883 24.4171 189.883 36.4639V61.5026H203.115V36.4639C203.115 31.9074 204.793 29.5658 208.15 29.4387H208.898C209.998 29.4811 210.887 29.7492 211.578 30.2147L211.579 17.7307ZM235.348 17.7307C234.473 17.6037 233.571 17.519 232.667 17.4906H231.92C219.746 18.0972 213.652 24.4171 213.652 36.4639V61.5026H226.884V36.4639C226.884 31.9074 228.562 29.5658 231.919 29.4387H232.667C233.768 29.4811 234.656 29.7492 235.348 30.2147L235.348 17.7307ZM252.134 34.7572C253.15 33.1345 254.518 31.8371 256.225 30.878C257.932 29.9466 259.738 29.4671 261.642 29.4671C263.589 29.4671 265.408 29.9466 267.101 30.878C268.808 31.8374 270.162 33.1349 271.192 34.7572C272.208 36.3936 272.716 38.1709 272.716 40.0894C272.716 43.0096 271.615 45.5342 269.415 47.6644C267.228 49.7523 264.647 50.796 261.643 50.796C258.666 50.796 256.084 49.7523 253.912 47.6644C251.711 45.5342 250.611 43.0096 250.611 40.0894C250.611 38.1709 251.119 36.3936 252.134 34.7572ZM272.758 61.5026L285.862 61.6297L285.904 40.0894C285.904 36.8731 285.255 33.8682 283.958 31.0894C282.689 28.381 280.897 25.9831 278.584 23.8952C276.383 21.8497 273.787 20.2837 270.811 19.1836C267.834 18.0836 264.773 17.533 261.642 17.533C258.468 17.533 255.407 18.0972 252.459 19.2256C249.511 20.2977 246.929 21.8493 244.701 23.8948C242.443 25.926 240.666 28.3239 239.369 31.089C238.071 33.8678 237.422 36.8723 237.422 40.089C237.422 44.3634 238.536 48.2422 240.765 51.7127C242.98 55.1264 245.942 57.8208 249.694 59.8096C253.447 61.7703 257.424 62.7437 261.643 62.7437C264.83 62.7437 267.892 62.1799 270.811 61.0515C271.234 60.91 271.869 60.6423 272.758 60.2615L272.758 61.5026ZM331.524 31.9497C330.34 30.9624 329.042 30.2151 327.631 29.7208C326.178 29.2273 324.626 28.9732 323.004 28.9732C319.971 28.9732 317.418 29.961 315.316 31.9074C313.2 33.8682 312.142 36.2945 312.142 39.1863C312.142 41.4436 312.593 43.4747 313.497 45.2661C314.385 47.0575 315.697 48.4684 317.432 49.5121C319.111 50.5982 321.044 51.1348 323.258 51.1348C326.502 51.1348 329.281 50.0911 331.609 48.0316L338.831 57.2002C337.788 58.3007 336.321 59.2881 334.459 60.1348C332.554 60.9951 330.593 61.6301 328.591 62.0389C326.573 62.448 324.711 62.6594 323.004 62.6594C318.208 62.6594 313.976 61.658 310.323 59.6409C306.655 57.6098 303.848 54.9293 301.887 51.6287C299.926 48.2714 298.953 44.6743 298.953 40.8374C298.953 37.339 299.546 34.165 300.73 31.3296C301.943 28.4377 303.608 25.9551 305.724 23.8956C307.826 21.8785 310.379 20.2985 313.37 19.1417C316.346 18.0132 319.563 17.449 323.005 17.449C325.812 17.449 328.563 17.8862 331.229 18.7752C333.937 19.6779 336.307 20.9618 338.381 22.6117L331.524 31.9497ZM354.588 19.226V61.5873H341.399V19.2684L354.588 19.226ZM354.631 7.23552C354.631 8.56174 354.32 9.73254 353.714 10.7483C353.107 11.7777 352.289 12.596 351.231 13.2309C350.188 13.8655 349.03 14.1904 347.761 14.1904C346.491 14.1904 345.349 13.8799 344.333 13.2733C343.289 12.6384 342.457 11.806 341.851 10.7483C341.216 9.64821 340.905 8.47703 340.905 7.23552C340.905 5.96602 341.202 4.80959 341.808 3.76547C342.471 2.69337 343.317 1.84704 344.333 1.24046C345.349 0.648254 346.491 0.337402 347.761 0.337402C349.03 0.337402 350.187 0.648254 351.231 1.24046C352.261 1.84704 353.079 2.69337 353.714 3.76547C354.32 4.80921 354.631 5.96602 354.631 7.23552ZM378.386 17.7307C377.511 17.6037 376.609 17.519 375.705 17.4906H374.958C362.784 18.0972 356.69 24.4171 356.69 36.4639V61.5026H369.922V36.4639C369.922 31.9074 371.6 29.5658 374.957 29.4387H375.705C376.806 29.4811 377.694 29.7492 378.386 30.2147L378.386 17.7307ZM413.031 31.9497C411.846 30.9624 410.548 30.2151 409.138 29.7208C407.684 29.2273 406.133 28.9732 404.511 28.9732C401.478 28.9732 398.924 29.961 396.823 31.9074C394.706 33.8682 393.649 36.2945 393.649 39.1863C393.649 41.4436 394.1 43.4747 395.003 45.2661C395.892 47.0575 397.203 48.4684 398.938 49.5121C400.617 50.5982 402.55 51.1348 404.764 51.1348C408.009 51.1348 410.787 50.0911 413.115 48.0316L420.338 57.2002C419.294 58.3007 417.827 59.2881 415.965 60.1348C414.061 60.9951 412.1 61.6301 410.097 62.0389C408.079 62.448 406.218 62.6594 404.511 62.6594C399.714 62.6594 395.482 61.658 391.829 59.6409C388.161 57.6098 385.354 54.9293 383.394 51.6287C381.433 48.2714 380.459 44.6743 380.459 40.8374C380.459 37.339 381.052 34.165 382.237 31.3296C383.45 28.4377 385.115 25.9551 387.23 23.8956C389.332 21.8785 391.886 20.2985 394.876 19.1417C397.853 18.0132 401.069 17.449 404.511 17.449C407.318 17.449 410.069 17.8862 412.735 18.7752C415.443 19.6779 417.813 20.9618 419.887 22.6117L413.031 31.9497ZM440.679 50.796C437.322 50.6829 435.644 48.3557 435.644 43.8132V19.1836H422.412V43.8132C422.412 55.8037 428.506 62.1232 440.68 62.7861H441.427C453.601 62.1232 459.695 55.8037 459.695 43.8132V19.1836H446.464V43.8132C446.464 48.3553 444.785 50.6829 441.428 50.796H440.679ZM468.455 48.2003C471.064 50.81 474.267 52.1218 478.033 52.1218C481.983 52.1218 483.944 50.9654 483.944 48.6518C483.944 47.4386 482.857 46.5356 480.685 45.9574C479.133 45.6049 476.693 44.984 473.322 44.1097C470.599 43.39 468.3 42.0642 466.424 40.1317C464.576 38.2413 463.659 35.3215 463.659 31.3715C463.659 28.339 464.42 25.7853 465.93 23.6834C467.468 21.5956 469.471 20.044 471.925 19.0566C474.422 18.0412 477.173 17.533 480.149 17.533C481.828 17.533 483.535 17.7587 485.269 18.2382C487.146 18.8168 488.825 19.5221 490.305 20.3824C491.942 21.2855 493.366 22.3152 494.608 23.4437L487.343 30.6659C485.213 29.0715 482.9 28.2819 480.389 28.2819C477.384 28.2819 475.889 29.1143 475.889 30.7929C475.889 32.3166 477.003 33.3743 479.232 33.9809C481.686 34.6438 484.155 35.2644 486.638 35.8426C489.36 36.5199 491.632 37.7894 493.451 39.6371C495.299 41.5132 496.216 44.4617 496.216 48.482C496.216 51.4869 495.426 54.0822 493.818 56.2544C492.224 58.455 490.094 60.0913 487.414 61.1778C484.748 62.3058 481.983 62.8701 479.105 62.8701C476.722 62.8701 474.549 62.6727 472.631 62.2918C470.698 61.9254 468.893 61.3184 467.214 60.4721C465.479 59.6118 463.659 58.4693 461.755 57.0444L468.455 48.2003Z" fill="#050411"/>
<path fill-rule="evenodd" clip-rule="evenodd" d="M498.289 54.9707C498.289 53.6165 498.628 52.3894 499.319 51.2889C500.038 50.1325 500.955 49.2434 502.098 48.6089C503.254 47.9459 504.482 47.6211 505.765 47.6211C507.063 47.6211 508.29 47.9459 509.447 48.6089C510.576 49.3001 511.493 50.2028 512.17 51.3313C512.861 52.4314 513.214 53.6449 513.214 54.9707C513.214 57.1717 512.494 58.9914 511.055 60.4299C509.602 61.8832 507.839 62.6169 505.765 62.6169C504.397 62.6169 503.142 62.292 502.013 61.6291C500.857 60.9662 499.94 60.0347 499.277 58.85C498.614 57.6512 498.289 56.3533 498.289 54.9707Z" fill="#D03438"/>
</svg>
