<svg width="513" height="63" viewBox="0 0 513 63" fill="none" xmlns="http://www.w3.org/2000/svg">
<path fill-rule="evenodd" clip-rule="evenodd" d="M82.9033 31.4421C80.8144 29.3531 77.9274 28.0605 74.7391 28.0605C71.5508 28.0605 68.6639 29.3531 66.5749 31.4421C64.4859 33.5311 63.1934 36.418 63.1934 39.6063C63.1934 42.7946 64.4859 45.6815 66.5749 47.7701C68.6639 49.8591 71.5508 51.1517 74.7391 51.1517C77.9274 51.1517 80.8144 49.8591 82.903 47.7701C84.992 45.6815 86.2845 42.7946 86.2845 39.6063C86.2845 36.4184 84.9919 33.5311 82.9033 31.4421Z" fill="#D03438"/>
<path fill-rule="evenodd" clip-rule="evenodd" d="M13.1893 39.7943C13.1893 42.7425 14.2894 45.2815 16.4903 47.3977C18.6625 49.5279 21.2438 50.5857 24.2204 50.5857C27.2249 50.5857 29.8066 49.5279 31.9928 47.3977C34.1933 45.2815 35.2934 42.7425 35.2934 39.7943C35.2934 37.8759 34.7859 36.1121 33.7698 34.5046C32.7404 32.8818 31.3862 31.5844 29.6792 30.6253C27.9865 29.6659 26.1664 29.172 24.22 29.172C22.3155 29.172 20.5102 29.6659 18.8031 30.6253C17.0961 31.5847 15.7279 32.8822 14.7121 34.5046C13.6968 36.1125 13.1893 37.8759 13.1893 39.7943ZM74.7383 24.2809C78.97 24.2809 82.8016 25.9966 85.5746 28.7697C88.3474 31.5428 90.0631 35.3743 90.0631 39.606C90.0631 43.8369 88.3477 47.6689 85.5743 50.442C82.8012 53.2154 78.9692 54.9308 74.7383 54.9308C70.5066 54.9308 66.6751 53.215 63.902 50.442C61.1285 47.6689 59.4132 43.8369 59.4132 39.606C59.4132 35.3743 61.1289 31.5428 63.902 28.7697C66.6751 25.9966 70.5066 24.2809 74.7383 24.2809ZM0 2.27126L13.1893 2.22928V19.6786L14.1347 19.2554L15.0797 18.8466C18.0562 17.7745 21.1031 17.2383 24.2207 17.2383C27.3519 17.2383 30.4132 17.7741 33.3897 18.8466C36.2816 19.9187 38.8913 21.4987 41.2041 23.6005C43.4898 25.66 45.2671 28.072 46.5366 30.8371C47.8341 33.6159 48.4831 36.6064 48.4831 39.7947C48.4831 43.0813 47.8485 46.0862 46.579 48.8087C45.3091 51.5311 43.5178 53.9574 41.2041 56.0876C38.8625 58.2034 36.2528 59.783 33.3897 60.8415C30.4975 61.9696 27.4366 62.5338 24.2207 62.5338C20.0027 62.5338 16.0247 61.532 12.2726 59.5572C8.52043 57.5965 5.5579 54.9024 3.34337 51.446C1.14244 48.0606 0.0283624 44.2801 0 40.0904V2.27126ZM74.7633 62.5334C70.5452 62.5334 66.5673 61.5316 62.8151 59.5569C59.063 57.5681 56.1004 54.8597 53.8859 51.4176C51.657 47.9332 50.5425 44.054 50.5425 39.7516C50.5425 36.5353 51.1915 33.5304 52.4893 30.7516C53.7868 27.9585 55.5642 25.5606 57.8215 23.5151C60.1067 21.4556 62.7021 19.8612 65.6219 18.7612C68.5984 17.6611 71.6453 17.1105 74.7629 17.1105C77.8941 17.1105 80.9554 17.6607 83.9319 18.7612C86.8237 19.8049 89.4334 21.3849 91.7463 23.4727C94.0319 25.5746 95.8093 27.9865 97.0788 30.7516C98.3763 33.5304 99.0252 36.5349 99.0252 39.7516C99.0252 43.0382 98.3907 46.0431 97.1212 48.7655C95.8513 51.5163 94.0599 53.9566 91.7463 56.0868C89.4047 58.1747 86.795 59.7547 83.9319 60.8407C81.0397 61.9688 77.9792 62.5334 74.7633 62.5334ZM133.657 31.6123C132.472 30.625 131.174 29.8777 129.764 29.3834C128.31 28.8899 126.759 28.6358 125.137 28.6358C122.104 28.6358 119.551 29.6236 117.449 31.57C115.332 33.5308 114.275 35.9571 114.275 38.8489C114.275 41.1062 114.726 43.1373 115.629 44.9287C116.518 46.7201 117.829 48.131 119.565 49.1747C121.243 50.2608 123.176 50.7974 125.391 50.7974C128.635 50.7974 131.414 49.7537 133.742 47.6942L140.964 56.8628C139.92 57.9633 138.453 58.9507 136.591 59.7974C134.687 60.6577 132.726 61.2927 130.723 61.7015C128.706 62.1106 126.844 62.322 125.137 62.322C120.341 62.322 116.108 61.3206 112.455 59.3035C108.787 57.2724 105.98 54.5919 104.02 51.2913C102.059 47.934 101.085 44.3369 101.085 40.5C101.085 37.0016 101.678 33.8276 102.863 30.9922C104.076 28.1003 105.741 25.6177 107.857 23.5582C109.958 21.541 112.512 19.9611 115.502 18.8043C118.479 17.6758 121.695 17.1116 125.137 17.1116C127.944 17.1116 130.695 17.5488 133.361 18.4378C136.07 19.3405 138.439 20.6244 140.513 22.2743L133.657 31.6123ZM153.124 34.4198C154.139 32.7971 155.507 31.4997 157.215 30.5406C158.921 29.6092 160.727 29.1297 162.631 29.1297C164.578 29.1297 166.398 29.6092 168.091 30.5406C169.797 31.5 171.152 32.7975 172.181 34.4198C173.197 36.0562 173.705 37.8335 173.705 39.752C173.705 42.6722 172.605 45.1968 170.404 47.327C168.218 49.4149 165.636 50.4586 162.632 50.4586C159.655 50.4586 157.074 49.4149 154.902 47.327C152.701 45.1968 151.601 42.6722 151.601 39.752C151.601 37.8335 152.108 36.0562 153.124 34.4198ZM173.747 61.1652L186.851 61.2923L186.894 39.752C186.894 36.5357 186.245 33.5308 184.947 30.752C183.678 28.0436 181.886 25.6457 179.573 23.5578C177.372 21.5123 174.777 19.9463 171.8 18.8462C168.824 17.7462 165.763 17.1956 162.631 17.1956C159.458 17.1956 156.396 17.7598 153.448 18.8882C150.5 19.9603 147.919 21.5119 145.69 23.5574C143.433 25.5886 141.655 27.9865 140.358 30.7516C139.06 33.5304 138.411 36.5349 138.411 39.7516C138.411 44.026 139.526 47.9048 141.755 51.3753C143.969 54.789 146.931 57.4834 150.684 59.4722C154.436 61.4329 158.414 62.4063 162.632 62.4063C165.82 62.4063 168.881 61.8425 171.801 60.7141C172.224 60.5726 172.859 60.3049 173.747 59.9241L173.747 61.1652ZM210.649 17.3933C209.774 17.2663 208.872 17.1816 207.969 17.1532H207.221C195.047 17.7598 188.953 24.0797 188.953 36.1265V61.1652H202.185V36.1265C202.185 31.57 203.863 29.2284 207.221 29.1013H207.968C209.069 29.1437 209.957 29.4118 210.649 29.8773L210.649 17.3933ZM234.418 17.3933C233.544 17.2663 232.641 17.1816 231.738 17.1532H230.99C218.817 17.7598 212.722 24.0797 212.722 36.1265V61.1652H225.954V36.1265C225.954 31.57 227.632 29.2284 230.99 29.1013H231.737C232.838 29.1437 233.727 29.4118 234.418 29.8773L234.418 17.3933ZM251.205 34.4198C252.22 32.7971 253.588 31.4997 255.296 30.5406C257.002 29.6092 258.808 29.1297 260.712 29.1297C262.659 29.1297 264.479 29.6092 266.172 30.5406C267.878 31.5 269.233 32.7975 270.262 34.4198C271.278 36.0562 271.786 37.8335 271.786 39.752C271.786 42.6722 270.686 45.1968 268.485 47.327C266.299 49.4149 263.717 50.4586 260.713 50.4586C257.736 50.4586 255.155 49.4149 252.983 47.327C250.782 45.1968 249.682 42.6722 249.682 39.752C249.682 37.8335 250.189 36.0562 251.205 34.4198ZM271.828 61.1652L284.932 61.2923L284.975 39.752C284.975 36.5357 284.326 33.5308 283.028 30.752C281.759 28.0436 279.967 25.6457 277.654 23.5578C275.453 21.5123 272.858 19.9463 269.881 18.8462C266.905 17.7462 263.844 17.1956 260.712 17.1956C257.538 17.1956 254.477 17.7598 251.529 18.8882C248.581 19.9603 246 21.5119 243.771 23.5574C241.514 25.5886 239.736 27.9865 238.439 30.7516C237.141 33.5304 236.492 36.5349 236.492 39.7516C236.492 44.026 237.607 47.9048 239.835 51.3753C242.05 54.789 245.012 57.4834 248.765 59.4722C252.517 61.4329 256.495 62.4063 260.713 62.4063C263.901 62.4063 266.962 61.8425 269.882 60.7141C270.305 60.5726 270.94 60.3049 271.828 59.9241L271.828 61.1652ZM330.595 31.6123C329.41 30.625 328.112 29.8777 326.702 29.3834C325.248 28.8899 323.697 28.6358 322.075 28.6358C319.042 28.6358 316.488 29.6236 314.387 31.57C312.27 33.5308 311.213 35.9571 311.213 38.8489C311.213 41.1062 311.664 43.1373 312.567 44.9287C313.456 46.7201 314.767 48.131 316.502 49.1747C318.181 50.2608 320.114 50.7974 322.328 50.7974C325.573 50.7974 328.351 49.7537 330.679 47.6942L337.902 56.8628C336.858 57.9633 335.391 58.9507 333.529 59.7974C331.624 60.6577 329.664 61.2927 327.661 61.7015C325.643 62.1106 323.782 62.322 322.075 62.322C317.278 62.322 313.046 61.3206 309.393 59.3035C305.725 57.2724 302.918 54.5919 300.958 51.2913C298.997 47.934 298.023 44.3369 298.023 40.5C298.023 37.0016 298.616 33.8276 299.801 30.9922C301.014 28.1003 302.679 25.6177 304.794 23.5582C306.896 21.541 309.45 19.9611 312.44 18.8043C315.417 17.6758 318.633 17.1116 322.075 17.1116C324.882 17.1116 327.633 17.5488 330.299 18.4378C333.007 19.3405 335.377 20.6244 337.451 22.2743L330.595 31.6123ZM353.659 18.8886V61.2499H340.469V18.931L353.659 18.8886ZM353.701 6.89811C353.701 8.22434 353.391 9.39514 352.784 10.4109C352.177 11.4403 351.359 12.2586 350.301 12.8935C349.258 13.5281 348.101 13.8529 346.831 13.8529C345.562 13.8529 344.419 13.5425 343.403 12.9359C342.36 12.301 341.528 11.4686 340.921 10.4109C340.286 9.31081 339.976 8.13963 339.976 6.89811C339.976 5.62861 340.272 4.47218 340.879 3.42807C341.541 2.35597 342.388 1.50964 343.403 0.903059C344.419 0.310852 345.562 0 346.831 0C348.101 0 349.258 0.310852 350.301 0.903059C351.331 1.50964 352.149 2.35597 352.784 3.42807C353.391 4.47181 353.701 5.62861 353.701 6.89811ZM377.456 17.3933C376.582 17.2663 375.679 17.1816 374.776 17.1532H374.028C361.855 17.7598 355.76 24.0797 355.76 36.1265V61.1652H368.992V36.1265C368.992 31.57 370.67 29.2284 374.028 29.1013H374.775C375.876 29.1437 376.765 29.4118 377.456 29.8773L377.456 17.3933ZM412.101 31.6123C410.916 30.625 409.618 29.8777 408.208 29.3834C406.755 28.8899 405.203 28.6358 403.581 28.6358C400.548 28.6358 397.995 29.6236 395.893 31.57C393.777 33.5308 392.719 35.9571 392.719 38.8489C392.719 41.1062 393.17 43.1373 394.073 44.9287C394.962 46.7201 396.274 48.131 398.009 49.1747C399.687 50.2608 401.62 50.7974 403.835 50.7974C407.079 50.7974 409.858 49.7537 412.186 47.6942L419.408 56.8628C418.364 57.9633 416.897 58.9507 415.035 59.7974C413.131 60.6577 411.17 61.2927 409.167 61.7015C407.15 62.1106 405.288 62.322 403.581 62.322C398.785 62.322 394.553 61.3206 390.899 59.3035C387.231 57.2724 384.425 54.5919 382.464 51.2913C380.503 47.934 379.53 44.3369 379.53 40.5C379.53 37.0016 380.122 33.8276 381.307 30.9922C382.52 28.1003 384.185 25.6177 386.301 23.5582C388.403 21.541 390.956 19.9611 393.947 18.8043C396.923 17.6758 400.139 17.1116 403.581 17.1116C406.389 17.1116 409.139 17.5488 411.805 18.4378C414.514 19.3405 416.883 20.6244 418.957 22.2743L412.101 31.6123ZM439.75 50.4586C436.392 50.3455 434.714 48.0183 434.714 43.4758V18.8462H421.482V43.4758C421.482 55.4663 427.576 61.7858 439.75 62.4487H440.497C452.671 61.7858 458.766 55.4663 458.766 43.4758V18.8462H445.534V43.4758C445.534 48.0179 443.855 50.3455 440.498 50.4586H439.75ZM467.525 47.8629C470.135 50.4726 473.337 51.7844 477.104 51.7844C481.053 51.7844 483.014 50.628 483.014 48.3144C483.014 47.1012 481.928 46.1982 479.755 45.62C478.204 45.2675 475.763 44.6466 472.392 43.7723C469.67 43.0526 467.37 41.7268 465.494 39.7943C463.646 37.9039 462.729 34.9841 462.729 31.0341C462.729 28.0016 463.491 25.4479 465 23.346C466.538 21.2582 468.541 19.7066 470.995 18.7192C473.492 17.7038 476.243 17.1956 479.219 17.1956C480.898 17.1956 482.605 17.4213 484.34 17.9008C486.216 18.4794 487.895 19.1847 489.376 20.045C491.012 20.9481 492.437 21.9778 493.678 23.1063L486.414 30.3285C484.283 28.7341 481.97 27.9445 479.459 27.9445C476.454 27.9445 474.959 28.7769 474.959 30.4555C474.959 31.9792 476.073 33.0369 478.302 33.6435C480.757 34.3064 483.226 34.927 485.708 35.5052C488.431 36.1825 490.702 37.452 492.522 39.2997C494.369 41.1758 495.286 44.1243 495.286 48.1446C495.286 51.1495 494.496 53.7448 492.889 55.917C491.295 58.1176 489.165 59.7539 486.485 60.8404C483.818 61.9684 481.053 62.5327 478.176 62.5327C475.792 62.5327 473.62 62.3353 471.701 61.9544C469.769 61.588 467.963 60.981 466.284 60.1347C464.549 59.2744 462.729 58.1319 460.825 56.707L467.525 47.8629Z" fill="#00162B"/>
<path fill-rule="evenodd" clip-rule="evenodd" d="M497.359 54.6333C497.359 53.2791 497.698 52.052 498.389 50.9515C499.108 49.7951 500.025 48.906 501.168 48.2715C502.325 47.6085 503.552 47.2837 504.836 47.2837C506.134 47.2837 507.361 47.6085 508.518 48.2715C509.646 48.9627 510.563 49.8654 511.24 50.9939C511.932 52.0939 512.284 53.3075 512.284 54.6333C512.284 56.8343 511.564 58.654 510.125 60.0925C508.673 61.5458 506.91 62.2794 504.836 62.2794C503.468 62.2794 502.212 61.9546 501.084 61.2917C499.927 60.6288 499.01 59.6973 498.347 58.5126C497.684 57.3138 497.359 56.0159 497.359 54.6333Z" fill="#D03438"/>
</svg>
