<?xml version="1.0" encoding="UTF-8"?>
<!DOCTYPE svg PUBLIC "-//W3C//DTD SVG 1.1//EN" "http://www.w3.org/Graphics/SVG/1.1/DTD/svg11.dtd">
<!-- Creator: CorelDRAW 2018 (64 Bit Versão de avaliação) -->
<svg xmlns="http://www.w3.org/2000/svg" xml:space="preserve" width="64.7489mm" height="127.374mm" version="1.1" style="shape-rendering:geometricPrecision; text-rendering:geometricPrecision; image-rendering:optimizeQuality; fill-rule:evenodd; clip-rule:evenodd"
viewBox="0 0 1985.55 3905.99"
 xmlns:xlink="http://www.w3.org/1999/xlink">
 <defs>
  <style type="text/css">
   <![CDATA[
    .str2 {stroke:#FEFEFE;stroke-width:6.13;stroke-miterlimit:22.9256}
    .str0 {stroke:#D03438;stroke-width:6.13;stroke-miterlimit:22.9256}
    .str1 {stroke:#D03438;stroke-width:2.34;stroke-miterlimit:22.9256}
    .fil1 {fill:#FEFEFE}
    .fil5 {fill:#FEFEFE}
    .fil0 {fill:#D03438}
    .fil4 {fill:#D03438;fill-rule:nonzero}
    .fil2 {fill:#E6E6E6;fill-rule:nonzero}
    .fil3 {fill:white;fill-rule:nonzero}
   ]]>
  </style>
 </defs>
 <g id="Camada_x0020_1">
  <metadata id="CorelCorpID_0Corel-Layer"/>
  <g id="_2247388621776">
   <g>
    <path class="fil0 str0" d="M1875.42 3894.34l-425.81 0c-6.23,0 -11.32,-5.09 -11.32,-11.32l0 -559.86c0,-6.23 5.09,-11.32 11.32,-11.32l425.81 0c6.23,0 11.32,5.09 11.32,11.32l0 559.86c0,6.23 -5.09,11.32 -11.32,11.32z"/>
    <path class="fil1" d="M1580.81 3565.83c0.96,-2.47 0.94,-3.93 2.48,-7.11 1.22,-2.52 10.6,-12.28 13.29,-15.35 0.46,-0.48 0.3,-0.22 0.56,-0.81 -1.33,0.35 -3.24,1.3 -4.61,1.8 -4.81,1.77 -11.58,2.81 -16.94,2.81 -3.95,0 -4.28,-0.02 -7.9,2.39l-3.7 2.75c-0.34,0.27 -0.38,0.42 -0.71,0.69l-2.85 2.55c-1.17,1.17 -4.25,4.35 -5.11,5.52 -0.33,0.44 -0.26,0.28 -0.59,0.63l-1.48 1.84c-0.18,0.21 -0.1,0.1 -0.32,0.37 -0.39,0.49 -0.78,1.15 -1.22,1.55 -2.83,0.59 -9.65,-1.09 -12.04,-2.07 -5.93,-2.45 -9.02,-2.36 -15.33,-2.36 -3.51,0 -8.36,0.59 -11.46,1.59 3.68,0.56 5.82,0.43 10.01,1.35 3.06,0.67 5.84,1.73 8.24,3.09 1.14,0.65 2.18,1.53 3.24,2.34l3.26 2.49c1.87,1.41 3.59,2.94 5.57,4.19 0.25,0.16 0.08,0.01 0.42,0.28 0.04,0.03 0.15,0.13 0.19,0.17 0.25,0.24 0.04,-0.03 0.25,0.29 -0.74,0.82 -3.36,1.92 -5.15,3.94 -0.39,0.44 -0.81,0.65 -1.19,1.08 -4.4,4.98 -5.9,11.07 -6.99,17.93 -1.75,10.98 -0.92,16.16 -1.55,25.69 -0.23,3.47 -0.43,5.05 -3.12,7.11l-1.78 1.7c-2.5,2.16 -3.97,5.11 -5.48,8.12 -2.03,4.06 -3.36,9.37 -4.03,14.26 -0.74,5.46 -0.64,11.36 -1.21,16.92 -0.4,3.9 -0.92,7.81 -2.05,11.56 -0.31,1.02 -1.17,2.67 -1.29,3.46 2,2.01 1.79,2.27 4.53,4.31 3.39,2.51 7.37,3.93 12.02,3.93 1.31,0 2.43,-0.33 3.55,-0.38 1.47,-0.07 9.07,4.82 20.84,-0.59 2.3,-1.06 6.77,-0.3 6.77,-7.14 0,-3.94 -3.9,-9.72 -6.28,-13.03 -0.79,-1.1 -1.62,-1.91 -2.64,-2.76 -0.67,-0.57 -1.2,-1.17 -2.2,-1.5 -1.1,0.07 -5.87,3.83 -12.78,3.58 0.36,-0.71 0.76,-0.66 1.53,-1.02 0.59,-0.28 1.07,-0.5 1.65,-0.79 3.05,-1.53 6.63,-3.39 9.21,-5.35 0.11,-1.78 0.17,-3.47 0.25,-5.27 0.07,-1.92 0.62,-2.6 1.54,-4 1.1,-1.67 2.52,-3.06 3.74,-4.62l3.11 -3.69c0.34,-0.46 0.33,-0.34 0.67,-0.72 0.26,-0.29 0.36,-0.53 0.59,-0.81 0.26,-0.31 0.44,-0.37 0.71,-0.68 0.29,-0.34 0.27,-0.48 0.59,-0.81 0.33,-0.36 0.41,-0.29 0.71,-0.68 0.32,-0.4 0.23,-0.44 0.6,-0.8l2.04 -2.15c0.58,-0.53 0.77,-1.05 1.25,-1.53 2.08,-2.04 4.08,-4.22 6.32,-6.06l2.09 -2.09c0.43,-0.54 0.75,-1.02 1.18,-1.61 5.05,-7.1 5.98,-17.44 5.69,-26.38l-0.78 -11.88c0.71,0.65 1.15,4.13 1.33,5.05 1.64,8.45 3.16,17.51 1.3,26.04 6.09,0 12.12,1.37 16.8,4.12 0.66,0.39 0.94,0.58 1.57,1.05 0.57,0.43 0.97,0.8 1.43,1.18l9 6.69c1.99,1.46 4.12,2.72 6.25,4.2 4.1,2.86 8.62,5.42 13.07,7.85 3.05,1.67 4.46,2.23 8.41,2.23 4.27,0 22.2,-1.78 25.65,-3.14l-0.48 -0.23c-3.39,-1.21 -20.74,-4.73 -21.5,-5.52 -0.84,-0.88 -1.14,-10 -1.14,-11.85 0,-11.64 3.15,-21.74 9.83,-30.35l2.5 -2.73c0.4,-0.41 1.27,-1.42 1.72,-1.77l1.92 -1.56c0.32,-0.27 0.63,-0.5 0.98,-0.76 0.44,-0.33 0.69,-0.59 1.29,-0.67 -0.48,0.88 -1.39,1.61 -2.01,2.38 -9.9,12.24 -14.83,27.21 -10.56,42.95 0.28,1.03 0.25,0.92 1.25,1.2 6.41,1.79 12.79,3.87 19.15,5.78l30.52 9.43c-2.25,0.13 -11.04,-2.31 -12.4,-2.1 -0.36,0.06 -0.17,0 -0.4,0.14 1.55,0.8 9.93,7.75 11.61,9.32 -1.07,-0.29 -11.68,-7.76 -13.14,-8.75 -0.53,-0.36 -0.84,-0.81 -1.65,-0.67 -0.84,0.15 -2.84,0.89 -3.68,1.23 -1.97,0.79 -3.98,1.68 -5.38,3.16 -0.33,0.35 -0.39,0.26 -0.39,0.96 0,4.54 0.8,12.71 3.69,16.14 0.71,0.83 1.06,1.31 1.89,2.11 2.05,1.98 4.41,3.7 6.92,5.11 2.72,1.54 0.85,-0.36 3.15,2.77l0.92 1.17c1.15,1.39 2.88,2.66 4.49,3.53 3.66,1.98 7.72,2.52 11.9,2.33 0.67,-2.12 6.14,-12.89 7.55,-15.95 0.52,-1.11 1.16,-1.19 2.28,-1.72l5.29 -2.57c1.9,-0.95 2.99,-1.97 4.48,-3.37 0.4,-0.38 0.37,-0.58 0.9,-1.02 0.71,-0.6 0.51,-0.41 1.01,-1.08 4.24,-5.61 6.87,-11.46 2.48,-18.25 -1.51,-2.33 -2.19,-2.24 -3.46,-3.69l-22.58 -20.3c-0.56,-0.64 -0.67,-0.61 -1.31,-1.13 -0.52,-0.42 -0.67,-0.8 -1.23,-1.22l-6.29 -5.75c1,0.15 5.55,2.97 6.69,3.61l8.32 4.76c0.97,0.54 0.92,0.39 1.69,-0.21 1.87,-1.48 4.12,-2.96 6.3,-4.16 0.86,-0.48 2.96,-1.24 3.44,-1.72 -0.66,-1.63 -7.41,-18.16 -7.63,-19.54 0.78,0.43 3.81,6.23 4.27,7.09l8.18 14.48c2.36,3.94 4.55,6.3 7.09,9.81l1.83 2.36c2.01,2.49 3.68,4.31 7.35,5.55 5.14,1.73 20.02,1.44 26.9,1.39 1.7,-0.01 2.73,0.81 4.1,1.6 3.04,1.77 5.97,3.43 8.79,5.33l1.6 1.19c1.06,1.01 1.43,2.24 3.8,1.6 4.43,-1.21 8.64,-4.78 12.2,-7.5 1.04,-0.79 2.1,-1.76 3.28,-2.48 1.25,-0.76 3.01,-0.9 1.85,-3.16l-1.26 -1.7c-0.85,-0.98 -2,-1.76 -3.33,-2.26l-8.22 -3.11c-1.19,-0.45 -3.4,-0.87 -3.79,-1.99 2.67,-1.73 19.18,5.72 22.32,5.72 3.11,0 4.3,-1.8 5.31,-4.42 0.43,-1.1 3.43,-3.96 3.96,-5.07 2.32,-4.89 -0.52,-6.62 -0.17,-8.69 0.8,-4.69 1.05,-11.11 -2.02,-15.18 -0.57,-0.76 -1.05,-0.94 -1.75,-1.59l2.47 -2.62c0.5,-0.5 0.44,-0.31 0.86,-0.88l2.85 -4.12c1.83,-2.91 3.1,-6.26 4.18,-9.77 4.07,-13.22 3.61,-28.5 2.18,-42.25 -0.89,1.72 -1.78,4.47 -2.62,6.42 -3.37,7.77 -6.95,13.65 -11.93,19.97l-5.05 5.06c-2.42,1.92 -4.79,3.59 -7.69,4.86 -1.82,0.79 -5.27,2.02 -7.45,1.63 -0.15,-0.73 1.01,-8.3 1.18,-9.85 0.33,-3.01 0.76,-7.47 0.41,-10.47 -0.03,-0.02 -0.1,-0.06 -0.11,-0.02l-4.35 3.15c-1.47,1.05 -3.05,2.14 -4.73,3.12 -2.98,1.73 -7.81,4.33 -12,3.81l-5.08 -5.85c-0.73,-1.06 -1.78,-1.86 -2.59,-2.82 -0.58,-0.69 -0.57,-0.88 -1.29,-1.49 -0.99,-0.85 -1.6,-1.95 -2.59,-2.81 -0.73,-0.63 -0.78,-0.76 -1.39,-1.4l-2.28 -1.9c-0.35,-0.27 -0.43,-0.35 -0.78,-0.62 -2.5,-1.89 -4.29,-2.63 -6.77,-4.18 1.33,-5.18 4.58,-12.36 4.35,-17.96 -3.72,0.8 -9.08,4.21 -12.19,6.38l-4.19 3.31c-1.4,1.13 -2.4,2.51 -3.82,3.67l-2.85 3.42c-2.66,3.53 -4.89,7.37 -6.36,11.59 -0.17,0.49 -0.29,0.95 -0.63,1.32 -0.21,-2.63 3.15,-14.66 5.05,-18 0.29,-0.52 0.39,-0.55 0.59,-1.09l-5.85 -4.92c-1.04,-0.84 -1.98,-1.58 -3.01,-2.4l-4.7 -3.49c-11.39,-8.54 -29.84,-18.75 -44,-18.75 -11.68,0 -13.43,2.62 -21.75,7.53 -1.99,1.18 -3.83,2.31 -5.77,3.48 -14.82,8.91 -31.42,17.63 -45.01,27.84l-10.92 9.48c-0.96,0.85 -2.3,2.73 -3.02,3.78 -1.12,1.63 -1.97,3.42 -2.77,5.23 -0.4,0.91 0.07,0.47 -0.55,0.71zm173.96 4.59c-0.67,-0.64 -1.34,-0.24 -1.51,0.57 -0.35,1.89 -0.7,3.78 -1.04,5.68 -0.06,0.91 0.56,1.55 1.7,1.99 3.16,1.42 6.31,2.84 9.46,4.26 0.96,0.45 1.89,-0.57 1.14,-1.8 -3.25,-3.57 -6.5,-7.13 -9.75,-10.69zm-88.6 81.59c-4.25,0.61 -11.67,1.11 -17.03,2.58 -3.71,1.9 -17.04,13.07 -19.88,21.46 -0.83,2.4 -0.87,4.79 -0.19,7.19 8.15,9.99 19.1,12.51 31.04,12.4 8.15,-0.57 18,-1.92 12.5,-12.3 -9.08,-5.08 -7.25,-21.22 -4.92,-29.72 0.05,-1.1 -0.44,-1.65 -1.51,-1.61zm-101.04 -8.54c6,-4.13 10.57,-10.49 14.29,-16.23 14.97,1.07 23.73,11.95 36.44,21.39 -4.07,1.45 -11.01,3.85 -18.36,3.78 1.29,15.02 -4.77,23.53 -11.36,37.1 -1.12,1.15 -3.01,1.53 -5.77,1.04 -12.08,-2.77 -19.98,-10.03 -21.96,-23.66 -0.15,-1.74 0.59,-2.7 2.08,-3.12 2.43,-0.73 5.05,-0.79 7.29,-2.18 1.27,-0.95 2.48,-2.21 1.99,-3.69 -1.77,-4.95 -5.71,-9.29 -4.64,-14.43zm191.7 -95.59c5.59,-1.96 10.82,-4.83 15.9,-8.05 1.21,-0.38 1.72,-0.15 1.42,0.85 -1.79,5.78 -4.05,11.51 -7.86,17.04 -3.79,-4.34 -6.81,-7.4 -9.46,-9.84z"/>
   </g>
   <path class="fil2" d="M629.35 1392.37c-20.87,-17.39 -43.73,-30.56 -68.58,-39.26 -25.6,-8.7 -52.93,-13.17 -81.5,-13.17 -53.42,0 -98.4,17.39 -135.42,51.68 -37.27,34.54 -55.91,77.28 -55.91,128.21 0,39.76 7.95,75.54 23.85,107.1 15.65,31.56 38.76,56.4 69.33,74.79 29.57,19.13 63.61,28.57 102.62,28.57 57.15,0 106.1,-18.39 147.1,-54.67l127.22 161.51c-18.39,19.38 -44.23,36.77 -77.03,51.68 -33.54,15.16 -68.08,26.34 -103.37,33.54 -35.53,7.21 -68.33,10.93 -98.4,10.93 -84.48,0 -159.02,-17.64 -223.38,-53.17 -64.6,-35.78 -114.05,-82.99 -148.59,-141.13 -34.54,-59.14 -51.68,-122.5 -51.68,-190.09 0,-61.63 10.44,-117.53 31.31,-167.48 21.37,-50.94 50.69,-94.67 87.96,-130.95 37.02,-35.53 82,-63.36 134.67,-83.74 52.43,-19.88 109.08,-29.82 169.71,-29.82 49.45,0 97.9,7.7 144.86,23.36 47.71,15.9 89.45,38.51 125.98,67.59l-120.76 164.49zm342.9 49.44c17.89,-28.57 41.99,-51.43 72.06,-68.33 30.06,-16.4 61.87,-24.85 95.42,-24.85 34.29,0 66.34,8.45 96.16,24.85 30.07,16.9 53.92,39.75 72.06,68.33 17.89,28.83 26.84,60.13 26.84,93.92 0,51.44 -19.38,95.91 -58.14,133.43 -38.52,36.77 -83.99,55.16 -136.91,55.16 -52.43,0 -97.9,-18.39 -136.17,-55.16 -38.76,-37.52 -58.14,-82 -58.14,-133.43 0,-33.79 8.95,-65.1 26.84,-93.92zm363.27 471.12l230.84 2.24 0.75 -379.43c0,-56.65 -11.43,-109.58 -34.29,-158.53 -22.36,-47.71 -53.92,-89.95 -94.67,-126.72 -38.76,-36.03 -84.48,-63.61 -136.91,-82.99 -52.43,-19.38 -106.35,-29.07 -161.51,-29.07 -55.91,0 -109.83,9.94 -161.76,29.82 -51.93,18.88 -97.4,46.22 -136.66,82.24 -39.75,35.78 -71.06,78.02 -93.92,126.72 -22.86,48.95 -34.29,101.88 -34.29,158.53 0,75.29 19.63,143.62 58.89,204.75 39.01,60.13 91.19,107.59 157.29,142.63 66.1,34.54 136.17,51.68 210.46,51.68 56.15,0 110.08,-9.94 161.51,-29.82 7.45,-2.48 18.64,-7.21 34.29,-13.91l0 21.86zm650.02 -771.03c-15.41,-2.24 -31.31,-3.73 -47.21,-4.23l-13.17 0c-214.44,10.68 -321.78,122 -321.78,334.2l0 441.05 233.07 0 0 -441.05c0,-80.26 29.57,-121.51 88.71,-123.74l13.17 0c19.38,0.75 35.04,5.47 47.21,13.67l0 -219.9z"/>
   <path class="fil3" d="M1094.33 2003.01c-15.4,-2.24 -31.31,-3.73 -47.21,-4.23l-13.17 0c-214.43,10.69 -321.78,122.01 -321.78,334.2l0 441.05 233.07 0 0 -441.05c0,-80.26 29.57,-121.51 88.71,-123.74l13.17 0c19.38,0.75 35.04,5.46 47.21,13.66l0 -219.9zm295.69 299.91c17.89,-28.58 41.99,-51.44 72.06,-68.33 30.07,-16.4 61.87,-24.85 95.42,-24.85 34.29,0 66.34,8.45 96.16,24.85 30.07,16.9 53.92,39.75 72.06,68.33 17.89,28.82 26.84,60.13 26.84,93.92 0,51.44 -19.38,95.91 -58.14,133.43 -38.52,36.77 -83.99,55.16 -136.91,55.16 -52.43,0 -97.9,-18.39 -136.17,-55.16 -38.76,-37.52 -58.14,-82 -58.14,-133.43 0,-33.79 8.94,-65.1 26.83,-93.92zm363.28 471.11l230.83 2.24 0.75 -379.43c0,-56.65 -11.43,-109.58 -34.29,-158.53 -22.36,-47.71 -53.92,-89.95 -94.67,-126.72 -38.76,-36.03 -84.48,-63.61 -136.91,-82.99 -52.43,-19.38 -106.35,-29.07 -161.51,-29.07 -55.91,0 -109.83,9.94 -161.76,29.82 -51.93,18.88 -97.4,46.22 -136.66,82.25 -39.75,35.78 -71.06,78.02 -93.92,126.72 -22.86,48.95 -34.29,101.88 -34.29,158.53 0,75.29 19.63,143.62 58.89,204.74 39.01,60.13 91.19,107.59 157.29,142.63 66.1,34.54 136.17,51.68 210.46,51.68 56.16,0 110.08,-9.94 161.51,-29.82 7.45,-2.48 18.64,-7.2 34.29,-13.91l0 21.86z"/>
   <g>
    <path class="fil3" d="M284.77 3612.58c-8.9,10.67 -15.63,22.36 -20.08,35.07 -4.45,13.09 -6.73,27.07 -6.73,41.68 0,27.32 8.9,50.32 26.43,69.25 17.66,19.06 39.52,28.59 65.57,28.59 20.33,0 38.63,-4.07 54.77,-12.2 16.14,-8.01 28.85,-19.83 38.25,-35.46 9.79,-15.12 14.62,-32.53 14.62,-52.48 0,-29.23 -9.41,-54.26 -27.96,-75.23l82.6 -65.06c9.91,9.41 18.81,22.62 26.43,39.39 7.75,17.16 13.47,34.82 17.15,52.86 3.69,18.17 5.59,34.94 5.59,50.32 0,43.21 -9.02,81.33 -27.19,114.24 -18.3,33.04 -42.44,58.33 -72.18,75.99 -30.24,17.66 -62.65,26.43 -97.21,26.43 -31.51,0 -60.1,-5.34 -85.65,-16.01 -26.05,-10.93 -48.41,-25.92 -66.97,-44.99 -18.17,-18.93 -32.4,-41.93 -42.82,-68.87 -10.16,-26.81 -15.25,-55.79 -15.25,-86.79 0,-25.29 3.94,-50.06 11.94,-74.08 8.13,-24.4 19.7,-45.75 34.56,-64.42l84.12 61.76zm-114.62 -207.76l381.6 0 0 118.81 -381.22 0 -0.38 -118.81zm-108.01 -0.38c11.94,0 22.49,2.8 31.64,8.26 9.28,5.46 16.65,12.83 22.36,22.36 5.72,9.41 8.64,19.83 8.64,31.26 0,11.44 -2.8,21.73 -8.26,30.88 -5.72,9.4 -13.21,16.9 -22.74,22.36 -9.91,5.72 -20.46,8.51 -31.64,8.51 -11.44,0 -21.86,-2.67 -31.26,-8.13 -9.66,-5.97 -17.28,-13.6 -22.75,-22.74 -5.34,-9.15 -8.13,-19.44 -8.13,-30.88 0,-11.44 2.8,-21.86 8.13,-31.26 5.46,-9.28 13.09,-16.65 22.75,-22.36 9.4,-5.46 19.82,-8.26 31.26,-8.26zm94.54 -213.99c-1.14,7.88 -1.91,16.01 -2.16,24.15l0 6.73c5.46,109.66 62.39,164.56 170.91,164.56l225.55 0 0 -119.19 -225.55 0c-41.05,0 -62.14,-15.12 -63.28,-45.37l0 -6.73c0.38,-9.91 2.8,-17.92 6.99,-24.15l-112.46 0zm128.09 -312.09c-8.9,10.67 -15.63,22.36 -20.08,35.07 -4.45,13.09 -6.73,27.07 -6.73,41.68 0,27.32 8.9,50.32 26.43,69.25 17.66,19.06 39.52,28.59 65.57,28.59 20.33,0 38.63,-4.07 54.77,-12.2 16.14,-8 28.85,-19.82 38.25,-35.45 9.79,-15.12 14.62,-32.53 14.62,-52.48 0,-29.23 -9.41,-54.26 -27.96,-75.23l82.6 -65.06c9.91,9.41 18.81,22.62 26.43,39.39 7.75,17.15 13.47,34.82 17.15,52.86 3.69,18.17 5.59,34.95 5.59,50.32 0,43.2 -9.02,81.32 -27.19,114.24 -18.3,33.04 -42.44,58.33 -72.18,75.99 -30.24,17.66 -62.65,26.43 -97.21,26.43 -31.51,0 -60.1,-5.34 -85.65,-16.01 -26.05,-10.93 -48.41,-25.92 -66.97,-44.98 -18.17,-18.94 -32.4,-41.93 -42.82,-68.87 -10.16,-26.81 -15.25,-55.78 -15.25,-86.79 0,-25.29 3.94,-50.07 11.94,-74.08 8.13,-24.4 19.7,-45.75 34.56,-64.42l84.12 61.76zm169.77 -249.06c-1.02,30.24 -21.98,45.37 -62.9,45.37l-221.87 0 0 119.19 221.87 0c108.01,0 164.94,-54.9 170.91,-164.56l0 -6.73c-5.97,-109.66 -62.9,-164.56 -170.91,-164.56l-221.87 0 0 119.19 221.87 0c40.92,0 61.89,15.12 62.9,45.37l0 6.73zm-23.38 -250.2c23.51,-23.51 35.33,-52.35 35.33,-86.28 0,-35.58 -10.42,-53.24 -31.26,-53.24 -10.93,0 -19.06,9.79 -24.27,29.36 -3.18,13.98 -8.77,35.96 -16.65,66.33 -6.48,24.53 -18.42,45.24 -35.84,62.14 -17.03,16.65 -43.33,24.91 -78.91,24.91 -27.32,0 -50.32,-6.86 -69.25,-20.46 -18.81,-13.85 -32.79,-31.9 -41.68,-54 -9.15,-22.49 -13.72,-47.27 -13.72,-74.08 0,-15.12 2.03,-30.5 6.35,-46.13 5.21,-16.9 11.56,-32.02 19.32,-45.36 8.13,-14.74 17.41,-27.57 27.57,-38.76l65.06 65.44c-14.36,19.19 -21.47,40.03 -21.47,62.65 0,27.07 7.5,40.54 22.62,40.54 13.72,0 23.25,-10.04 28.72,-30.12 5.97,-22.11 11.57,-44.35 16.77,-66.71 6.1,-24.53 17.54,-44.99 34.18,-61.38 16.9,-16.65 43.46,-24.91 79.67,-24.91 27.07,0 50.45,7.11 70.02,21.6 19.82,14.36 34.56,33.54 44.35,57.69 10.17,24.02 15.25,48.92 15.25,74.85 0,21.47 -1.78,41.04 -5.21,58.33 -3.3,17.41 -8.77,33.67 -16.39,48.79 -7.75,15.63 -18.04,32.02 -30.88,49.18l-79.67 -60.36z"/>
    <path class="fil4 str1" d="M492.15 2110.33c-12.2,0 -23.25,-3.05 -33.16,-9.28 -10.42,-6.48 -18.43,-14.74 -24.15,-25.04 -5.97,-10.42 -8.89,-21.47 -8.89,-33.04 0,-11.69 2.92,-22.74 8.89,-33.16 6.23,-10.17 14.36,-18.43 24.53,-24.52 9.91,-6.23 20.84,-9.41 32.78,-9.41 19.82,0 36.22,6.48 49.17,19.44 13.09,13.09 19.7,28.97 19.7,47.65 0,12.33 -2.92,23.64 -8.89,33.8 -5.97,10.42 -14.36,18.68 -25.04,24.65 -10.8,5.97 -22.49,8.9 -34.94,8.9z"/>
   </g>
   <path class="fil3" d="M237.52 661.69c0,51.93 19.38,96.66 58.14,133.93 38.27,37.52 83.74,56.16 136.17,56.16 52.93,0 98.4,-18.64 136.91,-56.16 38.76,-37.27 58.14,-82 58.14,-133.93 0,-33.79 -8.95,-64.85 -26.84,-93.18 -18.14,-28.57 -41.99,-51.43 -72.06,-68.33 -29.82,-16.89 -61.87,-25.59 -96.16,-25.59 -33.54,0 -65.35,8.7 -95.42,25.59 -30.06,16.9 -54.17,39.76 -72.06,68.33 -17.89,28.33 -26.84,59.39 -26.84,93.18zm-232.32 -660.95l232.32 -0.74 0 307.37 16.65 -7.45 16.65 -7.21c52.43,-18.88 106.1,-28.33 161.02,-28.33 55.16,0 109.08,9.44 161.51,28.33 50.94,18.89 96.91,46.72 137.66,83.74 40.25,36.27 71.56,78.77 93.92,127.47 22.86,48.95 34.29,101.63 34.29,157.78 0,57.9 -11.18,110.82 -33.54,158.78 -22.37,47.95 -53.92,90.69 -94.67,128.21 -41.25,37.28 -87.22,65.11 -137.66,83.74 -50.94,19.88 -104.86,29.82 -161.51,29.82 -74.3,0 -144.37,-17.64 -210.47,-52.43 -66.09,-34.54 -118.28,-82 -157.28,-142.88 -38.76,-59.63 -58.39,-126.22 -58.89,-200.03l0 -666.17z"/>
   <path class="fil0" d="M1456.69 523.49c-34.5,-34.5 -82.18,-55.84 -134.85,-55.84 -52.66,0 -100.34,21.34 -134.84,55.84 -34.5,34.5 -55.84,82.18 -55.84,134.84 0,52.66 21.34,100.34 55.84,134.84 34.5,34.5 82.18,55.85 134.84,55.85 52.66,0 100.34,-21.34 134.85,-55.85 34.5,-34.5 55.85,-82.18 55.85,-134.84 0,-52.66 -21.34,-100.34 -55.85,-134.84z"/>
   <path class="fil5 str2" d="M1321.85 262.14c236.74,0 428.65,179.11 428.65,400.05 0,220.94 -191.91,400.05 -428.65,400.05 -236.74,0 -428.65,-179.11 -428.65,-400.05 0,-220.94 191.91,-400.05 428.65,-400.05zm0 117.61c155.99,0 282.44,126.45 282.44,282.44 0,155.99 -126.45,282.44 -282.44,282.44 -155.99,0 -282.44,-126.45 -282.44,-282.44 0,-155.99 126.45,-282.44 282.44,-282.44z"/>
  </g>
 </g>
</svg>
