<?xml version="1.0" encoding="UTF-8"?>
<!DOCTYPE svg PUBLIC "-//W3C//DTD SVG 1.1//EN" "http://www.w3.org/Graphics/SVG/1.1/DTD/svg11.dtd">
<!-- Creator: CorelDRAW 2018 (64 Bit Versão de avaliação) -->
<svg xmlns="http://www.w3.org/2000/svg" xml:space="preserve" width="64.749mm" height="127.475mm" version="1.1" style="shape-rendering:geometricPrecision; text-rendering:geometricPrecision; image-rendering:optimizeQuality; fill-rule:evenodd; clip-rule:evenodd"
viewBox="0 0 4508 8875.14"
 xmlns:xlink="http://www.w3.org/1999/xlink">
 <defs>
  <style type="text/css">
   <![CDATA[
    .str3 {stroke:#FEFEFE;stroke-width:13.92;stroke-miterlimit:22.9256}
    .str2 {stroke:#373536;stroke-width:13.92;stroke-miterlimit:22.9256}
    .str0 {stroke:#D03438;stroke-width:13.92;stroke-miterlimit:22.9256}
    .str1 {stroke:#D03438;stroke-width:5.31;stroke-miterlimit:22.9256}
    .fil1 {fill:#FEFEFE}
    .fil5 {fill:#373536}
    .fil0 {fill:#D03438}
    .fil2 {fill:#373536;fill-rule:nonzero}
    .fil3 {fill:#373536;fill-rule:nonzero}
    .fil4 {fill:#D03438;fill-rule:nonzero}
   ]]>
  </style>
 </defs>
 <g id="Camada_x0020_1">
  <metadata id="CorelCorpID_0Corel-Layer"/>
  <g id="_2247254598752">
   <g>
    <path class="fil0 str0" d="M4257.97 8848.69l-966.75 0c-14.14,0 -25.7,-11.56 -25.7,-25.7l0 -1271.12c0,-14.13 11.56,-25.7 25.7,-25.7l966.75 0c14.13,0 25.7,11.56 25.7,25.7l0 1271.12c0,14.13 -11.56,25.7 -25.7,25.7z"/>
    <path class="fil1" d="M3589.08 8102.85c2.17,-5.61 2.13,-8.91 5.63,-16.15 2.77,-5.72 24.07,-27.88 30.17,-34.85 1.04,-1.08 0.69,-0.49 1.27,-1.85 -3.03,0.79 -7.35,2.95 -10.47,4.09 -10.91,4.01 -26.28,6.38 -38.47,6.38 -8.97,0 -9.71,-0.03 -17.93,5.42l-8.41 6.24c-0.77,0.61 -0.86,0.95 -1.61,1.56l-6.46 5.8c-2.67,2.67 -9.65,9.88 -11.61,12.53 -0.74,1.01 -0.58,0.64 -1.33,1.44l-3.35 4.17c-0.4,0.47 -0.23,0.22 -0.73,0.85 -0.88,1.12 -1.76,2.62 -2.78,3.52 -6.43,1.33 -21.9,-2.46 -27.33,-4.71 -13.46,-5.56 -20.48,-5.37 -34.8,-5.37 -7.98,0 -18.98,1.34 -26.02,3.61 8.35,1.27 13.22,0.98 22.73,3.06 6.96,1.52 13.27,3.93 18.71,7.02 2.58,1.47 4.94,3.48 7.36,5.31l7.4 5.65c4.25,3.2 8.15,6.68 12.64,9.52 0.56,0.36 0.19,0.01 0.95,0.63 0.1,0.08 0.35,0.3 0.43,0.38 0.56,0.54 0.08,-0.08 0.56,0.66 -1.67,1.87 -7.63,4.36 -11.68,8.95 -0.88,1 -1.85,1.48 -2.7,2.44 -9.98,11.31 -13.39,25.13 -15.88,40.7 -3.98,24.92 -2.09,36.69 -3.52,58.33 -0.52,7.87 -0.97,11.47 -7.09,16.15l-4.05 3.87c-5.68,4.92 -9.02,11.59 -12.44,18.44 -4.62,9.22 -7.64,21.26 -9.15,32.38 -1.68,12.39 -1.46,25.8 -2.74,38.42 -0.9,8.85 -2.09,17.73 -4.64,26.24 -0.7,2.32 -2.67,6.06 -2.92,7.86 4.54,4.57 4.06,5.16 10.29,9.78 7.69,5.7 16.72,8.92 27.3,8.92 2.97,0 5.51,-0.74 8.07,-0.86 3.33,-0.15 20.59,10.94 47.31,-1.34 5.21,-2.4 15.37,-0.68 15.37,-16.21 0,-8.94 -8.86,-22.06 -14.25,-29.59 -1.8,-2.51 -3.68,-4.33 -5.99,-6.27 -1.53,-1.29 -2.73,-2.65 -4.99,-3.4 -2.51,0.17 -13.32,8.7 -29,8.12 0.82,-1.62 1.73,-1.5 3.47,-2.33 1.33,-0.63 2.43,-1.14 3.75,-1.8 6.93,-3.47 15.06,-7.71 20.9,-12.15 0.24,-4.04 0.4,-7.89 0.56,-11.96 0.17,-4.37 1.41,-5.91 3.49,-9.09 2.49,-3.79 5.72,-6.95 8.5,-10.5l7.05 -8.38c0.78,-1.05 0.74,-0.77 1.53,-1.63 0.6,-0.65 0.81,-1.2 1.34,-1.84 0.58,-0.71 1.01,-0.84 1.62,-1.55 0.66,-0.77 0.62,-1.08 1.33,-1.84 0.76,-0.81 0.93,-0.67 1.62,-1.54 0.73,-0.92 0.52,-0.99 1.36,-1.81l4.62 -4.87c1.32,-1.21 1.74,-2.4 2.85,-3.48 4.73,-4.62 9.26,-9.59 14.34,-13.76l4.75 -4.76c0.97,-1.23 1.71,-2.32 2.67,-3.66 11.47,-16.11 13.58,-39.6 12.92,-59.9l-1.77 -26.96c1.62,1.47 2.61,9.38 3.02,11.47 3.72,19.17 7.16,39.76 2.96,59.13 13.83,0 27.52,3.11 38.15,9.35 1.5,0.88 2.14,1.32 3.56,2.39 1.29,0.98 2.2,1.82 3.24,2.69l20.44 15.18c4.53,3.31 9.34,6.17 14.19,9.55 9.31,6.49 19.57,12.32 29.68,17.83 6.93,3.78 10.12,5.05 19.08,5.05 9.71,0 50.4,-4.05 58.23,-7.14l-1.09 -0.53c-7.69,-2.74 -47.09,-10.75 -48.81,-12.53 -1.91,-2.01 -2.59,-22.7 -2.59,-26.91 0,-26.42 7.15,-49.35 22.31,-68.91l5.67 -6.2c0.92,-0.94 2.88,-3.22 3.91,-4.02l4.37 -3.54c0.73,-0.61 1.42,-1.13 2.21,-1.73 1,-0.75 1.57,-1.35 2.93,-1.51 -1.09,2.01 -3.15,3.65 -4.57,5.4 -22.49,27.78 -33.68,61.77 -23.96,97.51 0.63,2.33 0.58,2.09 2.83,2.72 14.55,4.07 29.03,8.79 43.47,13.12l69.29 21.4c-5.12,0.29 -25.06,-5.24 -28.15,-4.77 -0.83,0.13 -0.4,0.01 -0.9,0.31 3.53,1.82 22.54,17.59 26.35,21.15 -2.43,-0.65 -26.53,-17.61 -29.83,-19.86 -1.2,-0.83 -1.9,-1.84 -3.75,-1.51 -1.9,0.33 -6.45,2.03 -8.35,2.78 -4.48,1.8 -9.04,3.81 -12.22,7.19 -0.74,0.79 -0.88,0.6 -0.88,2.19 0,10.3 1.81,28.86 8.38,36.64 1.61,1.89 2.4,2.97 4.3,4.8 4.66,4.49 10,8.39 15.71,11.61 6.18,3.49 1.92,-0.83 7.16,6.29l2.1 2.66c2.61,3.15 6.53,6.03 10.19,8.01 8.32,4.5 17.53,5.72 27.03,5.28 1.51,-4.8 13.93,-29.26 17.15,-36.21 1.17,-2.53 2.62,-2.71 5.17,-3.91l12 -5.84c4.32,-2.16 6.78,-4.47 10.16,-7.64 0.92,-0.86 0.85,-1.32 2.03,-2.32 1.61,-1.37 1.16,-0.93 2.3,-2.44 9.62,-12.73 15.6,-26.01 5.63,-41.44 -3.43,-5.29 -4.97,-5.08 -7.85,-8.38l-51.27 -46.08c-1.27,-1.45 -1.52,-1.39 -2.97,-2.56 -1.18,-0.95 -1.53,-1.81 -2.78,-2.76l-14.27 -13.05c2.26,0.34 12.61,6.75 15.19,8.19l18.89 10.81c2.19,1.22 2.1,0.88 3.83,-0.48 4.25,-3.35 9.36,-6.73 14.31,-9.45 1.96,-1.08 6.71,-2.81 7.82,-3.91 -1.5,-3.69 -16.83,-41.24 -17.33,-44.36 1.78,0.97 8.64,14.15 9.7,16.1l18.58 32.87c5.36,8.95 10.34,14.31 16.1,22.28l4.15 5.35c4.56,5.65 8.35,9.78 16.7,12.59 11.66,3.93 45.46,3.27 61.07,3.15 3.86,-0.03 6.2,1.83 9.3,3.64 6.91,4.02 13.56,7.8 19.95,12.1l3.64 2.69c2.42,2.29 3.25,5.1 8.62,3.63 10.05,-2.76 19.61,-10.85 27.71,-17.02 2.36,-1.8 4.78,-4 7.44,-5.63 2.83,-1.73 6.83,-2.05 4.19,-7.17l-2.85 -3.86c-1.94,-2.21 -4.55,-4 -7.55,-5.12l-18.67 -7.05c-2.71,-1.02 -7.72,-1.98 -8.61,-4.53 6.06,-3.92 43.54,12.99 50.69,12.99 7.05,0 9.76,-4.08 12.06,-10.03 0.97,-2.49 7.78,-8.98 8.99,-11.51 5.28,-11.11 -1.17,-15.04 -0.38,-19.72 1.81,-10.66 2.37,-25.23 -4.59,-34.46 -1.29,-1.73 -2.37,-2.13 -3.98,-3.61l5.61 -5.94c1.13,-1.13 1.01,-0.7 1.96,-2.01l6.47 -9.36c4.15,-6.61 7.04,-14.22 9.49,-22.17 9.24,-30.02 8.19,-64.71 4.95,-95.92 -2.03,3.91 -4.05,10.16 -5.96,14.59 -7.65,17.65 -15.78,30.98 -27.08,45.34l-11.46 11.49c-5.49,4.36 -10.88,8.16 -17.47,11.04 -4.14,1.8 -11.95,4.58 -16.92,3.7 -0.33,-1.65 2.3,-18.85 2.68,-22.36 0.74,-6.84 1.73,-16.96 0.93,-23.76 -0.08,-0.03 -0.22,-0.14 -0.26,-0.05l-9.87 7.16c-3.33,2.38 -6.92,4.87 -10.74,7.08 -6.76,3.93 -17.73,9.82 -27.24,8.65l-11.54 -13.28c-1.66,-2.42 -4.05,-4.21 -5.87,-6.4 -1.31,-1.57 -1.3,-2 -2.94,-3.39 -2.26,-1.93 -3.63,-4.43 -5.89,-6.37 -1.66,-1.43 -1.78,-1.73 -3.15,-3.19l-5.17 -4.32c-0.79,-0.61 -0.97,-0.8 -1.76,-1.41 -5.68,-4.3 -9.74,-5.98 -15.37,-9.48 3.01,-11.77 10.4,-28.05 9.87,-40.77 -8.45,1.81 -20.61,9.57 -27.68,14.48l-9.52 7.51c-3.18,2.57 -5.46,5.7 -8.68,8.33l-6.48 7.76c-6.04,8.01 -11.1,16.73 -14.45,26.32 -0.39,1.11 -0.65,2.17 -1.43,3 -0.47,-5.98 7.16,-33.28 11.46,-40.88 0.67,-1.18 0.88,-1.25 1.34,-2.49l-13.28 -11.17c-2.36,-1.91 -4.49,-3.58 -6.82,-5.44l-10.68 -7.92c-25.86,-19.39 -67.74,-42.56 -99.9,-42.56 -26.52,0 -30.49,5.95 -49.38,17.11 -4.53,2.67 -8.7,5.25 -13.09,7.9 -33.64,20.23 -71.34,40.03 -102.19,63.22l-24.79 21.52c-2.19,1.93 -5.22,6.2 -6.85,8.58 -2.53,3.7 -4.48,7.76 -6.29,11.88 -0.91,2.07 0.16,1.06 -1.24,1.6zm394.95 10.42c-1.53,-1.46 -3.04,-0.55 -3.43,1.29 -0.79,4.3 -1.58,8.59 -2.37,12.89 -0.13,2.07 1.28,3.52 3.87,4.52 7.16,3.22 14.32,6.45 21.49,9.66 2.19,1.02 4.3,-1.29 2.58,-4.08 -7.38,-8.1 -14.76,-16.19 -22.14,-24.28zm-201.16 185.24c-9.66,1.38 -26.49,2.51 -38.67,5.86 -8.42,4.32 -38.7,29.67 -45.14,48.73 -1.89,5.44 -1.98,10.88 -0.43,16.33 18.51,22.68 43.37,28.41 70.48,28.15 18.51,-1.3 40.88,-4.36 28.37,-27.93 -20.62,-11.54 -16.45,-48.17 -11.17,-67.47 0.12,-2.49 -0.99,-3.75 -3.44,-3.66zm-229.39 -19.39c13.61,-9.38 24,-23.81 32.45,-36.85 33.99,2.42 53.88,27.13 82.73,48.57 -9.24,3.29 -24.99,8.74 -41.68,8.59 2.94,34.09 -10.82,53.43 -25.79,84.24 -2.54,2.61 -6.84,3.47 -13.1,2.36 -27.42,-6.29 -45.36,-22.78 -49.86,-53.71 -0.35,-3.94 1.33,-6.12 4.73,-7.09 5.52,-1.65 11.46,-1.79 16.55,-4.94 2.88,-2.17 5.63,-5.01 4.51,-8.38 -4.01,-11.24 -12.96,-21.1 -10.53,-32.77zm435.24 -217.02c12.69,-4.45 24.56,-10.96 36.1,-18.27 2.76,-0.86 3.91,-0.35 3.22,1.94 -4.06,13.13 -9.2,26.12 -17.84,38.68 -8.61,-9.85 -15.46,-16.79 -21.49,-22.35z"/>
   </g>
   <path class="fil2" d="M1428.89 3168.23c-47.39,-39.49 -99.29,-69.39 -155.7,-89.14 -58.11,-19.75 -120.17,-29.9 -185.04,-29.9 -121.29,0 -223.4,39.48 -307.45,117.34 -84.63,78.42 -126.94,175.45 -126.94,291.09 0,90.27 18.05,171.5 54.16,243.15 35.54,71.65 88,128.06 157.4,169.81 67.13,43.44 144.42,64.87 232.99,64.87 129.75,0 240.89,-41.75 333.97,-124.12l288.84 366.7c-41.75,44.01 -100.42,83.49 -174.89,117.34 -76.16,34.41 -154.58,59.8 -234.68,76.16 -80.67,16.36 -155.14,24.82 -223.41,24.82 -191.81,0 -361.05,-40.05 -507.17,-120.73 -146.67,-81.24 -258.94,-188.42 -337.36,-320.43 -78.42,-134.27 -117.34,-278.12 -117.34,-431.57 0,-139.91 23.69,-266.84 71.08,-380.24 48.51,-115.64 115.09,-214.94 199.71,-297.3 84.06,-80.67 186.16,-143.85 305.76,-190.12 119.04,-45.13 247.66,-67.69 385.31,-67.69 112.27,0 222.27,17.49 328.9,53.03 108.32,36.1 203.09,87.44 286.02,153.45l-274.17 373.46zm778.52 112.26c40.62,-64.87 95.34,-116.77 163.61,-155.13 68.26,-37.23 140.47,-56.42 216.63,-56.42 77.85,0 150.63,19.18 218.32,56.42 68.27,38.36 122.42,90.26 163.6,155.13 40.62,65.45 60.93,136.52 60.93,213.25 0,116.78 -44.01,217.76 -132.01,302.95 -87.45,83.49 -190.68,125.24 -310.84,125.24 -119.03,0 -222.27,-41.75 -309.15,-125.24 -88.01,-85.19 -132.01,-186.17 -132.01,-302.95 0,-76.72 20.31,-147.8 60.93,-213.25zm824.78 1069.62l524.09 5.08 1.69 -861.45c0,-128.62 -25.95,-248.78 -77.85,-359.92 -50.78,-108.32 -122.42,-204.22 -214.95,-287.72 -88,-81.8 -191.8,-144.42 -310.84,-188.43 -119.04,-44 -241.46,-66 -366.7,-66 -126.94,0 -249.35,22.56 -367.26,67.7 -117.91,42.87 -221.14,104.93 -310.28,186.73 -90.26,81.24 -161.34,177.14 -213.25,287.72 -51.9,111.14 -77.85,231.3 -77.85,359.92 0,170.94 44.57,326.08 133.7,464.86 88.57,136.52 207.04,244.28 357.1,323.82 150.06,78.42 309.15,117.34 477.83,117.34 127.49,0 249.92,-22.56 366.7,-67.69 16.93,-5.64 42.31,-16.36 77.85,-31.59l0 49.64zm1475.81 -1750.54c-34.98,-5.08 -71.08,-8.47 -107.18,-9.59l-29.9 0c-486.86,24.26 -730.57,276.99 -730.57,758.78l0 1001.36 529.17 0 0 -1001.36c0,-182.22 67.13,-275.87 201.4,-280.95l29.9 0c44,1.69 79.54,12.41 107.18,31.03l0 -499.26z"/>
   <path class="fil3" d="M2484.57 4554.62c-34.97,-5.08 -71.08,-8.46 -107.18,-9.59l-29.9 0c-486.85,24.26 -730.57,277 -730.57,758.78l0 1001.36 529.17 0 0 -1001.36c0,-182.22 67.13,-275.87 201.4,-280.94l29.9 0c44,1.69 79.54,12.41 107.18,31.02l0 -499.26zm671.33 680.92c40.62,-64.88 95.34,-116.78 163.61,-155.14 68.27,-37.23 140.47,-56.42 216.63,-56.42 77.85,0 150.63,19.18 218.32,56.42 68.27,38.36 122.42,90.26 163.61,155.14 40.62,65.44 60.93,136.52 60.93,213.25 0,116.78 -44,217.76 -132.01,302.94 -87.45,83.49 -190.68,125.24 -310.84,125.24 -119.03,0 -222.27,-41.75 -309.15,-125.24 -88,-85.18 -132,-186.16 -132,-302.94 0,-76.72 20.3,-147.81 60.92,-213.25zm824.79 1069.61l524.09 5.08 1.7 -861.45c0,-128.63 -25.96,-248.79 -77.85,-359.93 -50.78,-108.31 -122.42,-204.22 -214.94,-287.71 -88.01,-81.81 -191.81,-144.43 -310.84,-188.43 -119.04,-44 -241.45,-66 -366.7,-66 -126.93,0 -249.35,22.56 -367.26,67.69 -117.91,42.87 -221.14,104.93 -310.28,186.74 -90.26,81.24 -161.34,177.13 -213.24,287.71 -51.9,111.14 -77.85,231.3 -77.85,359.93 0,170.93 44.57,326.07 133.7,464.85 88.57,136.53 207.04,244.28 357.1,323.82 150.06,78.42 309.15,117.34 477.83,117.34 127.5,0 249.92,-22.56 366.7,-67.7 16.93,-5.64 42.31,-16.35 77.85,-31.59l0 49.64z"/>
   <g>
    <path class="fil2" d="M646.54 8208.99c-20.2,24.23 -35.49,50.78 -45.59,79.62 -10.1,29.72 -15.29,61.46 -15.29,94.63 0,62.03 20.2,114.25 60.01,157.24 40.1,43.28 89.73,64.92 148.87,64.92 46.16,0 87.71,-9.23 124.35,-27.7 36.64,-18.18 65.49,-45.01 86.84,-80.5 22.22,-34.33 33.18,-73.86 33.18,-119.15 0,-66.36 -21.35,-123.2 -63.48,-170.8l187.53 -147.72c22.5,21.35 42.7,51.36 60.01,89.44 17.6,38.95 30.59,79.05 38.95,120.02 8.37,41.26 12.7,79.34 12.7,114.24 0,98.1 -20.48,184.65 -61.74,259.37 -41.54,75.01 -96.36,132.43 -163.87,172.53 -68.66,40.1 -142.23,60.01 -220.7,60.01 -71.55,0 -136.46,-12.12 -194.46,-36.35 -59.14,-24.81 -109.92,-58.86 -152.04,-102.14 -41.25,-42.99 -73.57,-95.21 -97.23,-156.37 -23.07,-60.88 -34.62,-126.66 -34.62,-197.05 0,-57.41 8.94,-113.67 27.12,-168.19 18.46,-55.39 44.72,-103.86 78.47,-146.27l191 140.21zm-260.24 -471.71l866.38 0 0 269.75 -865.51 0 -0.86 -269.75zm-245.23 -0.87c27.12,0 51.06,6.35 71.84,18.76 21.06,12.41 37.79,29.14 50.78,50.78 12.98,21.35 19.62,45.01 19.62,70.97 0,25.96 -6.35,49.33 -18.76,70.11 -12.98,21.35 -30,38.37 -51.64,50.78 -22.5,12.98 -46.45,19.33 -71.84,19.33 -25.97,0 -49.63,-6.06 -70.97,-18.46 -21.93,-13.56 -39.24,-30.87 -51.65,-51.64 -12.11,-20.78 -18.46,-44.15 -18.46,-70.11 0,-25.96 6.35,-49.62 18.46,-70.97 12.41,-21.06 29.71,-37.79 51.65,-50.78 21.35,-12.41 45,-18.76 70.97,-18.76zm214.65 -485.84c-2.6,17.89 -4.33,36.36 -4.91,54.82l0 15.29c12.41,248.98 141.66,373.62 388.04,373.62l512.1 0 0 -270.62 -512.1 0c-93.19,0 -141.08,-34.34 -143.68,-103l0 -15.29c0.87,-22.51 6.35,-40.68 15.87,-54.82l-255.33 0zm290.81 -708.56c-20.2,24.24 -35.49,50.78 -45.59,79.63 -10.1,29.71 -15.29,61.45 -15.29,94.63 0,62.03 20.2,114.24 60.01,157.24 40.1,43.28 89.73,64.91 148.87,64.91 46.16,0 87.71,-9.23 124.35,-27.7 36.64,-18.17 65.49,-45 86.84,-80.49 22.22,-34.33 33.18,-73.86 33.18,-119.15 0,-66.36 -21.35,-123.19 -63.48,-170.8l187.53 -147.71c22.5,21.35 42.7,51.35 60.01,89.44 17.6,38.95 30.59,79.05 38.95,120.02 8.37,41.26 12.7,79.34 12.7,114.25 0,98.09 -20.48,184.64 -61.74,259.37 -41.54,75.01 -96.36,132.42 -163.87,172.53 -68.66,40.1 -142.23,60.01 -220.7,60.01 -71.55,0 -136.46,-12.11 -194.46,-36.35 -59.14,-24.81 -109.92,-58.85 -152.04,-102.13 -41.25,-42.99 -73.57,-95.21 -97.23,-156.37 -23.07,-60.88 -34.62,-126.65 -34.62,-197.05 0,-57.42 8.94,-113.67 27.12,-168.2 18.46,-55.39 44.72,-103.86 78.47,-146.27l191 140.21zm385.44 -565.47c-2.3,68.66 -49.91,103 -142.81,103l-503.73 0 0 270.62 503.73 0c245.23,0 374.48,-124.64 388.04,-373.62l0 -15.29c-13.56,-248.98 -142.82,-373.62 -388.04,-373.62l-503.73 0 0 270.62 503.73 0c92.9,0 140.51,34.33 142.81,103l0 15.29zm-53.09 -568.07c53.38,-53.37 80.21,-118.87 80.21,-195.9 0,-80.78 -23.66,-120.89 -70.97,-120.89 -24.81,0 -43.28,22.22 -55.11,66.65 -7.21,31.73 -19.91,81.65 -37.8,150.59 -14.71,55.68 -41.83,102.71 -81.36,141.08 -38.65,37.79 -98.38,56.55 -179.16,56.55 -62.03,0 -114.24,-15.58 -157.23,-46.45 -42.7,-31.45 -74.44,-72.41 -94.63,-122.61 -20.78,-51.07 -31.16,-107.32 -31.16,-168.2 0,-34.33 4.61,-69.24 14.42,-104.73 11.83,-38.37 26.25,-72.7 43.86,-102.99 18.46,-33.47 39.52,-62.6 62.6,-88l147.71 148.58c-32.6,43.56 -48.75,90.88 -48.75,142.23 0,61.45 17.02,92.03 51.35,92.03 31.16,0 52.79,-22.79 65.19,-68.38 13.56,-50.2 26.26,-100.69 38.08,-151.46 13.85,-55.68 39.82,-102.14 77.61,-139.35 38.37,-37.79 98.67,-56.55 180.89,-56.55 61.46,0 114.54,16.15 158.97,49.05 45,32.6 78.47,76.16 100.69,130.97 23.08,54.54 34.62,111.08 34.62,169.94 0,48.76 -4.04,93.18 -11.83,132.42 -7.5,39.52 -19.91,76.45 -37.21,110.78 -17.6,35.49 -40.97,72.71 -70.11,111.65l-180.89 -137.04z"/>
    <path class="fil4 str1" d="M1117.38 4798.28c-27.7,0 -52.79,-6.93 -75.3,-21.06 -23.66,-14.72 -41.84,-33.47 -54.82,-56.84 -13.56,-23.65 -20.19,-48.76 -20.19,-75.01 0,-26.54 6.63,-51.64 20.19,-75.3 14.14,-23.08 32.6,-41.84 55.68,-55.68 22.5,-14.14 47.32,-21.35 74.43,-21.35 45,0 82.22,14.71 111.65,44.14 29.71,29.71 44.72,65.78 44.72,108.19 0,27.99 -6.64,53.67 -20.19,76.75 -13.56,23.66 -32.6,42.41 -56.84,55.97 -24.52,13.56 -51.06,20.2 -79.34,20.2z"/>
   </g>
   <path class="fil2 str2" d="M539.26 1509.3c0,117.91 44,219.45 132.01,304.08 86.88,85.18 190.12,127.5 309.16,127.5 120.16,0 223.4,-42.32 310.84,-127.5 88,-84.63 132.01,-186.16 132.01,-304.08 0,-76.72 -20.31,-147.25 -60.93,-211.56 -41.18,-64.87 -95.34,-116.77 -163.6,-155.14 -67.69,-38.35 -140.47,-58.1 -218.32,-58.1 -76.16,0 -148.37,19.75 -216.64,58.1 -68.26,38.37 -122.98,90.27 -163.6,155.14 -40.62,64.31 -60.93,134.84 -60.93,211.56zm-527.47 -1500.63l527.47 -1.68 0 697.84 37.81 -16.93 37.79 -16.36c119.03,-42.87 240.89,-64.31 365.58,-64.31 125.24,0 247.66,21.44 366.7,64.31 115.64,42.88 220.01,106.06 312.54,190.12 91.38,82.36 162.47,178.84 213.24,289.41 51.9,111.13 77.85,230.73 77.85,358.22 0,131.45 -25.38,251.6 -76.15,360.5 -50.78,108.87 -122.42,205.9 -214.94,291.08 -93.66,84.63 -198.01,147.82 -312.54,190.13 -115.65,45.14 -238.07,67.69 -366.7,67.69 -168.68,0 -327.77,-40.04 -477.84,-119.03 -150.06,-78.42 -268.53,-186.16 -357.09,-324.39 -88,-135.4 -132.57,-286.58 -133.7,-454.14l0 -1512.47z"/>
   <path class="fil0" d="M3307.27 1195.52c-78.33,-78.33 -186.59,-126.79 -306.16,-126.79 -119.56,0 -227.81,48.46 -306.14,126.79 -78.33,78.33 -126.79,186.59 -126.79,306.15 0,119.57 48.46,227.81 126.79,306.15 78.33,78.33 186.57,126.8 306.14,126.8 119.57,0 227.82,-48.46 306.16,-126.8 78.33,-78.33 126.8,-186.57 126.8,-306.15 0,-119.56 -48.46,-227.81 -126.8,-306.15z"/>
   <path class="fil5 str3" d="M3001.13 602.15c537.49,0 973.21,406.65 973.21,908.27 0,501.62 -435.72,908.27 -973.21,908.27 -537.49,0 -973.21,-406.65 -973.21,-908.27 0,-501.62 435.72,-908.27 973.21,-908.27zm0 267.02c354.15,0 641.25,287.1 641.25,641.25 0,354.15 -287.1,641.25 -641.25,641.25 -354.15,0 -641.25,-287.1 -641.25,-641.25 0,-354.15 287.1,-641.25 641.25,-641.25z"/>
  </g>
 </g>
</svg>
