<?xml version="1.0" encoding="UTF-8"?>
<!DOCTYPE svg PUBLIC "-//W3C//DTD SVG 1.1//EN" "http://www.w3.org/Graphics/SVG/1.1/DTD/svg11.dtd">
<!-- Creator: CorelDRAW 2018 (64 Bit Versão de avaliação) -->
<svg xmlns="http://www.w3.org/2000/svg" xml:space="preserve" width="177.063mm" height="45.9948mm" version="1.1" style="shape-rendering:geometricPrecision; text-rendering:geometricPrecision; image-rendering:optimizeQuality; fill-rule:evenodd; clip-rule:evenodd"
viewBox="0 0 17696.35 4596.89"
 xmlns:xlink="http://www.w3.org/1999/xlink">
 <defs>
  <style type="text/css">
   <![CDATA[
    .str0 {stroke:#D03438;stroke-width:19.99;stroke-miterlimit:22.9256}
    .fil1 {fill:#FEFEFE}
    .fil3 {fill:#373435}
    .fil0 {fill:#D03438}
    .fil2 {fill:#373435;fill-rule:nonzero}
   ]]>
  </style>
 </defs>
 <g id="Camada_x0020_1">
  <metadata id="CorelCorpID_0Corel-Layer"/>
  <g id="_2661268801824">
   <g>
    <rect class="fil0 str0" x="9.99" y="9.99" width="3523.59" height="4576.9" rx="76.24" ry="115.54"/>
    <path class="fil1" d="M1129.78 2005.71c7.52,-19.42 7.37,-30.85 19.5,-55.9 9.57,-19.78 83.3,-96.48 104.41,-120.62 3.6,-3.74 2.39,-1.7 4.43,-6.39 -10.49,2.73 -25.44,10.2 -36.26,14.17 -37.74,13.89 -90.95,22.11 -133.1,22.11 -31.06,0 -33.62,-0.12 -62.04,18.77l-29.12 21.57c-2.65,2.14 -2.97,3.31 -5.55,5.42l-22.37 20.08c-9.23,9.2 -33.39,34.18 -40.19,43.35 -2.59,3.5 -2.03,2.23 -4.61,4.99l-11.58 14.44c-1.4,1.65 -0.79,0.74 -2.53,2.94 -3.08,3.89 -6.11,9.05 -9.63,12.18 -22.23,4.6 -75.8,-8.56 -94.57,-16.31 -46.57,-19.25 -70.88,-18.56 -120.45,-18.56 -27.6,0 -65.67,4.62 -90.04,12.46 28.9,4.41 45.74,3.41 78.66,10.59 24.08,5.27 45.92,13.61 64.73,24.31 8.94,5.09 17.11,12.05 25.47,18.35l25.63 19.59c14.69,11.06 28.22,23.12 43.75,32.93 1.93,1.22 0.65,0.04 3.32,2.16 0.32,0.26 1.2,1.03 1.48,1.3 1.94,1.88 0.3,-0.27 1.96,2.3 -5.78,6.49 -26.43,15.08 -40.43,30.96 -3.04,3.46 -6.4,5.09 -9.36,8.45 -34.54,39.15 -46.32,86.97 -54.94,140.85 -13.8,86.26 -7.24,127 -12.19,201.88 -1.81,27.23 -3.36,39.7 -24.57,55.87l-13.99 13.41c-19.67,17 -31.2,40.12 -43.07,63.81 -15.97,31.9 -26.43,73.59 -31.66,112.09 -5.83,42.85 -5.05,89.29 -9.47,132.93 -3.09,30.62 -7.21,61.37 -16.05,90.81 -2.42,8.05 -9.22,20.97 -10.13,27.2 15.72,15.83 14.06,17.86 35.63,33.83 26.61,19.71 57.86,30.88 94.47,30.88 10.27,0 19.06,-2.59 27.92,-3 11.55,-0.52 71.26,37.89 163.73,-4.66 18.04,-8.3 53.19,-2.33 53.19,-56.08 0,-30.95 -30.64,-76.37 -49.31,-102.4 -6.23,-8.69 -12.75,-14.99 -20.74,-21.69 -5.32,-4.46 -9.44,-9.17 -17.29,-11.78 -8.68,0.57 -46.09,30.09 -100.37,28.11 2.83,-5.6 5.97,-5.2 11.98,-8.06 4.63,-2.19 8.43,-3.95 12.99,-6.24 23.99,-12.01 52.13,-26.66 72.35,-42.05 0.83,-13.96 1.37,-27.29 1.91,-41.4 0.58,-15.1 4.89,-20.44 12.08,-31.43 8.63,-13.14 19.8,-24.06 29.42,-36.34l24.41 -28.99c2.7,-3.65 2.56,-2.69 5.31,-5.66 2.07,-2.24 2.79,-4.17 4.61,-6.35 2.05,-2.47 3.51,-2.92 5.61,-5.37 2.29,-2.68 2.13,-3.73 4.59,-6.35 2.64,-2.81 3.22,-2.33 5.63,-5.35 2.53,-3.16 1.81,-3.41 4.7,-6.26l16 -16.85c4.56,-4.22 6.01,-8.29 9.86,-12.06 16.35,-16 32.03,-33.16 49.61,-47.61l16.44 -16.44c3.37,-4.27 5.94,-8.03 9.24,-12.68 39.71,-55.77 47,-137.05 44.7,-207.3l-6.13 -93.33c5.6,5.09 9.05,32.46 10.45,39.7 12.9,66.38 24.8,137.62 10.25,204.64 47.87,0 95.25,10.77 132.04,32.37 5.18,3.04 7.42,4.54 12.31,8.26 4.47,3.39 7.63,6.31 11.22,9.3l70.74 52.53c15.68,11.43 32.34,21.34 49.12,33.02 32.19,22.45 67.71,42.64 102.71,61.72 23.99,13.07 35,17.48 66.03,17.48 33.58,0 174.43,-13.98 201.53,-24.69l-3.78 -1.84c-26.59,-9.48 -162.98,-37.19 -168.89,-43.36 -6.65,-6.92 -8.96,-78.53 -8.96,-93.13 0,-91.44 24.74,-170.75 77.19,-238.45l19.63 -21.45c3.17,-3.25 9.95,-11.15 13.5,-13.92l15.1 -12.26c2.54,-2.12 4.94,-3.93 7.69,-6.01 3.44,-2.59 5.43,-4.68 10.12,-5.24 -3.75,6.95 -10.9,12.62 -15.83,18.7 -77.82,96.16 -116.54,213.78 -82.92,337.49 2.19,8.07 2,7.23 9.79,9.4 50.37,14.1 100.48,30.44 150.45,45.42l239.8 74.08c-17.72,0.97 -86.71,-18.14 -97.42,-16.51 -2.88,0.44 -1.39,0.03 -3.11,1.09 12.22,6.3 78.02,60.89 91.19,73.19 -8.41,-2.23 -91.81,-60.93 -103.23,-68.75 -4.19,-2.87 -6.59,-6.35 -13,-5.22 -6.58,1.15 -22.31,7.01 -28.88,9.63 -15.51,6.22 -31.29,13.18 -42.29,24.86 -2.59,2.75 -3.04,2.07 -3.04,7.59 0,35.66 6.27,99.85 29.02,126.8 5.55,6.57 8.31,10.29 14.86,16.61 16.12,15.54 34.62,29.02 54.36,40.16 21.38,12.07 6.65,-2.85 24.78,21.79l7.24 9.19c9.03,10.92 22.61,20.87 35.27,27.72 28.79,15.59 60.69,19.78 93.54,18.29 5.25,-16.64 48.22,-101.27 59.36,-125.33 4.05,-8.75 9.07,-9.36 17.88,-13.54l41.55 -20.2c14.94,-7.48 23.47,-15.48 35.16,-26.47 3.2,-3 2.95,-4.55 7.04,-8.03 5.58,-4.75 4.01,-3.23 7.96,-8.46 33.29,-44.06 53.99,-90.04 19.46,-143.41 -11.85,-18.33 -17.2,-17.58 -27.13,-28.99l-177.43 -159.48c-4.39,-5.01 -5.28,-4.83 -10.28,-8.86 -4.11,-3.3 -5.31,-6.28 -9.64,-9.56l-49.4 -45.19c7.84,1.2 43.65,23.37 52.57,28.34l65.38 37.41c7.59,4.24 7.25,3.08 13.23,-1.64 14.73,-11.61 32.4,-23.29 49.54,-32.72 6.77,-3.73 23.24,-9.68 27.06,-13.53 -5.19,-12.76 -58.27,-142.72 -59.98,-153.52 6.16,3.35 29.91,48.98 33.58,55.7l64.28 113.76c18.56,30.98 35.8,49.5 55.76,77.12l14.34 18.51c15.79,19.57 28.92,33.85 57.78,43.59 40.38,13.63 157.35,11.33 211.33,10.91 13.39,-0.11 21.46,6.33 32.2,12.58 23.89,13.9 46.92,26.98 69.04,41.89l12.6 9.32c8.37,7.93 11.27,17.62 29.83,12.54 34.81,-9.54 67.88,-37.54 95.91,-58.9 8.18,-6.23 16.53,-13.86 25.73,-19.49 9.77,-5.99 23.66,-7.09 14.5,-24.8l-9.86 -13.39c-6.7,-7.67 -15.73,-13.83 -26.15,-17.72l-64.6 -24.42c-9.36,-3.54 -26.72,-6.87 -29.77,-15.66 20.97,-13.57 150.65,44.95 175.41,44.95 24.41,0 33.77,-14.11 41.74,-34.72 3.34,-8.64 26.93,-31.06 31.09,-39.81 18.26,-38.47 -4.04,-52.06 -1.29,-68.27 6.26,-36.89 8.2,-87.32 -15.88,-119.27 -4.5,-5.97 -8.23,-7.38 -13.78,-12.51l19.42 -20.55c3.91,-3.91 3.5,-2.4 6.78,-6.93l22.41 -32.4c14.36,-22.88 24.36,-49.22 32.82,-76.74 31.97,-103.89 28.35,-223.93 17.14,-331.96 -7.02,13.56 -13.98,35.17 -20.63,50.5 -26.47,61.08 -54.58,107.21 -93.7,156.89l-39.66 39.79c-18.98,15.08 -37.66,28.23 -60.46,38.18 -14.3,6.23 -41.37,15.86 -58.56,12.8 -1.15,-5.71 7.97,-65.26 9.27,-77.4 2.56,-23.69 6.01,-58.7 3.22,-82.24 -0.27,-0.12 -0.77,-0.47 -0.89,-0.16l-34.15 24.77c-11.53,8.24 -23.95,16.85 -37.14,24.51 -23.41,13.58 -61.38,34 -94.3,29.93l-39.92 -45.97c-5.77,-8.38 -14.01,-14.57 -20.33,-22.15 -4.52,-5.44 -4.51,-6.91 -10.15,-11.72 -7.83,-6.68 -12.59,-15.34 -20.39,-22.07 -5.75,-4.95 -6.14,-5.96 -10.88,-11.02l-17.92 -14.97c-2.71,-2.11 -3.34,-2.77 -6.09,-4.85 -19.65,-14.88 -33.71,-20.72 -53.19,-32.82 10.41,-40.73 35.98,-97.1 34.13,-141.09 -29.23,6.26 -71.33,33.09 -95.79,50.1l-32.92 25.98c-11.01,8.87 -18.89,19.73 -30.05,28.84l-22.43 26.85c-20.93,27.7 -38.41,57.91 -50,91.09 -1.35,3.87 -2.27,7.48 -4.95,10.38 -1.64,-20.69 24.79,-115.19 39.66,-141.46 2.33,-4.1 3.05,-4.32 4.66,-8.62l-45.97 -38.63c-8.16,-6.64 -15.54,-12.39 -23.62,-18.84l-36.95 -27.43c-89.52,-67.11 -234.45,-147.3 -345.75,-147.3 -91.77,0 -105.51,20.61 -170.89,59.21 -15.66,9.24 -30.09,18.18 -45.3,27.31 -116.4,70.01 -246.89,138.56 -353.63,218.8l-85.77 74.47c-7.57,6.69 -18.08,21.46 -23.72,29.7 -8.77,12.82 -15.5,26.85 -21.76,41.12 -3.14,7.17 0.55,3.66 -4.29,5.54zm1366.84 36.04c-5.32,-5.02 -10.54,-1.9 -11.89,4.47 -2.73,14.87 -5.46,29.73 -8.19,44.61 -0.46,7.16 4.44,12.17 13.38,15.61 24.8,11.15 49.58,22.31 74.37,33.46 7.57,3.52 14.87,-4.47 8.92,-14.13 -25.54,-28 -51.07,-56.01 -76.6,-84.02zm-696.19 641.09c-33.42,4.77 -91.69,8.69 -133.82,20.25 -29.13,14.94 -133.9,102.7 -156.2,168.63 -6.53,18.84 -6.87,37.67 -1.49,56.52 64.05,78.49 150.1,98.3 243.92,97.42 64.06,-4.51 141.44,-15.09 98.16,-96.67 -71.33,-39.94 -56.93,-166.72 -38.67,-233.51 0.42,-8.63 -3.41,-12.96 -11.9,-12.64zm-793.86 -67.1c47.09,-32.47 83.03,-82.42 112.29,-127.54 117.63,8.38 186.47,93.89 286.31,168.07 -31.98,11.4 -86.5,30.26 -144.27,29.75 10.17,117.98 -37.43,184.89 -89.24,291.51 -8.81,9.04 -23.66,12.03 -45.35,8.19 -94.88,-21.79 -156.97,-78.84 -172.52,-185.92 -1.23,-13.61 4.6,-21.16 16.35,-24.54 19.09,-5.7 39.67,-6.21 57.27,-17.11 9.97,-7.49 19.48,-17.34 15.61,-28.99 -13.88,-38.93 -44.86,-73.01 -36.44,-113.42zm1506.24 -751.08c43.92,-15.39 84.98,-37.92 124.93,-63.21 9.54,-3 13.52,-1.2 11.16,6.7 -14.03,45.44 -31.82,90.4 -61.73,133.85 -29.8,-34.08 -53.52,-58.12 -74.37,-77.34z"/>
   </g>
   <path class="fil2" d="M10837.07 3640.18l-29.22 0 0 -258.22 -59.25 0 0 -28.19 147.73 0 0 28.19 -59.26 0 0 258.22zm118.58 -157.91l124.78 0 0 28.19 -124.78 0 0 101.92 124.78 0 0 27.79 -153.99 0 0 -286.42 153.99 0 0 28.19 -124.78 0 0 100.31zm416.88 -54.39c-13.28,-17.86 -28.15,-30.95 -44.65,-39.34 -16.4,-8.4 -35.19,-12.62 -56.26,-12.62 -32.96,0 -61.21,11.81 -84.64,35.45 -23.45,23.63 -35.19,51.69 -35.19,84.26 0,34.64 11.68,63.84 34.98,87.55 23.3,23.77 51.54,35.65 84.85,35.65 20.52,0 39.09,-4.17 55.64,-12.42 16.56,-8.33 30.95,-20.68 43.2,-37.13l34.63 0c-13.56,24.38 -31.78,43.24 -54.59,56.6 -22.82,13.29 -48.41,19.94 -76.79,19.94 -43.62,0 -79.98,-14.36 -109.13,-43.04 -29.14,-28.73 -43.69,-64.58 -43.69,-107.56 0,-20.07 3.97,-39.08 11.82,-57.07 7.87,-17.93 19.42,-34.11 34.65,-48.54 14.11,-13.63 29.97,-23.97 47.57,-30.95 17.59,-7.05 36.65,-10.54 57.17,-10.54 29.48,0 55.99,6.92 79.57,20.82 23.58,13.9 42.22,33.57 55.92,58.95l-35.06 0zm274.19 178.06l-3.34 -252.18 28.79 0 0 286.42 -35.06 0 -162.75 -252.58 3.34 252.58 -28.79 0 0 -286.42 35.05 0 162.76 252.18zm96.83 -110.25c0,34.91 11.74,64.12 35.26,87.75 23.5,23.57 52.51,35.39 87.01,35.39 33.66,0 62.1,-11.95 85.33,-35.79 23.23,-23.9 34.85,-53.24 34.85,-88.15 0,-32.5 -11.96,-60.57 -35.89,-84.06 -23.87,-23.57 -52.65,-35.32 -86.38,-35.32 -13.7,0 -26.92,2.29 -39.58,6.79 -12.73,4.5 -24.41,11.21 -35.2,19.94 -14.11,11.54 -25.24,25.65 -33.3,42.3 -8.08,16.65 -12.1,33.71 -12.1,51.16zm-30.47 -0.47c0,-19.94 3.97,-38.94 11.89,-57.07 8.01,-18.06 19.48,-34.24 34.57,-48.54 14.53,-13.76 30.53,-24.11 47.99,-31.08 17.45,-6.92 36.37,-10.41 56.75,-10.41 20.73,0 40,3.5 57.74,10.54 17.73,6.99 33.93,17.46 48.6,31.35 15.1,14.3 26.44,30.28 34.01,47.94 7.6,17.72 11.41,36.79 11.41,57.27 0,20.28 -3.27,38.95 -9.8,55.93 -6.48,16.99 -16.28,32.43 -29.28,46.32 -15.09,15.98 -32.13,28 -51.19,36.13 -18.99,8.13 -39.65,12.21 -61.91,12.21 -42.64,0 -78.45,-14.43 -107.39,-43.37 -28.92,-28.87 -43.4,-64.66 -43.4,-107.23zm477.06 144.96l-133.54 0 0 -286.42 29.21 0 0 258.62 104.33 0 0 27.79zm39.01 -144.49c0,34.91 11.75,64.12 35.27,87.75 23.5,23.57 52.51,35.39 87.01,35.39 33.65,0 62.1,-11.95 85.33,-35.79 23.23,-23.9 34.84,-53.24 34.84,-88.15 0,-32.5 -11.95,-60.57 -35.88,-84.06 -23.87,-23.57 -52.66,-35.32 -86.39,-35.32 -13.69,0 -26.91,2.29 -39.57,6.79 -12.73,4.5 -24.42,11.21 -35.2,19.94 -14.11,11.54 -25.25,25.65 -33.31,42.3 -8.08,16.65 -12.1,33.71 -12.1,51.16zm-30.46 -0.47c0,-19.94 3.96,-38.94 11.89,-57.07 8.01,-18.06 19.47,-34.24 34.57,-48.54 14.53,-13.76 30.53,-24.11 47.98,-31.08 17.46,-6.92 36.37,-10.41 56.76,-10.41 20.73,0 40,3.5 57.73,10.54 17.74,6.99 33.94,17.46 48.61,31.35 15.1,14.3 26.44,30.28 34.01,47.94 7.59,17.72 11.41,36.79 11.41,57.27 0,20.28 -3.28,38.95 -9.8,55.93 -6.48,16.99 -16.28,32.43 -29.28,46.32 -15.09,15.98 -32.13,28 -51.2,36.13 -18.98,8.13 -39.64,12.21 -61.9,12.21 -42.64,0 -78.45,-14.43 -107.39,-43.37 -28.92,-28.87 -43.4,-64.66 -43.4,-107.23zm447 7.59l184.46 0c-2.43,41.7 -18.01,75.94 -46.67,102.79 -28.64,26.79 -63.84,40.22 -105.51,40.22 -42.77,0 -78.59,-14.43 -107.45,-43.24 -28.86,-28.87 -43.34,-64.65 -43.34,-107.36 0,-20.07 3.97,-39.08 11.82,-57.07 7.87,-17.93 19.42,-34.11 34.64,-48.54 14.67,-14.03 30.88,-24.44 48.68,-31.28 17.81,-6.79 37.57,-10.21 59.34,-10.21 28.79,0 54.6,6.72 77.48,20.21 22.96,13.43 41.32,32.63 55.15,57.55l-35.88 0c-13.98,-17.19 -29,-29.88 -44.93,-38.07 -16,-8.2 -33.8,-12.29 -53.55,-12.29 -34.08,0 -62.94,11.75 -86.52,35.32 -23.59,23.5 -35.34,51.83 -35.34,84.86 0,35.12 11.75,64.45 35.27,87.96 23.5,23.43 52.51,35.18 87.01,35.18 27.19,0 51.53,-8.4 73.09,-25.25 21.57,-16.79 35.55,-38.61 42.09,-65.39l-149.83 0 0 -25.39zm253.8 137.37l-29.2 0 0 -286.42 29.2 0 0 286.42zm47.98 0l-30.8 0 115.18 -286.42 35.06 0 114.76 286.42 -31.15 0 -35.47 -89.83 -132.1 0 -35.47 89.83zm157.33 -115.61l-56.27 -143.82 -55.43 143.82 111.7 0zm246.01 -42.3l124.78 0 0 28.19 -124.78 0 0 101.92 124.78 0 0 27.79 -154 0 0 -286.42 154 0 0 28.19 -124.78 0 0 100.31zm181.94 157.91l0 -286.42 42.86 0 102.72 249.02 102.24 -249.02 43.05 0 0 286.42 -27.95 0 0 -252.99 -104.33 252.99 -26.29 0 -104.33 -252.99 0 252.99 -27.96 0zm524.28 0l-29.21 0 0 -258.22 -59.26 0 0 -28.19 147.74 0 0 28.19 -59.27 0 0 258.22zm118.58 -157.91l124.78 0 0 28.19 -124.78 0 0 101.92 124.78 0 0 27.79 -153.99 0 0 -286.42 153.99 0 0 28.19 -124.78 0 0 100.31zm377.25 123.67l-3.33 -252.18 28.79 0 0 286.42 -35.06 0 -162.76 -252.58 3.35 252.58 -28.79 0 0 -286.42 35.05 0 162.75 252.18zm65.53 -47.53l27.95 0c0.55,17.72 5.78,31.75 15.65,42.3 9.87,10.47 22.88,15.71 38.95,15.71 17.31,0 31.02,-5.24 41.18,-15.64 10.14,-10.41 15.23,-24.58 15.23,-42.37 0,-25.99 -20.81,-45.59 -62.46,-58.82 -3.27,-1.08 -5.71,-1.82 -7.38,-2.35 -21.7,-7.26 -37.28,-16.38 -46.87,-27.46 -9.52,-11.07 -14.33,-25.52 -14.33,-43.38 0,-22.83 7.39,-41.49 22.13,-56.06 14.74,-14.57 33.73,-21.82 57.1,-21.82 22.26,0 39.92,6.65 53,19.87 13,13.23 20.31,31.89 21.77,55.86l-27.54 0c-1.46,-15.57 -6.33,-27.59 -14.46,-36.05 -8.15,-8.46 -19.13,-12.69 -32.83,-12.69 -14.67,0 -26.64,4.64 -35.96,13.83 -9.31,9.26 -13.98,21.02 -13.98,35.32 0,7.45 1.39,13.89 4.18,19.4 2.79,5.44 7.24,10.34 13.35,14.84 6.26,4.43 18.22,9.39 35.89,14.9 10.15,3.16 17.94,5.71 23.23,7.66 19.27,7.26 33.17,16.45 41.67,27.66 8.49,11.21 12.72,25.92 12.72,44.11 0,27.8 -7.86,50.16 -23.58,67.14 -15.65,16.99 -36.52,25.45 -62.46,25.45 -24.19,0 -43.82,-7.99 -58.91,-24.04 -15.08,-16.04 -22.81,-37.19 -23.22,-63.37zm225.27 -62.71c0,34.91 11.75,64.12 35.26,87.75 23.51,23.57 52.52,35.39 87.01,35.39 33.66,0 62.11,-11.95 85.33,-35.79 23.24,-23.9 34.85,-53.24 34.85,-88.15 0,-32.5 -11.95,-60.57 -35.88,-84.06 -23.87,-23.57 -52.66,-35.32 -86.39,-35.32 -13.69,0 -26.91,2.29 -39.57,6.79 -12.73,4.5 -24.42,11.21 -35.2,19.94 -14.11,11.54 -25.25,25.65 -33.31,42.3 -8.08,16.65 -12.1,33.71 -12.1,51.16zm-30.47 -0.47c0,-19.94 3.97,-38.94 11.9,-57.07 8,-18.06 19.47,-34.24 34.57,-48.54 14.53,-13.76 30.53,-24.11 47.98,-31.08 17.46,-6.92 36.37,-10.41 56.76,-10.41 20.73,0 40,3.5 57.73,10.54 17.74,6.99 33.94,17.46 48.61,31.35 15.09,14.3 26.44,30.28 34.01,47.94 7.59,17.72 11.41,36.79 11.41,57.27 0,20.28 -3.28,38.95 -9.8,55.93 -6.48,16.99 -16.28,32.43 -29.28,46.32 -15.09,15.98 -32.14,28 -51.2,36.13 -18.99,8.13 -39.64,12.21 -61.9,12.21 -42.64,0 -78.46,-14.43 -107.39,-43.37 -28.92,-28.87 -43.41,-64.66 -43.41,-107.23zm372.74 -12.95l124.77 0 0 28.19 -124.77 0 0 101.92 124.77 0 0 27.79 -153.99 0 0 -286.42 153.99 0 0 28.19 -124.77 0 0 100.31zm164.42 76.14l27.95 0c0.56,17.72 5.78,31.75 15.65,42.3 9.88,10.47 22.89,15.71 38.95,15.71 17.31,0 31.02,-5.24 41.18,-15.64 10.14,-10.41 15.23,-24.58 15.23,-42.37 0,-25.99 -20.8,-45.59 -62.46,-58.82 -3.27,-1.08 -5.7,-1.82 -7.37,-2.35 -21.7,-7.26 -37.29,-16.38 -46.88,-27.46 -9.52,-11.07 -14.33,-25.52 -14.33,-43.38 0,-22.83 7.39,-41.49 22.13,-56.06 14.74,-14.57 33.73,-21.82 57.1,-21.82 22.27,0 39.93,6.65 53,19.87 13,13.23 20.32,31.89 21.78,55.86l-27.55 0c-1.46,-15.57 -6.33,-27.59 -14.46,-36.05 -8.14,-8.46 -19.12,-12.69 -32.83,-12.69 -14.67,0 -26.63,4.64 -35.96,13.83 -9.31,9.26 -13.97,21.02 -13.97,35.32 0,7.45 1.39,13.89 4.17,19.4 2.79,5.44 7.24,10.34 13.36,14.84 6.25,4.43 18.22,9.39 35.88,14.9 10.15,3.16 17.94,5.71 23.24,7.66 19.27,7.26 33.17,16.45 41.66,27.66 8.5,11.21 12.72,25.92 12.72,44.11 0,27.8 -7.86,50.16 -23.57,67.14 -15.66,16.99 -36.52,25.45 -62.46,25.45 -24.2,0 -43.82,-7.99 -58.91,-24.04 -15.09,-16.04 -22.82,-37.19 -23.23,-63.37zm273.27 81.77l-29.21 0 0 -258.22 -59.26 0 0 -28.19 147.74 0 0 28.19 -59.27 0 0 258.22zm114 -258.22l0 258.22 -28.79 0 0 -286.42 79.77 0c17.52,0 31.64,1.27 42.29,3.83 10.71,2.55 20.38,6.78 29.07,12.68 11.82,8 21.14,18.67 28.02,32.03 6.89,13.42 10.3,27.59 10.3,42.5 0,22.16 -6.83,41.23 -20.52,57.21 -13.64,16.04 -30.74,24.71 -51.26,26.19l71.78 111.99 -34.64 0 -88.12 -138.17 28.16 0c18.71,0 33.95,-5.31 45.69,-15.91 11.75,-10.61 17.6,-24.25 17.6,-40.9 0,-10.06 -1.81,-19.2 -5.42,-27.45 -3.56,-8.26 -8.9,-15.51 -15.94,-21.62 -5.84,-5.11 -12.86,-8.8 -21.07,-10.94 -8.29,-2.15 -22.89,-3.23 -43.89,-3.23l-43.06 0zm202.88 -28.19l29.21 0 0 181.14c0,13.97 0.56,24.51 1.74,31.42 1.12,6.99 3.06,13.09 5.78,18.54 5.35,10.87 13.07,19.4 23.37,25.51 10.22,6.18 21.84,9.26 34.78,9.26 22.39,0 38.95,-7.39 49.72,-22.16 10.71,-14.7 16.07,-37.53 16.07,-68.48l0 -175.23 28.79 0 0 182.08c0,37.13 -7.66,64.79 -22.96,83.05 -15.3,18.2 -38.53,27.33 -69.61,27.33 -33.32,0 -57.81,-8.93 -73.45,-26.72 -15.66,-17.86 -23.45,-45.72 -23.45,-83.66l0 -182.08zm303.8 286.42l-29.21 0 0 -258.22 -59.25 0 0 -28.19 147.73 0 0 28.19 -59.27 0 0 258.22zm84.79 -286.42l29.2 0 0 181.14c0,13.97 0.56,24.51 1.74,31.42 1.12,6.99 3.07,13.09 5.78,18.54 5.36,10.87 13.07,19.4 23.37,25.51 10.23,6.18 21.84,9.26 34.78,9.26 22.39,0 38.95,-7.39 49.72,-22.16 10.71,-14.7 16.07,-37.53 16.07,-68.48l0 -175.23 28.79 0 0 182.08c0,37.13 -7.66,64.79 -22.96,83.05 -15.3,18.2 -38.52,27.33 -69.61,27.33 -33.32,0 -57.81,-8.93 -73.45,-26.72 -15.65,-17.86 -23.44,-45.72 -23.44,-83.66l0 -182.08zm264.98 28.19l0 258.22 -28.79 0 0 -286.42 79.78 0c17.52,0 31.64,1.27 42.29,3.83 10.71,2.55 20.37,6.78 29.06,12.68 11.82,8 21.15,18.67 28.03,32.03 6.89,13.42 10.29,27.59 10.29,42.5 0,22.16 -6.82,41.23 -20.52,57.21 -13.63,16.04 -30.73,24.71 -51.26,26.19l71.78 111.99 -34.64 0 -88.12 -138.17 28.16 0c18.71,0 33.95,-5.31 45.7,-15.91 11.74,-10.61 17.6,-24.25 17.6,-40.9 0,-10.06 -1.82,-19.2 -5.43,-27.45 -3.55,-8.26 -8.9,-15.51 -15.93,-21.62 -5.85,-5.11 -12.87,-8.8 -21.07,-10.94 -8.29,-2.15 -22.9,-3.23 -43.9,-3.23l-43.06 0zm200.31 258.22l-30.81 0 115.19 -286.42 35.05 0 114.76 286.42 -31.15 0 -35.47 -89.83 -132.09 0 -35.47 89.83zm157.33 -115.61l-56.28 -143.82 -55.43 143.82 111.71 0zm94.81 33.84l27.95 0c0.56,17.72 5.78,31.75 15.65,42.3 9.87,10.47 22.88,15.71 38.95,15.71 17.31,0 31.02,-5.24 41.18,-15.64 10.14,-10.41 15.23,-24.58 15.23,-42.37 0,-25.99 -20.8,-45.59 -62.46,-58.82 -3.27,-1.08 -5.71,-1.82 -7.38,-2.35 -21.7,-7.26 -37.28,-16.38 -46.87,-27.46 -9.52,-11.07 -14.33,-25.52 -14.33,-43.38 0,-22.83 7.39,-41.49 22.13,-56.06 14.74,-14.57 33.73,-21.82 57.1,-21.82 22.26,0 39.92,6.65 53,19.87 13,13.23 20.31,31.89 21.77,55.86l-27.54 0c-1.46,-15.57 -6.33,-27.59 -14.46,-36.05 -8.15,-8.46 -19.13,-12.69 -32.83,-12.69 -14.67,0 -26.64,4.64 -35.96,13.83 -9.31,9.26 -13.98,21.02 -13.98,35.32 0,7.45 1.39,13.89 4.18,19.4 2.79,5.44 7.24,10.34 13.35,14.84 6.26,4.43 18.23,9.39 35.89,14.9 10.15,3.16 17.94,5.71 23.23,7.66 19.27,7.26 33.17,16.45 41.67,27.66 8.49,11.21 12.72,25.92 12.72,44.11 0,27.8 -7.86,50.16 -23.58,67.14 -15.65,16.99 -36.51,25.45 -62.45,25.45 -24.2,0 -43.82,-7.99 -58.92,-24.04 -15.08,-16.04 -22.81,-37.19 -23.22,-63.37z"/>
   <path class="fil0" d="M6342 2321.18c-55.24,-55.24 -131.58,-89.42 -215.89,-89.42 -84.31,0 -160.65,34.18 -215.89,89.42 -55.24,55.24 -89.42,131.58 -89.42,215.89 0,84.31 34.18,160.65 89.42,215.88 55.24,55.24 131.58,89.42 215.89,89.42 84.31,0 160.65,-34.18 215.88,-89.42 55.24,-55.23 89.42,-131.57 89.42,-215.88 0,-84.3 -34.18,-160.65 -89.41,-215.89z"/>
   <path class="fil3" d="M4498.54 2542.05c0,77.96 29.09,145.1 87.29,201.06 57.44,56.33 125.7,84.3 204.41,84.3 79.45,0 147.72,-27.97 205.53,-84.3 58.19,-55.96 87.28,-123.1 87.28,-201.06 0,-50.73 -13.42,-97.37 -40.29,-139.88 -27.22,-42.91 -63.03,-77.22 -108.17,-102.58 -44.76,-25.37 -92.89,-38.43 -144.36,-38.43 -50.36,0 -98.1,13.06 -143.24,38.43 -45.14,25.37 -81.32,59.68 -108.18,102.58 -26.85,42.52 -40.29,89.15 -40.29,139.88zm1627.57 -410.23c111.9,0 213.22,45.37 286.55,118.7 73.32,73.33 118.69,174.65 118.69,286.55 0,111.88 -45.36,213.21 -118.7,286.54 -73.33,73.34 -174.66,118.7 -286.54,118.7 -111.9,0 -213.22,-45.37 -286.55,-118.7 -73.34,-73.33 -118.7,-174.66 -118.7,-286.54 0,-111.9 45.37,-213.22 118.7,-286.55 73.33,-73.33 174.65,-118.7 286.55,-118.7zm-1976.34 -582.01l348.77 -1.11 0 461.42 25 -11.19 24.99 -10.81c78.71,-28.35 159.28,-42.53 241.72,-42.53 82.8,0 163.75,14.17 242.46,42.53 76.47,28.35 145.48,70.13 206.64,125.71 60.44,54.46 107.44,118.24 141.01,191.36 34.31,73.48 51.47,152.56 51.47,236.87 0,86.91 -16.78,166.37 -50.35,238.36 -33.58,71.99 -80.95,136.15 -142.13,192.48 -61.92,55.95 -130.93,97.72 -206.64,125.71 -76.48,29.83 -157.42,44.75 -242.46,44.75 -111.54,0 -216.73,-26.49 -315.95,-78.71 -99.22,-51.85 -177.56,-123.09 -236.12,-214.49 -58.2,-89.52 -87.66,-189.49 -88.41,-300.28l0 -1000.07zm1977 1593.54c-111.54,0 -216.73,-26.49 -315.95,-78.71 -99.22,-52.59 -177.56,-124.21 -236.12,-215.23 -58.94,-92.14 -88.41,-194.72 -88.41,-308.49 0,-85.05 17.16,-164.51 51.48,-237.99 34.31,-73.86 81.31,-137.27 141,-191.36 60.43,-54.46 129.06,-96.62 206.27,-125.71 78.71,-29.09 159.28,-43.65 241.72,-43.65 82.8,0 163.75,14.55 242.46,43.65 76.47,27.6 145.48,69.38 206.64,124.59 60.44,55.58 107.44,119.36 141.01,192.48 34.31,73.48 51.47,152.93 51.47,237.99 0,86.91 -16.78,166.37 -50.35,238.36 -33.58,72.74 -80.95,137.27 -142.13,193.6 -61.92,55.21 -130.93,96.99 -206.64,125.71 -76.48,29.83 -157.42,44.75 -242.46,44.75zm1557.35 -817.66c-31.33,-26.11 -65.65,-45.87 -102.95,-58.94 -38.43,-13.05 -79.46,-19.77 -122.35,-19.77 -80.2,0 -147.72,26.12 -203.3,77.59 -55.96,51.85 -83.93,116.01 -83.93,192.48 0,59.69 11.93,113.4 35.81,160.77 23.5,47.37 58.19,84.68 104.07,112.28 44.39,28.72 95.5,42.91 154.06,42.91 85.79,0 159.27,-27.6 220.83,-82.06l190.98 242.45c-27.6,29.1 -66.39,55.21 -115.63,77.6 -50.36,22.75 -102.21,39.54 -155.17,50.35 -53.35,10.82 -102.58,16.41 -147.72,16.41 -126.83,0 -238.74,-26.48 -335.35,-79.82 -96.99,-53.71 -171.21,-124.59 -223.06,-211.87 -51.85,-88.78 -77.59,-183.9 -77.59,-285.36 0,-92.51 15.67,-176.44 47,-251.42 32.07,-76.47 76.1,-142.12 132.05,-196.58 55.58,-53.34 123.1,-95.12 202.18,-125.71 78.71,-29.84 163.76,-44.76 254.78,-44.76 74.23,0 146.97,11.56 217.47,35.07 71.62,23.87 134.28,57.82 189.12,101.45l-181.29 246.94zm514.77 74.24c26.85,-42.91 63.03,-77.22 108.18,-102.58 45.13,-24.63 92.88,-37.31 143.24,-37.31 51.47,0 99.59,12.68 144.36,37.31 45.13,25.37 80.94,59.68 108.17,102.58 26.86,43.27 40.29,90.27 40.29,141 0,77.22 -29.09,143.98 -87.28,200.31 -57.82,55.21 -126.09,82.81 -205.53,82.81 -78.72,0 -146.98,-27.6 -204.41,-82.81 -58.2,-56.33 -87.29,-123.09 -87.29,-200.31 0,-50.73 13.43,-97.73 40.29,-141zm545.35 707.24l346.53 3.36 1.12 -569.6c0,-85.05 -17.16,-164.51 -51.47,-237.99 -33.57,-71.62 -80.95,-135.03 -142.12,-190.24 -58.2,-54.09 -126.83,-95.5 -205.53,-124.59 -78.72,-29.09 -159.66,-43.65 -242.46,-43.65 -83.93,0 -164.88,14.92 -242.84,44.76 -77.96,28.35 -146.22,69.38 -205.15,123.47 -59.69,53.71 -106.69,117.12 -141,190.24 -34.32,73.48 -51.48,152.93 -51.48,237.99 0,113.03 29.47,215.6 88.41,307.37 58.56,90.27 136.89,161.52 236.12,214.11 99.22,51.85 204.41,77.59 315.95,77.59 84.3,0 165.25,-14.91 242.46,-44.75 11.18,-3.74 27.97,-10.82 51.47,-20.89l0 32.82zm975.82 -1157.48c-23.13,-3.36 -47,-5.6 -70.88,-6.35l-19.77 0c-321.91,16.04 -483.06,183.16 -483.06,501.72l0 662.11 349.89 0 0 -662.11c0,-120.49 44.38,-182.41 133.16,-185.77l19.77 0c29.1,1.12 52.6,8.21 70.88,20.52l0 -330.12zm628.54 0c-23.13,-3.36 -47,-5.6 -70.88,-6.35l-19.77 0c-321.91,16.04 -483.06,183.16 -483.06,501.72l0 662.11 349.89 0 0 -662.11c0,-120.49 44.38,-182.41 133.16,-185.77l19.77 0c29.1,1.12 52.6,8.21 70.88,20.52l0 -330.12zm443.89 450.24c26.85,-42.91 63.03,-77.22 108.18,-102.58 45.13,-24.63 92.88,-37.31 143.24,-37.31 51.47,0 99.59,12.68 144.36,37.31 45.13,25.37 80.94,59.68 108.17,102.58 26.86,43.27 40.29,90.27 40.29,141 0,77.22 -29.09,143.98 -87.28,200.31 -57.82,55.21 -126.09,82.81 -205.53,82.81 -78.72,0 -146.98,-27.6 -204.41,-82.81 -58.2,-56.33 -87.29,-123.09 -87.29,-200.31 0,-50.73 13.43,-97.73 40.29,-141zm545.35 707.24l346.53 3.36 1.12 -569.6c0,-85.05 -17.16,-164.51 -51.47,-237.99 -33.57,-71.62 -80.95,-135.03 -142.12,-190.24 -58.2,-54.09 -126.83,-95.5 -205.53,-124.59 -78.72,-29.09 -159.66,-43.65 -242.46,-43.65 -83.93,0 -164.88,14.92 -242.84,44.76 -77.96,28.35 -146.22,69.38 -205.15,123.47 -59.69,53.71 -106.69,117.12 -141,190.24 -34.32,73.48 -51.48,152.93 -51.48,237.99 0,113.03 29.47,215.6 88.41,307.37 58.56,90.27 136.89,161.52 236.12,214.11 99.22,51.85 204.41,77.59 315.95,77.59 84.3,0 165.25,-14.91 242.46,-44.75 11.18,-3.74 27.97,-10.82 51.47,-20.89l0 32.82zm1554 -781.48c-31.33,-26.11 -65.65,-45.87 -102.95,-58.94 -38.43,-13.05 -79.46,-19.77 -122.35,-19.77 -80.2,0 -147.72,26.12 -203.3,77.59 -55.96,51.85 -83.93,116.01 -83.93,192.48 0,59.69 11.93,113.4 35.81,160.77 23.5,47.37 58.19,84.68 104.07,112.28 44.39,28.72 95.5,42.91 154.06,42.91 85.79,0 159.27,-27.6 220.83,-82.06l190.98 242.45c-27.6,29.1 -66.39,55.21 -115.63,77.6 -50.36,22.75 -102.21,39.54 -155.17,50.35 -53.35,10.82 -102.58,16.41 -147.72,16.41 -126.83,0 -238.74,-26.48 -335.35,-79.82 -96.99,-53.71 -171.21,-124.59 -223.06,-211.87 -51.85,-88.78 -77.59,-183.9 -77.59,-285.36 0,-92.51 15.67,-176.44 47,-251.42 32.07,-76.47 76.1,-142.12 132.05,-196.58 55.58,-53.34 123.1,-95.12 202.18,-125.71 78.71,-29.84 163.76,-44.76 254.78,-44.76 74.23,0 146.97,11.56 217.47,35.07 71.62,23.87 134.28,57.82 189.12,101.45l-181.29 246.94zm609.89 -336.46l0 1120.18 -348.77 0 0 -1119.06 348.77 -1.12zm1.12 -317.07c0,35.07 -8.21,66.03 -24.25,92.89 -16.04,27.22 -37.67,48.86 -65.65,65.65 -27.59,16.78 -58.19,25.37 -91.76,25.37 -33.57,0 -63.78,-8.21 -90.65,-24.25 -27.59,-16.79 -49.6,-38.8 -65.64,-66.77 -16.79,-29.09 -25,-60.06 -25,-92.89 0,-33.57 7.84,-64.15 23.88,-91.76 17.53,-28.35 39.91,-50.73 66.76,-66.77 26.86,-15.66 57.08,-23.88 90.65,-23.88 33.57,0 64.16,8.22 91.76,23.88 27.23,16.04 48.87,38.42 65.65,66.77 16.04,27.6 24.25,58.19 24.25,91.76zm628.17 277.53c-23.13,-3.36 -47,-5.6 -70.88,-6.35l-19.77 0c-321.91,16.04 -483.06,183.16 -483.06,501.72l0 662.11 349.89 0 0 -662.11c0,-120.49 44.38,-182.41 133.16,-185.77l19.77 0c29.1,1.12 52.6,8.21 70.88,20.52l0 -330.12zm916.13 376c-31.33,-26.11 -65.65,-45.87 -102.95,-58.94 -38.43,-13.05 -79.46,-19.77 -122.35,-19.77 -80.2,0 -147.72,26.12 -203.3,77.59 -55.96,51.85 -83.93,116.01 -83.93,192.48 0,59.69 11.93,113.4 35.81,160.77 23.5,47.37 58.19,84.68 104.07,112.28 44.39,28.72 95.5,42.91 154.06,42.91 85.79,0 159.27,-27.6 220.83,-82.06l190.98 242.45c-27.6,29.1 -66.39,55.21 -115.63,77.6 -50.36,22.75 -102.21,39.54 -155.17,50.35 -53.35,10.82 -102.58,16.41 -147.72,16.41 -126.83,0 -238.74,-26.48 -335.35,-79.82 -96.99,-53.71 -171.21,-124.59 -223.06,-211.87 -51.85,-88.78 -77.59,-183.9 -77.59,-285.36 0,-92.51 15.67,-176.44 47,-251.42 32.07,-76.47 76.1,-142.12 132.05,-196.58 55.58,-53.34 123.1,-95.12 202.18,-125.71 78.71,-29.84 163.76,-44.76 254.78,-44.76 74.23,0 146.97,11.56 217.47,35.07 71.62,23.87 134.28,57.82 189.12,101.45l-181.29 246.94zm731.12 498.36c-88.78,-2.99 -133.16,-64.53 -133.16,-184.65l0 -651.29 -349.89 0 0 651.29c0,317.07 161.15,484.18 483.06,501.71l19.77 0c321.92,-17.53 483.07,-184.64 483.07,-501.71l0 -651.29 -349.89 0 0 651.29c0,120.11 -44.39,181.66 -133.17,184.65l-19.77 0zm734.48 -68.64c69.01,69.01 153.69,103.7 253.29,103.7 104.44,0 156.29,-30.58 156.29,-91.76 0,-32.08 -28.72,-55.96 -86.17,-71.25 -41.03,-9.32 -105.56,-25.74 -194.71,-48.86 -71.99,-19.03 -132.8,-54.09 -182.41,-105.19 -48.86,-49.99 -73.11,-127.2 -73.11,-231.65 0,-80.19 20.14,-147.72 60.06,-203.3 40.66,-55.21 93.63,-96.24 158.53,-122.35 66.02,-26.85 138.76,-40.29 217.47,-40.29 44.39,0 89.53,5.97 135.4,18.65 49.61,15.3 94.01,33.95 133.17,56.7 43.27,23.88 80.94,51.11 113.77,80.95l-192.1 190.98c-56.33,-42.16 -117.5,-63.04 -183.9,-63.04 -79.46,0 -118.99,22.01 -118.99,66.4 0,40.29 29.46,68.26 88.4,84.3 64.9,17.53 130.19,33.94 195.84,49.23 71.99,17.91 132.05,51.48 180.17,100.34 48.86,49.61 73.11,127.58 73.11,233.89 0,79.46 -20.89,148.09 -63.41,205.53 -42.15,58.19 -98.47,101.46 -169.34,130.19 -70.51,29.83 -143.62,44.75 -219.72,44.75 -63.03,0 -120.48,-5.22 -171.21,-15.29 -51.1,-9.69 -98.85,-25.74 -143.24,-48.12 -45.88,-22.75 -94,-52.96 -144.36,-90.64l177.18 -233.89z"/>
   <path class="fil0" d="M17301.69 2934.45c0,-35.81 8.95,-68.26 27.23,-97.36 19.02,-30.58 43.27,-54.09 73.48,-70.87 30.59,-17.53 63.04,-26.12 96.99,-26.12 34.32,0 66.77,8.59 97.36,26.12 29.84,18.28 54.09,42.15 72,71.99 18.28,29.09 27.6,61.18 27.6,96.24 0,58.2 -19.03,106.32 -57.08,144.36 -38.42,38.43 -85.04,57.83 -139.88,57.83 -36.18,0 -69.38,-8.59 -99.22,-26.12 -30.58,-17.53 -54.83,-42.16 -72.36,-73.49 -17.54,-31.7 -26.12,-66.02 -26.12,-102.58z"/>
  </g>
 </g>
</svg>
