<?xml version="1.0" encoding="UTF-8"?>
<!DOCTYPE svg PUBLIC "-//W3C//DTD SVG 1.1//EN" "http://www.w3.org/Graphics/SVG/1.1/DTD/svg11.dtd">
<!-- Creator: CorelDRAW 2018 (64 Bit Versão de avaliação) -->
<svg xmlns="http://www.w3.org/2000/svg" xml:space="preserve" width="57.6463mm" height="86.6576mm" version="1.1" style="shape-rendering:geometricPrecision; text-rendering:geometricPrecision; image-rendering:optimizeQuality; fill-rule:evenodd; clip-rule:evenodd"
viewBox="0 0 2339.06 3516.23"
 xmlns:xlink="http://www.w3.org/1999/xlink">
 <defs>
  <style type="text/css">
   <![CDATA[
    .str0 {stroke:#D03438;stroke-width:8.12;stroke-miterlimit:22.9256}
    .fil1 {fill:#FEFEFE}
    .fil3 {fill:#373435}
    .fil0 {fill:#D03438}
    .fil2 {fill:#373435;fill-rule:nonzero}
   ]]>
  </style>
 </defs>
 <g id="Camada_x0020_1">
  <metadata id="CorelCorpID_0Corel-Layer"/>
  <g id="_2661267445232">
   <g>
    <rect class="fil0 str0" x="4.06" y="4.06" width="2328.11" height="3024.05" rx="50.37" ry="76.34"/>
    <path class="fil1" d="M743.93 1322.66c4.97,-12.83 4.87,-20.38 12.88,-36.93 6.33,-13.07 55.04,-63.74 68.99,-79.7 2.38,-2.47 1.57,-1.12 2.93,-4.22 -6.94,1.8 -16.81,6.74 -23.96,9.36 -24.94,9.17 -60.09,14.6 -87.94,14.6 -20.53,0 -22.22,-0.08 -41,12.4l-19.24 14.25c-1.75,1.41 -1.96,2.18 -3.66,3.58l-14.78 13.26c-6.1,6.09 -22.07,22.59 -26.55,28.64 -1.71,2.31 -1.34,1.48 -3.05,3.29l-7.65 9.54c-0.93,1.09 -0.52,0.49 -1.67,1.94 -2.04,2.56 -4.03,5.98 -6.37,8.05 -14.69,3.04 -50.08,-5.65 -62.48,-10.77 -30.77,-12.72 -46.83,-12.27 -79.58,-12.27 -18.25,0 -43.39,3.06 -59.5,8.24 19.1,2.91 30.23,2.25 51.97,7 15.91,3.48 30.35,8.99 42.77,16.06 5.91,3.36 11.3,7.96 16.83,12.12l16.93 12.94c9.71,7.31 18.64,15.27 28.9,21.76 1.28,0.81 0.43,0.03 2.19,1.43 0.21,0.17 0.8,0.67 0.97,0.85 1.28,1.24 0.2,-0.18 1.3,1.52 -3.81,4.28 -17.46,9.97 -26.71,20.46 -2.01,2.28 -4.23,3.36 -6.19,5.58 -22.82,25.87 -30.61,57.46 -36.3,93.07 -9.12,56.99 -4.78,83.91 -8.06,133.38 -1.19,18 -2.22,26.23 -16.23,36.92l-9.24 8.86c-13,11.24 -20.62,26.5 -28.46,42.17 -10.55,21.08 -17.46,48.61 -20.92,74.05 -3.85,28.31 -3.34,59 -6.26,87.84 -2.05,20.23 -4.77,40.54 -10.61,60 -1.6,5.32 -6.09,13.86 -6.7,17.98 10.39,10.46 9.29,11.8 23.54,22.35 17.59,13.02 38.23,20.4 62.41,20.4 6.79,0 12.6,-1.71 18.45,-1.98 7.63,-0.35 47.08,25.03 108.18,-3.08 11.92,-5.48 35.14,-1.54 35.14,-37.05 0,-20.45 -20.24,-50.45 -32.58,-67.66 -4.11,-5.74 -8.43,-9.9 -13.71,-14.33 -3.51,-2.95 -6.24,-6.06 -11.42,-7.79 -5.73,0.38 -30.46,19.88 -66.33,18.58 1.87,-3.7 3.95,-3.43 7.92,-5.32 3.05,-1.45 5.56,-2.61 8.58,-4.12 15.85,-7.94 34.45,-17.61 47.8,-27.78 0.55,-9.23 0.9,-18.03 1.26,-27.35 0.38,-9.98 3.23,-13.5 7.99,-20.77 5.69,-8.68 13.08,-15.89 19.44,-24.01l16.12 -19.16c1.79,-2.41 1.69,-1.77 3.51,-3.73 1.37,-1.48 1.84,-2.76 3.04,-4.2 1.35,-1.63 2.32,-1.93 3.7,-3.54 1.52,-1.77 1.41,-2.47 3.04,-4.2 1.74,-1.85 2.13,-1.53 3.72,-3.53 1.67,-2.09 1.19,-2.25 3.11,-4.13l10.57 -11.14c3.01,-2.78 3.97,-5.47 6.51,-7.97 10.81,-10.57 21.17,-21.92 32.79,-31.46l10.86 -10.86c2.23,-2.82 3.92,-5.3 6.11,-8.38 26.24,-36.85 31.05,-90.55 29.54,-136.97l-4.05 -61.66c3.7,3.36 5.98,21.44 6.91,26.23 8.53,43.85 16.38,90.93 6.77,135.21 31.63,0 62.93,7.11 87.24,21.39 3.42,2.01 4.9,3 8.13,5.45 2.96,2.24 5.04,4.17 7.42,6.15l46.74 34.7c10.36,7.56 21.37,14.1 32.46,21.83 21.27,14.83 44.74,28.17 67.86,40.77 15.85,8.64 23.12,11.55 43.63,11.55 22.19,0 115.25,-9.24 133.16,-16.31l-2.5 -1.22c-17.57,-6.27 -107.68,-24.57 -111.59,-28.65 -4.39,-4.57 -5.93,-51.89 -5.93,-61.53 0,-60.42 16.35,-112.83 51,-157.54l12.97 -14.17c2.09,-2.15 6.58,-7.37 8.92,-9.2l9.98 -8.1c1.68,-1.4 3.26,-2.6 5.08,-3.97 2.28,-1.71 3.59,-3.09 6.69,-3.47 -2.47,4.6 -7.2,8.34 -10.45,12.36 -51.41,63.53 -77.01,141.24 -54.79,222.98 1.44,5.33 1.32,4.77 6.47,6.21 33.28,9.32 66.39,20.11 99.4,30.02l158.44 48.94c-11.71,0.64 -57.29,-11.98 -64.37,-10.91 -1.89,0.29 -0.91,0.02 -2.05,0.72 8.07,4.16 51.54,40.23 60.25,48.36 -5.55,-1.48 -60.66,-40.26 -68.21,-45.43 -2.76,-1.89 -4.35,-4.19 -8.59,-3.44 -4.34,0.76 -14.74,4.63 -19.08,6.37 -10.25,4.1 -20.67,8.7 -27.94,16.42 -1.71,1.81 -2.01,1.37 -2.01,5.01 0,23.56 4.14,65.98 19.18,83.78 3.66,4.34 5.49,6.8 9.82,10.98 10.65,10.27 22.88,19.17 35.91,26.53 14.12,7.98 4.39,-1.89 16.37,14.39l4.78 6.08c5.97,7.21 14.94,13.78 23.31,18.31 19.02,10.3 40.09,13.07 61.8,12.09 3.47,-11 31.86,-66.91 39.22,-82.81 2.68,-5.78 6,-6.19 11.82,-8.95l27.45 -13.35c9.88,-4.94 15.51,-10.23 23.23,-17.48 2.11,-1.98 1.95,-3.01 4.65,-5.3 3.69,-3.14 2.65,-2.14 5.26,-5.59 22,-29.11 35.67,-59.48 12.86,-94.75 -7.84,-12.11 -11.37,-11.62 -17.93,-19.16l-117.23 -105.37c-2.9,-3.31 -3.49,-3.19 -6.8,-5.86 -2.71,-2.18 -3.5,-4.15 -6.37,-6.32l-32.64 -29.86c5.18,0.79 28.84,15.44 34.74,18.73l43.2 24.71c5.01,2.8 4.79,2.04 8.75,-1.08 9.73,-7.67 21.4,-15.39 32.73,-21.61 4.48,-2.47 15.36,-6.4 17.89,-8.95 -3.43,-8.43 -38.5,-94.29 -39.63,-101.44 4.07,2.22 19.76,32.36 22.18,36.81l42.48 75.16c12.26,20.47 23.65,32.71 36.83,50.95l9.48 12.23c10.43,12.93 19.11,22.36 38.17,28.8 26.67,9 103.96,7.49 139.63,7.21 8.85,-0.07 14.17,4.19 21.27,8.32 15.78,9.19 31,17.83 45.62,27.67l8.33 6.16c5.52,5.23 7.45,11.64 19.71,8.29 23,-6.31 44.85,-24.8 63.37,-38.91 5.4,-4.11 10.92,-9.16 17,-12.87 6.46,-3.96 15.63,-4.68 9.58,-16.38l-6.51 -8.85c-4.43,-5.06 -10.4,-9.13 -17.28,-11.71l-42.68 -16.13c-6.19,-2.34 -17.66,-4.54 -19.68,-10.34 13.85,-8.97 99.54,29.7 115.9,29.7 16.12,0 22.31,-9.33 27.58,-22.94 2.21,-5.7 17.8,-20.52 20.54,-26.31 12.07,-25.41 -2.66,-34.4 -0.85,-45.1 4.13,-24.37 5.42,-57.69 -10.49,-78.8 -2.97,-3.95 -5.44,-4.88 -9.11,-8.27l12.83 -13.58c2.58,-2.58 2.31,-1.58 4.48,-4.57l14.8 -21.41c9.49,-15.11 16.09,-32.52 21.69,-50.7 21.12,-68.64 18.73,-147.95 11.32,-219.33 -4.64,8.96 -9.24,23.23 -13.63,33.36 -17.48,40.36 -36.06,70.84 -61.91,103.66l-26.2 26.29c-12.54,9.97 -24.88,18.66 -39.94,25.23 -9.45,4.12 -27.34,10.48 -38.69,8.46 -0.76,-3.77 5.26,-43.12 6.13,-51.14 1.68,-15.65 3.97,-38.79 2.13,-54.34 -0.18,-0.08 -0.51,-0.31 -0.59,-0.11l-22.57 16.36c-7.62,5.45 -15.82,11.13 -24.54,16.19 -15.46,8.97 -40.55,22.47 -62.3,19.77l-26.38 -30.37c-3.81,-5.53 -9.26,-9.63 -13.43,-14.64 -2.99,-3.59 -2.98,-4.56 -6.72,-7.75 -5.17,-4.41 -8.31,-10.13 -13.47,-14.58 -3.79,-3.27 -4.05,-3.94 -7.19,-7.29l-11.84 -9.88c-1.79,-1.4 -2.21,-1.83 -4.02,-3.21 -12.98,-9.84 -22.27,-13.69 -35.14,-21.69 6.88,-26.91 23.78,-64.15 22.56,-93.22 -19.32,4.13 -47.13,21.87 -63.29,33.11l-21.75 17.16c-7.28,5.87 -12.48,13.04 -19.85,19.05l-14.82 17.75c-13.82,18.3 -25.38,38.26 -33.04,60.18 -0.89,2.56 -1.5,4.95 -3.27,6.86 -1.08,-13.67 16.37,-76.1 26.2,-93.46 1.54,-2.71 2.01,-2.85 3.08,-5.7l-30.38 -25.52c-5.39,-4.38 -10.27,-8.19 -15.61,-12.45l-24.41 -18.12c-59.15,-44.35 -154.9,-97.32 -228.45,-97.32 -60.64,0 -69.72,13.61 -112.92,39.12 -10.35,6.11 -19.89,12.01 -29.93,18.05 -76.91,46.26 -163.13,91.55 -233.65,144.56l-56.66 49.2c-5,4.42 -11.95,14.17 -15.67,19.63 -5.79,8.47 -10.24,17.74 -14.37,27.17 -2.08,4.74 0.36,2.41 -2.84,3.65zm903.09 23.82c-3.51,-3.32 -6.96,-1.26 -7.86,2.95 -1.8,9.83 -3.6,19.65 -5.4,29.48 -0.31,4.73 2.93,8.05 8.84,10.32 16.38,7.37 32.75,14.74 49.13,22.11 5,2.33 9.83,-2.95 5.9,-9.34 -16.87,-18.51 -33.74,-37.01 -50.61,-55.52zm-459.98 423.58c-22.09,3.15 -60.58,5.74 -88.42,13.38 -19.25,9.87 -88.48,67.86 -103.21,111.42 -4.31,12.45 -4.53,24.89 -0.98,37.34 42.32,51.86 99.17,64.95 161.16,64.37 42.33,-2.98 93.45,-9.97 64.86,-63.87 -47.12,-26.38 -37.61,-110.15 -25.55,-154.28 0.28,-5.7 -2.25,-8.56 -7.86,-8.35zm-524.52 -44.34c31.12,-21.46 54.86,-54.46 74.19,-84.26 77.72,5.53 123.2,62.03 189.17,111.04 -21.13,7.53 -57.15,20 -95.32,19.66 6.72,77.96 -24.73,122.16 -58.96,192.61 -5.82,5.98 -15.63,7.95 -29.97,5.41 -62.69,-14.4 -103.71,-52.09 -113.99,-122.84 -0.81,-9 3.04,-13.98 10.81,-16.21 12.61,-3.77 26.2,-4.1 37.83,-11.3 6.59,-4.95 12.87,-11.45 10.32,-19.16 -9.17,-25.72 -29.64,-48.24 -24.08,-74.94zm995.2 -496.25c29.02,-10.16 56.15,-25.05 82.55,-41.76 6.31,-1.98 8.93,-0.8 7.37,4.42 -9.27,30.03 -21.02,59.73 -40.79,88.44 -19.69,-22.52 -35.36,-38.4 -49.13,-51.1z"/>
   </g>
   <path class="fil2" d="M1156.74 3515.18l-5.04 0 0 -44.51 -10.21 0 0 -4.86 25.46 0 0 4.86 -10.21 0 0 44.51zm20.44 -27.22l21.51 0 0 4.86 -21.51 0 0 17.57 21.51 0 0 4.79 -26.54 0 0 -49.37 26.54 0 0 4.86 -21.51 0 0 17.29zm71.86 -9.37c-2.29,-3.08 -4.85,-5.34 -7.7,-6.78 -2.83,-1.44 -6.07,-2.17 -9.7,-2.17 -5.68,0 -10.55,2.04 -14.59,6.11 -4.04,4.07 -6.06,8.91 -6.06,14.53 0,5.97 2.01,11 6.03,15.09 4.01,4.09 8.88,6.14 14.62,6.14 3.54,0 6.74,-0.72 9.59,-2.14 2.85,-1.44 5.34,-3.57 7.45,-6.4l5.97 0c-2.34,4.2 -5.48,7.45 -9.41,9.76 -3.94,2.29 -8.35,3.44 -13.24,3.44 -7.52,0 -13.79,-2.48 -18.81,-7.42 -5.02,-4.95 -7.53,-11.13 -7.53,-18.54 0,-3.46 0.69,-6.74 2.04,-9.84 1.36,-3.09 3.34,-5.88 5.97,-8.37 2.43,-2.35 5.17,-4.13 8.2,-5.34 3.04,-1.21 6.32,-1.82 9.86,-1.82 5.08,0 9.65,1.19 13.71,3.59 4.06,2.4 7.28,5.79 9.64,10.16l-6.04 0zm47.26 30.69l-0.57 -43.47 4.96 0 0 49.37 -6.05 0 -28.05 -43.53 0.58 43.53 -4.97 0 0 -49.37 6.04 0 28.05 43.47zm16.69 -19.01c0,6.02 2.02,11.05 6.07,15.13 4.05,4.06 9.05,6.1 15,6.1 5.8,0 10.7,-2.06 14.71,-6.17 4,-4.12 6.01,-9.18 6.01,-15.2 0,-5.6 -2.06,-10.44 -6.18,-14.49 -4.11,-4.06 -9.08,-6.09 -14.89,-6.09 -2.36,0 -4.64,0.39 -6.82,1.17 -2.2,0.78 -4.21,1.93 -6.07,3.44 -2.43,1.99 -4.35,4.42 -5.74,7.29 -1.39,2.87 -2.09,5.81 -2.09,8.82zm-5.25 -0.08c0,-3.44 0.69,-6.71 2.05,-9.84 1.38,-3.11 3.36,-5.9 5.96,-8.37 2.5,-2.37 5.26,-4.15 8.27,-5.36 3.01,-1.19 6.27,-1.79 9.78,-1.79 3.57,0 6.89,0.6 9.95,1.82 3.06,1.21 5.85,3.01 8.38,5.4 2.6,2.46 4.56,5.22 5.86,8.27 1.31,3.05 1.96,6.34 1.96,9.87 0,3.5 -0.56,6.72 -1.69,9.64 -1.12,2.93 -2.81,5.59 -5.05,7.99 -2.6,2.76 -5.54,4.83 -8.83,6.23 -3.27,1.4 -6.83,2.11 -10.67,2.11 -7.35,0 -13.52,-2.49 -18.51,-7.48 -4.99,-4.97 -7.48,-11.15 -7.48,-18.48zm82.23 24.99l-23.02 0 0 -49.37 5.04 0 0 44.58 17.98 0 0 4.79zm6.72 -24.91c0,6.02 2.02,11.05 6.08,15.13 4.05,4.06 9.05,6.1 15,6.1 5.8,0 10.71,-2.06 14.71,-6.17 4,-4.12 6.01,-9.18 6.01,-15.2 0,-5.6 -2.06,-10.44 -6.18,-14.49 -4.11,-4.06 -9.08,-6.09 -14.89,-6.09 -2.36,0 -4.64,0.39 -6.82,1.17 -2.19,0.78 -4.21,1.93 -6.07,3.44 -2.43,1.99 -4.35,4.42 -5.74,7.29 -1.39,2.87 -2.09,5.81 -2.09,8.82zm-5.25 -0.08c0,-3.44 0.68,-6.71 2.05,-9.84 1.38,-3.11 3.36,-5.9 5.96,-8.37 2.5,-2.37 5.26,-4.15 8.27,-5.36 3.01,-1.19 6.27,-1.79 9.78,-1.79 3.57,0 6.89,0.6 9.95,1.82 3.06,1.21 5.85,3.01 8.38,5.4 2.6,2.46 4.56,5.22 5.86,8.27 1.31,3.05 1.97,6.34 1.97,9.87 0,3.5 -0.56,6.72 -1.69,9.64 -1.12,2.93 -2.81,5.59 -5.05,7.99 -2.6,2.76 -5.54,4.83 -8.83,6.23 -3.27,1.4 -6.83,2.11 -10.67,2.11 -7.35,0 -13.52,-2.49 -18.51,-7.48 -4.98,-4.97 -7.48,-11.15 -7.48,-18.48zm77.05 1.31l31.79 0c-0.42,7.19 -3.1,13.09 -8.04,17.72 -4.94,4.62 -11.01,6.93 -18.19,6.93 -7.37,0 -13.54,-2.49 -18.52,-7.45 -4.97,-4.98 -7.47,-11.15 -7.47,-18.51 0,-3.46 0.69,-6.74 2.04,-9.84 1.36,-3.09 3.35,-5.88 5.97,-8.37 2.53,-2.42 5.32,-4.21 8.39,-5.39 3.07,-1.17 6.48,-1.76 10.23,-1.76 4.96,0 9.41,1.16 13.35,3.49 3.96,2.31 7.12,5.62 9.5,9.92l-6.18 0c-2.41,-2.96 -5,-5.15 -7.75,-6.56 -2.76,-1.41 -5.82,-2.12 -9.23,-2.12 -5.88,0 -10.85,2.02 -14.92,6.09 -4.07,4.05 -6.09,8.93 -6.09,14.63 0,6.05 2.02,11.11 6.08,15.16 4.05,4.04 9.05,6.06 15,6.06 4.69,0 8.89,-1.44 12.6,-4.35 3.72,-2.89 6.13,-6.65 7.26,-11.27l-25.82 0 0 -4.37zm43.75 23.68l-5.04 0 0 -49.37 5.04 0 0 49.37zm8.27 0l-5.31 0 19.85 -49.37 6.05 0 19.78 49.37 -5.37 0 -6.11 -15.48 -22.77 0 -6.11 15.48zm27.12 -19.93l-9.7 -24.79 -9.55 24.79 19.25 0zm42.4 -7.29l21.51 0 0 4.86 -21.51 0 0 17.57 21.51 0 0 4.79 -26.54 0 0 -49.37 26.54 0 0 4.86 -21.51 0 0 17.29zm31.36 27.22l0 -49.37 7.39 0 17.7 42.92 17.63 -42.92 7.42 0 0 49.37 -4.82 0 0 -43.61 -17.98 43.61 -4.53 0 -17.98 -43.61 0 43.61 -4.82 0zm90.37 0l-5.04 0 0 -44.51 -10.21 0 0 -4.86 25.47 0 0 4.86 -10.22 0 0 44.51zm20.44 -27.22l21.51 0 0 4.86 -21.51 0 0 17.57 21.51 0 0 4.79 -26.54 0 0 -49.37 26.54 0 0 4.86 -21.51 0 0 17.29zm65.03 21.32l-0.57 -43.47 4.96 0 0 49.37 -6.05 0 -28.05 -43.53 0.58 43.53 -4.97 0 0 -49.37 6.04 0 28.05 43.47zm11.3 -8.2l4.82 0c0.1,3.06 1,5.47 2.7,7.29 1.7,1.81 3.94,2.71 6.72,2.71 2.98,0 5.35,-0.9 7.1,-2.7 1.75,-1.79 2.63,-4.24 2.63,-7.3 0,-4.48 -3.59,-7.86 -10.76,-10.14 -0.56,-0.19 -0.99,-0.31 -1.27,-0.41 -3.74,-1.25 -6.42,-2.82 -8.08,-4.74 -1.64,-1.91 -2.47,-4.4 -2.47,-7.47 0,-3.94 1.27,-7.15 3.81,-9.67 2.54,-2.51 5.81,-3.76 9.84,-3.76 3.83,0 6.88,1.15 9.13,3.43 2.24,2.28 3.5,5.49 3.75,9.62l-4.75 0c-0.25,-2.68 -1.09,-4.76 -2.5,-6.21 -1.4,-1.46 -3.29,-2.19 -5.66,-2.19 -2.53,0 -4.59,0.8 -6.2,2.38 -1.61,1.6 -2.41,3.62 -2.41,6.09 0,1.28 0.24,2.39 0.72,3.34 0.48,0.94 1.25,1.78 2.3,2.56 1.08,0.76 3.14,1.62 6.18,2.57 1.75,0.55 3.1,0.99 4,1.32 3.32,1.25 5.72,2.83 7.18,4.77 1.46,1.93 2.2,4.47 2.2,7.6 0,4.8 -1.36,8.65 -4.07,11.58 -2.7,2.93 -6.29,4.39 -10.76,4.39 -4.17,0 -7.56,-1.38 -10.16,-4.14 -2.6,-2.77 -3.93,-6.41 -4,-10.93zm38.83 -10.81c0,6.02 2.02,11.05 6.07,15.13 4.05,4.06 9.06,6.1 15,6.1 5.8,0 10.7,-2.06 14.71,-6.17 4,-4.12 6.01,-9.18 6.01,-15.2 0,-5.6 -2.06,-10.44 -6.18,-14.49 -4.11,-4.06 -9.08,-6.09 -14.89,-6.09 -2.36,0 -4.64,0.39 -6.82,1.17 -2.2,0.78 -4.21,1.93 -6.07,3.44 -2.43,1.99 -4.35,4.42 -5.74,7.29 -1.39,2.87 -2.09,5.81 -2.09,8.82zm-5.25 -0.08c0,-3.44 0.69,-6.71 2.05,-9.84 1.38,-3.11 3.36,-5.9 5.96,-8.37 2.51,-2.37 5.26,-4.15 8.27,-5.36 3.01,-1.19 6.27,-1.79 9.78,-1.79 3.57,0 6.89,0.6 9.95,1.82 3.06,1.21 5.85,3.01 8.38,5.4 2.6,2.46 4.56,5.22 5.86,8.27 1.31,3.05 1.97,6.34 1.97,9.87 0,3.5 -0.57,6.72 -1.69,9.64 -1.12,2.93 -2.8,5.59 -5.05,7.99 -2.6,2.76 -5.54,4.83 -8.83,6.23 -3.27,1.4 -6.83,2.11 -10.67,2.11 -7.35,0 -13.52,-2.49 -18.51,-7.48 -4.99,-4.97 -7.48,-11.15 -7.48,-18.48zm64.25 -2.23l21.51 0 0 4.86 -21.51 0 0 17.57 21.51 0 0 4.79 -26.54 0 0 -49.37 26.54 0 0 4.86 -21.51 0 0 17.29zm28.34 13.12l4.82 0c0.1,3.06 1,5.47 2.7,7.29 1.7,1.81 3.94,2.71 6.72,2.71 2.98,0 5.34,-0.9 7.1,-2.7 1.75,-1.79 2.63,-4.24 2.63,-7.3 0,-4.48 -3.59,-7.86 -10.77,-10.14 -0.56,-0.19 -0.98,-0.31 -1.27,-0.41 -3.74,-1.25 -6.43,-2.82 -8.08,-4.74 -1.64,-1.91 -2.47,-4.4 -2.47,-7.47 0,-3.94 1.27,-7.15 3.81,-9.67 2.54,-2.51 5.81,-3.76 9.84,-3.76 3.84,0 6.89,1.15 9.14,3.43 2.24,2.28 3.5,5.49 3.75,9.62l-4.75 0c-0.25,-2.68 -1.09,-4.76 -2.5,-6.21 -1.4,-1.46 -3.29,-2.19 -5.66,-2.19 -2.53,0 -4.59,0.8 -6.2,2.38 -1.61,1.6 -2.41,3.62 -2.41,6.09 0,1.28 0.24,2.39 0.72,3.34 0.48,0.94 1.25,1.78 2.3,2.56 1.08,0.76 3.14,1.62 6.18,2.57 1.75,0.55 3.09,0.99 4,1.32 3.32,1.25 5.72,2.83 7.18,4.77 1.46,1.93 2.19,4.47 2.19,7.6 0,4.8 -1.35,8.65 -4.06,11.58 -2.7,2.93 -6.29,4.39 -10.76,4.39 -4.17,0 -7.56,-1.38 -10.16,-4.14 -2.6,-2.77 -3.93,-6.41 -4,-10.93zm47.1 14.1l-5.04 0 0 -44.51 -10.21 0 0 -4.86 25.47 0 0 4.86 -10.22 0 0 44.51zm19.65 -44.51l0 44.51 -4.96 0 0 -49.37 13.75 0c3.02,0 5.46,0.22 7.29,0.66 1.85,0.44 3.51,1.16 5.01,2.18 2.04,1.38 3.64,3.22 4.83,5.52 1.19,2.31 1.78,4.76 1.78,7.32 0,3.82 -1.18,7.11 -3.54,9.86 -2.35,2.76 -5.3,4.26 -8.83,4.51l12.37 19.3 -5.97 0 -15.19 -23.81 4.86 0c3.22,0 5.85,-0.92 7.88,-2.74 2.02,-1.83 3.03,-4.18 3.03,-7.05 0,-1.73 -0.31,-3.31 -0.93,-4.73 -0.61,-1.42 -1.53,-2.67 -2.75,-3.72 -1.01,-0.88 -2.22,-1.52 -3.63,-1.89 -1.43,-0.37 -3.94,-0.56 -7.56,-0.56l-7.42 0zm34.97 -4.86l5.04 0 0 31.22c0,2.41 0.1,4.22 0.3,5.42 0.19,1.2 0.53,2.26 0.99,3.19 0.92,1.87 2.26,3.34 4.03,4.4 1.76,1.06 3.77,1.59 5.99,1.59 3.86,0 6.72,-1.27 8.57,-3.82 1.85,-2.54 2.77,-6.47 2.77,-11.8l0 -30.2 4.96 0 0 31.39c0,6.4 -1.32,11.17 -3.96,14.32 -2.64,3.14 -6.64,4.71 -12,4.71 -5.74,0 -9.97,-1.54 -12.66,-4.61 -2.7,-3.08 -4.04,-7.88 -4.04,-14.42l0 -31.39zm52.36 49.37l-5.04 0 0 -44.51 -10.21 0 0 -4.86 25.46 0 0 4.86 -10.22 0 0 44.51zm14.62 -49.37l5.04 0 0 31.22c0,2.41 0.1,4.22 0.3,5.42 0.19,1.2 0.53,2.26 0.99,3.19 0.93,1.87 2.26,3.34 4.03,4.4 1.77,1.06 3.77,1.59 5.99,1.59 3.86,0 6.72,-1.27 8.57,-3.82 1.85,-2.54 2.77,-6.47 2.77,-11.8l0 -30.2 4.97 0 0 31.39c0,6.4 -1.32,11.17 -3.96,14.32 -2.64,3.14 -6.64,4.71 -12,4.71 -5.74,0 -9.96,-1.54 -12.66,-4.61 -2.7,-3.08 -4.04,-7.88 -4.04,-14.42l0 -31.39zm45.68 4.86l0 44.51 -4.96 0 0 -49.37 13.75 0c3.02,0 5.45,0.22 7.29,0.66 1.85,0.44 3.51,1.16 5.01,2.18 2.04,1.38 3.64,3.22 4.83,5.52 1.18,2.31 1.77,4.76 1.77,7.32 0,3.82 -1.17,7.11 -3.53,9.86 -2.35,2.76 -5.3,4.26 -8.84,4.51l12.37 19.3 -5.97 0 -15.19 -23.81 4.86 0c3.23,0 5.85,-0.92 7.88,-2.74 2.02,-1.83 3.04,-4.18 3.04,-7.05 0,-1.73 -0.31,-3.31 -0.94,-4.73 -0.61,-1.42 -1.53,-2.67 -2.74,-3.72 -1.01,-0.88 -2.22,-1.52 -3.63,-1.89 -1.43,-0.37 -3.95,-0.56 -7.57,-0.56l-7.42 0zm34.53 44.51l-5.31 0 19.85 -49.37 6.04 0 19.78 49.37 -5.37 0 -6.11 -15.48 -22.77 0 -6.11 15.48zm27.12 -19.93l-9.7 -24.79 -9.56 24.79 19.26 0zm16.34 5.83l4.82 0c0.1,3.06 1,5.47 2.7,7.29 1.7,1.81 3.94,2.71 6.72,2.71 2.98,0 5.35,-0.9 7.1,-2.7 1.75,-1.79 2.63,-4.24 2.63,-7.3 0,-4.48 -3.58,-7.86 -10.76,-10.14 -0.56,-0.19 -0.99,-0.31 -1.27,-0.41 -3.74,-1.25 -6.42,-2.82 -8.08,-4.74 -1.64,-1.91 -2.47,-4.4 -2.47,-7.47 0,-3.94 1.27,-7.15 3.81,-9.67 2.54,-2.51 5.81,-3.76 9.84,-3.76 3.83,0 6.88,1.15 9.13,3.43 2.24,2.28 3.5,5.49 3.75,9.62l-4.75 0c-0.25,-2.68 -1.09,-4.76 -2.5,-6.21 -1.4,-1.46 -3.29,-2.19 -5.66,-2.19 -2.53,0 -4.59,0.8 -6.2,2.38 -1.61,1.6 -2.41,3.62 -2.41,6.09 0,1.28 0.24,2.39 0.72,3.34 0.48,0.94 1.25,1.78 2.3,2.56 1.08,0.76 3.14,1.62 6.19,2.57 1.75,0.55 3.09,0.99 4,1.32 3.32,1.25 5.72,2.83 7.18,4.77 1.46,1.93 2.2,4.47 2.2,7.6 0,4.8 -1.36,8.65 -4.07,11.58 -2.7,2.93 -6.29,4.39 -10.76,4.39 -4.17,0 -7.55,-1.38 -10.16,-4.14 -2.6,-2.77 -3.93,-6.41 -4,-10.93z"/>
   <path class="fil0" d="M377.26 3292.44c-8.29,-8.29 -19.8,-13.42 -32.55,-13.42 -12.42,0 -23.66,4.87 -31.9,12.79l-0.65 0.69c-8.32,8.32 -13.48,19.83 -13.48,32.55 0,12.71 5.15,24.22 13.48,32.55 8.32,8.32 19.83,13.48 32.55,13.48 12.4,0 23.64,-4.87 31.91,-12.8l0.64 -0.68c8.32,-8.32 13.48,-19.83 13.48,-32.55 0,-12.71 -5.15,-24.22 -13.48,-32.55l0 -0.06z"/>
   <path class="fil3" d="M64.17 3325.9c0,13.44 5.02,25.01 15.05,34.66 9.9,9.71 21.67,14.53 35.24,14.53 13.69,0 25.46,-4.82 35.43,-14.53 10.03,-9.64 15.05,-21.22 15.05,-34.66 0,-8.74 -2.32,-16.78 -6.95,-24.11 -4.69,-7.39 -10.87,-13.31 -18.64,-17.68 -7.72,-4.37 -16.01,-6.62 -24.88,-6.62 -8.68,0 -16.91,2.25 -24.69,6.62 -7.78,4.37 -14.02,10.29 -18.65,17.68 -4.63,7.33 -6.94,15.37 -6.94,24.11zm280.54 -77.31c21.05,0 40.17,8.57 54.03,22.43 13.86,13.8 22.42,32.92 22.42,54.03 0,21.11 -8.56,40.23 -22.39,54.06l-0.92 0.84c-13.77,13.34 -32.51,21.55 -53.14,21.55 -21.11,0 -40.23,-8.56 -54.06,-22.39 -13.83,-13.83 -22.39,-32.95 -22.39,-54.06 0,-21.11 8.56,-40.23 22.39,-54.06l0.93 -0.85c13.79,-13.34 32.53,-21.55 53.13,-21.55zm-340.66 -93.71l60.12 -0.19 0 79.54 4.31 -1.93 4.31 -1.87c13.57,-4.89 27.46,-7.33 41.67,-7.33 14.27,0 28.22,2.44 41.79,7.33 13.18,4.89 25.08,12.09 35.62,21.67 10.42,9.39 18.52,20.38 24.31,32.98 5.92,12.67 8.87,26.3 8.87,40.83 0,14.98 -2.89,28.68 -8.68,41.09 -5.79,12.41 -13.95,23.47 -24.5,33.18 -10.67,9.64 -22.57,16.85 -35.62,21.67 -13.18,5.14 -27.13,7.71 -41.79,7.71 -19.22,0 -37.36,-4.56 -54.46,-13.56 -17.1,-8.94 -30.61,-21.22 -40.7,-36.97 -10.03,-15.43 -15.11,-32.66 -15.24,-51.76l0 -172.38zm340.77 274.68c-19.22,0 -37.36,-4.56 -54.46,-13.56 -17.1,-9.07 -30.61,-21.41 -40.7,-37.1 -10.16,-15.88 -15.24,-33.56 -15.24,-53.17 0,-14.66 2.96,-28.35 8.87,-41.02 5.92,-12.73 14.01,-23.66 24.31,-32.98 10.42,-9.39 22.24,-16.65 35.55,-21.67 13.57,-5.02 27.46,-7.52 41.67,-7.52 14.27,0 28.22,2.51 41.79,7.52 13.18,4.76 25.08,11.96 35.62,21.47 10.42,9.58 18.52,20.58 24.31,33.18 5.92,12.67 8.87,26.36 8.87,41.02 0,14.98 -2.89,28.68 -8.68,41.08 -5.79,12.54 -13.95,23.66 -24.5,33.37 -10.67,9.52 -22.57,16.72 -35.62,21.67 -13.18,5.14 -27.13,7.71 -41.79,7.71zm268.44 -140.94c-5.4,-4.5 -11.31,-7.91 -17.74,-10.16 -6.62,-2.25 -13.69,-3.41 -21.09,-3.41 -13.82,0 -25.46,4.5 -35.04,13.37 -9.64,8.94 -14.47,20 -14.47,33.18 0,10.29 2.06,19.55 6.17,27.71 4.05,8.17 10.03,14.6 17.94,19.35 7.65,4.95 16.46,7.39 26.56,7.39 14.79,0 27.45,-4.76 38.06,-14.14l32.92 41.79c-4.76,5.02 -11.45,9.52 -19.94,13.37 -8.68,3.92 -17.61,6.82 -26.75,8.68 -9.19,1.87 -17.68,2.83 -25.46,2.83 -21.86,0 -41.15,-4.56 -57.8,-13.76 -16.72,-9.26 -29.51,-21.47 -38.45,-36.52 -8.94,-15.31 -13.37,-31.7 -13.37,-49.19 0,-15.95 2.7,-30.42 8.1,-43.34 5.53,-13.18 13.11,-24.5 22.76,-33.88 9.58,-9.19 21.22,-16.4 34.85,-21.67 13.56,-5.14 28.22,-7.71 43.91,-7.71 12.8,0 25.34,1.99 37.49,6.04 12.34,4.12 23.14,9.97 32.6,17.49l-31.25 42.56zm88.73 12.79c4.63,-7.39 10.87,-13.31 18.65,-17.68 7.78,-4.24 16.01,-6.43 24.69,-6.43 8.87,0 17.16,2.18 24.88,6.43 7.78,4.37 13.95,10.29 18.64,17.68 4.63,7.46 6.95,15.56 6.95,24.31 0,13.31 -5.02,24.82 -15.05,34.53 -9.97,9.52 -21.73,14.27 -35.43,14.27 -13.57,0 -25.34,-4.76 -35.24,-14.27 -10.03,-9.71 -15.05,-21.22 -15.05,-34.53 0,-8.74 2.31,-16.85 6.94,-24.31zm94 121.91l59.73 0.58 0.19 -98.18c0,-14.66 -2.96,-28.35 -8.87,-41.02 -5.79,-12.34 -13.95,-23.27 -24.5,-32.79 -10.03,-9.32 -21.86,-16.46 -35.43,-21.48 -13.56,-5.02 -27.52,-7.52 -41.79,-7.52 -14.47,0 -28.42,2.57 -41.86,7.72 -13.44,4.89 -25.21,11.96 -35.36,21.28 -10.29,9.26 -18.39,20.19 -24.31,32.79 -5.92,12.67 -8.87,26.36 -8.87,41.02 0,19.48 5.08,37.16 15.24,52.98 10.09,15.56 23.6,27.84 40.7,36.9 17.1,8.94 35.24,13.37 54.46,13.37 14.53,0 28.48,-2.57 41.79,-7.71 1.93,-0.65 4.82,-1.87 8.87,-3.6l0 5.66zm168.2 -199.51c-3.98,-0.58 -8.1,-0.97 -12.22,-1.1l-3.4 0c-55.49,2.77 -83.27,31.57 -83.27,86.48l0 114.13 60.31 0 0 -114.13c0,-20.77 7.65,-31.44 22.95,-32.02l3.4 0c5.02,0.19 9.07,1.42 12.22,3.54l0 -56.9zm108.34 0c-3.98,-0.58 -8.1,-0.97 -12.22,-1.1l-3.4 0c-55.49,2.77 -83.27,31.57 -83.27,86.48l0 114.13 60.31 0 0 -114.13c0,-20.77 7.65,-31.44 22.95,-32.02l3.4 0c5.02,0.19 9.07,1.42 12.22,3.54l0 -56.9zm76.51 77.61c4.63,-7.39 10.87,-13.31 18.65,-17.68 7.78,-4.24 16.01,-6.43 24.69,-6.43 8.87,0 17.16,2.18 24.88,6.43 7.78,4.37 13.95,10.29 18.64,17.68 4.63,7.46 6.95,15.56 6.95,24.31 0,13.31 -5.02,24.82 -15.05,34.53 -9.97,9.52 -21.73,14.27 -35.43,14.27 -13.57,0 -25.34,-4.76 -35.24,-14.27 -10.03,-9.71 -15.05,-21.22 -15.05,-34.53 0,-8.74 2.31,-16.85 6.94,-24.31zm94 121.91l59.73 0.58 0.19 -98.18c0,-14.66 -2.96,-28.35 -8.87,-41.02 -5.79,-12.34 -13.95,-23.27 -24.5,-32.79 -10.03,-9.32 -21.86,-16.46 -35.43,-21.48 -13.56,-5.02 -27.52,-7.52 -41.79,-7.52 -14.47,0 -28.42,2.57 -41.86,7.72 -13.44,4.89 -25.21,11.96 -35.36,21.28 -10.29,9.26 -18.39,20.19 -24.31,32.79 -5.92,12.67 -8.87,26.36 -8.87,41.02 0,19.48 5.08,37.16 15.24,52.98 10.09,15.56 23.6,27.84 40.7,36.9 17.1,8.94 35.24,13.37 54.46,13.37 14.53,0 28.48,-2.57 41.79,-7.71 1.93,-0.65 4.82,-1.87 8.87,-3.6l0 5.66zm267.86 -134.7c-5.4,-4.5 -11.31,-7.91 -17.74,-10.16 -6.62,-2.25 -13.69,-3.41 -21.09,-3.41 -13.82,0 -25.46,4.5 -35.04,13.37 -9.64,8.94 -14.47,20 -14.47,33.18 0,10.29 2.06,19.55 6.17,27.71 4.05,8.17 10.03,14.6 17.94,19.35 7.65,4.95 16.46,7.39 26.56,7.39 14.79,0 27.45,-4.76 38.06,-14.14l32.92 41.79c-4.76,5.02 -11.45,9.52 -19.94,13.37 -8.68,3.92 -17.61,6.82 -26.75,8.68 -9.19,1.87 -17.68,2.83 -25.46,2.83 -21.86,0 -41.15,-4.56 -57.8,-13.76 -16.72,-9.26 -29.51,-21.47 -38.45,-36.52 -8.94,-15.31 -13.37,-31.7 -13.37,-49.19 0,-15.95 2.7,-30.42 8.1,-43.34 5.53,-13.18 13.11,-24.5 22.76,-33.88 9.58,-9.19 21.22,-16.4 34.85,-21.67 13.56,-5.14 28.22,-7.71 43.91,-7.71 12.8,0 25.34,1.99 37.49,6.04 12.34,4.12 23.14,9.97 32.6,17.49l-31.25 42.56zm105.13 -58l0 193.08 -60.12 0 0 -192.89 60.12 -0.19zm0.19 -54.66c0,6.05 -1.41,11.38 -4.18,16.01 -2.76,4.69 -6.49,8.42 -11.32,11.32 -4.76,2.89 -10.03,4.37 -15.82,4.37 -5.79,0 -11,-1.42 -15.62,-4.18 -4.76,-2.9 -8.55,-6.69 -11.32,-11.51 -2.89,-5.02 -4.31,-10.35 -4.31,-16.01 0,-5.79 1.35,-11.06 4.11,-15.82 3.02,-4.89 6.88,-8.74 11.51,-11.51 4.63,-2.7 9.84,-4.11 15.62,-4.11 5.79,0 11.06,1.41 15.82,4.11 4.69,2.76 8.42,6.62 11.32,11.51 2.77,4.76 4.18,10.03 4.18,15.82zm108.28 47.84c-3.98,-0.58 -8.1,-0.97 -12.22,-1.1l-3.4 0c-55.49,2.77 -83.27,31.57 -83.27,86.48l0 114.13 60.31 0 0 -114.13c0,-20.77 7.65,-31.44 22.95,-32.02l3.4 0c5.02,0.19 9.07,1.42 12.22,3.54l0 -56.9zm157.91 64.81c-5.4,-4.5 -11.31,-7.91 -17.74,-10.16 -6.62,-2.25 -13.69,-3.41 -21.09,-3.41 -13.82,0 -25.46,4.5 -35.04,13.37 -9.64,8.94 -14.47,20 -14.47,33.18 0,10.29 2.06,19.55 6.17,27.71 4.05,8.17 10.03,14.6 17.94,19.35 7.65,4.95 16.46,7.39 26.56,7.39 14.79,0 27.45,-4.76 38.06,-14.14l32.92 41.79c-4.76,5.02 -11.45,9.52 -19.94,13.37 -8.68,3.92 -17.61,6.82 -26.75,8.68 -9.19,1.87 -17.68,2.83 -25.46,2.83 -21.86,0 -41.15,-4.56 -57.8,-13.76 -16.72,-9.26 -29.51,-21.47 -38.45,-36.52 -8.94,-15.31 -13.37,-31.7 -13.37,-49.19 0,-15.95 2.7,-30.42 8.1,-43.34 5.53,-13.18 13.11,-24.5 22.76,-33.88 9.58,-9.19 21.22,-16.4 34.85,-21.67 13.56,-5.14 28.22,-7.71 43.91,-7.71 12.8,0 25.34,1.99 37.49,6.04 12.34,4.12 23.14,9.97 32.6,17.49l-31.25 42.56zm126.03 85.9c-15.31,-0.52 -22.95,-11.12 -22.95,-31.83l0 -112.26 -60.31 0 0 112.26c0,54.65 27.77,83.46 83.27,86.48l3.4 0c55.49,-3.02 83.27,-31.83 83.27,-86.48l0 -112.26 -60.31 0 0 112.26c0,20.71 -7.65,31.31 -22.95,31.83l-3.4 0zm126.6 -11.83c11.89,11.9 26.49,17.87 43.66,17.87 18,0 26.94,-5.27 26.94,-15.82 0,-5.53 -4.95,-9.64 -14.85,-12.28 -7.07,-1.61 -18.19,-4.44 -33.56,-8.42 -12.41,-3.28 -22.89,-9.32 -31.44,-18.13 -8.42,-8.61 -12.6,-21.92 -12.6,-39.93 0,-13.82 3.47,-25.46 10.35,-35.04 7.01,-9.52 16.14,-16.59 27.33,-21.09 11.38,-4.63 23.92,-6.94 37.48,-6.94 7.65,0 15.43,1.03 23.34,3.21 8.55,2.64 16.2,5.85 22.95,9.77 7.46,4.11 13.95,8.81 19.61,13.95l-33.11 32.92c-9.71,-7.27 -20.26,-10.87 -31.7,-10.87 -13.7,0 -20.51,3.79 -20.51,11.44 0,6.95 5.08,11.77 15.24,14.53 11.19,3.02 22.44,5.85 33.76,8.49 12.41,3.09 22.76,8.87 31.06,17.3 8.42,8.55 12.6,21.99 12.6,40.31 0,13.69 -3.6,25.53 -10.93,35.43 -7.27,10.03 -16.97,17.49 -29.19,22.44 -12.15,5.14 -24.76,7.71 -37.87,7.71 -10.87,0 -20.77,-0.9 -29.52,-2.64 -8.81,-1.67 -17.04,-4.43 -24.69,-8.29 -7.91,-3.92 -16.2,-9.13 -24.88,-15.62l30.54 -40.32z"/>
   <path class="fil0" d="M2271.04 3393.54c0,-6.17 1.54,-11.77 4.69,-16.78 3.28,-5.27 7.46,-9.32 12.66,-12.21 5.27,-3.02 10.87,-4.5 16.72,-4.5 5.92,0 11.51,1.48 16.78,4.5 5.15,3.15 9.32,7.26 12.41,12.41 3.15,5.02 4.76,10.55 4.76,16.59 0,10.03 -3.28,18.32 -9.84,24.89 -6.63,6.62 -14.66,9.97 -24.11,9.97 -6.24,0 -11.96,-1.48 -17.1,-4.5 -5.27,-3.02 -9.45,-7.27 -12.47,-12.67 -3.02,-5.47 -4.5,-11.38 -4.5,-17.68z"/>
  </g>
 </g>
</svg>
