<?xml version="1.0" encoding="UTF-8"?>
<!DOCTYPE svg PUBLIC "-//W3C//DTD SVG 1.1//EN" "http://www.w3.org/Graphics/SVG/1.1/DTD/svg11.dtd">
<!-- Creator: CorelDRAW 2018 (64 Bit Versão de avaliação) -->
<svg xmlns="http://www.w3.org/2000/svg" xml:space="preserve" width="57.665mm" height="45.4637mm" version="1.1" style="shape-rendering:geometricPrecision; text-rendering:geometricPrecision; image-rendering:optimizeQuality; fill-rule:evenodd; clip-rule:evenodd"
viewBox="0 0 11327.57 8930.77"
 xmlns:xlink="http://www.w3.org/1999/xlink">
 <defs>
  <style type="text/css">
   <![CDATA[
    .str0 {stroke:#D03438;stroke-width:39.29;stroke-miterlimit:22.9256}
    .fil1 {fill:#FEFEFE}
    .fil0 {fill:#D03438}
    .fil2 {fill:#FEFEFE;fill-rule:nonzero}
   ]]>
  </style>
 </defs>
 <g id="Camada_x0020_1">
  <metadata id="CorelCorpID_0Corel-Layer"/>
  <g id="_2661406912736">
   <g>
    <rect class="fil0 str0" x="19.65" y="19.63" width="11274.7" height="6725.55" rx="243.95" ry="169.77"/>
    <path class="fil1" d="M3602.74 2445.71c24.04,-62.13 23.57,-98.69 62.39,-178.86 30.64,-63.27 266.55,-308.68 334.1,-385.96 11.51,-11.94 7.62,-5.42 14.16,-20.41 -33.59,8.7 -81.4,32.63 -116.02,45.34 -120.77,44.43 -291.02,70.72 -425.9,70.72 -99.42,0 -107.59,-0.37 -198.56,60.07l-93.17 69.03c-8.49,6.84 -9.51,10.55 -17.76,17.33l-71.56 64.22c-29.56,29.49 -106.86,109.4 -128.59,138.72 -8.27,11.18 -6.5,7.13 -14.75,15.95l-37.05 46.2c-4.48,5.28 -2.53,2.38 -8.09,9.41 -9.86,12.43 -19.55,28.95 -30.84,38.97 -71.13,14.71 -242.52,-27.34 -302.59,-52.17 -149.02,-61.6 -226.81,-59.4 -385.41,-59.4 -88.36,0 -210.15,14.77 -288.13,39.9 92.5,14.1 146.39,10.9 251.7,33.91 77.04,16.83 146.97,43.53 207.12,77.77 28.64,16.28 54.77,38.54 81.5,58.72l81.99 62.66c47.01,35.42 90.3,73.98 139.96,105.37 6.19,3.91 2.1,0.16 10.63,6.93 1.02,0.81 3.83,3.28 4.71,4.14 6.21,5.99 0.98,-0.86 6.29,7.35 -18.47,20.76 -84.55,48.26 -129.35,99.08 -9.72,11.06 -20.47,16.28 -29.96,27.03 -110.54,125.25 -148.23,278.29 -175.79,450.69 -44.16,276.01 -23.16,406.35 -39.03,645.95 -5.78,87.14 -10.75,127.02 -78.59,178.78l-44.77 42.9c-62.94,54.41 -99.85,128.37 -137.82,204.2 -51.09,102.09 -84.53,235.45 -101.3,358.64 -18.64,137.11 -16.15,285.72 -30.29,425.39 -9.92,97.98 -23.08,196.36 -51.39,290.57 -7.74,25.73 -29.52,67.08 -32.41,87.04 50.31,50.66 44.98,57.14 113.99,108.26 85.18,63.06 185.14,98.79 302.26,98.79 32.9,0 61.01,-8.27 89.38,-9.57 36.95,-1.69 228,121.22 523.88,-14.91 57.73,-26.54 170.19,-7.44 170.19,-179.45 0,-99.02 -98.04,-244.33 -157.78,-327.66 -19.92,-27.78 -40.8,-47.97 -66.38,-69.4 -17.01,-14.26 -30.21,-29.33 -55.3,-37.7 -27.76,1.83 -147.5,96.27 -321.19,89.95 9.08,-17.9 19.11,-16.62 38.36,-25.75 14.79,-7.01 26.95,-12.65 41.57,-19.98 76.75,-38.42 166.81,-85.31 231.5,-134.52 2.65,-44.69 4.36,-87.34 6.11,-132.46 1.85,-48.34 15.64,-65.41 38.68,-100.6 27.56,-42.06 63.33,-76.96 94.11,-116.27l78.1 -92.78c8.64,-11.69 8.19,-8.6 16.99,-18.09 6.62,-7.17 8.9,-13.34 14.73,-20.31 6.54,-7.88 11.24,-9.33 17.93,-17.17 7.35,-8.56 6.82,-11.94 14.69,-20.31 8.43,-8.98 10.29,-7.44 18.01,-17.09 8.07,-10.14 5.78,-10.9 15.03,-20.02l51.19 -53.94c14.6,-13.48 19.23,-26.52 31.55,-38.58 52.33,-51.21 102.5,-106.14 158.76,-152.38l52.61 -52.59c10.78,-13.65 19,-25.67 29.58,-40.58 127.06,-178.44 150.39,-438.53 143.03,-663.33l-19.6 -298.62c17.92,16.27 28.97,103.86 33.47,127.04 41.29,212.39 79.34,440.35 32.79,654.82 153.2,0 304.77,34.44 422.52,103.56 16.54,9.72 23.71,14.54 39.37,26.4 14.32,10.84 24.42,20.19 35.95,29.78l226.34 168.07c50.17,36.62 103.48,68.28 157.17,105.7 103.03,71.82 216.69,136.41 328.68,197.46 76.75,41.82 111.99,55.93 211.27,55.93 107.47,0 558.14,-44.75 644.86,-78.97l-12.1 -5.91c-85.12,-30.35 -521.5,-119 -540.42,-138.7 -21.25,-22.14 -28.72,-251.3 -28.72,-298 0,-292.59 79.16,-546.39 247,-762.96l62.82 -68.65c10.14,-10.39 31.84,-35.67 43.2,-44.53l48.32 -39.25c8.11,-6.8 15.77,-12.57 24.57,-19.21 11.02,-8.31 17.38,-14.95 32.39,-16.78 -11.98,22.26 -34.87,40.41 -50.62,59.85 -249,307.68 -372.94,684.03 -265.35,1079.88 7.01,25.81 6.4,23.12 31.35,30.09 161.18,45.12 321.51,97.41 481.37,145.36l767.32 237.02c-56.69,3.1 -277.45,-58.03 -311.71,-52.84 -9.19,1.41 -4.44,0.1 -9.94,3.5 39.11,20.15 249.63,194.81 291.79,234.21 -26.89,-7.17 -293.75,-194.96 -330.33,-220.03 -13.38,-9.17 -21.06,-20.29 -41.61,-16.68 -21.04,3.67 -71.39,22.41 -92.42,30.84 -49.62,19.88 -100.12,42.16 -135.31,79.54 -8.27,8.78 -9.72,6.62 -9.72,24.26 0,114.09 20.06,319.53 92.88,405.72 17.76,21 26.58,32.94 47.56,53.16 51.58,49.72 110.79,92.86 173.93,128.51 68.42,38.6 21.27,-9.15 79.28,69.7l23.14 29.45c28.92,34.95 72.37,66.75 112.89,88.69 92.13,49.9 194.16,63.29 299.27,58.52 16.78,-53.25 154.3,-324.04 189.92,-401.01 12.98,-28.01 29.03,-29.98 57.24,-43.35l132.93 -64.65c47.81,-23.91 75.08,-49.52 112.5,-84.66 10.23,-9.61 9.45,-14.56 22.49,-25.65 17.88,-15.2 12.83,-10.37 25.48,-27.07 106.53,-140.96 172.75,-288.1 62.27,-458.88 -37.93,-58.66 -55.04,-56.26 -86.84,-92.78l-567.72 -510.31c-14.03,-16.03 -16.87,-15.44 -32.92,-28.37 -13.1,-10.53 -16.95,-20.08 -30.84,-30.59l-158.09 -144.62c25.1,3.83 139.67,74.74 168.23,90.68l209.21 119.71c24.26,13.55 23.18,9.86 42.35,-5.24 47.13,-37.15 103.66,-74.51 158.51,-104.68 21.69,-11.94 74.37,-31.02 86.63,-43.31 -16.62,-40.86 -186.46,-456.68 -191.92,-491.25 19.7,10.73 95.7,156.74 107.43,178.25l205.71 363.98c59.38,99.12 114.56,158.41 178.4,246.75l45.89 59.25c50.54,62.58 92.56,108.3 184.87,139.45 129.22,43.61 503.49,36.28 676.24,34.91 42.84,-0.33 68.65,20.27 103.03,40.27 76.43,44.49 150.14,86.35 220.93,134.03l40.33 29.86c26.74,25.34 36.07,56.36 95.43,40.09 111.4,-30.51 217.2,-120.08 306.89,-188.44 26.15,-19.92 52.88,-44.34 82.31,-62.33 31.29,-19.17 75.69,-22.69 46.4,-79.36l-31.55 -42.86c-21.43,-24.52 -50.35,-44.26 -83.66,-56.69l-206.71 -78.14c-29.98,-11.31 -85.53,-21.96 -95.27,-50.09 67.08,-43.43 482.04,143.83 561.28,143.83 78.08,0 108.06,-45.16 133.54,-111.11 10.69,-27.6 86.18,-99.38 99.48,-127.37 58.46,-123.09 -12.91,-166.58 -4.11,-218.46 20.02,-118.02 26.22,-279.37 -50.82,-381.62 -14.38,-19.11 -26.32,-23.61 -44.1,-40.03l62.13 -65.79c12.51,-12.49 11.2,-7.66 21.69,-22.14l71.68 -103.68c45.95,-73.19 77.93,-157.5 105.04,-245.55 102.3,-332.41 90.71,-716.53 54.85,-1062.18 -22.47,43.37 -44.75,112.52 -66,161.57 -84.68,195.44 -174.65,343.06 -299.82,502.02l-126.9 127.29c-60.72,48.28 -120.48,90.36 -193.43,122.16 -45.77,19.96 -132.38,50.76 -187.36,41 -3.67,-18.27 25.48,-208.81 29.66,-247.65 8.17,-75.81 19.23,-187.83 10.31,-263.17 -0.88,-0.37 -2.46,-1.49 -2.85,-0.53l-109.3 79.26c-36.89,26.36 -76.61,53.9 -118.84,78.42 -74.86,43.45 -196.36,108.81 -301.71,95.76l-127.74 -147.09c-18.45,-26.79 -44.81,-46.63 -65.02,-70.87 -14.48,-17.38 -14.44,-22.1 -32.51,-37.52 -25.03,-21.35 -40.27,-49.07 -65.24,-70.6 -18.39,-15.83 -19.62,-19.07 -34.83,-35.28l-57.34 -47.89c-8.66,-6.74 -10.69,-8.86 -19.49,-15.52 -62.86,-47.64 -107.84,-66.3 -170.17,-105.04 33.32,-130.3 115.15,-310.67 109.22,-451.45 -93.56,20.02 -228.24,105.88 -306.48,160.31l-105.35 83.13c-35.26,28.4 -60.46,63.13 -96.16,92.27l-71.8 85.96c-66.95,88.63 -122.89,185.26 -159.98,291.43 -4.32,12.38 -7.27,23.95 -15.81,33.22 -5.24,-66.18 79.28,-368.54 126.88,-452.61 7.44,-13.12 9.74,-13.81 14.89,-27.56l-147.09 -123.62c-26.11,-21.22 -49.74,-39.66 -75.59,-60.29l-118.2 -87.75c-286.45,-214.77 -750.17,-471.33 -1106.34,-471.33 -293.65,0 -337.62,65.94 -546.82,189.44 -50.13,29.58 -96.31,58.17 -144.95,87.41 -372.5,224 -790.01,443.34 -1131.58,700.08l-274.42 238.3c-24.22,21.37 -57.85,68.64 -75.9,95.04 -28.03,41.02 -49.58,85.9 -69.6,131.55 -10.06,22.92 1.75,11.69 -13.73,17.7zm4373.56 115.33c-17.01,-16.07 -33.73,-6.07 -38.07,14.28 -8.72,47.6 -17.44,95.17 -26.17,142.77 -1.49,22.88 14.2,38.97 42.82,49.95 79.32,35.69 158.62,71.39 237.94,107.08 24.22,11.26 47.6,-14.32 28.56,-45.22 -81.68,-89.61 -163.4,-179.23 -245.1,-268.86zm-2227.64 2051.34c-106.94,15.24 -293.36,27.8 -428.19,64.79 -93.23,47.81 -428.47,328.64 -499.84,539.59 -20.86,60.31 -21.94,120.55 -4.73,180.86 204.94,251.13 480.27,314.56 780.47,311.71 205,-14.44 452.59,-48.28 314.1,-309.33 -228.2,-127.78 -182.14,-533.45 -123.72,-747.17 1.36,-27.6 -10.9,-41.47 -38.09,-40.45zm-2540.17 -214.71c150.69,-103.92 265.7,-263.74 359.3,-408.08 376.39,26.79 596.66,300.41 916.13,537.75 -102.34,36.5 -276.78,96.84 -461.63,95.19 32.53,377.53 -119.77,591.63 -285.54,932.78 -28.19,28.94 -75.71,38.5 -145.15,26.19 -303.59,-69.72 -502.25,-252.26 -552.05,-594.87 -3.89,-43.59 14.71,-67.71 52.35,-78.54 61.07,-18.25 126.92,-19.84 183.24,-54.73 31.92,-23.99 62.33,-55.49 49.95,-92.8 -44.41,-124.54 -143.56,-233.62 -116.61,-362.9zm4819.63 -2403.27c140.51,-49.25 271.93,-121.32 399.75,-202.27 30.55,-9.61 43.26,-3.85 35.71,21.43 -44.91,145.4 -101.81,289.25 -197.52,428.31 -95.35,-109.06 -171.25,-185.97 -237.94,-247.47z"/>
   </g>
   <path class="fil2" d="M5601.91 8925.72l-24.4 0 0 -215.55 -49.46 0 0 -23.55 123.32 0 0 23.55 -49.46 0 0 215.55zm98.98 -131.83l104.15 0 0 23.53 -104.15 0 0 85.1 104.15 0 0 23.2 -128.55 0 0 -239.1 128.55 0 0 23.55 -104.15 0 0 83.72zm347.99 -45.4c-11.08,-14.91 -23.49,-25.83 -37.26,-32.84 -13.69,-6.99 -29.39,-10.53 -46.97,-10.53 -27.52,0 -51.09,9.86 -70.66,29.58 -19.57,19.74 -29.37,43.16 -29.37,70.34 0,28.92 9.74,53.29 29.19,73.09 19.45,19.84 43.02,29.76 70.84,29.76 17.13,0 32.63,-3.5 46.44,-10.37 13.83,-6.95 25.85,-17.27 36.07,-31l28.9 0c-11.31,20.35 -26.52,36.09 -45.55,47.24 -19.05,11.1 -40.43,16.64 -64.1,16.64 -36.42,0 -66.77,-11.98 -91.11,-35.91 -24.32,-24 -36.46,-53.92 -36.46,-89.79 0,-16.76 3.3,-32.63 9.86,-47.64 6.58,-14.97 16.23,-28.48 28.94,-40.53 11.77,-11.37 25.01,-20.02 39.7,-25.83 14.69,-5.89 30.6,-8.8 47.73,-8.8 24.61,0 46.73,5.76 66.42,17.37 19.68,11.61 35.24,28.03 46.67,49.21l-29.27 0zm228.89 148.64l-2.79 -210.52 24.02 0 0 239.1 -29.25 0 -135.86 -210.84 2.77 210.84 -24.02 0 0 -239.1 29.25 0 135.88 210.52zm80.81 -92.03c0,29.13 9.8,53.53 29.45,73.25 19.6,19.66 43.83,29.54 72.62,29.54 28.11,0 51.84,-9.98 71.23,-29.88 19.39,-19.96 29.09,-44.45 29.09,-73.59 0,-27.13 -9.98,-50.56 -29.96,-70.17 -19.92,-19.68 -43.94,-29.49 -72.11,-29.49 -11.43,0 -22.47,1.91 -33.02,5.66 -10.65,3.75 -20.39,9.37 -29.39,16.64 -11.79,9.65 -21.08,21.41 -27.8,35.32 -6.76,13.89 -10.12,28.13 -10.12,42.71zm-25.44 -0.39c0,-16.64 3.32,-32.51 9.94,-47.64 6.68,-15.09 16.25,-28.58 28.86,-40.53 12.12,-11.49 25.48,-20.12 40.05,-25.95 14.58,-5.78 30.37,-8.68 47.38,-8.68 17.31,0 33.37,2.91 48.19,8.8 14.81,5.81 28.33,14.58 40.58,26.17 12.59,11.94 22.06,25.28 28.39,40.01 6.34,14.79 9.53,30.72 9.53,47.81 0,16.93 -2.73,32.51 -8.19,46.67 -5.4,14.18 -13.59,27.09 -24.44,38.68 -12.59,13.34 -26.83,23.38 -42.73,30.15 -15.85,6.8 -33.1,10.2 -51.68,10.2 -35.59,0 -65.49,-12.04 -89.65,-36.18 -24.14,-24.1 -36.22,-53.98 -36.22,-89.52zm398.24 121.01l-111.48 0 0 -239.1 24.38 0 0 215.9 87.1 0 0 23.2zm32.57 -120.61c0,29.13 9.8,53.53 29.43,73.25 19.62,19.66 43.84,29.54 72.64,29.54 28.09,0 51.84,-9.98 71.23,-29.88 19.39,-19.96 29.09,-44.45 29.09,-73.59 0,-27.13 -9.98,-50.56 -29.96,-70.17 -19.92,-19.68 -43.96,-29.49 -72.11,-29.49 -11.43,0 -22.47,1.91 -33.04,5.66 -10.63,3.75 -20.37,9.37 -29.39,16.64 -11.77,9.65 -21.06,21.41 -27.8,35.32 -6.74,13.89 -10.1,28.13 -10.1,42.71zm-25.44 -0.39c0,-16.64 3.3,-32.51 9.92,-47.64 6.7,-15.09 16.27,-28.58 28.88,-40.53 12.12,-11.49 25.48,-20.12 40.05,-25.95 14.58,-5.78 30.35,-8.68 47.36,-8.68 17.31,0 33.39,2.91 48.21,8.8 14.79,5.81 28.33,14.58 40.56,26.17 12.61,11.94 22.08,25.28 28.4,40.01 6.33,14.79 9.53,30.72 9.53,47.81 0,16.93 -2.75,32.51 -8.19,46.67 -5.4,14.18 -13.59,27.09 -24.44,38.68 -12.61,13.34 -26.83,23.38 -42.74,30.15 -15.85,6.8 -33.1,10.2 -51.66,10.2 -35.59,0 -65.49,-12.04 -89.65,-36.18 -24.14,-24.1 -36.22,-53.98 -36.22,-89.52zm373.13 6.33l153.99 0c-2.04,34.81 -15.05,63.39 -38.97,85.8 -23.91,22.37 -53.29,33.57 -88.06,33.57 -35.71,0 -65.61,-12.04 -89.71,-36.09 -24.08,-24.1 -36.16,-53.96 -36.16,-89.61 0,-16.76 3.32,-32.63 9.86,-47.64 6.58,-14.97 16.23,-28.48 28.92,-40.53 12.26,-11.71 25.79,-20.41 40.64,-26.11 14.87,-5.68 31.37,-8.53 49.54,-8.53 24.02,0 45.57,5.6 64.67,16.85 19.17,11.22 34.49,27.25 46.04,48.05l-29.96 0c-11.67,-14.36 -24.22,-24.95 -37.52,-31.78 -13.36,-6.84 -28.21,-10.25 -44.69,-10.25 -28.44,0 -52.55,9.8 -72.23,29.49 -19.68,19.6 -29.5,43.26 -29.5,70.84 0,29.31 9.82,53.8 29.45,73.43 19.62,19.55 43.84,29.37 72.64,29.37 22.69,0 43,-7.01 61.01,-21.08 17.99,-14.03 29.66,-32.24 35.12,-54.59l-125.07 0 0 -21.2zm211.86 114.68l-24.38 0 0 -239.1 24.38 0 0 239.1zm40.05 0l-25.71 0 96.16 -239.1 29.25 0 95.8 239.1 -26.01 0 -29.6 -75 -110.26 0 -29.62 75zm131.34 -96.51l-46.97 -120.06 -46.28 120.06 93.25 0zm205.36 -35.32l104.17 0 0 23.53 -104.17 0 0 85.1 104.17 0 0 23.2 -128.57 0 0 -239.1 128.57 0 0 23.55 -104.17 0 0 83.72zm151.89 131.83l0 -239.1 35.77 0 85.74 207.89 85.35 -207.89 35.93 0 0 239.1 -23.34 0 0 -211.19 -87.1 211.19 -21.94 0 -87.08 -211.19 0 211.19 -23.34 0zm437.64 0l-24.38 0 0 -215.55 -49.48 0 0 -23.55 123.32 0 0 23.55 -49.46 0 0 215.55zm98.98 -131.83l104.17 0 0 23.53 -104.17 0 0 85.1 104.17 0 0 23.2 -128.55 0 0 -239.1 128.55 0 0 23.55 -104.17 0 0 83.72zm314.91 103.25l-2.77 -210.52 24.02 0 0 239.1 -29.27 0 -135.86 -210.84 2.79 210.84 -24.02 0 0 -239.1 29.25 0 135.86 210.52zm54.71 -39.68l23.34 0c0.45,14.79 4.81,26.5 13.06,35.3 8.25,8.74 19.09,13.12 32.51,13.12 14.46,0 25.89,-4.38 34.38,-13.06 8.47,-8.68 12.71,-20.51 12.71,-35.36 0,-21.69 -17.37,-38.07 -52.13,-49.11 -2.73,-0.88 -4.77,-1.51 -6.17,-1.94 -18.11,-6.07 -31.12,-13.69 -39.13,-22.94 -7.94,-9.23 -11.96,-21.29 -11.96,-36.2 0,-19.05 6.17,-34.63 18.48,-46.79 12.3,-12.16 28.15,-18.21 47.66,-18.21 18.58,0 33.32,5.54 44.24,16.58 10.86,11.06 16.95,26.62 18.17,46.63l-22.98 0c-1.22,-13 -5.28,-23.04 -12.08,-30.09 -6.8,-7.05 -15.97,-10.59 -27.4,-10.59 -12.24,0 -22.24,3.87 -30.02,11.53 -7.78,7.74 -11.67,17.56 -11.67,29.49 0,6.23 1.16,11.61 3.48,16.21 2.34,4.54 6.05,8.62 11.16,12.38 5.23,3.71 15.2,7.86 29.96,12.45 8.47,2.63 14.97,4.75 19.39,6.38 16.09,6.05 27.68,13.73 34.77,23.1 7.09,9.35 10.63,21.63 10.63,36.81 0,23.2 -6.56,41.86 -19.68,56.04 -13.06,14.18 -30.49,21.23 -52.13,21.23 -20.19,0 -36.58,-6.66 -49.17,-20.06 -12.59,-13.4 -19.05,-31.04 -19.39,-52.9zm188.05 -52.35c0,29.13 9.8,53.53 29.43,73.25 19.62,19.66 43.84,29.54 72.64,29.54 28.09,0 51.84,-9.98 71.23,-29.88 19.39,-19.96 29.09,-44.45 29.09,-73.59 0,-27.13 -9.98,-50.56 -29.96,-70.17 -19.92,-19.68 -43.96,-29.49 -72.11,-29.49 -11.43,0 -22.47,1.91 -33.02,5.66 -10.63,3.75 -20.39,9.37 -29.39,16.64 -11.79,9.65 -21.08,21.41 -27.82,35.32 -6.74,13.89 -10.1,28.13 -10.1,42.71zm-25.44 -0.39c0,-16.64 3.32,-32.51 9.94,-47.64 6.68,-15.09 16.25,-28.58 28.86,-40.53 12.12,-11.49 25.48,-20.12 40.05,-25.95 14.58,-5.78 30.35,-8.68 47.38,-8.68 17.31,0 33.39,2.91 48.19,8.8 14.81,5.81 28.33,14.58 40.58,26.17 12.59,11.94 22.06,25.28 28.39,40.01 6.33,14.79 9.53,30.72 9.53,47.81 0,16.93 -2.73,32.51 -8.19,46.67 -5.4,14.18 -13.57,27.09 -24.44,38.68 -12.59,13.34 -26.83,23.38 -42.74,30.15 -15.85,6.8 -33.08,10.2 -51.66,10.2 -35.59,0 -65.49,-12.04 -89.63,-36.18 -24.16,-24.1 -36.24,-53.98 -36.24,-89.52zm311.16 -10.82l104.15 0 0 23.53 -104.15 0 0 85.1 104.15 0 0 23.2 -128.55 0 0 -239.1 128.55 0 0 23.55 -104.15 0 0 83.72zm137.23 63.57l23.34 0c0.47,14.79 4.83,26.5 13.06,35.3 8.25,8.74 19.11,13.12 32.51,13.12 14.46,0 25.91,-4.38 34.38,-13.06 8.47,-8.68 12.73,-20.51 12.73,-35.36 0,-21.69 -17.37,-38.07 -52.15,-49.11 -2.73,-0.88 -4.75,-1.51 -6.15,-1.94 -18.11,-6.07 -31.12,-13.69 -39.13,-22.94 -7.96,-9.23 -11.96,-21.29 -11.96,-36.2 0,-19.05 6.17,-34.63 18.47,-46.79 12.32,-12.16 28.15,-18.21 47.66,-18.21 18.6,0 33.34,5.54 44.26,16.58 10.84,11.06 16.95,26.62 18.17,46.63l-23 0c-1.22,-13 -5.28,-23.04 -12.06,-30.09 -6.8,-7.05 -15.97,-10.59 -27.42,-10.59 -12.24,0 -22.22,3.87 -30.02,11.53 -7.76,7.74 -11.65,17.56 -11.65,29.49 0,6.23 1.16,11.61 3.48,16.21 2.32,4.54 6.03,8.62 11.16,12.38 5.21,3.71 15.2,7.86 29.94,12.45 8.49,2.63 14.99,4.75 19.41,6.38 16.09,6.05 27.68,13.73 34.77,23.1 7.09,9.35 10.63,21.63 10.63,36.81 0,23.2 -6.56,41.86 -19.68,56.04 -13.06,14.18 -30.49,21.23 -52.13,21.23 -20.21,0 -36.58,-6.66 -49.19,-20.06 -12.59,-13.4 -19.03,-31.04 -19.39,-52.9zm228.12 68.26l-24.4 0 0 -215.55 -49.46 0 0 -23.55 123.32 0 0 23.55 -49.46 0 0 215.55zm95.15 -215.55l0 215.55 -24.04 0 0 -239.1 66.59 0c14.63,0 26.42,1.06 35.3,3.2 8.96,2.12 17.01,5.66 24.28,10.59 9.86,6.68 17.64,15.58 23.4,26.74 5.74,11.22 8.6,23.04 8.6,35.48 0,18.5 -5.7,34.42 -17.13,47.75 -11.39,13.4 -25.67,20.63 -42.8,21.86l59.93 93.48 -28.92 0 -73.57 -115.35 23.51 0c15.62,0 28.33,-4.42 38.15,-13.28 9.8,-8.86 14.67,-20.23 14.67,-34.14 0,-8.41 -1.49,-16.03 -4.52,-22.92 -2.97,-6.88 -7.43,-12.95 -13.3,-18.03 -4.87,-4.26 -10.75,-7.35 -17.58,-9.13 -6.93,-1.81 -19.11,-2.69 -36.64,-2.69l-35.95 0zm169.35 -23.55l24.4 0 0 151.22c0,11.67 0.45,20.45 1.43,26.22 0.94,5.83 2.55,10.94 4.83,15.48 4.46,9.08 10.9,16.19 19.51,21.29 8.53,5.15 18.23,7.74 29.03,7.74 18.68,0 32.51,-6.17 41.51,-18.5 8.94,-12.28 13.42,-31.33 13.42,-57.16l0 -146.29 24.02 0 0 152c0,31 -6.38,54.08 -19.15,69.32 -12.77,15.2 -32.16,22.83 -58.11,22.83 -27.82,0 -48.26,-7.46 -61.31,-22.32 -13.08,-14.91 -19.58,-38.17 -19.58,-69.83l0 -152zm253.6 239.1l-24.38 0 0 -215.55 -49.46 0 0 -23.55 123.32 0 0 23.55 -49.48 0 0 215.55zm70.78 -239.1l24.38 0 0 151.22c0,11.67 0.47,20.45 1.45,26.22 0.94,5.83 2.57,10.94 4.83,15.48 4.46,9.08 10.9,16.19 19.51,21.29 8.55,5.15 18.23,7.74 29.03,7.74 18.68,0 32.51,-6.17 41.51,-18.5 8.94,-12.28 13.4,-31.33 13.4,-57.16l0 -146.29 24.04 0 0 152c0,31 -6.38,54.08 -19.17,69.32 -12.77,15.2 -32.14,22.83 -58.11,22.83 -27.82,0 -48.25,-7.46 -61.31,-22.32 -13.06,-14.91 -19.57,-38.17 -19.57,-69.83l0 -152zm221.21 23.55l0 215.55 -24.04 0 0 -239.1 66.59 0c14.63,0 26.42,1.06 35.3,3.2 8.96,2.12 17.01,5.66 24.26,10.59 9.88,6.68 17.66,15.58 23.42,26.74 5.74,11.22 8.58,23.04 8.58,35.48 0,18.5 -5.68,34.42 -17.13,47.75 -11.37,13.4 -25.65,20.63 -42.78,21.86l59.91 93.48 -28.92 0 -73.57 -115.35 23.51 0c15.62,0 28.35,-4.42 38.17,-13.28 9.8,-8.86 14.67,-20.23 14.67,-34.14 0,-8.41 -1.51,-16.03 -4.52,-22.92 -2.97,-6.88 -7.44,-12.95 -13.3,-18.03 -4.89,-4.26 -10.75,-7.35 -17.58,-9.13 -6.93,-1.81 -19.11,-2.69 -36.66,-2.69l-35.93 0zm167.21 215.55l-25.73 0 96.16 -239.1 29.25 0 95.8 239.1 -26.01 0 -29.6 -75 -110.26 0 -29.6 75zm131.32 -96.51l-46.97 -120.06 -46.28 120.06 93.25 0zm79.14 28.25l23.34 0c0.47,14.79 4.83,26.5 13.06,35.3 8.25,8.74 19.09,13.12 32.51,13.12 14.46,0 25.91,-4.38 34.38,-13.06 8.47,-8.68 12.71,-20.51 12.71,-35.36 0,-21.69 -17.37,-38.07 -52.13,-49.11 -2.73,-0.88 -4.77,-1.51 -6.17,-1.94 -18.11,-6.07 -31.12,-13.69 -39.11,-22.94 -7.96,-9.23 -11.96,-21.29 -11.96,-36.2 0,-19.05 6.15,-34.63 18.47,-46.79 12.3,-12.16 28.15,-18.21 47.66,-18.21 18.58,0 33.32,5.54 44.24,16.58 10.86,11.06 16.95,26.62 18.17,46.63l-22.98 0c-1.22,-13 -5.28,-23.04 -12.08,-30.09 -6.8,-7.05 -15.97,-10.59 -27.4,-10.59 -12.24,0 -22.24,3.87 -30.02,11.53 -7.78,7.74 -11.67,17.56 -11.67,29.49 0,6.23 1.16,11.61 3.48,16.21 2.34,4.54 6.05,8.62 11.16,12.38 5.23,3.71 15.22,7.86 29.96,12.45 8.49,2.63 14.97,4.75 19.39,6.38 16.09,6.05 27.7,13.73 34.79,23.1 7.07,9.35 10.61,21.63 10.61,36.81 0,23.2 -6.56,41.86 -19.68,56.04 -13.06,14.18 -30.47,21.23 -52.13,21.23 -20.19,0 -36.58,-6.66 -49.17,-20.06 -12.59,-13.4 -19.03,-31.04 -19.39,-52.9z"/>
   <path class="fil0" d="M1827.03 7847.26c-40.31,-40.31 -96.08,-65.28 -157.64,-65.28 -61.56,0 -117.31,24.97 -157.62,65.28 -40.31,40.31 -65.28,96.06 -65.28,157.62 0,61.56 24.97,117.33 65.28,157.64 40.31,40.31 96.06,65.28 157.62,65.28 61.56,0 117.33,-24.97 157.64,-65.28 40.31,-40.31 65.28,-96.08 65.28,-157.64 0,-61.56 -24.97,-117.31 -65.28,-157.62z"/>
   <path class="fil1" d="M310.76 8009.03c0,65.08 24.28,121.14 72.86,167.84 47.95,47.03 104.94,70.38 170.63,70.38 66.34,0 123.32,-23.36 171.57,-70.38 48.58,-46.69 72.88,-102.76 72.88,-167.84 0,-42.33 -11.22,-81.27 -33.63,-116.76 -22.73,-35.81 -52.63,-64.45 -90.3,-85.63 -37.36,-21.18 -77.53,-32.06 -120.51,-32.06 -42.02,0 -81.88,10.88 -119.55,32.06 -37.68,21.18 -67.89,49.82 -90.3,85.63 -22.43,35.5 -33.63,74.43 -33.63,116.76zm1358.62 -374.37c102.21,0 194.81,41.47 261.79,108.45 66.99,66.99 108.45,159.57 108.45,261.77 0,102.21 -41.47,194.81 -108.45,261.79 -66.99,66.99 -159.59,108.45 -261.79,108.45 -102.21,0 -194.79,-41.47 -261.77,-108.45 -66.99,-66.99 -108.45,-159.59 -108.45,-261.79 0,-102.21 41.47,-194.79 108.45,-261.77 66.99,-66.99 159.57,-108.45 261.77,-108.45zm-1649.76 -453.89l291.14 -0.92 0 385.17 20.86 -9.35 20.86 -9.04c65.69,-23.65 132.95,-35.5 201.76,-35.5 69.13,0 136.7,11.85 202.41,35.5 63.82,23.67 121.44,58.56 172.49,104.94 50.45,45.48 89.67,98.71 117.71,159.74 28.64,61.35 42.96,127.35 42.96,197.71 0,72.56 -14.01,138.88 -42.02,198.97 -28.03,60.11 -67.57,113.66 -118.65,160.69 -51.68,46.69 -109.3,81.58 -172.49,104.92 -63.84,24.93 -131.4,37.38 -202.41,37.38 -93.09,0 -180.9,-22.12 -263.72,-65.71 -82.84,-43.28 -148.23,-102.76 -197.11,-179.03 -48.58,-74.74 -73.17,-158.19 -73.8,-250.67l0 -834.8zm1650.29 1330.22c-93.09,0 -180.9,-22.12 -263.72,-65.71 -82.84,-43.9 -148.23,-103.68 -197.11,-179.66 -49.21,-76.91 -73.8,-162.53 -73.8,-257.51 0,-70.99 14.32,-137.31 42.96,-198.66 28.66,-61.66 67.89,-114.58 117.71,-159.74 50.45,-45.46 107.75,-80.64 172.2,-104.94 65.69,-24.28 132.95,-36.42 201.76,-36.42 69.13,0 136.7,12.14 202.41,36.42 63.82,23.04 121.44,57.93 172.49,104.01 50.45,46.4 89.67,99.63 117.71,160.67 28.64,61.35 42.96,127.66 42.96,198.66 0,72.54 -14.01,138.88 -42.02,198.97 -28.03,60.72 -67.57,114.58 -118.65,161.61 -51.68,46.08 -109.3,80.95 -172.49,104.92 -63.84,24.93 -131.4,37.38 -202.41,37.38zm1300 -682.54c-26.15,-21.8 -54.79,-38.31 -85.94,-49.21 -32.06,-10.88 -66.32,-16.5 -102.13,-16.5 -66.95,0 -123.3,21.8 -169.7,64.77 -46.69,43.29 -70.05,96.84 -70.05,160.67 0,49.84 9.96,94.66 29.9,134.21 19.6,39.54 48.56,70.7 86.86,93.74 37.05,23.97 79.71,35.79 128.61,35.79 71.6,0 132.95,-23.04 184.32,-68.5l159.43 202.39c-23.04,24.3 -55.42,46.08 -96.53,64.77 -42.04,19 -85.31,33.02 -129.53,42.04 -44.51,9.04 -85.63,13.71 -123.3,13.71 -105.86,0 -199.29,-22.12 -279.92,-66.63 -80.95,-44.85 -142.93,-104.01 -186.2,-176.87 -43.28,-74.1 -64.77,-153.5 -64.77,-238.2 0,-77.22 13.08,-147.29 39.23,-209.87 26.77,-63.82 63.53,-118.63 110.24,-164.08 46.38,-44.53 102.74,-79.4 168.76,-104.94 65.69,-24.91 136.7,-37.36 212.66,-37.36 61.98,0 122.69,9.65 181.53,29.27 59.8,19.92 112.11,48.26 157.88,84.68l-151.34 206.14zm429.71 61.96c22.41,-35.81 52.63,-64.45 90.3,-85.63 37.68,-20.55 77.53,-31.14 119.55,-31.14 42.98,0 83.15,10.59 120.51,31.14 37.68,21.18 67.57,49.82 90.3,85.63 22.41,36.12 33.63,75.35 33.63,117.71 0,64.45 -24.3,120.18 -72.88,167.21 -48.25,46.08 -105.23,69.13 -171.57,69.13 -65.69,0 -122.68,-23.04 -170.63,-69.13 -48.58,-47.03 -72.86,-102.76 -72.86,-167.21 0,-42.35 11.2,-81.58 33.63,-117.71zm455.22 590.37l289.27 2.81 0.92 -475.48c0,-70.99 -14.32,-137.31 -42.96,-198.66 -28.03,-59.8 -67.57,-112.72 -118.63,-158.8 -48.58,-45.16 -105.88,-79.71 -171.57,-104.01 -65.71,-24.28 -133.28,-36.42 -202.41,-36.42 -70.05,0 -137.62,12.45 -202.7,37.36 -65.08,23.67 -122.05,57.91 -171.25,103.07 -49.82,44.83 -89.05,97.77 -117.71,158.8 -28.64,61.35 -42.96,127.66 -42.96,198.66 0,94.35 24.59,179.98 73.8,256.57 48.87,75.35 114.27,134.83 197.11,178.74 82.82,43.28 170.63,64.77 263.72,64.77 70.38,0 137.96,-12.45 202.41,-37.36 9.33,-3.12 23.36,-9.04 42.96,-17.44l0 27.4zm814.57 -966.2c-19.31,-2.81 -39.23,-4.68 -59.17,-5.3l-16.5 0c-268.71,13.4 -403.23,152.89 -403.23,418.8l0 552.7 292.06 0 0 -552.7c0,-100.58 37.07,-152.26 111.16,-155.07l16.5 0c24.3,0.94 43.9,6.86 59.17,17.13l0 -275.56zm524.66 0c-19.31,-2.81 -39.23,-4.68 -59.17,-5.3l-16.5 0c-268.71,13.4 -403.23,152.89 -403.23,418.8l0 552.7 292.06 0 0 -552.7c0,-100.58 37.07,-152.26 111.16,-155.07l16.5 0c24.3,0.94 43.9,6.86 59.17,17.13l0 -275.56zm370.54 375.82c22.41,-35.81 52.63,-64.45 90.3,-85.63 37.68,-20.55 77.53,-31.14 119.55,-31.14 42.98,0 83.15,10.59 120.51,31.14 37.68,21.18 67.57,49.82 90.3,85.63 22.41,36.12 33.63,75.35 33.63,117.71 0,64.45 -24.3,120.18 -72.88,167.21 -48.25,46.08 -105.23,69.13 -171.57,69.13 -65.69,0 -122.68,-23.04 -170.63,-69.13 -48.58,-47.03 -72.86,-102.76 -72.86,-167.21 0,-42.35 11.2,-81.58 33.63,-117.71zm455.22 590.37l289.27 2.81 0.92 -475.48c0,-70.99 -14.32,-137.31 -42.96,-198.66 -28.03,-59.8 -67.57,-112.72 -118.63,-158.8 -48.58,-45.16 -105.88,-79.71 -171.57,-104.01 -65.71,-24.28 -133.28,-36.42 -202.41,-36.42 -70.05,0 -137.62,12.45 -202.7,37.36 -65.08,23.67 -122.05,57.91 -171.25,103.07 -49.82,44.83 -89.05,97.77 -117.71,158.8 -28.64,61.35 -42.96,127.66 -42.96,198.66 0,94.35 24.59,179.98 73.8,256.57 48.87,75.35 114.27,134.83 197.11,178.74 82.82,43.28 170.63,64.77 263.72,64.77 70.38,0 137.96,-12.45 202.41,-37.36 9.33,-3.12 23.36,-9.04 42.96,-17.44l0 27.4zm1297.19 -652.33c-26.15,-21.8 -54.79,-38.31 -85.94,-49.21 -32.06,-10.88 -66.32,-16.5 -102.13,-16.5 -66.95,0 -123.3,21.8 -169.7,64.77 -46.69,43.29 -70.05,96.84 -70.05,160.67 0,49.84 9.96,94.66 29.9,134.21 19.6,39.54 48.56,70.7 86.86,93.74 37.05,23.97 79.71,35.79 128.61,35.79 71.6,0 132.95,-23.04 184.32,-68.5l159.43 202.39c-23.04,24.3 -55.42,46.08 -96.53,64.77 -42.04,19 -85.31,33.02 -129.53,42.04 -44.51,9.04 -85.63,13.71 -123.3,13.71 -105.86,0 -199.29,-22.12 -279.92,-66.63 -80.95,-44.85 -142.93,-104.01 -186.2,-176.87 -43.28,-74.1 -64.77,-153.5 -64.77,-238.2 0,-77.22 13.08,-147.29 39.23,-209.87 26.77,-63.82 63.53,-118.63 110.24,-164.08 46.38,-44.53 102.74,-79.4 168.76,-104.94 65.69,-24.91 136.7,-37.36 212.66,-37.36 61.98,0 122.69,9.65 181.53,29.27 59.8,19.92 112.11,48.26 157.88,84.68l-151.34 206.14zm509.11 -280.87l0 935.06 -291.14 0 0 -934.12 291.14 -0.94zm0.92 -264.66c0,29.27 -6.86,55.1 -20.23,77.53 -13.4,22.73 -31.45,40.78 -54.81,54.79 -23.04,14.03 -48.58,21.18 -76.59,21.18 -28.03,0 -53.25,-6.86 -75.67,-20.23 -23.04,-14.01 -41.41,-32.39 -54.81,-55.73 -14.01,-24.3 -20.86,-50.15 -20.86,-77.53 0,-28.03 6.54,-53.57 19.92,-76.61 14.63,-23.67 33.34,-42.35 55.75,-55.73 22.41,-13.08 47.64,-19.94 75.67,-19.94 28.01,0 53.55,6.86 76.59,19.94 22.73,13.38 40.8,32.06 54.81,55.73 13.38,23.04 20.23,48.58 20.23,76.61zm524.35 231.66c-19.31,-2.81 -39.23,-4.68 -59.17,-5.3l-16.5 0c-268.71,13.4 -403.23,152.89 -403.23,418.8l0 552.7 292.06 0 0 -552.7c0,-100.58 37.07,-152.26 111.16,-155.07l16.5 0c24.3,0.94 43.9,6.86 59.17,17.13l0 -275.56zm764.73 313.87c-26.15,-21.8 -54.79,-38.31 -85.94,-49.21 -32.06,-10.88 -66.32,-16.5 -102.13,-16.5 -66.95,0 -123.3,21.8 -169.7,64.77 -46.69,43.29 -70.05,96.84 -70.05,160.67 0,49.84 9.96,94.66 29.9,134.21 19.6,39.54 48.56,70.7 86.86,93.74 37.05,23.97 79.71,35.79 128.61,35.79 71.6,0 132.95,-23.04 184.32,-68.5l159.43 202.39c-23.04,24.3 -55.42,46.08 -96.53,64.77 -42.04,19 -85.31,33.02 -129.53,42.04 -44.51,9.04 -85.63,13.71 -123.3,13.71 -105.86,0 -199.29,-22.12 -279.92,-66.63 -80.95,-44.85 -142.93,-104.01 -186.2,-176.87 -43.28,-74.1 -64.77,-153.5 -64.77,-238.2 0,-77.22 13.08,-147.29 39.23,-209.87 26.77,-63.82 63.53,-118.63 110.24,-164.08 46.38,-44.53 102.74,-79.4 168.76,-104.94 65.69,-24.91 136.7,-37.36 212.66,-37.36 61.98,0 122.69,9.65 181.53,29.27 59.8,19.92 112.11,48.26 157.88,84.68l-151.34 206.14zm610.29 416c-74.1,-2.49 -111.16,-53.86 -111.16,-154.12l0 -543.68 -292.06 0 0 543.68c0,264.66 134.52,404.15 403.23,418.79l16.5 0c268.73,-14.63 403.25,-154.12 403.25,-418.79l0 -543.68 -292.08 0 0 543.68c0,100.26 -37.05,151.63 -111.16,154.12l-16.5 0zm613.1 -57.3c57.62,57.62 128.29,86.57 211.43,86.57 87.2,0 130.47,-25.54 130.47,-76.59 0,-26.79 -23.99,-46.71 -71.94,-59.48 -34.24,-7.78 -88.12,-21.49 -162.53,-40.78 -60.09,-15.89 -110.85,-45.16 -152.26,-87.83 -40.8,-41.72 -61.03,-106.17 -61.03,-193.35 0,-66.95 16.82,-123.3 50.13,-169.7 33.94,-46.08 78.16,-80.34 132.34,-102.13 55.1,-22.41 115.82,-33.63 181.53,-33.63 37.05,0 74.72,4.99 113.03,15.56 41.41,12.77 78.46,28.35 111.16,47.34 36.11,19.92 67.55,42.65 94.96,67.57l-160.35 159.41c-47.03,-35.18 -98.08,-52.61 -153.52,-52.61 -66.32,0 -99.32,18.37 -99.32,55.42 0,33.63 24.59,56.99 73.8,70.36 54.18,14.63 108.67,28.35 163.46,41.11 60.11,14.95 110.24,42.96 150.41,83.76 40.78,41.41 61.01,106.49 61.01,195.22 0,66.34 -17.42,123.62 -52.92,171.57 -35.18,48.58 -82.21,84.7 -141.38,108.67 -58.85,24.93 -119.87,37.38 -183.39,37.38 -52.63,0 -100.58,-4.36 -142.93,-12.77 -42.65,-8.09 -82.5,-21.49 -119.57,-40.17 -38.29,-19 -78.46,-44.22 -120.49,-75.67l147.9 -195.24z"/>
   <path class="fil0" d="M10998.12 8336.61c0,-29.9 7.46,-56.99 22.73,-81.27 15.89,-25.54 36.12,-45.16 61.35,-59.17 25.54,-14.63 52.63,-21.8 80.95,-21.8 28.64,0 55.73,7.17 81.27,21.8 24.91,15.26 45.16,35.18 60.11,60.09 15.24,24.3 23.04,51.07 23.04,80.34 0,48.58 -15.89,88.73 -47.66,120.49 -32.06,32.08 -70.99,48.26 -116.76,48.26 -30.19,0 -57.91,-7.15 -82.82,-21.78 -25.54,-14.63 -45.77,-35.2 -60.4,-61.35 -14.63,-26.46 -21.8,-55.12 -21.8,-85.63z"/>
  </g>
 </g>
</svg>
