<?xml version="1.0" encoding="UTF-8"?>
<!DOCTYPE svg PUBLIC "-//W3C//DTD SVG 1.1//EN" "http://www.w3.org/Graphics/SVG/1.1/DTD/svg11.dtd">
<!-- Creator: CorelDRAW 2018 (64 Bit Versão de avaliação) -->
<svg xmlns="http://www.w3.org/2000/svg" xml:space="preserve" width="57.665mm" height="45.4637mm" version="1.1" style="shape-rendering:geometricPrecision; text-rendering:geometricPrecision; image-rendering:optimizeQuality; fill-rule:evenodd; clip-rule:evenodd"
viewBox="0 0 2340.58 1845.34"
 xmlns:xlink="http://www.w3.org/1999/xlink">
 <defs>
  <style type="text/css">
   <![CDATA[
    .str0 {stroke:#D03438;stroke-width:8.12;stroke-miterlimit:22.9256}
    .fil1 {fill:#FEFEFE}
    .fil3 {fill:#373435}
    .fil0 {fill:#D03438}
    .fil2 {fill:#373435;fill-rule:nonzero}
   ]]>
  </style>
 </defs>
 <g id="Camada_x0020_1">
  <metadata id="CorelCorpID_0Corel-Layer"/>
  <g id="_2661270015504">
   <g>
    <rect class="fil0 str0" x="4.06" y="4.06" width="2329.65" height="1389.68" rx="50.41" ry="35.08"/>
    <path class="fil1" d="M744.42 505.35c4.97,-12.84 4.87,-20.39 12.89,-36.96 6.33,-13.07 55.08,-63.78 69.03,-79.75 2.38,-2.47 1.57,-1.12 2.93,-4.22 -6.94,1.8 -16.82,6.74 -23.97,9.37 -24.95,9.18 -60.13,14.61 -88,14.61 -20.54,0 -22.23,-0.08 -41.03,12.41l-19.25 14.26c-1.75,1.41 -1.96,2.18 -3.67,3.58l-14.79 13.27c-6.11,6.09 -22.08,22.6 -26.57,28.66 -1.71,2.31 -1.34,1.47 -3.05,3.3l-7.66 9.55c-0.93,1.09 -0.52,0.49 -1.67,1.94 -2.04,2.57 -4.04,5.98 -6.37,8.05 -14.7,3.04 -50.11,-5.65 -62.52,-10.78 -30.79,-12.73 -46.86,-12.27 -79.64,-12.27 -18.26,0 -43.42,3.05 -59.54,8.24 19.11,2.91 30.25,2.25 52.01,7.01 15.92,3.48 30.37,8.99 42.8,16.07 5.92,3.36 11.32,7.96 16.84,12.13l16.94 12.95c9.71,7.32 18.66,15.29 28.92,21.77 1.28,0.81 0.43,0.03 2.2,1.43 0.21,0.17 0.79,0.68 0.97,0.86 1.28,1.24 0.2,-0.18 1.3,1.52 -3.82,4.29 -17.47,9.97 -26.73,20.47 -2.01,2.29 -4.23,3.36 -6.19,5.59 -22.84,25.88 -30.63,57.5 -36.32,93.12 -9.12,57.03 -4.79,83.96 -8.07,133.47 -1.19,18.01 -2.22,26.24 -16.24,36.94l-9.25 8.86c-13,11.24 -20.63,26.53 -28.48,42.19 -10.56,21.09 -17.47,48.65 -20.93,74.1 -3.85,28.33 -3.34,59.04 -6.26,87.9 -2.05,20.25 -4.77,40.57 -10.62,60.04 -1.6,5.32 -6.1,13.86 -6.7,17.99 10.39,10.47 9.29,11.81 23.55,22.37 17.6,13.03 38.26,20.41 62.45,20.41 6.8,0 12.61,-1.71 18.47,-1.98 7.63,-0.35 47.11,25.05 108.25,-3.08 11.93,-5.48 35.17,-1.54 35.17,-37.08 0,-20.46 -20.26,-50.48 -32.6,-67.7 -4.12,-5.74 -8.43,-9.91 -13.72,-14.34 -3.52,-2.95 -6.24,-6.06 -11.43,-7.79 -5.74,0.38 -30.48,19.89 -66.37,18.59 1.88,-3.7 3.95,-3.43 7.93,-5.32 3.06,-1.45 5.57,-2.61 8.59,-4.13 15.86,-7.94 34.47,-17.63 47.83,-27.8 0.55,-9.23 0.9,-18.05 1.26,-27.37 0.38,-9.99 3.23,-13.52 7.99,-20.79 5.69,-8.69 13.09,-15.9 19.45,-24.02l16.14 -19.17c1.79,-2.42 1.69,-1.78 3.51,-3.74 1.37,-1.48 1.84,-2.76 3.04,-4.2 1.35,-1.63 2.32,-1.93 3.71,-3.55 1.52,-1.77 1.41,-2.47 3.04,-4.2 1.74,-1.85 2.13,-1.54 3.72,-3.53 1.67,-2.09 1.19,-2.25 3.11,-4.14l10.58 -11.15c3.02,-2.78 3.97,-5.48 6.52,-7.97 10.81,-10.58 21.18,-21.93 32.8,-31.49l10.87 -10.87c2.23,-2.82 3.92,-5.31 6.11,-8.39 26.25,-36.87 31.08,-90.61 29.55,-137.06l-4.05 -61.7c3.7,3.36 5.99,21.46 6.92,26.25 8.53,43.89 16.39,90.99 6.77,135.3 31.66,0 62.97,7.12 87.3,21.4 3.42,2.01 4.9,3 8.13,5.46 2.96,2.24 5.05,4.17 7.43,6.15l46.77 34.73c10.37,7.57 21.38,14.11 32.48,21.84 21.29,14.84 44.77,28.19 67.91,40.8 15.86,8.64 23.14,11.56 43.65,11.56 22.21,0 115.33,-9.25 133.25,-16.32l-2.5 -1.22c-17.59,-6.27 -107.76,-24.59 -111.66,-28.66 -4.39,-4.57 -5.93,-51.93 -5.93,-61.57 0,-60.46 16.36,-112.9 51.04,-157.65l12.98 -14.19c2.09,-2.15 6.58,-7.37 8.93,-9.2l9.98 -8.11c1.68,-1.4 3.26,-2.6 5.08,-3.97 2.28,-1.72 3.59,-3.09 6.69,-3.47 -2.48,4.6 -7.2,8.35 -10.46,12.37 -51.45,63.57 -77.06,141.34 -54.83,223.13 1.45,5.33 1.32,4.78 6.48,6.22 33.3,9.32 66.43,20.13 99.46,30.04l158.55 48.97c-11.71,0.64 -57.33,-11.99 -64.41,-10.92 -1.9,0.29 -0.92,0.02 -2.05,0.72 8.08,4.16 51.58,40.25 60.29,48.39 -5.56,-1.48 -60.7,-40.28 -68.25,-45.46 -2.76,-1.9 -4.35,-4.19 -8.6,-3.45 -4.35,0.76 -14.75,4.63 -19.1,6.37 -10.25,4.11 -20.69,8.71 -27.96,16.43 -1.71,1.81 -2.01,1.37 -2.01,5.01 0,23.57 4.14,66.02 19.19,83.83 3.67,4.34 5.49,6.81 9.83,10.98 10.66,10.27 22.89,19.19 35.94,26.55 14.14,7.98 4.4,-1.89 16.38,14.4l4.78 6.08c5.97,7.22 14.95,13.79 23.33,18.33 19.04,10.31 40.12,13.08 61.84,12.09 3.47,-11 31.88,-66.96 39.24,-82.86 2.68,-5.79 6,-6.19 11.83,-8.96l27.47 -13.36c9.88,-4.94 15.51,-10.23 23.25,-17.49 2.11,-1.98 1.95,-3.01 4.65,-5.3 3.69,-3.14 2.65,-2.14 5.26,-5.59 22.01,-29.13 35.69,-59.53 12.87,-94.82 -7.84,-12.12 -11.37,-11.62 -17.94,-19.17l-117.31 -105.44c-2.9,-3.31 -3.49,-3.19 -6.8,-5.86 -2.71,-2.18 -3.5,-4.15 -6.37,-6.32l-32.67 -29.88c5.19,0.79 28.86,15.44 34.76,18.74l43.23 24.74c5.01,2.8 4.79,2.04 8.75,-1.08 9.74,-7.68 21.42,-15.4 32.75,-21.63 4.48,-2.47 15.37,-6.41 17.9,-8.95 -3.43,-8.44 -38.53,-94.36 -39.66,-101.51 4.07,2.22 19.78,32.39 22.2,36.83l42.51 75.21c12.27,20.48 23.67,32.73 36.86,50.98l9.48 12.24c10.44,12.93 19.13,22.38 38.2,28.81 26.7,9.01 104.03,7.5 139.73,7.21 8.85,-0.07 14.19,4.19 21.29,8.32 15.79,9.19 31.02,17.84 45.65,27.69l8.33 6.17c5.52,5.24 7.45,11.65 19.72,8.28 23.02,-6.3 44.88,-24.81 63.41,-38.94 5.4,-4.12 10.93,-9.16 17.01,-12.88 6.47,-3.96 15.64,-4.69 9.59,-16.4l-6.52 -8.86c-4.43,-5.07 -10.4,-9.14 -17.29,-11.71l-42.71 -16.15c-6.19,-2.34 -17.67,-4.54 -19.69,-10.35 13.86,-8.97 99.6,29.72 115.98,29.72 16.13,0 22.33,-9.33 27.59,-22.96 2.21,-5.7 17.81,-20.53 20.55,-26.32 12.08,-25.43 -2.67,-34.42 -0.85,-45.14 4.14,-24.39 5.42,-57.73 -10.5,-78.85 -2.97,-3.95 -5.44,-4.88 -9.11,-8.27l12.84 -13.59c2.59,-2.58 2.31,-1.58 4.48,-4.57l14.81 -21.42c9.49,-15.12 16.1,-32.54 21.7,-50.74 21.14,-68.69 18.74,-148.05 11.33,-219.47 -4.64,8.96 -9.25,23.25 -13.64,33.38 -17.5,40.38 -36.09,70.88 -61.95,103.73l-26.22 26.3c-12.55,9.98 -24.89,18.67 -39.97,25.24 -9.46,4.12 -27.35,10.49 -38.71,8.47 -0.76,-3.77 5.26,-43.15 6.13,-51.17 1.69,-15.66 3.97,-38.81 2.13,-54.38 -0.18,-0.08 -0.51,-0.31 -0.59,-0.11l-22.58 16.38c-7.62,5.45 -15.83,11.14 -24.56,16.2 -15.47,8.98 -40.57,22.48 -62.34,19.79l-26.4 -30.39c-3.81,-5.54 -9.26,-9.64 -13.44,-14.64 -2.99,-3.59 -2.98,-4.57 -6.72,-7.75 -5.17,-4.41 -8.32,-10.14 -13.48,-14.59 -3.8,-3.27 -4.05,-3.94 -7.2,-7.29l-11.85 -9.9c-1.79,-1.39 -2.21,-1.83 -4.03,-3.21 -12.99,-9.84 -22.28,-13.7 -35.16,-21.7 6.88,-26.92 23.79,-64.19 22.57,-93.28 -19.33,4.14 -47.16,21.88 -63.33,33.12l-21.77 17.18c-7.29,5.87 -12.49,13.05 -19.87,19.06l-14.84 17.76c-13.83,18.31 -25.39,38.28 -33.06,60.22 -0.89,2.56 -1.5,4.95 -3.27,6.86 -1.08,-13.67 16.38,-76.15 26.22,-93.52 1.54,-2.71 2.01,-2.85 3.08,-5.69l-30.39 -25.54c-5.39,-4.38 -10.28,-8.19 -15.62,-12.46l-24.42 -18.13c-59.19,-44.38 -155.01,-97.39 -228.6,-97.39 -60.68,0 -69.76,13.63 -112.99,39.14 -10.36,6.11 -19.9,12.02 -29.95,18.06 -76.97,46.28 -163.24,91.61 -233.81,144.66l-56.7 49.24c-5,4.42 -11.95,14.18 -15.68,19.64 -5.79,8.48 -10.24,17.75 -14.38,27.18 -2.08,4.74 0.36,2.42 -2.84,3.66zm903.69 23.83c-3.52,-3.32 -6.97,-1.25 -7.87,2.95 -1.8,9.83 -3.6,19.67 -5.41,29.5 -0.31,4.73 2.93,8.05 8.85,10.32 16.39,7.38 32.78,14.75 49.17,22.13 5,2.33 9.83,-2.96 5.9,-9.34 -16.88,-18.52 -33.76,-37.03 -50.64,-55.55zm-460.29 423.86c-22.1,3.15 -60.62,5.74 -88.48,13.39 -19.26,9.88 -88.53,67.91 -103.28,111.49 -4.31,12.46 -4.53,24.91 -0.98,37.37 42.35,51.89 99.24,65 161.26,64.41 42.36,-2.98 93.52,-9.98 64.9,-63.92 -47.15,-26.4 -37.63,-110.22 -25.56,-154.39 0.28,-5.7 -2.25,-8.57 -7.87,-8.36zm-524.87 -44.36c31.14,-21.47 54.9,-54.5 74.24,-84.32 77.77,5.54 123.29,62.07 189.3,111.11 -21.15,7.54 -57.19,20.01 -95.38,19.67 6.72,78.01 -24.75,122.25 -59,192.74 -5.82,5.98 -15.64,7.96 -29.99,5.41 -62.73,-14.41 -103.78,-52.12 -114.07,-122.92 -0.8,-9.01 3.04,-13.99 10.82,-16.23 12.62,-3.77 26.22,-4.1 37.86,-11.31 6.6,-4.96 12.88,-11.47 10.32,-19.17 -9.18,-25.73 -29.66,-48.27 -24.09,-74.98zm995.86 -496.58c29.03,-10.18 56.19,-25.07 82.6,-41.79 6.31,-1.98 8.94,-0.8 7.38,4.43 -9.28,30.04 -21.04,59.77 -40.81,88.5 -19.7,-22.54 -35.39,-38.43 -49.17,-51.13z"/>
   </g>
   <path class="fil2" d="M1157.5 1844.29l-5.04 0 0 -44.54 -10.22 0 0 -4.87 25.48 0 0 4.87 -10.22 0 0 44.54zm20.45 -27.24l21.52 0 0 4.86 -21.52 0 0 17.58 21.52 0 0 4.79 -26.56 0 0 -49.41 26.56 0 0 4.87 -21.52 0 0 17.3zm71.9 -9.38c-2.29,-3.08 -4.85,-5.34 -7.7,-6.79 -2.83,-1.44 -6.07,-2.18 -9.7,-2.18 -5.69,0 -10.56,2.04 -14.6,6.11 -4.04,4.08 -6.07,8.92 -6.07,14.53 0,5.97 2.01,11.01 6.03,15.1 4.02,4.1 8.89,6.15 14.64,6.15 3.54,0 6.74,-0.72 9.6,-2.14 2.86,-1.44 5.34,-3.57 7.45,-6.4l5.97 0c-2.34,4.21 -5.48,7.46 -9.41,9.76 -3.94,2.29 -8.35,3.44 -13.24,3.44 -7.53,0 -13.8,-2.48 -18.83,-7.42 -5.02,-4.96 -7.53,-11.14 -7.53,-18.55 0,-3.46 0.68,-6.74 2.04,-9.84 1.36,-3.09 3.35,-5.89 5.98,-8.37 2.43,-2.35 5.17,-4.14 8.2,-5.34 3.04,-1.22 6.32,-1.82 9.86,-1.82 5.09,0 9.66,1.19 13.72,3.59 4.07,2.4 7.28,5.79 9.64,10.17l-6.05 0zm47.29 30.71l-0.58 -43.5 4.96 0 0 49.41 -6.04 0 -28.07 -43.56 0.57 43.56 -4.96 0 0 -49.41 6.04 0 28.08 43.5zm16.7 -19.02c0,6.02 2.03,11.06 6.08,15.14 4.05,4.06 9.06,6.1 15.01,6.1 5.81,0 10.71,-2.06 14.72,-6.17 4.01,-4.12 6.01,-9.19 6.01,-15.2 0,-5.61 -2.06,-10.45 -6.19,-14.5 -4.12,-4.07 -9.08,-6.09 -14.9,-6.09 -2.36,0 -4.64,0.39 -6.82,1.17 -2.2,0.78 -4.21,1.94 -6.07,3.44 -2.44,1.99 -4.36,4.42 -5.74,7.3 -1.4,2.87 -2.09,5.81 -2.09,8.82zm-5.26 -0.08c0,-3.44 0.69,-6.72 2.05,-9.84 1.38,-3.12 3.36,-5.91 5.96,-8.37 2.5,-2.37 5.26,-4.16 8.28,-5.36 3.01,-1.19 6.28,-1.79 9.79,-1.79 3.58,0 6.9,0.6 9.96,1.82 3.06,1.2 5.85,3.01 8.39,5.41 2.6,2.47 4.56,5.22 5.87,8.27 1.31,3.06 1.97,6.35 1.97,9.88 0,3.5 -0.56,6.72 -1.69,9.64 -1.12,2.93 -2.81,5.6 -5.05,7.99 -2.6,2.76 -5.54,4.83 -8.83,6.23 -3.28,1.4 -6.84,2.11 -10.68,2.11 -7.35,0 -13.53,-2.49 -18.52,-7.48 -4.99,-4.98 -7.48,-11.15 -7.48,-18.5zm82.29 25l-23.03 0 0 -49.41 5.04 0 0 44.61 18 0 0 4.79zm6.73 -24.92c0,6.02 2.03,11.06 6.08,15.14 4.05,4.06 9.06,6.1 15.01,6.1 5.8,0 10.71,-2.06 14.72,-6.17 4.01,-4.12 6.01,-9.19 6.01,-15.2 0,-5.61 -2.06,-10.45 -6.19,-14.5 -4.12,-4.07 -9.08,-6.09 -14.9,-6.09 -2.36,0 -4.64,0.39 -6.83,1.17 -2.2,0.78 -4.21,1.94 -6.07,3.44 -2.43,1.99 -4.35,4.42 -5.74,7.3 -1.39,2.87 -2.09,5.81 -2.09,8.82zm-5.26 -0.08c0,-3.44 0.68,-6.72 2.05,-9.84 1.38,-3.12 3.36,-5.91 5.97,-8.37 2.5,-2.37 5.26,-4.16 8.28,-5.36 3.01,-1.19 6.27,-1.79 9.79,-1.79 3.58,0 6.9,0.6 9.96,1.82 3.06,1.2 5.85,3.01 8.38,5.41 2.61,2.47 4.56,5.22 5.87,8.27 1.31,3.06 1.97,6.35 1.97,9.88 0,3.5 -0.57,6.72 -1.69,9.64 -1.12,2.93 -2.81,5.6 -5.05,7.99 -2.61,2.76 -5.54,4.83 -8.83,6.23 -3.28,1.4 -6.84,2.11 -10.67,2.11 -7.35,0 -13.53,-2.49 -18.52,-7.48 -4.99,-4.98 -7.48,-11.15 -7.48,-18.5zm77.1 1.31l31.82 0c-0.42,7.19 -3.11,13.1 -8.05,17.73 -4.94,4.62 -11.01,6.94 -18.2,6.94 -7.38,0 -13.56,-2.49 -18.54,-7.46 -4.98,-4.98 -7.47,-11.15 -7.47,-18.52 0,-3.46 0.69,-6.74 2.04,-9.84 1.36,-3.09 3.35,-5.89 5.97,-8.37 2.53,-2.42 5.33,-4.22 8.4,-5.39 3.07,-1.17 6.48,-1.76 10.24,-1.76 4.96,0 9.42,1.16 13.36,3.48 3.96,2.32 7.13,5.63 9.51,9.93l-6.19 0c-2.41,-2.97 -5,-5.15 -7.75,-6.57 -2.76,-1.41 -5.83,-2.12 -9.23,-2.12 -5.88,0 -10.86,2.03 -14.92,6.09 -4.07,4.05 -6.1,8.94 -6.1,14.64 0,6.06 2.03,11.12 6.08,15.17 4.05,4.04 9.06,6.07 15.01,6.07 4.69,0 8.88,-1.45 12.61,-4.36 3.72,-2.9 6.13,-6.66 7.26,-11.28l-25.84 0 0 -4.38zm43.78 23.7l-5.04 0 0 -49.41 5.04 0 0 49.41zm8.28 0l-5.31 0 19.87 -49.41 6.04 0 19.8 49.41 -5.37 0 -6.12 -15.5 -22.78 0 -6.12 15.5zm27.14 -19.94l-9.7 -24.81 -9.56 24.81 19.27 0zm42.43 -7.3l21.52 0 0 4.86 -21.52 0 0 17.58 21.52 0 0 4.79 -26.57 0 0 -49.41 26.57 0 0 4.87 -21.52 0 0 17.3zm31.38 27.24l0 -49.41 7.39 0 17.72 42.96 17.64 -42.96 7.42 0 0 49.41 -4.82 0 0 -43.64 -18 43.64 -4.53 0 -17.99 -43.64 0 43.64 -4.82 0zm90.43 0l-5.04 0 0 -44.54 -10.22 0 0 -4.87 25.48 0 0 4.87 -10.22 0 0 44.54zm20.45 -27.24l21.52 0 0 4.86 -21.52 0 0 17.58 21.52 0 0 4.79 -26.56 0 0 -49.41 26.56 0 0 4.87 -21.52 0 0 17.3zm65.07 21.33l-0.57 -43.5 4.96 0 0 49.41 -6.05 0 -28.07 -43.56 0.58 43.56 -4.96 0 0 -49.41 6.04 0 28.07 43.5zm11.3 -8.2l4.82 0c0.09,3.06 0.99,5.48 2.7,7.29 1.7,1.81 3.95,2.71 6.72,2.71 2.99,0 5.35,-0.91 7.1,-2.7 1.75,-1.79 2.63,-4.24 2.63,-7.31 0,-4.48 -3.59,-7.87 -10.77,-10.15 -0.56,-0.18 -0.99,-0.31 -1.27,-0.4 -3.74,-1.25 -6.43,-2.83 -8.09,-4.74 -1.64,-1.91 -2.47,-4.4 -2.47,-7.48 0,-3.94 1.27,-7.16 3.82,-9.67 2.54,-2.51 5.82,-3.76 9.85,-3.76 3.84,0 6.88,1.14 9.14,3.43 2.24,2.29 3.5,5.5 3.75,9.64l-4.75 0c-0.25,-2.69 -1.09,-4.76 -2.5,-6.22 -1.4,-1.46 -3.3,-2.19 -5.66,-2.19 -2.53,0 -4.59,0.8 -6.2,2.38 -1.61,1.6 -2.41,3.63 -2.41,6.09 0,1.29 0.24,2.4 0.72,3.35 0.48,0.94 1.25,1.78 2.31,2.56 1.08,0.77 3.14,1.62 6.19,2.57 1.75,0.54 3.09,0.98 4.01,1.32 3.32,1.25 5.72,2.84 7.18,4.77 1.47,1.93 2.2,4.47 2.2,7.61 0,4.79 -1.36,8.65 -4.07,11.58 -2.7,2.93 -6.3,4.39 -10.77,4.39 -4.17,0 -7.56,-1.38 -10.16,-4.14 -2.6,-2.77 -3.94,-6.41 -4.01,-10.93zm38.86 -10.82c0,6.02 2.03,11.06 6.08,15.14 4.05,4.06 9.06,6.1 15.01,6.1 5.8,0 10.71,-2.06 14.72,-6.17 4.01,-4.12 6.01,-9.19 6.01,-15.2 0,-5.61 -2.06,-10.45 -6.19,-14.5 -4.12,-4.07 -9.08,-6.09 -14.9,-6.09 -2.36,0 -4.64,0.39 -6.82,1.17 -2.2,0.78 -4.21,1.94 -6.07,3.44 -2.44,1.99 -4.36,4.42 -5.75,7.3 -1.39,2.87 -2.09,5.81 -2.09,8.82zm-5.26 -0.08c0,-3.44 0.69,-6.72 2.05,-9.84 1.38,-3.12 3.36,-5.91 5.96,-8.37 2.5,-2.37 5.26,-4.16 8.28,-5.36 3.01,-1.19 6.27,-1.79 9.79,-1.79 3.58,0 6.9,0.6 9.96,1.82 3.06,1.2 5.85,3.01 8.39,5.41 2.6,2.47 4.56,5.22 5.87,8.27 1.31,3.06 1.97,6.35 1.97,9.88 0,3.5 -0.56,6.72 -1.69,9.64 -1.12,2.93 -2.8,5.6 -5.05,7.99 -2.6,2.76 -5.54,4.83 -8.83,6.23 -3.28,1.4 -6.84,2.11 -10.67,2.11 -7.35,0 -13.53,-2.49 -18.52,-7.48 -4.99,-4.98 -7.49,-11.15 -7.49,-18.5zm64.29 -2.24l21.52 0 0 4.86 -21.52 0 0 17.58 21.52 0 0 4.79 -26.56 0 0 -49.41 26.56 0 0 4.87 -21.52 0 0 17.3zm28.36 13.13l4.82 0c0.1,3.06 1,5.48 2.7,7.29 1.7,1.81 3.95,2.71 6.72,2.71 2.99,0 5.35,-0.91 7.1,-2.7 1.75,-1.79 2.63,-4.24 2.63,-7.31 0,-4.48 -3.59,-7.87 -10.78,-10.15 -0.56,-0.18 -0.98,-0.31 -1.27,-0.4 -3.74,-1.25 -6.43,-2.83 -8.09,-4.74 -1.64,-1.91 -2.47,-4.4 -2.47,-7.48 0,-3.94 1.27,-7.16 3.82,-9.67 2.54,-2.51 5.82,-3.76 9.85,-3.76 3.84,0 6.89,1.14 9.14,3.43 2.24,2.29 3.5,5.5 3.75,9.64l-4.75 0c-0.25,-2.69 -1.09,-4.76 -2.49,-6.22 -1.4,-1.46 -3.3,-2.19 -5.67,-2.19 -2.53,0 -4.59,0.8 -6.2,2.38 -1.6,1.6 -2.41,3.63 -2.41,6.09 0,1.29 0.24,2.4 0.72,3.35 0.48,0.94 1.25,1.78 2.31,2.56 1.08,0.77 3.14,1.62 6.19,2.57 1.75,0.54 3.1,0.98 4.01,1.32 3.32,1.25 5.72,2.84 7.18,4.77 1.47,1.93 2.2,4.47 2.2,7.61 0,4.79 -1.36,8.65 -4.07,11.58 -2.7,2.93 -6.3,4.39 -10.77,4.39 -4.18,0 -7.56,-1.38 -10.16,-4.14 -2.6,-2.77 -3.93,-6.41 -4.01,-10.93zm47.14 14.1l-5.04 0 0 -44.54 -10.22 0 0 -4.87 25.48 0 0 4.87 -10.22 0 0 44.54zm19.66 -44.54l0 44.54 -4.97 0 0 -49.41 13.76 0c3.02,0 5.46,0.22 7.29,0.66 1.85,0.44 3.52,1.17 5.02,2.19 2.04,1.38 3.64,3.22 4.83,5.52 1.19,2.32 1.78,4.76 1.78,7.33 0,3.82 -1.18,7.11 -3.54,9.87 -2.35,2.77 -5.31,4.26 -8.84,4.52l12.38 19.32 -5.97 0 -15.2 -23.83 4.86 0c3.23,0 5.85,-0.91 7.88,-2.74 2.03,-1.83 3.03,-4.18 3.03,-7.05 0,-1.74 -0.31,-3.31 -0.93,-4.74 -0.61,-1.42 -1.53,-2.67 -2.75,-3.73 -1.01,-0.88 -2.22,-1.52 -3.63,-1.89 -1.43,-0.37 -3.95,-0.56 -7.57,-0.56l-7.43 0zm34.99 -4.87l5.04 0 0 31.25c0,2.41 0.09,4.23 0.3,5.42 0.19,1.21 0.53,2.26 1,3.2 0.92,1.88 2.25,3.34 4.03,4.4 1.76,1.06 3.77,1.6 6,1.6 3.86,0 6.72,-1.27 8.58,-3.82 1.85,-2.54 2.77,-6.47 2.77,-11.81l0 -30.23 4.96 0 0 31.41c0,6.4 -1.32,11.17 -3.96,14.32 -2.64,3.14 -6.64,4.72 -12.01,4.72 -5.75,0 -9.97,-1.54 -12.67,-4.61 -2.7,-3.08 -4.05,-7.89 -4.05,-14.43l0 -31.41zm52.4 49.41l-5.04 0 0 -44.54 -10.22 0 0 -4.87 25.48 0 0 4.87 -10.22 0 0 44.54zm14.62 -49.41l5.04 0 0 31.25c0,2.41 0.1,4.23 0.3,5.42 0.19,1.21 0.53,2.26 1,3.2 0.92,1.88 2.25,3.34 4.03,4.4 1.77,1.06 3.77,1.6 6,1.6 3.86,0 6.72,-1.27 8.58,-3.82 1.85,-2.54 2.77,-6.47 2.77,-11.81l0 -30.23 4.97 0 0 31.41c0,6.4 -1.32,11.17 -3.96,14.32 -2.64,3.14 -6.64,4.72 -12.01,4.72 -5.75,0 -9.97,-1.54 -12.67,-4.61 -2.7,-3.08 -4.04,-7.89 -4.04,-14.43l0 -31.41zm45.71 4.87l0 44.54 -4.97 0 0 -49.41 13.76 0c3.02,0 5.46,0.22 7.29,0.66 1.85,0.44 3.52,1.17 5.01,2.19 2.04,1.38 3.65,3.22 4.84,5.52 1.19,2.32 1.77,4.76 1.77,7.33 0,3.82 -1.17,7.11 -3.54,9.87 -2.35,2.77 -5.3,4.26 -8.84,4.52l12.38 19.32 -5.97 0 -15.2 -23.83 4.86 0c3.23,0 5.86,-0.91 7.89,-2.74 2.03,-1.83 3.03,-4.18 3.03,-7.05 0,-1.74 -0.31,-3.31 -0.93,-4.74 -0.61,-1.42 -1.54,-2.67 -2.75,-3.73 -1.01,-0.88 -2.22,-1.52 -3.63,-1.89 -1.43,-0.37 -3.95,-0.56 -7.57,-0.56l-7.42 0zm34.55 44.54l-5.32 0 19.87 -49.41 6.04 0 19.8 49.41 -5.37 0 -6.12 -15.5 -22.78 0 -6.12 15.5zm27.13 -19.94l-9.7 -24.81 -9.56 24.81 19.27 0zm16.35 5.84l4.82 0c0.1,3.06 1,5.48 2.7,7.29 1.7,1.81 3.95,2.71 6.72,2.71 2.99,0 5.35,-0.91 7.1,-2.7 1.75,-1.79 2.63,-4.24 2.63,-7.31 0,-4.48 -3.59,-7.87 -10.77,-10.15 -0.56,-0.18 -0.99,-0.31 -1.27,-0.4 -3.74,-1.25 -6.43,-2.83 -8.08,-4.74 -1.64,-1.91 -2.47,-4.4 -2.47,-7.48 0,-3.94 1.27,-7.16 3.82,-9.67 2.54,-2.51 5.82,-3.76 9.85,-3.76 3.84,0 6.88,1.14 9.14,3.43 2.24,2.29 3.5,5.5 3.75,9.64l-4.75 0c-0.25,-2.69 -1.09,-4.76 -2.5,-6.22 -1.4,-1.46 -3.3,-2.19 -5.66,-2.19 -2.53,0 -4.59,0.8 -6.2,2.38 -1.61,1.6 -2.41,3.63 -2.41,6.09 0,1.29 0.24,2.4 0.72,3.35 0.48,0.94 1.25,1.78 2.31,2.56 1.08,0.77 3.15,1.62 6.19,2.57 1.75,0.54 3.09,0.98 4.01,1.32 3.32,1.25 5.72,2.84 7.19,4.77 1.46,1.93 2.19,4.47 2.19,7.61 0,4.79 -1.36,8.65 -4.07,11.58 -2.7,2.93 -6.3,4.39 -10.77,4.39 -4.17,0 -7.56,-1.38 -10.16,-4.14 -2.6,-2.77 -3.93,-6.41 -4.01,-10.93z"/>
   <path class="fil3" d="M64.21 1654.88c0,13.45 5.02,25.03 15.05,34.68 9.91,9.72 21.68,14.54 35.26,14.54 13.71,0 25.48,-4.83 35.45,-14.54 10.04,-9.65 15.06,-21.23 15.06,-34.68 0,-8.75 -2.32,-16.79 -6.95,-24.13 -4.7,-7.4 -10.87,-13.32 -18.66,-17.69 -7.72,-4.38 -16.02,-6.62 -24.9,-6.62 -8.68,0 -16.92,2.25 -24.7,6.62 -7.79,4.38 -14.03,10.29 -18.66,17.69 -4.64,7.33 -6.95,15.38 -6.95,24.13zm280.73 -77.35c21.12,0 40.25,8.57 54.09,22.41 13.84,13.84 22.41,32.97 22.41,54.09 0,21.12 -8.57,40.25 -22.41,54.09l-0.06 0c-13.85,13.84 -32.96,22.41 -54.04,22.41 -21.12,0 -40.25,-8.57 -54.09,-22.41 -13.84,-13.84 -22.41,-32.97 -22.41,-54.09 0,-21.12 8.57,-40.25 22.41,-54.09 13.84,-13.84 32.97,-22.41 54.09,-22.41zm-340.88 -93.79l60.16 -0.19 0 79.59 4.31 -1.93 4.31 -1.87c13.57,-4.89 27.47,-7.33 41.69,-7.33 14.28,0 28.25,2.45 41.82,7.33 13.19,4.89 25.09,12.1 35.64,21.68 10.42,9.4 18.53,20.4 24.32,33.01 5.92,12.68 8.88,26.31 8.88,40.85 0,14.99 -2.89,28.7 -8.68,41.11 -5.79,12.42 -13.96,23.48 -24.52,33.2 -10.68,9.65 -22.58,16.86 -35.64,21.68 -13.19,5.15 -27.15,7.72 -41.82,7.72 -19.24,0 -37.38,-4.57 -54.49,-13.58 -17.12,-8.94 -30.63,-21.23 -40.73,-36.99 -10.04,-15.44 -15.12,-32.69 -15.25,-51.8l0 -172.49zm340.99 274.86c-19.24,0 -37.38,-4.57 -54.49,-13.58 -17.12,-9.07 -30.63,-21.42 -40.73,-37.12 -10.17,-15.89 -15.25,-33.58 -15.25,-53.21 0,-14.67 2.96,-28.37 8.88,-41.05 5.92,-12.74 14.03,-23.68 24.32,-33.01 10.42,-9.39 22.26,-16.66 35.58,-21.68 13.57,-5.02 27.47,-7.53 41.69,-7.53 14.28,0 28.25,2.51 41.82,7.53 13.19,4.76 25.09,11.97 35.64,21.49 10.42,9.59 18.53,20.59 24.32,33.2 5.92,12.68 8.88,26.38 8.88,41.05 0,14.99 -2.89,28.7 -8.68,41.11 -5.79,12.55 -13.96,23.68 -24.52,33.39 -10.68,9.52 -22.58,16.73 -35.64,21.68 -13.19,5.15 -27.15,7.72 -41.82,7.72zm268.62 -141.03c-5.4,-4.51 -11.32,-7.91 -17.76,-10.17 -6.62,-2.25 -13.7,-3.41 -21.1,-3.41 -13.83,0 -25.48,4.51 -35.07,13.38 -9.65,8.95 -14.47,20.01 -14.47,33.2 0,10.3 2.06,19.56 6.18,27.73 4.05,8.17 10.03,14.61 17.95,19.37 7.66,4.95 16.47,7.4 26.57,7.4 14.79,0 27.47,-4.76 38.08,-14.15l32.94 41.82c-4.76,5.02 -11.45,9.52 -19.95,13.38 -8.69,3.92 -17.63,6.82 -26.76,8.69 -9.2,1.87 -17.69,2.83 -25.48,2.83 -21.87,0 -41.18,-4.57 -57.84,-13.77 -16.73,-9.27 -29.53,-21.49 -38.47,-36.55 -8.94,-15.31 -13.38,-31.72 -13.38,-49.22 0,-15.96 2.7,-30.43 8.11,-43.37 5.53,-13.19 13.13,-24.51 22.78,-33.9 9.58,-9.2 21.23,-16.41 34.87,-21.68 13.57,-5.15 28.25,-7.72 43.94,-7.72 12.81,0 25.35,1.99 37.51,6.05 12.36,4.12 23.16,9.97 32.62,17.5l-31.27 42.59zm88.79 12.8c4.63,-7.4 10.87,-13.32 18.66,-17.69 7.79,-4.25 16.02,-6.43 24.7,-6.43 8.88,0 17.18,2.19 24.9,6.43 7.79,4.38 13.96,10.29 18.66,17.69 4.63,7.46 6.95,15.57 6.95,24.32 0,13.32 -5.02,24.83 -15.06,34.55 -9.97,9.52 -21.74,14.28 -35.45,14.28 -13.57,0 -25.35,-4.76 -35.26,-14.28 -10.04,-9.72 -15.05,-21.23 -15.05,-34.55 0,-8.75 2.31,-16.86 6.95,-24.32zm94.06 121.99l59.77 0.58 0.19 -98.25c0,-14.67 -2.96,-28.37 -8.88,-41.05 -5.79,-12.36 -13.96,-23.29 -24.51,-32.81 -10.04,-9.33 -21.88,-16.47 -35.45,-21.49 -13.58,-5.02 -27.54,-7.53 -41.82,-7.53 -14.47,0 -28.44,2.57 -41.88,7.72 -13.45,4.89 -25.22,11.97 -35.39,21.3 -10.29,9.26 -18.4,20.2 -24.32,32.81 -5.92,12.68 -8.88,26.38 -8.88,41.05 0,19.49 5.08,37.19 15.25,53.01 10.1,15.57 23.61,27.86 40.73,36.93 17.11,8.94 35.26,13.38 54.49,13.38 14.54,0 28.51,-2.57 41.82,-7.72 1.93,-0.65 4.83,-1.87 8.88,-3.6l0 5.66zm168.31 -199.64c-3.99,-0.58 -8.11,-0.97 -12.23,-1.1l-3.41 0c-55.52,2.77 -83.32,31.59 -83.32,86.54l0 114.2 60.35 0 0 -114.2c0,-20.78 7.66,-31.46 22.97,-32.04l3.41 0c5.02,0.19 9.07,1.42 12.23,3.54l0 -56.94zm108.41 0c-3.99,-0.58 -8.11,-0.97 -12.23,-1.1l-3.41 0c-55.52,2.77 -83.32,31.59 -83.32,86.54l0 114.2 60.35 0 0 -114.2c0,-20.78 7.66,-31.46 22.97,-32.04l3.41 0c5.02,0.19 9.07,1.42 12.23,3.54l0 -56.94zm76.56 77.66c4.63,-7.4 10.87,-13.32 18.66,-17.69 7.79,-4.25 16.02,-6.43 24.7,-6.43 8.88,0 17.18,2.19 24.9,6.43 7.79,4.38 13.96,10.29 18.66,17.69 4.63,7.46 6.95,15.57 6.95,24.32 0,13.32 -5.02,24.83 -15.06,34.55 -9.97,9.52 -21.74,14.28 -35.45,14.28 -13.57,0 -25.35,-4.76 -35.26,-14.28 -10.04,-9.72 -15.05,-21.23 -15.05,-34.55 0,-8.75 2.31,-16.86 6.95,-24.32zm94.06 121.99l59.77 0.58 0.19 -98.25c0,-14.67 -2.96,-28.37 -8.88,-41.05 -5.79,-12.36 -13.96,-23.29 -24.51,-32.81 -10.04,-9.33 -21.88,-16.47 -35.45,-21.49 -13.58,-5.02 -27.54,-7.53 -41.82,-7.53 -14.47,0 -28.44,2.57 -41.88,7.72 -13.45,4.89 -25.22,11.97 -35.39,21.3 -10.29,9.26 -18.4,20.2 -24.32,32.81 -5.92,12.68 -8.88,26.38 -8.88,41.05 0,19.49 5.08,37.19 15.25,53.01 10.1,15.57 23.61,27.86 40.73,36.93 17.11,8.94 35.26,13.38 54.49,13.38 14.54,0 28.51,-2.57 41.82,-7.72 1.93,-0.65 4.83,-1.87 8.88,-3.6l0 5.66zm268.03 -134.79c-5.4,-4.51 -11.32,-7.91 -17.76,-10.17 -6.62,-2.25 -13.7,-3.41 -21.1,-3.41 -13.83,0 -25.48,4.51 -35.07,13.38 -9.65,8.95 -14.47,20.01 -14.47,33.2 0,10.3 2.06,19.56 6.18,27.73 4.05,8.17 10.03,14.61 17.95,19.37 7.66,4.95 16.47,7.4 26.57,7.4 14.79,0 27.47,-4.76 38.08,-14.15l32.94 41.82c-4.76,5.02 -11.45,9.52 -19.95,13.38 -8.69,3.92 -17.63,6.82 -26.76,8.69 -9.2,1.87 -17.69,2.83 -25.48,2.83 -21.87,0 -41.18,-4.57 -57.84,-13.77 -16.73,-9.27 -29.53,-21.49 -38.47,-36.55 -8.94,-15.31 -13.38,-31.72 -13.38,-49.22 0,-15.96 2.7,-30.43 8.11,-43.37 5.53,-13.19 13.13,-24.51 22.78,-33.9 9.58,-9.2 21.23,-16.41 34.87,-21.68 13.57,-5.15 28.25,-7.72 43.94,-7.72 12.81,0 25.35,1.99 37.51,6.05 12.36,4.12 23.16,9.97 32.62,17.5l-31.27 42.59zm105.2 -58.03l0 193.21 -60.16 0 0 -193.01 60.16 -0.19zm0.19 -54.69c0,6.05 -1.42,11.39 -4.18,16.02 -2.77,4.7 -6.5,8.43 -11.32,11.32 -4.76,2.9 -10.04,4.38 -15.83,4.38 -5.79,0 -11,-1.42 -15.63,-4.18 -4.76,-2.89 -8.56,-6.69 -11.32,-11.52 -2.89,-5.02 -4.31,-10.36 -4.31,-16.02 0,-5.79 1.35,-11.07 4.12,-15.83 3.02,-4.89 6.89,-8.75 11.52,-11.52 4.63,-2.7 9.84,-4.12 15.63,-4.12 5.79,0 11.06,1.42 15.83,4.12 4.7,2.76 8.43,6.62 11.32,11.52 2.76,4.76 4.18,10.04 4.18,15.83zm108.34 47.87c-3.99,-0.58 -8.11,-0.97 -12.23,-1.1l-3.41 0c-55.52,2.77 -83.32,31.59 -83.32,86.54l0 114.2 60.35 0 0 -114.2c0,-20.78 7.66,-31.46 22.97,-32.04l3.41 0c5.02,0.19 9.07,1.42 12.23,3.54l0 -56.94zm158.01 64.85c-5.4,-4.51 -11.32,-7.91 -17.76,-10.17 -6.62,-2.25 -13.7,-3.41 -21.1,-3.41 -13.83,0 -25.48,4.51 -35.07,13.38 -9.65,8.95 -14.47,20.01 -14.47,33.2 0,10.3 2.06,19.56 6.18,27.73 4.05,8.17 10.03,14.61 17.95,19.37 7.66,4.95 16.47,7.4 26.57,7.4 14.79,0 27.47,-4.76 38.08,-14.15l32.94 41.82c-4.76,5.02 -11.45,9.52 -19.95,13.38 -8.69,3.92 -17.63,6.82 -26.76,8.69 -9.2,1.87 -17.69,2.83 -25.48,2.83 -21.87,0 -41.18,-4.57 -57.84,-13.77 -16.73,-9.27 -29.53,-21.49 -38.47,-36.55 -8.94,-15.31 -13.38,-31.72 -13.38,-49.22 0,-15.96 2.7,-30.43 8.11,-43.37 5.53,-13.19 13.13,-24.51 22.78,-33.9 9.58,-9.2 21.23,-16.41 34.87,-21.68 13.57,-5.15 28.25,-7.72 43.94,-7.72 12.81,0 25.35,1.99 37.51,6.05 12.36,4.12 23.16,9.97 32.62,17.5l-31.27 42.59zm126.1 85.96c-15.31,-0.52 -22.97,-11.13 -22.97,-31.85l0 -112.34 -60.35 0 0 112.34c0,54.69 27.8,83.51 83.32,86.53l3.41 0c55.53,-3.02 83.32,-31.85 83.32,-86.53l0 -112.34 -60.35 0 0 112.34c0,20.72 -7.66,31.33 -22.97,31.85l-3.41 0zm126.68 -11.84c11.9,11.9 26.51,17.89 43.69,17.89 18.02,0 26.96,-5.28 26.96,-15.83 0,-5.54 -4.96,-9.65 -14.86,-12.29 -7.07,-1.61 -18.21,-4.44 -33.58,-8.43 -12.42,-3.28 -22.9,-9.33 -31.46,-18.15 -8.43,-8.62 -12.61,-21.94 -12.61,-39.95 0,-13.83 3.47,-25.48 10.36,-35.07 7.01,-9.52 16.15,-16.6 27.34,-21.1 11.39,-4.63 23.93,-6.95 37.51,-6.95 7.66,0 15.44,1.03 23.36,3.21 8.56,2.64 16.21,5.86 22.97,9.78 7.46,4.12 13.96,8.81 19.62,13.96l-33.13 32.94c-9.72,-7.27 -20.27,-10.87 -31.72,-10.87 -13.7,0 -20.52,3.8 -20.52,11.45 0,6.95 5.08,11.77 15.25,14.54 11.19,3.02 22.45,5.86 33.77,8.5 12.42,3.09 22.78,8.88 31.08,17.31 8.43,8.56 12.61,22 12.61,40.34 0,13.71 -3.6,25.54 -10.93,35.45 -7.27,10.04 -16.99,17.5 -29.21,22.45 -12.16,5.15 -24.77,7.72 -37.89,7.72 -10.87,0 -20.78,-0.9 -29.53,-2.64 -8.81,-1.67 -17.05,-4.44 -24.71,-8.3 -7.91,-3.92 -16.21,-9.14 -24.9,-15.63l30.56 -40.34z"/>
   <path class="fil0" d="M2272.5 1722.57c0,-6.18 1.54,-11.77 4.7,-16.79 3.28,-5.28 7.46,-9.33 12.68,-12.23 5.28,-3.02 10.87,-4.51 16.73,-4.51 5.92,0 11.52,1.48 16.79,4.51 5.15,3.15 9.33,7.27 12.42,12.42 3.15,5.02 4.76,10.55 4.76,16.6 0,10.04 -3.28,18.33 -9.85,24.9 -6.62,6.63 -14.67,9.97 -24.13,9.97 -6.24,0 -11.97,-1.48 -17.11,-4.5 -5.28,-3.02 -9.46,-7.27 -12.48,-12.68 -3.02,-5.47 -4.51,-11.39 -4.51,-17.69z"/>
   <path class="fil0" d="M377.51 1621.45c-8.33,-8.33 -19.85,-13.49 -32.57,-13.49 -12.72,0 -24.24,5.16 -32.57,13.49 -8.33,8.33 -13.49,19.85 -13.49,32.57 0,12.72 5.16,24.24 13.49,32.57 8.33,8.33 19.85,13.49 32.57,13.49 12.74,0 24.27,-5.14 32.6,-13.46 8.3,-8.36 13.46,-19.88 13.46,-32.6 0,-12.72 -5.16,-24.24 -13.49,-32.57z"/>
  </g>
 </g>
</svg>
