<?xml version="1.0" encoding="UTF-8"?>
<!DOCTYPE svg PUBLIC "-//W3C//DTD SVG 1.1//EN" "http://www.w3.org/Graphics/SVG/1.1/DTD/svg11.dtd">
<!-- Creator: CorelDRAW 2018 (64 Bit Versão de avaliação) -->
<svg xmlns="http://www.w3.org/2000/svg" xml:space="preserve" width="57.6463mm" height="86.6576mm" version="1.1" style="shape-rendering:geometricPrecision; text-rendering:geometricPrecision; image-rendering:optimizeQuality; fill-rule:evenodd; clip-rule:evenodd"
viewBox="0 0 11305.2 16994.7"
 xmlns:xlink="http://www.w3.org/1999/xlink">
 <defs>
  <style type="text/css">
   <![CDATA[
    .str0 {stroke:#D03438;stroke-width:39.22;stroke-miterlimit:22.9256}
    .fil1 {fill:#FEFEFE}
    .fil0 {fill:#D03438}
    .fil2 {fill:#FEFEFE;fill-rule:nonzero}
   ]]>
  </style>
 </defs>
 <g id="Camada_x0020_1">
  <metadata id="CorelCorpID_0Corel-Layer"/>
  <g id="_2661270457104">
   <g>
    <rect class="fil0 str0" x="19.62" y="19.6" width="11252.26" height="14615.89" rx="243.46" ry="368.95"/>
    <path class="fil1" d="M3595.58 6392.7c24,-61.99 23.51,-98.49 62.27,-178.5 30.57,-63.15 266.01,-308.07 333.43,-385.19 11.49,-11.92 7.61,-5.39 14.14,-20.38 -33.54,8.69 -81.25,32.57 -115.79,45.26 -120.53,44.34 -290.44,70.58 -425.06,70.58 -99.21,0 -107.37,-0.37 -198.15,59.93l-93 68.89c-8.47,6.82 -9.47,10.55 -17.71,17.3l-71.42 64.09c-29.5,29.44 -106.65,109.18 -128.34,138.44 -8.26,11.18 -6.47,7.14 -14.73,15.92l-36.97 46.13c-4.47,5.26 -2.53,2.37 -8.08,9.39 -9.84,12.39 -19.49,28.89 -30.77,38.89 -70.99,14.69 -242.04,-27.3 -301.99,-52.07 -148.71,-61.48 -226.35,-59.3 -384.64,-59.3 -88.19,0 -209.72,14.77 -287.56,39.83 92.31,14.06 146.08,10.86 251.18,33.83 76.88,16.81 146.67,43.46 206.72,77.62 28.57,16.24 54.64,38.46 81.33,58.58l81.84 62.56c46.91,35.34 90.11,73.82 139.69,105.16 6.18,3.9 2.08,0.16 10.59,6.92 1.02,0.8 3.84,3.26 4.71,4.12 6.2,6 0.98,-0.86 6.28,7.35 -18.43,20.71 -84.37,48.17 -129.08,98.88 -9.71,11.02 -20.45,16.26 -29.91,26.97 -110.31,125.02 -147.93,277.74 -175.46,449.81 -44.07,275.46 -23.1,405.54 -38.95,644.64 -5.77,86.98 -10.71,126.77 -78.43,178.44l-44.67 42.81c-62.82,54.3 -99.65,128.1 -137.55,203.8 -50.99,101.86 -84.37,234.96 -101.1,357.91 -18.61,136.85 -16.12,285.15 -30.24,424.55 -9.88,97.78 -23.04,195.96 -51.28,289.97 -7.73,25.69 -29.46,66.97 -32.36,86.9 50.22,50.54 44.91,57.03 113.78,108.02 85,62.93 184.76,98.61 301.66,98.61 32.83,0 60.89,-8.26 89.19,-9.55 36.87,-1.69 227.55,120.96 522.84,-14.88 57.62,-26.49 169.85,-7.43 169.85,-179.09 0,-98.82 -97.84,-243.85 -157.46,-327 -19.89,-27.73 -40.73,-47.87 -66.25,-69.27 -16.98,-14.24 -30.16,-29.28 -55.19,-37.63 -27.71,1.84 -147.22,96.1 -320.57,89.78 9.06,-17.87 19.08,-16.59 38.3,-25.71 14.75,-7 26.89,-12.61 41.48,-19.93 76.6,-38.36 166.48,-85.13 231.04,-134.26 2.65,-44.6 4.35,-87.15 6.1,-132.2 1.84,-48.24 15.59,-65.27 38.6,-100.39 27.51,-41.97 63.21,-76.8 93.94,-116.04l77.94 -92.6c8.63,-11.65 8.18,-8.57 16.96,-18.04 6.61,-7.16 8.88,-13.32 14.71,-20.28 6.53,-7.86 11.22,-9.32 17.89,-17.12 7.33,-8.57 6.81,-11.92 14.67,-20.28 8.41,-8.96 10.28,-7.41 17.96,-17.06 8.06,-10.1 5.77,-10.88 15.02,-19.98l51.09 -53.83c14.55,-13.43 19.18,-26.46 31.48,-38.5 52.22,-51.11 102.31,-105.92 158.46,-152.07l52.48 -52.48c10.77,-13.63 18.96,-25.63 29.53,-40.5 126.81,-178.09 150.09,-437.67 142.75,-662.02l-19.57 -298.01c17.89,16.22 28.93,103.65 33.4,126.77 41.2,211.96 79.19,439.47 32.73,653.51 152.89,0 304.17,34.38 421.66,103.37 16.51,9.71 23.67,14.49 39.3,26.36 14.3,10.83 24.36,20.14 35.87,29.71l225.88 167.74c50.07,36.54 103.27,68.15 156.87,105.49 102.82,71.68 216.25,136.14 328,197.05 76.6,41.75 111.76,55.83 210.86,55.83 107.25,0 557.04,-44.65 643.58,-78.82l-12.08 -5.88c-84.94,-30.32 -520.46,-118.77 -539.35,-138.46 -21.22,-22.08 -28.65,-250.79 -28.65,-297.39 0,-292.01 79.01,-545.31 246.51,-761.45l62.68 -68.5c10.12,-10.37 31.79,-35.61 43.13,-44.46l48.22 -39.16c8.1,-6.79 15.75,-12.55 24.53,-19.18 11,-8.28 17.36,-14.92 32.32,-16.75 -11.94,22.22 -34.81,40.32 -50.52,59.76 -248.5,307.03 -372.2,682.65 -264.81,1077.72 6.98,25.75 6.37,23.06 31.28,30.02 160.85,45.05 320.88,97.21 480.42,145.08l765.78 236.53c-56.58,3.1 -276.89,-57.91 -311.09,-52.72 -9.16,1.39 -4.41,0.08 -9.9,3.47 39.03,20.12 249.12,194.43 291.21,233.75 -26.85,-7.14 -293.17,-194.56 -329.67,-219.59 -13.36,-9.14 -21.02,-20.26 -41.54,-16.65 -20.98,3.69 -71.25,22.38 -92.23,30.79 -49.52,19.83 -99.92,42.07 -135.04,79.37 -8.26,8.77 -9.71,6.61 -9.71,24.22 0,113.86 20.02,318.88 92.7,404.91 17.71,20.96 26.51,32.87 47.46,53.05 51.48,49.62 110.57,92.66 173.58,128.24 68.27,38.56 21.22,-9.12 79.11,69.56l23.1 29.4c28.87,34.87 72.23,66.62 112.67,88.51 91.94,49.79 193.78,63.17 298.68,58.42 16.75,-53.17 153.99,-323.41 189.54,-400.23 12.94,-27.95 28.99,-29.91 57.13,-43.26l132.65 -64.5c47.73,-23.87 74.95,-49.44 112.29,-84.51 10.2,-9.59 9.41,-14.53 22.45,-25.61 17.83,-15.16 12.79,-10.34 25.42,-27.02 106.31,-140.67 172.4,-287.5 62.15,-457.96 -37.87,-58.52 -54.93,-56.15 -86.68,-92.59l-566.59 -509.29c-14,-15.98 -16.85,-15.41 -32.85,-28.3 -13.1,-10.53 -16.92,-20.04 -30.79,-30.53l-157.77 -144.34c25.04,3.82 139.4,74.62 167.89,90.53l208.78 119.45c24.22,13.53 23.14,9.84 42.28,-5.24 47.03,-37.07 103.45,-74.37 158.18,-104.47 21.63,-11.92 74.23,-30.95 86.45,-43.24 -16.59,-40.75 -186.07,-455.75 -191.52,-490.26 19.65,10.71 95.51,156.42 107.22,177.89l205.31 363.24c59.25,98.94 114.31,158.11 178.03,246.26l45.81 59.13c50.42,62.48 92.37,108.08 184.5,139.18 128.92,43.52 502.48,36.2 674.88,34.83 42.75,-0.33 68.5,20.24 102.82,40.2 76.29,44.4 149.83,86.17 220.49,133.75l40.24 29.79c26.69,25.3 35.99,56.26 95.25,40.05 111.16,-30.48 216.76,-119.86 306.27,-188.07 26.1,-19.89 52.77,-44.26 82.15,-62.23 31.22,-19.12 75.52,-22.63 46.3,-79.19l-31.48 -42.79c-21.4,-24.46 -50.24,-44.15 -83.51,-56.58l-206.29 -77.97c-29.93,-11.3 -85.37,-21.93 -95.1,-49.99 66.95,-43.36 481.09,143.55 560.16,143.55 77.94,0 107.84,-45.09 133.28,-110.88 10.67,-27.55 86.02,-99.19 99.27,-127.14 58.34,-122.83 -12.87,-166.25 -4.1,-218 19.98,-117.81 26.18,-278.83 -50.7,-380.87 -14.38,-19.08 -26.28,-23.57 -44.03,-39.97l62.01 -65.64c12.49,-12.47 11.18,-7.65 21.65,-22.1l71.52 -103.49c45.87,-73.03 77.78,-157.17 104.84,-245.04 102.1,-331.75 90.53,-715.09 54.74,-1060.07 -22.44,43.3 -44.67,112.29 -65.89,161.24 -84.51,195.05 -174.29,342.39 -299.21,501.03l-126.65 127.04c-60.6,48.19 -120.24,90.17 -193.03,121.92 -45.69,19.91 -132.12,50.66 -186.99,40.91 -3.67,-18.24 25.44,-208.41 29.61,-247.16 8.14,-75.64 19.18,-187.46 10.28,-262.63 -0.88,-0.39 -2.45,-1.49 -2.84,-0.53l-109.08 79.09c-36.81,26.32 -76.44,53.79 -118.59,78.27 -74.74,43.36 -195.98,108.59 -301.11,95.57l-127.49 -146.79c-18.42,-26.73 -44.73,-46.54 -64.89,-70.74 -14.45,-17.36 -14.41,-22.06 -32.46,-37.44 -24.97,-21.32 -40.18,-48.97 -65.11,-70.46 -18.34,-15.79 -19.57,-19.02 -34.75,-35.22l-57.23 -47.77c-8.65,-6.75 -10.67,-8.86 -19.43,-15.49 -62.74,-47.54 -107.65,-66.17 -169.85,-104.82 33.26,-130.06 114.92,-310.05 109.02,-450.57 -93.39,19.98 -227.81,105.69 -305.9,160.01l-105.14 82.96c-35.18,28.36 -60.32,63.01 -95.96,92.09l-71.64 85.78c-66.82,88.47 -122.67,184.9 -159.68,290.86 -4.31,12.36 -7.26,23.91 -15.79,33.16 -5.24,-66.05 79.13,-367.81 126.63,-451.71 7.43,-13.12 9.73,-13.79 14.87,-27.53l-146.81 -123.36c-26.04,-21.18 -49.64,-39.58 -75.43,-60.17l-117.96 -87.58c-285.87,-214.33 -748.68,-470.38 -1104.14,-470.38 -293.07,0 -336.96,65.8 -545.74,189.05 -50.03,29.53 -96.12,58.05 -144.67,87.23 -371.73,223.57 -788.43,442.49 -1129.3,698.71l-273.87 237.81c-24.18,21.36 -57.76,68.5 -75.76,94.86 -27.99,40.93 -49.5,85.74 -69.46,131.3 -10.04,22.89 1.75,11.67 -13.71,17.65zm4364.85 115.12c-16.98,-16.04 -33.65,-6.08 -37.99,14.24 -8.69,47.5 -17.4,94.98 -26.1,142.48 -1.49,22.87 14.16,38.91 42.73,49.87 79.17,35.61 158.3,71.25 237.47,106.86 24.16,11.24 47.5,-14.28 28.51,-45.13 -81.54,-89.45 -163.09,-178.87 -244.63,-268.32zm-2223.2 2047.25c-106.74,15.22 -292.78,27.75 -427.33,64.66 -93.06,47.71 -427.62,327.98 -498.85,538.53 -20.81,60.17 -21.89,120.3 -4.73,180.48 204.53,250.63 479.32,313.94 778.92,311.09 204.59,-14.41 451.69,-48.19 313.47,-308.72 -227.75,-127.51 -181.76,-532.39 -123.47,-745.68 1.35,-27.53 -10.88,-41.38 -38.01,-40.36zm-2535.12 -214.29c150.4,-103.7 265.16,-263.2 358.59,-407.27 375.64,26.75 595.46,299.82 914.28,536.7 -102.12,36.42 -276.23,96.64 -460.71,95 32.48,376.79 -119.51,590.44 -284.97,930.91 -28.12,28.89 -75.54,38.44 -144.83,26.14 -302.99,-69.58 -501.27,-251.77 -550.96,-593.69 -3.9,-43.5 14.69,-67.56 52.24,-78.37 60.95,-18.2 126.65,-19.81 182.86,-54.64 31.87,-23.93 62.23,-55.36 49.87,-92.6 -44.34,-124.3 -143.28,-233.14 -116.37,-362.18zm4810.03 -2398.48c140.24,-49.13 271.38,-121.08 398.97,-201.86 30.48,-9.59 43.16,-3.84 35.63,21.38 -44.81,145.12 -101.61,288.7 -197.13,427.47 -95.15,-108.84 -170.91,-185.6 -237.47,-246.98z"/>
   </g>
   <path class="fil2" d="M5590.76 16989.66l-24.34 0 0 -215.12 -49.36 0 0 -23.49 123.06 0 0 23.49 -49.36 0 0 215.12zm98.8 -131.55l103.94 0 0 23.49 -103.94 0 0 84.9 103.94 0 0 23.16 -128.28 0 0 -238.61 128.28 0 0 23.49 -103.94 0 0 83.56zm347.3 -45.3c-11.06,-14.88 -23.46,-25.79 -37.2,-32.79 -13.67,-6.98 -29.32,-10.51 -46.87,-10.51 -27.46,0 -50.99,9.84 -70.52,29.53 -19.53,19.69 -29.3,43.07 -29.3,70.21 0,28.85 9.73,53.19 29.14,72.93 19.4,19.79 42.93,29.69 70.68,29.69 17.1,0 32.57,-3.47 46.36,-10.34 13.79,-6.94 25.79,-17.24 35.99,-30.95l28.85 0c-11.3,20.32 -26.48,36.03 -45.48,47.17 -19.02,11.06 -40.34,16.61 -63.97,16.61 -36.34,0 -66.64,-11.98 -90.92,-35.87 -24.28,-23.93 -36.4,-53.79 -36.4,-89.6 0,-16.71 3.31,-32.55 9.86,-47.54 6.55,-14.94 16.16,-28.42 28.85,-40.44 11.77,-11.35 24.98,-19.96 39.63,-25.79 14.67,-5.86 30.53,-8.79 47.64,-8.79 24.55,0 46.64,5.77 66.29,17.34 19.63,11.59 35.16,27.99 46.58,49.13l-29.2 0zm228.41 148.34l-2.77 -210.1 23.98 0 0 238.61 -29.22 0 -135.57 -210.41 2.78 210.41 -24 0 0 -238.61 29.2 0 135.59 210.1zm80.68 -91.86c0,29.08 9.77,53.42 29.36,73.11 19.59,19.63 43.75,29.48 72.5,29.48 28.04,0 51.73,-9.96 71.09,-29.81 19.34,-19.91 29.02,-44.36 29.02,-73.44 0,-27.06 -9.96,-50.46 -29.89,-70.03 -19.89,-19.63 -43.87,-29.42 -71.97,-29.42 -11.41,0 -22.44,1.9 -32.97,5.65 -10.61,3.75 -20.34,9.33 -29.34,16.61 -11.75,9.61 -21.02,21.38 -27.73,35.24 -6.73,13.87 -10.08,28.08 -10.08,42.62zm-25.4 -0.39c0,-16.61 3.31,-32.44 9.9,-47.54 6.67,-15.04 16.24,-28.53 28.81,-40.44 12.1,-11.47 25.44,-20.08 39.99,-25.91 14.53,-5.75 30.3,-8.67 47.26,-8.67 17.28,0 33.32,2.92 48.11,8.79 14.77,5.82 28.26,14.55 40.5,26.12 12.57,11.9 22.02,25.22 28.34,39.95 6.31,14.75 9.49,30.63 9.49,47.69 0,16.9 -2.71,32.46 -8.16,46.6 -5.39,14.16 -13.57,27.02 -24.4,38.6 -12.57,13.32 -26.77,23.34 -42.65,30.1 -15.81,6.77 -33.03,10.18 -51.56,10.18 -35.54,0 -65.36,-12.02 -89.47,-36.14 -24.1,-24.04 -36.16,-53.87 -36.16,-89.33zm397.44 120.77l-111.26 0 0 -238.61 24.34 0 0 215.45 86.92 0 0 23.16zm32.5 -120.37c0,29.08 9.79,53.42 29.38,73.11 19.57,19.63 43.75,29.48 72.48,29.48 28.04,0 51.75,-9.96 71.09,-29.81 19.36,-19.91 29.02,-44.36 29.02,-73.44 0,-27.06 -9.94,-50.46 -29.89,-70.03 -19.89,-19.63 -43.87,-29.42 -71.97,-29.42 -11.39,0 -22.42,1.9 -32.97,5.65 -10.59,3.75 -20.34,9.33 -29.32,16.61 -11.75,9.61 -21.02,21.38 -27.75,35.24 -6.73,13.87 -10.08,28.08 -10.08,42.62zm-25.38 -0.39c0,-16.61 3.29,-32.44 9.9,-47.54 6.67,-15.04 16.22,-28.53 28.81,-40.44 12.1,-11.47 25.44,-20.08 39.97,-25.91 14.55,-5.75 30.3,-8.67 47.28,-8.67 17.28,0 33.32,2.92 48.09,8.79 14.79,5.82 28.28,14.55 40.5,26.12 12.59,11.9 22.02,25.22 28.34,39.95 6.31,14.75 9.51,30.63 9.51,47.69 0,16.9 -2.73,32.46 -8.16,46.6 -5.41,14.16 -13.57,27.02 -24.4,38.6 -12.57,13.32 -26.77,23.34 -42.65,30.1 -15.83,6.77 -33.03,10.18 -51.58,10.18 -35.52,0 -65.34,-12.02 -89.47,-36.14 -24.08,-24.04 -36.14,-53.87 -36.14,-89.33zm372.4 6.33l153.65 0c-2.02,34.73 -15,63.25 -38.87,85.62 -23.87,22.32 -53.21,33.52 -87.92,33.52 -35.61,0 -65.46,-12.02 -89.51,-36.03 -24.04,-24.06 -36.1,-53.87 -36.1,-89.45 0,-16.71 3.31,-32.55 9.84,-47.54 6.55,-14.94 16.18,-28.42 28.87,-40.44 12.22,-11.69 25.73,-20.36 40.56,-26.06 14.83,-5.65 31.3,-8.51 49.44,-8.51 23.98,0 45.48,5.59 64.54,16.85 19.12,11.18 34.42,27.18 45.93,47.93l-29.89 0c-11.65,-14.32 -24.16,-24.89 -37.44,-31.71 -13.32,-6.82 -28.14,-10.24 -44.6,-10.24 -28.4,0 -52.44,9.79 -72.09,29.42 -19.65,19.57 -29.44,43.18 -29.44,70.7 0,29.26 9.79,53.7 29.38,73.29 19.57,19.51 43.75,29.3 72.48,29.3 22.67,0 42.95,-6.98 60.89,-21.02 17.98,-13.98 29.61,-32.16 35.07,-54.48l-124.81 0 0 -21.14zm211.43 114.43l-24.34 0 0 -238.61 24.34 0 0 238.61zm39.97 0l-25.65 0 95.94 -238.61 29.22 0 95.61 238.61 -25.97 0 -29.55 -74.84 -110.04 0 -29.55 74.84zm131.08 -96.31l-46.89 -119.83 -46.17 119.83 93.06 0zm204.94 -35.24l103.96 0 0 23.49 -103.96 0 0 84.9 103.96 0 0 23.16 -128.3 0 0 -238.61 128.3 0 0 23.49 -103.96 0 0 83.56zm151.58 131.55l0 -238.61 35.71 0 85.56 207.45 85.19 -207.45 35.85 0 0 238.61 -23.28 0 0 -210.76 -86.92 210.76 -21.91 0 -86.92 -210.76 0 210.76 -23.3 0zm436.78 0l-24.34 0 0 -215.12 -49.36 0 0 -23.49 123.08 0 0 23.49 -49.38 0 0 215.12zm98.78 -131.55l103.96 0 0 23.49 -103.96 0 0 84.9 103.96 0 0 23.16 -128.3 0 0 -238.61 128.3 0 0 23.49 -103.96 0 0 83.56zm314.29 103.04l-2.77 -210.1 23.98 0 0 238.61 -29.22 0 -135.59 -210.41 2.8 210.41 -24 0 0 -238.61 29.2 0 135.59 210.1zm54.6 -39.61l23.28 0c0.47,14.77 4.82,26.46 13.04,35.24 8.24,8.73 19.06,13.1 32.46,13.1 14.41,0 25.85,-4.37 34.3,-13.04 8.45,-8.67 12.69,-20.47 12.69,-35.3 0,-21.65 -17.34,-37.99 -52.03,-48.99 -2.73,-0.9 -4.77,-1.51 -6.16,-1.96 -18.08,-6.04 -31.04,-13.65 -39.05,-22.89 -7.94,-9.22 -11.94,-21.26 -11.94,-36.12 0,-19.02 6.16,-34.57 18.43,-46.71 12.28,-12.14 28.1,-18.18 47.58,-18.18 18.53,0 33.24,5.55 44.15,16.57 10.83,11.02 16.92,26.55 18.14,46.52l-22.95 0c-1.22,-12.96 -5.28,-22.98 -12.06,-30.02 -6.79,-7.04 -15.92,-10.57 -27.34,-10.57 -12.24,0 -22.2,3.86 -29.97,11.51 -7.77,7.73 -11.65,17.51 -11.65,29.44 0,6.2 1.16,11.57 3.49,16.16 2.31,4.53 6.02,8.61 11.12,12.36 5.22,3.69 15.18,7.82 29.89,12.41 8.47,2.65 14.96,4.77 19.36,6.39 16.06,6.04 27.63,13.69 34.71,23.04 7.08,9.33 10.61,21.59 10.61,36.73 0,23.18 -6.55,41.79 -19.65,55.95 -13.04,14.14 -30.42,21.2 -52.03,21.2 -20.16,0 -36.52,-6.67 -49.09,-20.02 -12.57,-13.37 -19,-30.99 -19.34,-52.81zm187.68 -52.24c0,29.08 9.79,53.42 29.36,73.11 19.59,19.63 43.77,29.48 72.5,29.48 28.04,0 51.73,-9.96 71.09,-29.81 19.36,-19.91 29.02,-44.36 29.02,-73.44 0,-27.06 -9.96,-50.46 -29.89,-70.03 -19.89,-19.63 -43.87,-29.42 -71.97,-29.42 -11.41,0 -22.42,1.9 -32.97,5.65 -10.61,3.75 -20.34,9.33 -29.32,16.61 -11.77,9.61 -21.04,21.38 -27.75,35.24 -6.73,13.87 -10.08,28.08 -10.08,42.62zm-25.4 -0.39c0,-16.61 3.31,-32.44 9.92,-47.54 6.65,-15.04 16.22,-28.53 28.79,-40.44 12.12,-11.47 25.44,-20.08 39.99,-25.91 14.53,-5.75 30.3,-8.67 47.28,-8.67 17.26,0 33.32,2.92 48.09,8.79 14.79,5.82 28.28,14.55 40.5,26.12 12.57,11.9 22.02,25.22 28.34,39.95 6.31,14.75 9.51,30.63 9.51,47.69 0,16.9 -2.75,32.46 -8.18,46.6 -5.39,14.16 -13.55,27.02 -24.4,38.6 -12.57,13.32 -26.77,23.34 -42.65,30.1 -15.81,6.77 -33.03,10.18 -51.56,10.18 -35.52,0 -65.36,-12.02 -89.47,-36.14 -24.1,-24.04 -36.16,-53.87 -36.16,-89.33zm310.53 -10.79l103.94 0 0 23.49 -103.94 0 0 84.9 103.94 0 0 23.16 -128.28 0 0 -238.61 128.28 0 0 23.49 -103.94 0 0 83.56zm136.99 63.42l23.28 0c0.47,14.77 4.82,26.46 13.04,35.24 8.24,8.73 19.06,13.1 32.46,13.1 14.41,0 25.83,-4.37 34.3,-13.04 8.45,-8.67 12.69,-20.47 12.69,-35.3 0,-21.65 -17.34,-37.99 -52.05,-48.99 -2.73,-0.9 -4.75,-1.51 -6.14,-1.96 -18.06,-6.04 -31.06,-13.65 -39.05,-22.89 -7.94,-9.22 -11.94,-21.26 -11.94,-36.12 0,-19.02 6.16,-34.57 18.43,-46.71 12.28,-12.14 28.1,-18.18 47.56,-18.18 18.55,0 33.28,5.55 44.16,16.57 10.83,11.02 16.92,26.55 18.14,46.52l-22.95 0c-1.22,-12.96 -5.28,-22.98 -12.06,-30.02 -6.77,-7.04 -15.92,-10.57 -27.34,-10.57 -12.24,0 -22.2,3.86 -29.97,11.51 -7.77,7.73 -11.65,17.51 -11.65,29.44 0,6.2 1.16,11.57 3.47,16.16 2.33,4.53 6.04,8.61 11.14,12.36 5.2,3.69 15.18,7.82 29.89,12.41 8.47,2.65 14.94,4.77 19.36,6.39 16.06,6.04 27.65,13.69 34.71,23.04 7.08,9.33 10.59,21.59 10.59,36.73 0,23.18 -6.53,41.79 -19.63,55.95 -13.04,14.14 -30.42,21.2 -52.03,21.2 -20.16,0 -36.52,-6.67 -49.09,-20.02 -12.57,-13.37 -19,-30.99 -19.34,-52.81zm227.65 68.13l-24.34 0 0 -215.12 -49.36 0 0 -23.49 123.08 0 0 23.49 -49.38 0 0 215.12zm94.98 -215.12l0 215.12 -23.98 0 0 -238.61 66.44 0c14.61,0 26.38,1.06 35.24,3.2 8.92,2.12 16.96,5.63 24.22,10.55 9.84,6.67 17.61,15.55 23.34,26.69 5.75,11.18 8.59,22.98 8.59,35.4 0,18.47 -5.69,34.36 -17.1,47.68 -11.35,13.36 -25.61,20.57 -42.69,21.81l59.79 93.29 -28.87 0 -73.41 -115.1 23.47 0c15.57,0 28.28,-4.43 38.07,-13.26 9.79,-8.84 14.65,-20.2 14.65,-34.08 0,-8.37 -1.51,-15.98 -4.51,-22.87 -2.96,-6.88 -7.41,-12.92 -13.28,-18 -4.86,-4.26 -10.71,-7.33 -17.55,-9.12 -6.9,-1.78 -19.06,-2.69 -36.56,-2.69l-35.87 0zm169.01 -23.49l24.34 0 0 150.91c0,11.63 0.47,20.42 1.45,26.18 0.92,5.8 2.55,10.9 4.8,15.43 4.45,9.06 10.9,16.16 19.47,21.26 8.51,5.14 18.2,7.71 28.97,7.71 18.65,0 32.46,-6.16 41.44,-18.45 8.92,-12.26 13.37,-31.26 13.37,-57.05l0 -145.99 23.98 0 0 151.69c0,30.93 -6.37,53.97 -19.12,69.19 -12.75,15.16 -32.08,22.77 -57.99,22.77 -27.75,0 -48.17,-7.45 -61.19,-22.26 -13.04,-14.88 -19.53,-38.1 -19.53,-69.7l0 -151.69zm253.08 238.61l-24.34 0 0 -215.12 -49.34 0 0 -23.49 123.06 0 0 23.49 -49.38 0 0 215.12zm70.64 -238.61l24.34 0 0 150.91c0,11.63 0.47,20.42 1.45,26.18 0.92,5.8 2.55,10.9 4.8,15.43 4.47,9.06 10.9,16.16 19.47,21.26 8.53,5.14 18.2,7.71 28.97,7.71 18.65,0 32.46,-6.16 41.44,-18.45 8.92,-12.26 13.37,-31.26 13.37,-57.05l0 -145.99 24 0 0 151.69c0,30.93 -6.39,53.97 -19.14,69.19 -12.75,15.16 -32.08,22.77 -57.99,22.77 -27.75,0 -48.15,-7.45 -61.19,-22.26 -13.04,-14.88 -19.53,-38.1 -19.53,-69.7l0 -151.69zm220.76 23.49l0 215.12 -23.98 0 0 -238.61 66.46 0c14.59,0 26.36,1.06 35.22,3.2 8.94,2.12 16.98,5.63 24.22,10.55 9.84,6.67 17.61,15.55 23.36,26.69 5.73,11.18 8.57,22.98 8.57,35.4 0,18.47 -5.67,34.36 -17.08,47.68 -11.37,13.36 -25.61,20.57 -42.71,21.81l59.79 93.29 -28.85 0 -73.42 -115.1 23.47 0c15.59,0 28.28,-4.43 38.07,-13.26 9.79,-8.84 14.67,-20.2 14.67,-34.08 0,-8.37 -1.51,-15.98 -4.53,-22.87 -2.94,-6.88 -7.41,-12.92 -13.26,-18 -4.88,-4.26 -10.73,-7.33 -17.55,-9.12 -6.9,-1.78 -19.08,-2.69 -36.58,-2.69l-35.87 0zm166.87 215.12l-25.67 0 95.96 -238.61 29.2 0 95.61 238.61 -25.95 0 -29.55 -74.84 -110.04 0 -29.55 74.84zm131.08 -96.31l-46.89 -119.83 -46.18 119.83 93.08 0zm78.97 28.18l23.28 0c0.47,14.77 4.82,26.46 13.04,35.24 8.24,8.73 19.06,13.1 32.46,13.1 14.41,0 25.85,-4.37 34.3,-13.04 8.45,-8.67 12.69,-20.47 12.69,-35.3 0,-21.65 -17.32,-37.99 -52.03,-48.99 -2.73,-0.9 -4.77,-1.51 -6.16,-1.96 -18.06,-6.04 -31.04,-13.65 -39.05,-22.89 -7.94,-9.22 -11.94,-21.26 -11.94,-36.12 0,-19.02 6.16,-34.57 18.43,-46.71 12.28,-12.14 28.1,-18.18 47.58,-18.18 18.53,0 33.24,5.55 44.15,16.57 10.85,11.02 16.92,26.55 18.14,46.52l-22.95 0c-1.22,-12.96 -5.28,-22.98 -12.06,-30.02 -6.79,-7.04 -15.92,-10.57 -27.34,-10.57 -12.22,0 -22.2,3.86 -29.97,11.51 -7.77,7.73 -11.65,17.51 -11.65,29.44 0,6.2 1.16,11.57 3.49,16.16 2.31,4.53 6.02,8.61 11.12,12.36 5.22,3.69 15.18,7.82 29.91,12.41 8.45,2.65 14.94,4.77 19.34,6.39 16.06,6.04 27.63,13.69 34.71,23.04 7.08,9.33 10.61,21.59 10.61,36.73 0,23.18 -6.55,41.79 -19.65,55.95 -13.04,14.14 -30.42,21.2 -52.03,21.2 -20.16,0 -36.5,-6.67 -49.09,-20.02 -12.55,-13.37 -19,-30.99 -19.34,-52.81z"/>
   <path class="fil0" d="M1823.38 15913.1c-40.07,-40.07 -95.68,-64.87 -157.3,-64.87 -61.62,0 -117.24,24.81 -157.3,64.87l0 0.27c-40.22,40.22 -65.13,95.86 -65.13,157.3 0,61.44 24.91,117.08 65.13,157.3 40.11,40.28 95.78,65.13 157.3,65.13 61.44,0 117.08,-24.91 157.3,-65.13 40.22,-40.22 65.13,-95.86 65.13,-157.3 0,-61.44 -24.91,-117.08 -65.13,-157.3l0 -0.27z"/>
   <path class="fil1" d="M310.15 16074.81c0,64.95 24.24,120.88 72.72,167.5 47.85,46.93 104.72,70.23 170.3,70.23 66.19,0 123.06,-23.3 171.23,-70.23 48.48,-46.62 72.72,-102.55 72.72,-167.5 0,-42.26 -11.2,-81.09 -33.57,-116.53 -22.67,-35.73 -52.52,-64.33 -90.11,-85.47 -37.3,-21.12 -77.39,-32.01 -120.26,-32.01 -41.97,0 -81.74,10.88 -119.33,32.01 -37.61,21.14 -67.76,49.73 -90.13,85.47 -22.38,35.44 -33.55,74.27 -33.55,116.53zm1355.93 -373.67c101.78,0 194.13,41.42 261.14,108.39 66.99,66.72 108.37,159.13 108.37,261.14 0,102.02 -41.38,194.43 -108.23,261.28 -66.85,66.85 -159.26,108.23 -261.28,108.23 -101.8,0 -194.11,-41.38 -261.01,-108.23l-0.27 0c-66.85,-66.85 -108.23,-159.26 -108.23,-261.28 0,-102.02 41.38,-194.43 108.23,-261.28 67.15,-66.84 159.52,-108.25 261.28,-108.25zm-1646.49 -452.94l290.56 -0.94 0 384.42 20.83 -9.32 20.81 -9.02c65.58,-23.61 132.71,-35.42 201.39,-35.42 68.97,0 136.42,11.81 201.98,35.42 63.72,23.61 121.2,58.42 172.17,104.72 50.34,45.38 89.51,98.51 117.47,159.42 28.59,61.23 42.89,127.1 42.89,197.33 0,72.4 -13.98,138.61 -41.97,198.58 -27.97,59.97 -67.42,113.43 -118.39,160.34 -51.58,46.62 -109.08,81.43 -172.17,104.74 -63.7,24.85 -131.14,37.28 -201.98,37.28 -92.92,0 -180.56,-22.06 -263.22,-65.56 -82.66,-43.2 -147.93,-102.57 -196.7,-178.7 -48.48,-74.58 -73.03,-157.87 -73.66,-250.16l0 -833.15zm1647.04 1327.57c-92.92,0 -180.56,-22.06 -263.22,-65.56 -82.66,-43.83 -147.93,-103.49 -196.7,-179.33 -49.11,-76.76 -73.66,-162.21 -73.66,-256.99 0,-70.86 14.3,-137.04 42.89,-198.27 28.59,-61.52 67.74,-114.35 117.47,-159.42 50.34,-45.36 107.51,-80.48 171.83,-104.72 65.58,-24.24 132.71,-36.36 201.39,-36.36 68.97,0 136.42,12.12 201.98,36.36 63.72,23 121.2,57.79 172.17,103.78 50.34,46.32 89.51,99.45 117.47,160.36 28.59,61.23 42.89,127.41 42.89,198.27 0,72.4 -13.98,138.59 -41.97,198.56 -27.97,60.6 -67.42,114.37 -118.39,161.28 -51.58,46.01 -109.08,80.8 -172.17,104.74 -63.7,24.85 -131.14,37.28 -201.98,37.28zm1297.41 -681.18c-26.1,-21.77 -54.68,-38.22 -85.76,-49.11 -32.01,-10.88 -66.19,-16.47 -101.94,-16.47 -66.8,0 -123.06,21.75 -169.36,64.64 -46.62,43.2 -69.91,96.64 -69.91,160.36 0,49.71 9.94,94.47 29.83,133.93 19.59,39.48 48.48,70.54 86.7,93.55 36.99,23.93 79.56,35.73 128.36,35.73 71.46,0 132.69,-22.98 183.95,-68.37l159.13 202c-23,24.24 -55.32,45.99 -96.35,64.64 -41.95,18.96 -85.13,32.95 -129.28,41.95 -44.44,9.02 -85.45,13.67 -123.06,13.67 -105.65,0 -198.88,-22.06 -279.36,-66.5 -80.8,-44.73 -142.63,-103.78 -185.84,-176.5 -43.2,-73.97 -64.64,-153.2 -64.64,-237.73 0,-77.07 13.06,-147.01 39.16,-209.47 26.71,-63.7 63.38,-118.39 110,-163.75 46.3,-44.44 102.55,-79.25 168.44,-104.74 65.56,-24.85 136.42,-37.28 212.23,-37.28 61.85,0 122.45,9.63 181.19,29.2 59.66,19.91 111.86,48.19 157.56,84.54l-151.05 205.72zm428.86 61.83c22.38,-35.73 52.52,-64.33 90.13,-85.47 37.59,-20.51 77.37,-31.06 119.33,-31.06 42.87,0 82.96,10.55 120.26,31.06 37.59,21.14 67.44,49.73 90.11,85.47 22.38,36.05 33.57,75.21 33.57,117.47 0,64.33 -24.24,119.94 -72.72,166.87 -48.17,45.99 -105.04,68.99 -171.23,68.99 -65.58,0 -122.45,-23 -170.3,-68.99 -48.48,-46.93 -72.72,-102.55 -72.72,-166.87 0,-42.26 11.18,-81.43 33.55,-117.47zm454.34 589.2l288.7 2.8 0.94 -474.54c0,-70.86 -14.3,-137.04 -42.89,-198.27 -27.97,-59.66 -67.44,-112.49 -118.39,-158.48 -48.48,-45.07 -105.67,-79.56 -171.25,-103.8 -65.56,-24.24 -133,-36.36 -201.98,-36.36 -69.93,0 -137.36,12.43 -202.31,37.3 -64.95,23.61 -121.83,57.79 -170.91,102.86 -49.73,44.73 -88.88,97.57 -117.47,158.48 -28.59,61.23 -42.89,127.41 -42.89,198.27 0,94.15 24.55,179.62 73.66,256.07 48.77,75.21 114.04,134.55 196.7,178.36 82.66,43.2 170.3,64.64 263.22,64.64 70.23,0 137.65,-12.41 201.98,-37.28 9.33,-3.12 23.32,-9.02 42.89,-17.4l0 27.34zm812.95 -964.29c-19.26,-2.8 -39.14,-4.67 -59.05,-5.3l-16.45 0c-268.2,13.37 -402.44,152.6 -402.44,417.98l0 551.61 291.5 0 0 -551.61c0,-100.37 36.97,-151.95 110.94,-154.75l16.45 0c24.24,0.94 43.83,6.84 59.05,17.1l0 -275.03zm523.64 0c-19.26,-2.8 -39.14,-4.67 -59.05,-5.3l-16.45 0c-268.2,13.37 -402.44,152.6 -402.44,417.98l0 551.61 291.5 0 0 -551.61c0,-100.37 36.97,-151.95 110.94,-154.75l16.45 0c24.24,0.94 43.83,6.84 59.05,17.1l0 -275.03zm369.81 375.09c22.38,-35.73 52.52,-64.33 90.13,-85.47 37.59,-20.51 77.37,-31.06 119.33,-31.06 42.87,0 82.96,10.55 120.26,31.06 37.59,21.14 67.44,49.73 90.11,85.47 22.38,36.05 33.57,75.21 33.57,117.47 0,64.33 -24.24,119.94 -72.72,166.87 -48.17,45.99 -105.04,68.99 -171.23,68.99 -65.58,0 -122.45,-23 -170.3,-68.99 -48.48,-46.93 -72.72,-102.55 -72.72,-166.87 0,-42.26 11.18,-81.43 33.55,-117.47zm454.34 589.2l288.7 2.8 0.94 -474.54c0,-70.86 -14.3,-137.04 -42.89,-198.27 -27.97,-59.66 -67.44,-112.49 -118.39,-158.48 -48.48,-45.07 -105.67,-79.56 -171.25,-103.8 -65.56,-24.24 -133,-36.36 -201.98,-36.36 -69.93,0 -137.36,12.43 -202.31,37.3 -64.95,23.61 -121.83,57.79 -170.91,102.86 -49.73,44.73 -88.88,97.57 -117.47,158.48 -28.59,61.23 -42.89,127.41 -42.89,198.27 0,94.15 24.55,179.62 73.66,256.07 48.77,75.21 114.04,134.55 196.7,178.36 82.66,43.2 170.3,64.64 263.22,64.64 70.23,0 137.65,-12.41 201.98,-37.28 9.33,-3.12 23.32,-9.02 42.89,-17.4l0 27.34zm1294.62 -651.04c-26.1,-21.77 -54.68,-38.22 -85.76,-49.11 -32.01,-10.88 -66.19,-16.47 -101.94,-16.47 -66.8,0 -123.06,21.75 -169.36,64.64 -46.62,43.2 -69.91,96.64 -69.91,160.36 0,49.71 9.94,94.47 29.83,133.93 19.59,39.48 48.48,70.54 86.7,93.55 36.99,23.93 79.56,35.73 128.36,35.73 71.46,0 132.69,-22.98 183.95,-68.37l159.13 202c-23,24.24 -55.32,45.99 -96.35,64.64 -41.95,18.96 -85.13,32.95 -129.28,41.95 -44.44,9.02 -85.45,13.67 -123.06,13.67 -105.65,0 -198.88,-22.06 -279.36,-66.5 -80.8,-44.73 -142.63,-103.78 -185.84,-176.5 -43.2,-73.97 -64.64,-153.2 -64.64,-237.73 0,-77.07 13.06,-147.01 39.16,-209.47 26.71,-63.7 63.38,-118.39 110,-163.75 46.3,-44.44 102.55,-79.25 168.44,-104.74 65.56,-24.85 136.42,-37.28 212.23,-37.28 61.85,0 122.45,9.63 181.19,29.2 59.66,19.91 111.86,48.19 157.56,84.54l-151.05 205.72zm508.11 -280.3l0 933.2 -290.56 0 0 -932.28 290.56 -0.92zm0.92 -264.16c0,29.22 -6.82,55.01 -20.2,77.39 -13.36,22.69 -31.38,40.71 -54.7,54.7 -22.98,13.98 -48.48,21.14 -76.44,21.14 -27.97,0 -53.15,-6.84 -75.5,-20.2 -23,-14 -41.34,-32.32 -54.7,-55.64 -13.98,-24.24 -20.83,-50.03 -20.83,-77.39 0,-27.97 6.53,-53.44 19.89,-76.44 14.61,-23.61 33.26,-42.26 55.64,-55.62 22.36,-13.06 47.54,-19.89 75.5,-19.89 27.97,0 53.46,6.82 76.44,19.89 22.69,13.36 40.71,32.01 54.7,55.62 13.37,23 20.2,48.48 20.2,76.44zm523.33 231.22c-19.26,-2.8 -39.14,-4.67 -59.05,-5.3l-16.45 0c-268.2,13.37 -402.44,152.6 -402.44,417.98l0 551.61 291.5 0 0 -551.61c0,-100.37 36.97,-151.95 110.94,-154.75l16.45 0c24.24,0.94 43.83,6.84 59.05,17.1l0 -275.03zm763.23 313.25c-26.1,-21.77 -54.68,-38.22 -85.76,-49.11 -32.01,-10.88 -66.19,-16.47 -101.94,-16.47 -66.8,0 -123.06,21.75 -169.36,64.64 -46.62,43.2 -69.91,96.64 -69.91,160.36 0,49.71 9.94,94.47 29.83,133.93 19.59,39.48 48.48,70.54 86.7,93.55 36.99,23.93 79.56,35.73 128.36,35.73 71.46,0 132.69,-22.98 183.95,-68.37l159.13 202c-23,24.24 -55.32,45.99 -96.35,64.64 -41.95,18.96 -85.13,32.95 -129.28,41.95 -44.44,9.02 -85.45,13.67 -123.06,13.67 -105.65,0 -198.88,-22.06 -279.36,-66.5 -80.8,-44.73 -142.63,-103.78 -185.84,-176.5 -43.2,-73.97 -64.64,-153.2 -64.64,-237.73 0,-77.07 13.06,-147.01 39.16,-209.47 26.71,-63.7 63.38,-118.39 110,-163.75 46.3,-44.44 102.55,-79.25 168.44,-104.74 65.56,-24.85 136.42,-37.28 212.23,-37.28 61.85,0 122.45,9.63 181.19,29.2 59.66,19.91 111.86,48.19 157.56,84.54l-151.05 205.72zm609.11 415.17c-73.97,-2.49 -110.94,-53.75 -110.94,-153.83l0 -542.59 -291.5 0 0 542.59c0,264.14 134.24,403.37 402.44,417.98l16.45 0c268.2,-14.61 402.44,-153.83 402.44,-417.98l0 -542.59 -291.5 0 0 542.59c0,100.08 -36.97,151.34 -110.94,153.83l-16.45 0zm611.87 -57.19c57.48,57.5 128.02,86.39 211,86.39 87.02,0 130.22,-25.48 130.22,-76.44 0,-26.71 -23.93,-46.62 -71.8,-59.34 -34.18,-7.77 -87.94,-21.45 -162.21,-40.71 -59.99,-15.85 -110.63,-45.07 -151.97,-87.64 -40.71,-41.63 -60.91,-105.96 -60.91,-192.98 0,-66.82 16.79,-123.06 50.03,-169.36 33.89,-45.99 78.01,-80.17 132.08,-101.94 55.01,-22.38 115.61,-33.55 181.17,-33.55 36.99,0 74.58,4.98 112.8,15.53 41.34,12.75 78.31,28.28 110.94,47.24 36.05,19.89 67.44,42.58 94.78,67.42l-160.03 159.13c-46.93,-35.12 -97.9,-52.52 -153.2,-52.52 -66.21,0 -99.14,18.34 -99.14,55.3 0,33.57 24.55,56.87 73.64,70.23 54.07,14.61 108.45,28.28 163.15,41.03 59.99,14.92 110.02,42.89 150.11,83.6 40.71,41.32 60.91,106.27 60.91,194.84 0,66.19 -17.41,123.37 -52.83,171.23 -35.12,48.48 -82.03,84.52 -141.08,108.47 -58.74,24.85 -119.65,37.28 -183.03,37.28 -52.52,0 -100.39,-4.35 -142.65,-12.75 -42.58,-8.08 -82.35,-21.44 -119.33,-40.09 -38.22,-18.94 -78.31,-44.13 -120.26,-75.5l147.61 -194.86z"/>
   <path class="fil0" d="M10976.42 16401.73c0,-29.83 7.45,-56.87 22.69,-81.11 15.85,-25.48 36.05,-45.05 61.21,-59.03 25.49,-14.61 52.52,-21.75 80.8,-21.75 28.59,0 55.64,7.14 81.11,21.75 24.87,15.22 45.07,35.1 59.97,59.97 15.24,24.24 23,50.97 23,80.17 0,48.48 -15.85,88.56 -47.54,120.28 -32.03,32.01 -70.86,48.17 -116.55,48.17 -30.14,0 -57.79,-7.16 -82.66,-21.75 -25.48,-14.61 -45.67,-35.12 -60.29,-61.23 -14.61,-26.42 -21.75,-55.01 -21.75,-85.47z"/>
  </g>
 </g>
</svg>
