<?xml version="1.0" encoding="UTF-8"?>
<!DOCTYPE svg PUBLIC "-//W3C//DTD SVG 1.1//EN" "http://www.w3.org/Graphics/SVG/1.1/DTD/svg11.dtd">
<!-- Creator: CorelDRAW 2018 (64 Bit Versão de avaliação) -->
<svg xmlns="http://www.w3.org/2000/svg" xml:space="preserve" width="20.1848mm" height="150.689mm" version="1.1" style="shape-rendering:geometricPrecision; text-rendering:geometricPrecision; image-rendering:optimizeQuality; fill-rule:evenodd; clip-rule:evenodd"
viewBox="0 0 336.58 2512.69"
 xmlns:xlink="http://www.w3.org/1999/xlink">
 <defs>
  <style type="text/css">
   <![CDATA[
    .str0 {stroke:#D03438;stroke-width:3.33;stroke-miterlimit:22.9256}
    .fil1 {fill:#FEFEFE}
    .fil0 {fill:#D03438}
    .fil3 {fill:white}
    .fil2 {fill:white;fill-rule:nonzero}
   ]]>
  </style>
 </defs>
 <g id="Camada_x0020_1">
  <metadata id="CorelCorpID_0Corel-Layer"/>
  <g id="_2661411278032">
   <g>
    <rect class="fil0 str0" x="1.67" y="1.67" width="333.24" height="432.86" rx="7.21" ry="10.93"/>
    <path class="fil1" d="M107.57 190.41c0.71,-1.84 0.7,-2.92 1.84,-5.29 0.91,-1.87 7.88,-9.12 9.88,-11.41 0.34,-0.35 0.23,-0.16 0.42,-0.6 -0.99,0.26 -2.41,0.96 -3.43,1.34 -3.57,1.31 -8.6,2.09 -12.59,2.09 -2.94,0 -3.18,-0.01 -5.87,1.77l-2.75 2.04c-0.25,0.2 -0.28,0.31 -0.53,0.51l-2.11 1.9c-0.87,0.87 -3.16,3.23 -3.8,4.1 -0.25,0.33 -0.19,0.21 -0.44,0.47l-1.1 1.37c-0.13,0.16 -0.08,0.07 -0.24,0.28 -0.29,0.37 -0.58,0.86 -0.91,1.15 -2.1,0.44 -7.17,-0.81 -8.94,-1.54 -4.41,-1.82 -6.7,-1.76 -11.39,-1.76 -2.61,0 -6.21,0.44 -8.52,1.18 2.73,0.42 4.33,0.32 7.44,1 2.28,0.5 4.34,1.29 6.12,2.3 0.85,0.48 1.62,1.14 2.41,1.73l2.42 1.85c1.39,1.05 2.67,2.19 4.14,3.11 0.18,0.12 0.06,0 0.31,0.21 0.03,0.02 0.11,0.1 0.14,0.12 0.18,0.18 0.03,-0.03 0.19,0.22 -0.55,0.61 -2.5,1.43 -3.82,2.93 -0.29,0.33 -0.61,0.48 -0.89,0.8 -3.27,3.7 -4.38,8.22 -5.2,13.32 -1.31,8.16 -0.68,12.01 -1.15,19.09 -0.17,2.58 -0.32,3.75 -2.32,5.28l-1.32 1.27c-1.86,1.61 -2.95,3.8 -4.07,6.04 -1.51,3.02 -2.5,6.96 -2.99,10.6 -0.55,4.05 -0.48,8.44 -0.9,12.57 -0.29,2.9 -0.68,5.8 -1.52,8.59 -0.23,0.76 -0.87,1.98 -0.96,2.57 1.49,1.5 1.33,1.69 3.37,3.2 2.52,1.86 5.47,2.92 8.93,2.92 0.97,0 1.8,-0.24 2.64,-0.28 1.09,-0.05 6.74,3.58 15.48,-0.44 1.71,-0.78 5.03,-0.22 5.03,-5.3 0,-2.93 -2.9,-7.22 -4.66,-9.68 -0.59,-0.82 -1.21,-1.42 -1.96,-2.05 -0.5,-0.42 -0.89,-0.87 -1.64,-1.11 -0.82,0.06 -4.36,2.85 -9.49,2.66 0.27,-0.53 0.57,-0.49 1.13,-0.76 0.44,-0.21 0.8,-0.37 1.23,-0.59 2.27,-1.14 4.93,-2.52 6.84,-3.98 0.08,-1.32 0.13,-2.58 0.18,-3.92 0.06,-1.43 0.46,-1.93 1.14,-2.97 0.82,-1.24 1.87,-2.27 2.78,-3.44l2.31 -2.74c0.26,-0.35 0.24,-0.25 0.5,-0.54 0.2,-0.21 0.26,-0.39 0.44,-0.6 0.19,-0.23 0.33,-0.28 0.53,-0.51 0.22,-0.25 0.2,-0.35 0.44,-0.6 0.25,-0.27 0.3,-0.22 0.53,-0.51 0.24,-0.3 0.17,-0.32 0.44,-0.59l1.51 -1.59c0.43,-0.4 0.57,-0.78 0.93,-1.14 1.55,-1.51 3.03,-3.14 4.69,-4.5l1.55 -1.56c0.32,-0.4 0.56,-0.76 0.88,-1.2 3.76,-5.27 4.44,-12.96 4.23,-19.61l-0.58 -8.83c0.53,0.48 0.86,3.07 0.99,3.76 1.22,6.28 2.34,13.01 0.97,19.35 4.53,0 9.01,1.02 12.49,3.06 0.49,0.29 0.7,0.43 1.16,0.78 0.42,0.32 0.72,0.6 1.06,0.88l6.69 4.97c1.48,1.08 3.06,2.02 4.65,3.12 3.04,2.12 6.4,4.03 9.71,5.84 2.27,1.24 3.31,1.65 6.24,1.65 3.18,0 16.5,-1.32 19.06,-2.33l-0.36 -0.18c-2.52,-0.9 -15.41,-3.52 -15.97,-4.1 -0.63,-0.65 -0.85,-7.43 -0.85,-8.81 0,-8.65 2.34,-16.15 7.3,-22.55l1.86 -2.03c0.3,-0.31 0.94,-1.06 1.28,-1.32l1.43 -1.16c0.24,-0.2 0.47,-0.37 0.73,-0.57 0.33,-0.25 0.51,-0.44 0.96,-0.5 -0.35,0.66 -1.03,1.19 -1.5,1.77 -7.36,9.09 -11.02,20.22 -7.84,31.92 0.21,0.76 0.19,0.68 0.93,0.89 4.76,1.33 9.5,2.88 14.23,4.3l22.68 7.01c-1.68,0.09 -8.2,-1.72 -9.21,-1.56 -0.27,0.04 -0.13,0 -0.29,0.1 1.16,0.6 7.38,5.76 8.62,6.92 -0.79,-0.21 -8.68,-5.76 -9.76,-6.5 -0.4,-0.27 -0.62,-0.6 -1.23,-0.49 -0.62,0.11 -2.11,0.66 -2.73,0.91 -1.47,0.59 -2.96,1.25 -4,2.35 -0.24,0.26 -0.29,0.2 -0.29,0.72 0,3.37 0.59,9.44 2.74,11.99 0.53,0.62 0.79,0.97 1.41,1.57 1.53,1.47 3.27,2.74 5.14,3.8 2.02,1.14 0.63,-0.27 2.34,2.06l0.69 0.87c0.85,1.03 2.14,1.97 3.33,2.62 2.72,1.47 5.74,1.87 8.85,1.73 0.5,-1.57 4.56,-9.58 5.61,-11.85 0.38,-0.83 0.86,-0.89 1.69,-1.28l3.93 -1.91c1.41,-0.71 2.22,-1.46 3.33,-2.5 0.3,-0.28 0.28,-0.43 0.66,-0.76 0.53,-0.45 0.38,-0.31 0.75,-0.8 3.15,-4.17 5.11,-8.51 1.84,-13.56 -1.12,-1.73 -1.63,-1.66 -2.57,-2.74l-16.78 -15.08c-0.42,-0.47 -0.5,-0.46 -0.97,-0.84 -0.39,-0.31 -0.5,-0.59 -0.91,-0.9l-4.67 -4.28c0.74,0.11 4.13,2.21 4.97,2.68l6.18 3.54c0.72,0.4 0.69,0.29 1.25,-0.16 1.39,-1.1 3.06,-2.2 4.68,-3.09 0.64,-0.35 2.2,-0.92 2.56,-1.28 -0.49,-1.21 -5.51,-13.5 -5.67,-14.52 0.58,0.32 2.83,4.63 3.17,5.27l6.08 10.76c1.76,2.93 3.39,4.68 5.27,7.29l1.36 1.75c1.49,1.85 2.74,3.2 5.46,4.12 3.82,1.29 14.88,1.07 19.99,1.03 1.27,-0.01 2.03,0.6 3.05,1.19 2.26,1.32 4.44,2.55 6.53,3.96l1.19 0.88c0.79,0.75 1.07,1.67 2.82,1.19 3.29,-0.9 6.42,-3.55 9.07,-5.57 0.77,-0.59 1.56,-1.31 2.43,-1.84 0.92,-0.57 2.24,-0.67 1.37,-2.34l-0.93 -1.27c-0.63,-0.72 -1.49,-1.31 -2.47,-1.68l-6.11 -2.31c-0.89,-0.33 -2.53,-0.65 -2.82,-1.48 1.98,-1.28 14.25,4.25 16.59,4.25 2.31,0 3.19,-1.34 3.95,-3.28 0.32,-0.82 2.55,-2.94 2.94,-3.77 1.73,-3.64 -0.38,-4.92 -0.12,-6.46 0.59,-3.49 0.78,-8.26 -1.5,-11.28 -0.43,-0.57 -0.78,-0.7 -1.3,-1.18l1.84 -1.94c0.37,-0.37 0.33,-0.23 0.64,-0.66l2.12 -3.06c1.36,-2.16 2.3,-4.66 3.1,-7.26 3.02,-9.82 2.68,-21.18 1.62,-31.4 -0.66,1.28 -1.32,3.33 -1.95,4.78 -2.5,5.78 -5.16,10.14 -8.86,14.84l-3.75 3.76c-1.8,1.43 -3.56,2.67 -5.72,3.61 -1.35,0.59 -3.91,1.5 -5.54,1.21 -0.11,-0.54 0.75,-6.17 0.88,-7.32 0.24,-2.24 0.57,-5.55 0.31,-7.78 -0.03,-0.01 -0.07,-0.05 -0.09,-0.02l-3.23 2.34c-1.09,0.78 -2.26,1.59 -3.51,2.32 -2.21,1.28 -5.8,3.22 -8.92,2.83l-3.78 -4.35c-0.55,-0.79 -1.32,-1.38 -1.92,-2.09 -0.43,-0.51 -0.43,-0.65 -0.96,-1.11 -0.74,-0.63 -1.19,-1.45 -1.93,-2.09 -0.54,-0.47 -0.58,-0.56 -1.03,-1.04l-1.7 -1.42c-0.26,-0.2 -0.32,-0.26 -0.58,-0.46 -1.86,-1.41 -3.19,-1.96 -5.03,-3.1 0.99,-3.85 3.4,-9.18 3.23,-13.34 -2.76,0.59 -6.74,3.13 -9.06,4.74l-3.11 2.46c-1.04,0.84 -1.79,1.87 -2.84,2.73l-2.12 2.54c-1.98,2.62 -3.63,5.48 -4.73,8.61 -0.13,0.37 -0.22,0.71 -0.47,0.98 -0.16,-1.96 2.34,-10.89 3.75,-13.38 0.22,-0.39 0.29,-0.41 0.44,-0.82l-4.35 -3.65c-0.77,-0.63 -1.47,-1.17 -2.23,-1.78l-3.49 -2.59c-8.47,-6.35 -22.17,-13.93 -32.7,-13.93 -8.68,0 -9.98,1.95 -16.16,5.6 -1.48,0.88 -2.85,1.72 -4.28,2.58 -11.01,6.62 -23.35,13.1 -33.44,20.69l-8.11 7.04c-0.72,0.63 -1.71,2.03 -2.24,2.81 -0.83,1.21 -1.47,2.54 -2.06,3.89 -0.3,0.68 0.05,0.35 -0.41,0.52zm129.27 3.41c-0.5,-0.47 -1,-0.18 -1.13,0.42 -0.26,1.41 -0.52,2.81 -0.77,4.22 -0.04,0.68 0.42,1.15 1.27,1.48 2.34,1.05 4.69,2.11 7.03,3.16 0.72,0.33 1.41,-0.42 0.84,-1.34 -2.41,-2.65 -4.83,-5.3 -7.24,-7.95zm-65.84 60.63c-3.16,0.45 -8.67,0.82 -12.66,1.91 -2.75,1.41 -12.66,9.71 -14.77,15.95 -0.62,1.78 -0.65,3.56 -0.14,5.35 6.06,7.42 14.2,9.3 23.07,9.21 6.06,-0.43 13.38,-1.43 9.28,-9.14 -6.74,-3.78 -5.38,-15.77 -3.66,-22.08 0.04,-0.82 -0.32,-1.23 -1.13,-1.2zm-75.08 -6.35c4.45,-3.07 7.85,-7.8 10.62,-12.06 11.13,0.79 17.64,8.88 27.08,15.89 -3.02,1.08 -8.18,2.86 -13.64,2.81 0.96,11.16 -3.54,17.49 -8.44,27.57 -0.83,0.86 -2.24,1.14 -4.29,0.77 -8.97,-2.06 -14.84,-7.46 -16.32,-17.58 -0.12,-1.29 0.44,-2 1.55,-2.32 1.81,-0.54 3.75,-0.59 5.42,-1.62 0.94,-0.71 1.84,-1.64 1.48,-2.74 -1.31,-3.68 -4.24,-6.9 -3.44,-10.73zm142.45 -71.03c4.15,-1.45 8.04,-3.59 11.82,-5.98 0.9,-0.28 1.28,-0.11 1.06,0.63 -1.33,4.3 -3.01,8.55 -5.84,12.66 -2.82,-3.22 -5.06,-5.5 -7.03,-7.32z"/>
   </g>
   <g>
    <path class="fil2" d="M5.07 1497.78l0 -4.33 38.21 0 0 -8.77 4.17 0 0 21.86 -4.17 0 0 -8.77 -38.21 0zm23.36 17.55l0 18.46 -4.17 0 0 -18.46 -15.08 0 0 18.46 -4.11 0 0 -22.78 42.38 0 0 22.78 -4.17 0 0 -18.46 -14.84 0zm8.05 61.68c2.64,-1.97 4.58,-4.17 5.82,-6.61 1.24,-2.43 1.87,-5.21 1.87,-8.32 0,-4.88 -1.75,-9.06 -5.24,-12.52 -3.5,-3.47 -7.65,-5.21 -12.47,-5.21 -5.13,0 -9.45,1.73 -12.95,5.18 -3.52,3.45 -5.28,7.63 -5.28,12.56 0,3.03 0.62,5.78 1.84,8.23 1.23,2.45 3.06,4.58 5.49,6.39l0 5.12c-3.61,-2.01 -6.4,-4.7 -8.37,-8.08 -1.97,-3.38 -2.95,-7.16 -2.95,-11.36 0,-6.45 2.12,-11.83 6.37,-16.15 4.25,-4.31 9.56,-6.46 15.91,-6.46 2.97,0 5.78,0.59 8.44,1.75 2.65,1.16 5.05,2.87 7.18,5.13 2.02,2.09 3.55,4.44 4.58,7.04 1.04,2.6 1.56,5.42 1.56,8.46 0,4.36 -1.02,8.28 -3.08,11.77 -2.06,3.49 -4.97,6.25 -8.72,8.27l0 -5.19zm-26.35 40.57l37.31 -0.49 0 4.26 -42.38 0 0 -5.19 37.37 -24.08 -37.37 0.49 0 -4.26 42.38 0 0 5.19 -37.31 24.08zm16.31 14.33c-5.16,0 -9.49,1.74 -12.98,5.22 -3.49,3.48 -5.24,7.77 -5.24,12.87 0,4.98 1.77,9.19 5.3,12.63 3.54,3.44 7.88,5.16 13.04,5.16 4.81,0 8.96,-1.77 12.44,-5.31 3.49,-3.53 5.23,-7.79 5.23,-12.78 0,-2.03 -0.34,-3.98 -1.01,-5.86 -0.67,-1.88 -1.66,-3.61 -2.95,-5.21 -1.71,-2.09 -3.79,-3.74 -6.26,-4.93 -2.46,-1.2 -4.99,-1.79 -7.57,-1.79zm0.07 -4.51c2.95,0 5.76,0.59 8.44,1.76 2.67,1.18 5.07,2.88 7.18,5.12 2.04,2.15 3.57,4.52 4.6,7.1 1.02,2.58 1.54,5.38 1.54,8.4 0,3.07 -0.52,5.92 -1.56,8.54 -1.03,2.62 -2.58,5.02 -4.64,7.19 -2.12,2.23 -4.48,3.91 -7.09,5.03 -2.62,1.12 -5.44,1.69 -8.47,1.69 -3,0 -5.76,-0.48 -8.28,-1.45 -2.51,-0.96 -4.8,-2.41 -6.85,-4.33 -2.36,-2.23 -4.14,-4.75 -5.35,-7.57 -1.2,-2.81 -1.81,-5.87 -1.81,-9.16 0,-6.31 2.14,-11.61 6.42,-15.89 4.27,-4.28 9.57,-6.42 15.87,-6.42zm-21.45 70.59l0 -19.76 42.38 0 0 4.32 -38.27 0 0 15.44 -4.11 0zm21.38 5.77c-5.16,0 -9.49,1.74 -12.98,5.22 -3.49,3.48 -5.24,7.77 -5.24,12.87 0,4.98 1.77,9.19 5.3,12.63 3.54,3.44 7.88,5.16 13.04,5.16 4.81,0 8.96,-1.77 12.44,-5.31 3.49,-3.53 5.23,-7.79 5.23,-12.78 0,-2.03 -0.34,-3.98 -1.01,-5.85 -0.67,-1.88 -1.66,-3.61 -2.95,-5.21 -1.71,-2.09 -3.79,-3.74 -6.26,-4.93 -2.46,-1.2 -4.99,-1.79 -7.57,-1.79zm0.07 -4.51c2.95,0 5.76,0.59 8.44,1.76 2.67,1.18 5.07,2.88 7.18,5.12 2.04,2.15 3.57,4.52 4.6,7.1 1.02,2.58 1.54,5.38 1.54,8.4 0,3.07 -0.52,5.92 -1.56,8.54 -1.03,2.62 -2.58,5.02 -4.64,7.19 -2.12,2.23 -4.48,3.91 -7.09,5.03 -2.62,1.12 -5.44,1.69 -8.47,1.69 -3,0 -5.76,-0.48 -8.28,-1.45 -2.51,-0.96 -4.8,-2.41 -6.85,-4.33 -2.36,-2.23 -4.14,-4.75 -5.35,-7.58 -1.2,-2.81 -1.81,-5.87 -1.81,-9.16 0,-6.31 2.14,-11.61 6.42,-15.89 4.27,-4.28 9.57,-6.42 15.87,-6.42zm-1.12 66.14l0 27.29c-6.17,-0.36 -11.24,-2.66 -15.21,-6.9 -3.97,-4.24 -5.95,-9.45 -5.95,-15.61 0,-6.33 2.14,-11.63 6.4,-15.9 4.27,-4.27 9.57,-6.41 15.89,-6.41 2.97,0 5.78,0.59 8.44,1.75 2.65,1.16 5.05,2.87 7.18,5.13 2.08,2.17 3.62,4.57 4.63,7.2 1,2.64 1.51,5.56 1.51,8.78 0,4.26 -0.99,8.08 -2.99,11.46 -1.99,3.4 -4.83,6.11 -8.51,8.16l0 -5.31c2.54,-2.07 4.42,-4.29 5.63,-6.65 1.21,-2.37 1.82,-5 1.82,-7.92 0,-5.04 -1.74,-9.31 -5.23,-12.8 -3.48,-3.49 -7.67,-5.23 -12.56,-5.23 -5.2,0 -9.54,1.74 -13.01,5.22 -3.47,3.48 -5.21,7.77 -5.21,12.87 0,4.03 1.24,7.63 3.74,10.82 2.48,3.19 5.71,5.26 9.67,6.23l0 -22.17 3.76 0zm-20.33 37.55l0 -4.32 42.38 0 0 4.32 -42.38 0zm0 7.1l0 -4.56 42.38 17.04 0 5.19 -42.38 16.98 0 -4.61 13.29 -5.25 0 -19.54 -13.29 -5.25zm17.11 23.28l21.28 -8.33 -21.28 -8.2 0 16.53zm6.26 36.4l0 18.46 -4.17 0 0 -18.46 -15.08 0 0 18.46 -4.11 0 0 -22.79 42.38 0 0 22.79 -4.17 0 0 -18.46 -14.84 0zm-23.36 26.92l42.38 0 0 6.34 -36.84 15.2 36.84 15.13 0 6.37 -42.38 0 0 -4.14 37.43 0 -37.43 -15.44 0 -3.89 37.43 -15.44 -37.43 0 0 -4.14zm0 77.57l0 -4.32 38.21 0 0 -8.77 4.17 0 0 21.86 -4.17 0 0 -8.77 -38.21 0zm23.36 17.55l0 18.46 -4.17 0 0 -18.46 -15.08 0 0 18.46 -4.11 0 0 -22.78 42.38 0 0 22.78 -4.17 0 0 -18.46 -14.84 0zm-18.3 55.82l37.31 -0.49 0 4.26 -42.38 0 0 -5.19 37.37 -24.08 -37.37 0.5 0 -4.26 42.38 0 0 5.19 -37.31 24.08zm7.03 9.7l0 4.14c-2.62,0.08 -4.7,0.85 -6.26,2.31 -1.55,1.46 -2.32,3.38 -2.32,5.76 0,2.56 0.78,4.59 2.31,6.09 1.54,1.5 3.64,2.25 6.27,2.25 3.85,0 6.75,-3.08 8.7,-9.24 0.16,-0.48 0.27,-0.84 0.35,-1.09 1.07,-3.21 2.42,-5.52 4.06,-6.94 1.64,-1.41 3.78,-2.12 6.42,-2.12 3.38,0 6.14,1.09 8.29,3.27 2.16,2.18 3.23,4.99 3.23,8.45 0,3.29 -0.98,5.91 -2.94,7.84 -1.96,1.92 -4.72,3.01 -8.27,3.22l0 -4.08c2.3,-0.22 4.08,-0.94 5.33,-2.14 1.25,-1.21 1.88,-2.83 1.88,-4.86 0,-2.17 -0.69,-3.94 -2.05,-5.32 -1.37,-1.38 -3.11,-2.07 -5.23,-2.07 -1.1,0 -2.06,0.21 -2.87,0.62 -0.81,0.41 -1.53,1.07 -2.2,1.98 -0.66,0.93 -1.39,2.7 -2.21,5.31 -0.47,1.5 -0.84,2.65 -1.13,3.44 -1.07,2.85 -2.43,4.91 -4.09,6.16 -1.66,1.26 -3.83,1.88 -6.52,1.88 -4.11,0 -7.42,-1.16 -9.93,-3.49 -2.51,-2.32 -3.77,-5.4 -3.77,-9.24 0,-3.58 1.18,-6.48 3.56,-8.72 2.37,-2.23 5.5,-3.37 9.38,-3.43zm9.28 33.33c-5.16,0 -9.49,1.74 -12.98,5.22 -3.49,3.48 -5.24,7.77 -5.24,12.87 0,4.98 1.77,9.19 5.3,12.63 3.54,3.44 7.88,5.16 13.04,5.16 4.81,0 8.96,-1.77 12.44,-5.31 3.49,-3.53 5.23,-7.79 5.23,-12.78 0,-2.03 -0.34,-3.98 -1.01,-5.85 -0.67,-1.88 -1.66,-3.61 -2.95,-5.21 -1.71,-2.09 -3.79,-3.74 -6.26,-4.93 -2.46,-1.2 -4.99,-1.79 -7.57,-1.79zm0.07 -4.51c2.95,0 5.76,0.59 8.44,1.76 2.67,1.18 5.07,2.88 7.18,5.11 2.04,2.15 3.57,4.52 4.6,7.1 1.02,2.58 1.54,5.38 1.54,8.4 0,3.07 -0.52,5.92 -1.56,8.54 -1.03,2.62 -2.58,5.02 -4.64,7.19 -2.12,2.23 -4.48,3.91 -7.09,5.03 -2.62,1.12 -5.44,1.69 -8.47,1.69 -3,0 -5.76,-0.49 -8.28,-1.45 -2.51,-0.96 -4.8,-2.41 -6.85,-4.33 -2.36,-2.23 -4.14,-4.76 -5.35,-7.58 -1.2,-2.81 -1.81,-5.87 -1.81,-9.16 0,-6.31 2.14,-11.61 6.42,-15.89 4.27,-4.28 9.57,-6.42 15.87,-6.42zm1.92 55.15l0 18.46 -4.17 0 0 -18.46 -15.08 0 0 18.46 -4.11 0 0 -22.79 42.38 0 0 22.79 -4.17 0 0 -18.46 -14.84 0zm-11.27 24.33l0 4.14c-2.62,0.08 -4.7,0.85 -6.26,2.31 -1.55,1.46 -2.32,3.39 -2.32,5.76 0,2.56 0.78,4.59 2.31,6.09 1.54,1.5 3.64,2.25 6.27,2.25 3.85,0 6.75,-3.08 8.7,-9.24 0.16,-0.48 0.27,-0.84 0.35,-1.09 1.07,-3.21 2.42,-5.52 4.06,-6.94 1.64,-1.41 3.78,-2.12 6.42,-2.12 3.38,0 6.14,1.09 8.29,3.27 2.16,2.18 3.23,4.99 3.23,8.45 0,3.29 -0.98,5.91 -2.94,7.84 -1.96,1.92 -4.72,3.01 -8.27,3.22l0 -4.08c2.3,-0.22 4.08,-0.94 5.33,-2.14 1.25,-1.2 1.88,-2.83 1.88,-4.86 0,-2.17 -0.69,-3.94 -2.05,-5.32 -1.37,-1.38 -3.11,-2.07 -5.23,-2.07 -1.1,0 -2.06,0.21 -2.87,0.62 -0.81,0.41 -1.53,1.07 -2.2,1.98 -0.66,0.92 -1.39,2.7 -2.21,5.31 -0.47,1.5 -0.84,2.65 -1.13,3.44 -1.07,2.85 -2.43,4.91 -4.09,6.16 -1.66,1.26 -3.83,1.88 -6.52,1.88 -4.11,0 -7.42,-1.16 -9.93,-3.49 -2.51,-2.32 -3.77,-5.4 -3.77,-9.24 0,-3.58 1.18,-6.48 3.56,-8.72 2.37,-2.23 5.5,-3.38 9.38,-3.44zm-12.1 40.43l0 -4.32 38.21 0 0 -8.77 4.17 0 0 21.86 -4.17 0 0 -8.77 -38.21 0zm38.21 16.87l-38.21 0 0 -4.26 42.38 0 0 11.8c0,2.59 -0.19,4.68 -0.57,6.26 -0.38,1.58 -1,3.01 -1.88,4.3 -1.18,1.75 -2.76,3.13 -4.74,4.15 -1.99,1.02 -4.08,1.52 -6.29,1.52 -3.28,0 -6.1,-1.01 -8.46,-3.03 -2.37,-2.02 -3.66,-4.55 -3.88,-7.59l-16.57 10.62 0 -5.12 20.44 -13.04 0 4.17c0,2.77 0.79,5.02 2.35,6.76 1.57,1.74 3.59,2.6 6.05,2.6 1.49,0 2.84,-0.27 4.06,-0.8 1.22,-0.53 2.29,-1.32 3.2,-2.36 0.76,-0.86 1.3,-1.9 1.62,-3.12 0.32,-1.23 0.48,-3.39 0.48,-6.49l0 -6.37zm4.17 30.02l0 4.32 -26.8 0c-2.07,0 -3.63,0.08 -4.65,0.26 -1.03,0.17 -1.94,0.45 -2.74,0.86 -1.61,0.79 -2.87,1.93 -3.77,3.46 -0.91,1.51 -1.37,3.23 -1.37,5.15 0,3.31 1.09,5.76 3.28,7.36 2.17,1.59 5.55,2.38 10.13,2.38l25.93 0 0 4.26 -26.94 0c-5.49,0 -9.59,-1.13 -12.29,-3.4 -2.69,-2.26 -4.04,-5.7 -4.04,-10.3 0,-4.93 1.32,-8.55 3.95,-10.87 2.64,-2.32 6.76,-3.47 12.38,-3.47l26.94 0zm-42.38 44.95l0 -4.32 38.21 0 0 -8.77 4.17 0 0 21.86 -4.17 0 0 -8.77 -38.21 0zm42.38 12.55l0 4.32 -26.8 0c-2.07,0 -3.63,0.08 -4.65,0.26 -1.03,0.17 -1.94,0.45 -2.74,0.85 -1.61,0.79 -2.87,1.93 -3.77,3.46 -0.91,1.51 -1.37,3.23 -1.37,5.15 0,3.31 1.09,5.76 3.28,7.36 2.17,1.59 5.55,2.38 10.13,2.38l25.93 0 0 4.26 -26.94 0c-5.49,0 -9.59,-1.13 -12.29,-3.4 -2.69,-2.26 -4.04,-5.7 -4.04,-10.3 0,-4.93 1.32,-8.55 3.95,-10.87 2.64,-2.32 6.76,-3.47 12.38,-3.47l26.94 0zm-4.17 39.21l-38.21 0 0 -4.26 42.38 0 0 11.81c0,2.59 -0.19,4.68 -0.57,6.26 -0.38,1.59 -1,3.01 -1.88,4.3 -1.18,1.75 -2.76,3.13 -4.74,4.15 -1.99,1.02 -4.08,1.52 -6.29,1.52 -3.28,0 -6.1,-1.01 -8.46,-3.04 -2.37,-2.02 -3.66,-4.55 -3.88,-7.58l-16.57 10.62 0 -5.13 20.44 -13.04 0 4.17c0,2.77 0.79,5.02 2.35,6.76 1.57,1.74 3.59,2.6 6.05,2.6 1.49,0 2.84,-0.27 4.06,-0.8 1.22,-0.53 2.29,-1.32 3.2,-2.36 0.76,-0.87 1.3,-1.9 1.62,-3.12 0.32,-1.23 0.48,-3.39 0.48,-6.5l0 -6.37zm-38.21 29.64l0 -4.56 42.38 17.04 0 5.19 -42.38 16.98 0 -4.61 13.29 -5.25 0 -19.54 -13.29 -5.25zm17.11 23.28l21.28 -8.33 -21.28 -8.2 0 16.53zm-5.01 14.03l0 4.14c-2.62,0.08 -4.7,0.86 -6.26,2.32 -1.55,1.46 -2.32,3.38 -2.32,5.76 0,2.56 0.78,4.59 2.31,6.09 1.54,1.5 3.64,2.25 6.27,2.25 3.85,0 6.75,-3.08 8.7,-9.24 0.16,-0.48 0.27,-0.84 0.35,-1.09 1.07,-3.21 2.42,-5.52 4.06,-6.94 1.64,-1.41 3.78,-2.12 6.42,-2.12 3.38,0 6.14,1.09 8.29,3.27 2.16,2.18 3.23,4.99 3.23,8.45 0,3.29 -0.98,5.91 -2.94,7.84 -1.96,1.92 -4.72,3 -8.27,3.22l0 -4.08c2.3,-0.22 4.08,-0.94 5.33,-2.14 1.25,-1.21 1.88,-2.83 1.88,-4.86 0,-2.17 -0.69,-3.94 -2.05,-5.32 -1.37,-1.38 -3.11,-2.07 -5.23,-2.07 -1.1,0 -2.06,0.21 -2.87,0.62 -0.81,0.41 -1.53,1.07 -2.2,1.98 -0.66,0.93 -1.39,2.7 -2.21,5.31 -0.47,1.5 -0.84,2.65 -1.13,3.44 -1.07,2.85 -2.43,4.91 -4.09,6.17 -1.66,1.25 -3.83,1.88 -6.52,1.88 -4.11,0 -7.42,-1.16 -9.93,-3.49 -2.51,-2.31 -3.77,-5.4 -3.77,-9.24 0,-3.58 1.18,-6.48 3.56,-8.72 2.37,-2.23 5.5,-3.37 9.38,-3.44z"/>
    <path class="fil0" d="M200.23 832.68c8.17,-8.17 13.23,-19.47 13.23,-31.94 0,-12.47 -5.06,-23.77 -13.23,-31.94 -8.17,-8.17 -19.47,-13.23 -31.94,-13.23 -12.47,0 -23.77,5.06 -31.94,13.23 -8.17,8.17 -13.23,19.47 -13.23,31.94 0,12.48 5.06,23.77 13.23,31.94 8.17,8.17 19.47,13.23 31.94,13.23 12.47,0 23.77,-5.06 31.94,-13.23z"/>
    <path class="fil3" d="M167.55 559.91c-11.53,0 -21.47,4.31 -29.75,12.92 -8.34,8.5 -12.47,18.6 -12.47,30.25 0,11.75 4.14,21.86 12.47,30.41 8.28,8.61 18.21,12.91 29.75,12.91 7.51,0 14.41,-1.99 20.7,-5.96 6.35,-4.03 11.42,-9.33 15.18,-16.01 3.75,-6.62 5.69,-13.74 5.69,-21.36 0,-7.45 -1.93,-14.52 -5.69,-21.2 -3.75,-6.68 -8.83,-12.03 -15.18,-16.01 -6.29,-3.97 -13.19,-5.96 -20.7,-5.96zm60.7 240.82c0,16.56 -6.71,31.55 -17.56,42.4 -10.85,10.85 -25.84,17.56 -42.4,17.56 -16.55,0 -31.55,-6.71 -42.4,-17.56 -10.85,-10.85 -17.56,-25.84 -17.56,-42.4 0,-16.56 6.71,-31.55 17.56,-42.4 10.85,-10.85 25.84,-17.57 42.4,-17.57 16.56,0 31.55,6.71 42.4,17.57 10.85,10.85 17.56,25.84 17.56,42.4zm86.11 -292.42l0.17 51.6 -68.27 0 1.66 3.7 1.6 3.7c4.2,11.65 6.29,23.57 6.29,35.77 0,12.25 -2.1,24.23 -6.29,35.88 -4.2,11.31 -10.38,21.53 -18.6,30.57 -8.06,8.94 -17.5,15.9 -28.31,20.87 -10.87,5.08 -22.57,7.62 -35.05,7.62 -12.86,0 -24.62,-2.48 -35.27,-7.45 -10.65,-4.97 -20.15,-11.98 -28.48,-21.03 -8.28,-9.16 -14.46,-19.37 -18.6,-30.57 -4.41,-11.32 -6.62,-23.29 -6.62,-35.88 0,-16.5 3.92,-32.07 11.65,-46.75 7.67,-14.68 18.21,-26.27 31.74,-34.94 13.24,-8.61 28.04,-12.97 44.43,-13.08l147.97 0zm-235.78 292.52c0,-16.5 3.92,-32.07 11.65,-46.75 7.78,-14.68 18.38,-26.27 31.85,-34.94 13.63,-8.72 28.81,-13.08 45.65,-13.08 12.58,0 24.34,2.54 35.21,7.62 10.93,5.08 20.31,12.03 28.32,20.86 8.06,8.94 14.3,19.1 18.6,30.52 4.31,11.64 6.46,23.57 6.46,35.77 0,12.25 -2.15,24.23 -6.46,35.88 -4.08,11.31 -10.26,21.53 -18.43,30.57 -8.22,8.94 -17.66,15.9 -28.48,20.87 -10.87,5.08 -22.63,7.62 -35.21,7.62 -12.86,0 -24.62,-2.48 -35.27,-7.45 -10.76,-4.97 -20.31,-11.98 -28.65,-21.03 -8.17,-9.16 -14.35,-19.37 -18.6,-30.57 -4.41,-11.32 -6.62,-23.29 -6.62,-35.88zm120.98 230.43c3.86,-4.64 6.79,-9.71 8.72,-15.23 1.93,-5.69 2.93,-11.76 2.93,-18.1 0,-11.87 -3.87,-21.86 -11.48,-30.08 -7.67,-8.28 -17.16,-12.42 -28.48,-12.42 -8.83,0 -16.78,1.77 -23.79,5.3 -7.01,3.48 -12.53,8.61 -16.61,15.4 -4.25,6.57 -6.35,14.13 -6.35,22.79 0,12.69 4.09,23.57 12.14,32.67l-35.87 28.26c-4.31,-4.08 -8.17,-9.82 -11.48,-17.11 -3.37,-7.45 -5.85,-15.12 -7.45,-22.96 -1.6,-7.89 -2.43,-15.18 -2.43,-21.86 0,-18.77 3.92,-35.33 11.81,-49.62 7.95,-14.35 18.43,-25.33 31.35,-33 13.14,-7.67 27.21,-11.48 42.22,-11.48 13.69,0 26.11,2.32 37.2,6.96 11.31,4.75 21.03,11.26 29.09,19.54 7.89,8.22 14.07,18.21 18.6,29.91 4.42,11.65 6.62,24.23 6.62,37.7 0,10.98 -1.71,21.75 -5.19,32.18 -3.53,10.6 -8.55,19.87 -15.01,27.98l-36.54 -26.82zm-10.99 76.17c6.35,3.97 11.43,9.33 15.18,16.01 3.64,6.68 5.52,13.74 5.52,21.19 0,7.62 -1.88,14.74 -5.52,21.36 -3.75,6.68 -8.83,11.98 -15.18,16 -6.4,3.98 -13.36,5.96 -20.86,5.96 -11.43,0 -21.3,-4.31 -29.64,-12.91 -8.17,-8.55 -12.25,-18.66 -12.25,-30.41 0,-11.65 4.09,-21.75 12.25,-30.25 8.34,-8.61 18.21,-12.91 29.64,-12.91 7.51,0 14.46,1.99 20.86,5.96zm-104.64 80.69l-0.5 51.27 84.28 0.17c12.58,0 24.34,-2.54 35.21,-7.62 10.6,-4.97 19.98,-11.98 28.15,-21.03 8,-8.61 14.13,-18.77 18.44,-30.41 4.3,-11.65 6.46,-23.62 6.46,-35.88 0,-12.42 -2.21,-24.4 -6.62,-35.93 -4.2,-11.53 -10.26,-21.63 -18.27,-30.35 -7.95,-8.83 -17.33,-15.79 -28.15,-20.86 -10.87,-5.08 -22.63,-7.62 -35.21,-7.62 -16.72,0 -31.9,4.36 -45.48,13.08 -13.36,8.66 -23.9,20.26 -31.68,34.94 -7.67,14.68 -11.48,30.25 -11.48,46.75 0,12.47 2.21,24.45 6.62,35.88 0.55,1.65 1.6,4.14 3.09,7.62l-4.86 0zm171.26 144.38c0.5,-3.42 0.83,-6.96 0.94,-10.49l0 -2.93c-2.37,-47.63 -27.1,-71.47 -74.24,-71.47l-97.97 0 0 51.77 97.97 0c17.83,0 26.99,6.57 27.49,19.7l0 2.93c-0.17,4.31 -1.21,7.78 -3.04,10.49l48.85 0zm0 93c0.5,-3.42 0.83,-6.96 0.94,-10.49l0 -2.92c-2.37,-47.63 -27.1,-71.47 -74.24,-71.47l-97.97 0 0 51.77 97.97 0c17.83,0 26.99,6.57 27.49,19.7l0 2.92c-0.17,4.31 -1.21,7.78 -3.04,10.49l48.85 0zm-66.62 65.68c6.35,3.97 11.43,9.33 15.18,16.01 3.64,6.68 5.52,13.74 5.52,21.2 0,7.62 -1.88,14.74 -5.52,21.36 -3.75,6.68 -8.83,11.98 -15.18,16.01 -6.4,3.98 -13.36,5.96 -20.86,5.96 -11.43,0 -21.3,-4.31 -29.64,-12.91 -8.17,-8.56 -12.25,-18.66 -12.25,-30.41 0,-11.65 4.09,-21.75 12.25,-30.25 8.34,-8.61 18.21,-12.92 29.64,-12.92 7.51,0 14.46,1.99 20.86,5.96zm-104.64 80.69l-0.5 51.27 84.28 0.17c12.58,0 24.34,-2.54 35.21,-7.62 10.6,-4.97 19.98,-11.98 28.15,-21.03 8,-8.61 14.13,-18.77 18.44,-30.41 4.3,-11.65 6.46,-23.62 6.46,-35.88 0,-12.42 -2.21,-24.4 -6.62,-35.93 -4.2,-11.53 -10.26,-21.63 -18.27,-30.35 -7.95,-8.83 -17.33,-15.79 -28.15,-20.86 -10.87,-5.08 -22.63,-7.62 -35.21,-7.62 -16.72,0 -31.9,4.36 -45.48,13.08 -13.36,8.66 -23.9,20.25 -31.68,34.94 -7.67,14.68 -11.48,30.25 -11.48,46.75 0,12.47 2.21,24.45 6.62,35.88 0.55,1.65 1.6,4.14 3.09,7.62l-4.86 0zm115.63 229.93c3.86,-4.64 6.79,-9.71 8.72,-15.23 1.93,-5.69 2.93,-11.76 2.93,-18.1 0,-11.87 -3.87,-21.86 -11.48,-30.08 -7.67,-8.28 -17.16,-12.42 -28.48,-12.42 -8.83,0 -16.78,1.77 -23.79,5.3 -7.01,3.48 -12.53,8.61 -16.61,15.4 -4.25,6.57 -6.35,14.13 -6.35,22.79 0,12.69 4.09,23.57 12.14,32.67l-35.87 28.26c-4.31,-4.08 -8.17,-9.82 -11.48,-17.11 -3.37,-7.45 -5.85,-15.12 -7.45,-22.96 -1.6,-7.89 -2.43,-15.18 -2.43,-21.86 0,-18.77 3.92,-35.33 11.81,-49.62 7.95,-14.35 18.43,-25.33 31.35,-33 13.14,-7.67 27.21,-11.48 42.22,-11.48 13.69,0 26.11,2.32 37.2,6.96 11.31,4.75 21.03,11.26 29.09,19.54 7.89,8.22 14.07,18.21 18.6,29.91 4.42,11.65 6.62,24.23 6.62,37.7 0,10.98 -1.71,21.75 -5.19,32.18 -3.53,10.6 -8.55,19.87 -15.01,27.98l-36.54 -26.82zm49.78 90.24l-165.74 0 0 -51.61 165.58 0 0.17 51.61zm46.92 0.17c-5.19,0 -9.77,-1.21 -13.74,-3.59 -4.03,-2.37 -7.23,-5.57 -9.71,-9.71 -2.48,-4.08 -3.75,-8.61 -3.75,-13.58 0,-4.97 1.21,-9.44 3.59,-13.41 2.48,-4.08 5.74,-7.34 9.88,-9.71 4.31,-2.48 8.89,-3.7 13.74,-3.7 4.97,0 9.49,1.16 13.58,3.53 4.2,2.59 7.51,5.9 9.88,9.88 2.32,3.98 3.53,8.45 3.53,13.41 0,4.97 -1.22,9.49 -3.53,13.58 -2.37,4.03 -5.68,7.23 -9.88,9.71 -4.09,2.37 -8.61,3.59 -13.58,3.59zm-41.06 92.94c0.5,-3.42 0.83,-6.96 0.94,-10.49l0 -2.92c-2.37,-47.63 -27.1,-71.47 -74.24,-71.47l-97.97 0 0 51.77 97.97 0c17.83,0 26.99,6.57 27.49,19.7l0 2.92c-0.17,4.31 -1.21,7.78 -3.04,10.49l48.85 0zm-55.63 135.55c3.86,-4.64 6.79,-9.71 8.72,-15.23 1.93,-5.69 2.93,-11.76 2.93,-18.1 0,-11.87 -3.87,-21.86 -11.48,-30.08 -7.67,-8.28 -17.16,-12.42 -28.48,-12.42 -8.83,0 -16.78,1.77 -23.79,5.3 -7.01,3.48 -12.53,8.61 -16.61,15.4 -4.25,6.57 -6.35,14.13 -6.35,22.79 0,12.69 4.09,23.57 12.14,32.67l-35.87 28.26c-4.31,-4.08 -8.17,-9.82 -11.48,-17.11 -3.37,-7.45 -5.85,-15.12 -7.45,-22.96 -1.6,-7.89 -2.43,-15.18 -2.43,-21.86 0,-18.77 3.92,-35.33 11.81,-49.62 7.95,-14.35 18.43,-25.33 31.35,-33 13.14,-7.67 27.21,-11.48 42.22,-11.48 13.69,0 26.11,2.32 37.2,6.96 11.31,4.75 21.03,11.26 29.09,19.54 7.89,8.22 14.07,18.21 18.6,29.91 4.42,11.65 6.62,24.23 6.62,37.7 0,10.98 -1.71,21.75 -5.19,32.18 -3.53,10.6 -8.55,19.87 -15.01,27.98l-36.54 -26.82zm-73.74 108.18c0.44,-13.14 9.55,-19.7 27.32,-19.7l96.37 0 0 -51.77 -96.37 0c-46.92,0 -71.64,23.84 -74.23,71.47l0 2.92c2.59,47.63 27.32,71.48 74.23,71.48l96.37 0 0 -51.77 -96.37 0c-17.77,0 -26.88,-6.57 -27.32,-19.7l0 -2.92zm10.16 108.67c-10.21,10.21 -15.34,22.74 -15.34,37.48 0,15.45 4.53,23.12 13.58,23.12 4.75,0 8.28,-4.25 10.54,-12.75 1.38,-6.07 3.81,-15.62 7.23,-28.81 2.82,-10.65 8,-19.65 15.56,-26.99 7.4,-7.23 18.82,-10.82 34.28,-10.82 11.87,0 21.86,2.98 30.08,8.89 8.17,6.02 14.24,13.85 18.1,23.46 3.97,9.77 5.96,20.53 5.96,32.18 0,6.57 -0.88,13.25 -2.76,20.03 -2.26,7.34 -5.02,13.91 -8.39,19.71 -3.53,6.4 -7.56,11.98 -11.98,16.83l-28.26 -28.43c6.24,-8.33 9.33,-17.39 9.33,-27.21 0,-11.76 -3.26,-17.61 -9.83,-17.61 -5.96,0 -10.1,4.36 -12.47,13.08 -2.59,9.6 -5.02,19.26 -7.29,28.98 -2.65,10.65 -7.62,19.54 -14.85,26.66 -7.34,7.23 -18.88,10.82 -34.61,10.82 -11.76,0 -21.91,-3.09 -30.41,-9.38 -8.61,-6.24 -15.01,-14.57 -19.26,-25.06 -4.41,-10.43 -6.62,-21.25 -6.62,-32.51 0,-9.33 0.77,-17.83 2.26,-25.33 1.43,-7.56 3.81,-14.63 7.12,-21.19 3.37,-6.79 7.84,-13.91 13.41,-21.36l34.61 26.22z"/>
    <path class="fil0" d="M109.49 2454.3c5.3,0 10.1,1.33 14.41,4.03 4.53,2.81 8,6.4 10.49,10.87 2.59,4.53 3.87,9.33 3.87,14.35 0,5.08 -1.27,9.88 -3.87,14.41 -2.7,4.42 -6.23,8 -10.65,10.65 -4.31,2.7 -9.05,4.09 -14.24,4.09 -8.61,0 -15.73,-2.82 -21.36,-8.45 -5.69,-5.68 -8.56,-12.58 -8.56,-20.7 0,-5.35 1.27,-10.27 3.87,-14.68 2.59,-4.53 6.24,-8.11 10.87,-10.71 4.69,-2.59 9.77,-3.86 15.18,-3.86z"/>
   </g>
  </g>
 </g>
</svg>
