<?xml version="1.0" encoding="UTF-8"?>
<!DOCTYPE svg PUBLIC "-//W3C//DTD SVG 1.1//EN" "http://www.w3.org/Graphics/SVG/1.1/DTD/svg11.dtd">
<!-- Creator: CorelDRAW 2018 (64 Bit Versão de avaliação) -->
<svg xmlns="http://www.w3.org/2000/svg" xml:space="preserve" width="20.1848mm" height="150.689mm" version="1.1" style="shape-rendering:geometricPrecision; text-rendering:geometricPrecision; image-rendering:optimizeQuality; fill-rule:evenodd; clip-rule:evenodd"
viewBox="0 0 293.97 2194.63"
 xmlns:xlink="http://www.w3.org/1999/xlink">
 <defs>
  <style type="text/css">
   <![CDATA[
    .str0 {stroke:#D03438;stroke-width:2.91;stroke-miterlimit:22.9256}
    .fil1 {fill:#FEFEFE}
    .fil3 {fill:#373435}
    .fil0 {fill:#D03438}
    .fil2 {fill:#373435;fill-rule:nonzero}
   ]]>
  </style>
 </defs>
 <g id="Camada_x0020_1">
  <metadata id="CorelCorpID_0Corel-Layer"/>
  <g id="_2661411255984">
   <g>
    <rect class="fil0 str0" x="1.46" y="1.46" width="291.06" height="378.06" rx="6.3" ry="9.54"/>
    <path class="fil1" d="M93.96 166.31c0.62,-1.6 0.61,-2.55 1.61,-4.62 0.79,-1.63 6.88,-7.97 8.63,-9.96 0.3,-0.31 0.2,-0.14 0.37,-0.53 -0.87,0.22 -2.1,0.84 -3,1.17 -3.12,1.15 -7.51,1.83 -10.99,1.83 -2.57,0 -2.78,-0.01 -5.13,1.55l-2.41 1.78c-0.22,0.18 -0.24,0.27 -0.46,0.45l-1.85 1.66c-0.76,0.76 -2.76,2.82 -3.32,3.58 -0.21,0.29 -0.17,0.18 -0.38,0.41l-0.96 1.19c-0.12,0.14 -0.07,0.06 -0.21,0.24 -0.25,0.32 -0.5,0.75 -0.8,1.01 -1.84,0.38 -6.26,-0.71 -7.81,-1.35 -3.85,-1.59 -5.85,-1.53 -9.95,-1.53 -2.28,0 -5.43,0.38 -7.44,1.03 2.39,0.36 3.78,0.28 6.5,0.88 1.99,0.43 3.79,1.12 5.35,2.01 0.74,0.42 1.41,0.99 2.1,1.51l2.12 1.62c1.21,0.91 2.33,1.91 3.61,2.72 0.16,0.1 0.05,0 0.27,0.18 0.03,0.02 0.1,0.08 0.12,0.11 0.16,0.15 0.02,-0.02 0.16,0.19 -0.48,0.54 -2.18,1.25 -3.34,2.56 -0.25,0.29 -0.53,0.42 -0.77,0.7 -2.85,3.23 -3.83,7.18 -4.54,11.63 -1.14,7.13 -0.6,10.49 -1.01,16.68 -0.15,2.25 -0.28,3.28 -2.03,4.62l-1.15 1.11c-1.63,1.41 -2.58,3.31 -3.56,5.27 -1.32,2.63 -2.18,6.08 -2.62,9.26 -0.48,3.54 -0.42,7.38 -0.78,10.98 -0.26,2.53 -0.6,5.07 -1.33,7.5 -0.2,0.66 -0.76,1.73 -0.84,2.25 1.3,1.31 1.16,1.48 2.94,2.79 2.2,1.63 4.78,2.55 7.8,2.55 0.85,0 1.57,-0.21 2.31,-0.25 0.95,-0.04 5.89,3.13 13.52,-0.39 1.49,-0.68 4.39,-0.19 4.39,-4.63 0,-2.56 -2.53,-6.31 -4.07,-8.46 -0.51,-0.72 -1.05,-1.24 -1.71,-1.79 -0.44,-0.37 -0.78,-0.76 -1.43,-0.97 -0.72,0.05 -3.81,2.49 -8.29,2.32 0.23,-0.46 0.49,-0.43 0.99,-0.67 0.38,-0.18 0.7,-0.33 1.07,-0.52 1.98,-0.99 4.31,-2.2 5.98,-3.47 0.07,-1.15 0.11,-2.25 0.16,-3.42 0.05,-1.25 0.4,-1.69 1,-2.6 0.71,-1.09 1.64,-1.99 2.43,-3l2.02 -2.4c0.22,-0.3 0.21,-0.22 0.44,-0.47 0.17,-0.18 0.23,-0.34 0.38,-0.52 0.17,-0.2 0.29,-0.24 0.46,-0.44 0.19,-0.22 0.18,-0.31 0.38,-0.52 0.22,-0.23 0.27,-0.19 0.46,-0.44 0.21,-0.26 0.15,-0.28 0.39,-0.52l1.32 -1.39c0.38,-0.35 0.5,-0.68 0.81,-1 1.35,-1.32 2.65,-2.74 4.1,-3.93l1.36 -1.36c0.28,-0.35 0.49,-0.66 0.76,-1.05 3.28,-4.61 3.88,-11.32 3.69,-17.12l-0.51 -7.71c0.46,0.42 0.75,2.68 0.86,3.28 1.07,5.48 2.05,11.37 0.85,16.9 3.95,0 7.87,0.89 10.91,2.67 0.43,0.25 0.61,0.38 1.02,0.68 0.37,0.28 0.63,0.52 0.93,0.77l5.84 4.34c1.29,0.94 2.67,1.76 4.06,2.73 2.66,1.85 5.59,3.52 8.48,5.1 1.98,1.08 2.89,1.44 5.45,1.44 2.77,0 14.41,-1.15 16.65,-2.04l-0.31 -0.15c-2.2,-0.78 -13.46,-3.07 -13.95,-3.58 -0.55,-0.57 -0.74,-6.49 -0.74,-7.69 0,-7.55 2.04,-14.11 6.38,-19.7l1.62 -1.77c0.26,-0.27 0.82,-0.92 1.12,-1.15l1.25 -1.01c0.21,-0.18 0.41,-0.32 0.63,-0.5 0.28,-0.21 0.45,-0.39 0.84,-0.43 -0.31,0.57 -0.9,1.04 -1.31,1.55 -6.43,7.94 -9.63,17.66 -6.85,27.88 0.18,0.67 0.17,0.6 0.81,0.78 4.16,1.17 8.3,2.52 12.43,3.75l19.81 6.12c-1.46,0.08 -7.16,-1.5 -8.05,-1.36 -0.24,0.03 -0.12,0 -0.26,0.09 1.01,0.52 6.44,5.03 7.53,6.05 -0.69,-0.18 -7.58,-5.03 -8.53,-5.68 -0.35,-0.24 -0.54,-0.52 -1.07,-0.43 -0.54,0.09 -1.84,0.58 -2.39,0.8 -1.28,0.51 -2.58,1.09 -3.49,2.05 -0.21,0.23 -0.25,0.17 -0.25,0.63 0,2.94 0.52,8.25 2.4,10.47 0.46,0.54 0.69,0.85 1.23,1.37 1.33,1.28 2.86,2.4 4.49,3.32 1.77,1 0.55,-0.24 2.05,1.8l0.6 0.76c0.75,0.9 1.87,1.72 2.91,2.29 2.38,1.29 5.01,1.63 7.73,1.51 0.43,-1.37 3.98,-8.37 4.9,-10.35 0.33,-0.72 0.75,-0.77 1.48,-1.12l3.43 -1.67c1.24,-0.62 1.94,-1.28 2.91,-2.19 0.26,-0.25 0.24,-0.38 0.58,-0.66 0.46,-0.39 0.33,-0.27 0.66,-0.7 2.75,-3.64 4.46,-7.44 1.61,-11.85 -0.98,-1.51 -1.42,-1.45 -2.24,-2.39l-14.66 -13.17c-0.36,-0.41 -0.44,-0.4 -0.85,-0.73 -0.34,-0.27 -0.44,-0.52 -0.8,-0.79l-4.08 -3.73c0.65,0.1 3.6,1.93 4.34,2.34l5.4 3.09c0.63,0.35 0.6,0.25 1.09,-0.14 1.22,-0.96 2.68,-1.92 4.09,-2.7 0.56,-0.31 1.92,-0.8 2.24,-1.12 -0.43,-1.05 -4.81,-11.79 -4.95,-12.68 0.51,0.28 2.47,4.05 2.77,4.6l5.31 9.4c1.53,2.56 2.96,4.09 4.61,6.37l1.19 1.53c1.3,1.62 2.39,2.79 4.77,3.6 3.34,1.13 13,0.94 17.46,0.9 1.11,-0.01 1.77,0.52 2.66,1.04 1.97,1.15 3.88,2.23 5.7,3.46l1.04 0.77c0.69,0.65 0.93,1.45 2.46,1.04 2.88,-0.79 5.61,-3.1 7.92,-4.87 0.67,-0.51 1.36,-1.14 2.12,-1.61 0.81,-0.49 1.95,-0.59 1.2,-2.05l-0.81 -1.11c-0.55,-0.63 -1.3,-1.14 -2.16,-1.46l-5.34 -2.02c-0.77,-0.29 -2.21,-0.57 -2.46,-1.29 1.73,-1.12 12.44,3.71 14.49,3.71 2.02,0 2.79,-1.17 3.45,-2.87 0.28,-0.71 2.23,-2.57 2.57,-3.29 1.51,-3.18 -0.33,-4.3 -0.1,-5.64 0.52,-3.05 0.68,-7.21 -1.31,-9.85 -0.37,-0.49 -0.68,-0.61 -1.14,-1.03l1.6 -1.7c0.32,-0.32 0.29,-0.2 0.56,-0.57l1.85 -2.68c1.19,-1.89 2.01,-4.07 2.71,-6.34 2.64,-8.58 2.34,-18.5 1.42,-27.42 -0.58,1.12 -1.15,2.91 -1.7,4.17 -2.19,5.04 -4.51,8.86 -7.74,12.96l-3.28 3.29c-1.57,1.25 -3.11,2.33 -4.99,3.15 -1.18,0.52 -3.42,1.31 -4.84,1.06 -0.09,-0.47 0.66,-5.39 0.77,-6.39 0.21,-1.96 0.5,-4.85 0.27,-6.79 -0.02,-0.01 -0.06,-0.04 -0.07,-0.01l-2.82 2.05c-0.95,0.68 -1.98,1.39 -3.07,2.02 -1.93,1.12 -5.07,2.81 -7.79,2.47l-3.3 -3.8c-0.48,-0.69 -1.16,-1.2 -1.68,-1.83 -0.37,-0.45 -0.37,-0.57 -0.84,-0.97 -0.65,-0.55 -1.04,-1.27 -1.68,-1.82 -0.47,-0.41 -0.51,-0.49 -0.9,-0.91l-1.48 -1.24c-0.22,-0.17 -0.28,-0.23 -0.5,-0.4 -1.62,-1.23 -2.78,-1.71 -4.39,-2.71 0.86,-3.36 2.97,-8.02 2.82,-11.66 -2.41,0.52 -5.89,2.73 -7.91,4.14l-2.72 2.15c-0.91,0.73 -1.56,1.63 -2.48,2.38l-1.85 2.22c-1.73,2.29 -3.17,4.78 -4.13,7.52 -0.11,0.32 -0.19,0.62 -0.41,0.86 -0.14,-1.71 2.05,-9.51 3.28,-11.68 0.19,-0.34 0.25,-0.36 0.38,-0.71l-3.8 -3.19c-0.67,-0.55 -1.28,-1.02 -1.95,-1.56l-3.05 -2.26c-7.39,-5.54 -19.37,-12.17 -28.56,-12.17 -7.58,0 -8.72,1.7 -14.12,4.89 -1.29,0.76 -2.49,1.5 -3.74,2.26 -9.62,5.78 -20.39,11.44 -29.21,18.07l-7.09 6.15c-0.62,0.55 -1.49,1.77 -1.96,2.45 -0.72,1.06 -1.28,2.22 -1.8,3.4 -0.26,0.59 0.05,0.3 -0.35,0.46zm112.9 2.98c-0.44,-0.41 -0.87,-0.16 -0.98,0.37 -0.23,1.23 -0.45,2.46 -0.68,3.69 -0.04,0.59 0.37,1.01 1.11,1.29 2.05,0.92 4.1,1.84 6.14,2.76 0.62,0.29 1.23,-0.37 0.74,-1.17 -2.11,-2.31 -4.22,-4.63 -6.33,-6.94zm-57.51 52.96c-2.76,0.39 -7.57,0.72 -11.05,1.67 -2.41,1.24 -11.06,8.48 -12.9,13.93 -0.54,1.56 -0.57,3.11 -0.12,4.67 5.29,6.48 12.4,8.12 20.15,8.05 5.29,-0.37 11.68,-1.25 8.11,-7.99 -5.89,-3.3 -4.7,-13.77 -3.19,-19.29 0.03,-0.71 -0.28,-1.07 -0.98,-1.04zm-65.57 -5.54c3.89,-2.68 6.86,-6.81 9.27,-10.53 9.72,0.69 15.4,7.76 23.65,13.88 -2.64,0.94 -7.15,2.5 -11.92,2.46 0.84,9.75 -3.09,15.27 -7.37,24.08 -0.73,0.75 -1.95,0.99 -3.75,0.68 -7.84,-1.8 -12.96,-6.51 -14.25,-15.36 -0.1,-1.13 0.38,-1.75 1.35,-2.03 1.58,-0.47 3.28,-0.51 4.73,-1.41 0.82,-0.62 1.61,-1.43 1.29,-2.39 -1.15,-3.22 -3.71,-6.03 -3.01,-9.37zm124.42 -62.04c3.63,-1.27 7.02,-3.13 10.32,-5.22 0.79,-0.25 1.12,-0.1 0.92,0.55 -1.16,3.75 -2.63,7.47 -5.1,11.06 -2.46,-2.82 -4.42,-4.8 -6.14,-6.39z"/>
   </g>
   <g>
    <path class="fil2" d="M4.43 1308.18l0 -3.78 33.37 0 0 -7.66 3.64 0 0 19.09 -3.64 0 0 -7.66 -33.37 0zm20.41 15.32l0 16.13 -3.64 0 0 -16.13 -13.17 0 0 16.13 -3.59 0 0 -19.9 37.01 0 0 19.9 -3.64 0 0 -16.13 -12.96 0zm7.03 53.87c2.31,-1.72 4,-3.64 5.08,-5.77 1.09,-2.12 1.63,-4.55 1.63,-7.27 0,-4.26 -1.53,-7.91 -4.58,-10.94 -3.05,-3.03 -6.68,-4.55 -10.89,-4.55 -4.48,0 -8.25,1.51 -11.31,4.52 -3.07,3.01 -4.61,6.66 -4.61,10.97 0,2.65 0.54,5.05 1.61,7.19 1.08,2.14 2.67,4 4.8,5.58l0 4.48c-3.15,-1.75 -5.59,-4.11 -7.31,-7.05 -1.72,-2.95 -2.58,-6.26 -2.58,-9.92 0,-5.64 1.86,-10.34 5.56,-14.1 3.71,-3.77 8.35,-5.65 13.9,-5.65 2.59,0 5.05,0.51 7.38,1.53 2.32,1.02 4.41,2.51 6.27,4.48 1.76,1.82 3.1,3.87 4,6.15 0.91,2.27 1.36,4.74 1.36,7.39 0,3.81 -0.89,7.24 -2.69,10.28 -1.8,3.05 -4.34,5.46 -7.62,7.23l0 -4.53zm-23.01 35.43l32.59 -0.43 0 3.72 -37.01 0 0 -4.53 32.64 -21.03 -32.64 0.43 0 -3.72 37.01 0 0 4.53 -32.59 21.03zm14.25 12.51c-4.51,0 -8.29,1.52 -11.34,4.56 -3.05,3.04 -4.57,6.79 -4.57,11.24 0,4.35 1.55,8.03 4.63,11.03 3.09,3 6.88,4.5 11.39,4.5 4.2,0 7.83,-1.55 10.86,-4.64 3.05,-3.08 4.56,-6.8 4.56,-11.16 0,-1.77 -0.3,-3.48 -0.88,-5.11 -0.58,-1.65 -1.45,-3.15 -2.58,-4.55 -1.49,-1.82 -3.31,-3.26 -5.47,-4.3 -2.15,-1.04 -4.36,-1.56 -6.61,-1.56zm0.06 -3.94c2.58,0 5.03,0.51 7.38,1.54 2.33,1.03 4.42,2.52 6.27,4.47 1.78,1.88 3.12,3.95 4.02,6.2 0.89,2.26 1.35,4.7 1.35,7.33 0,2.68 -0.45,5.17 -1.36,7.46 -0.9,2.29 -2.26,4.39 -4.05,6.28 -1.85,1.95 -3.91,3.42 -6.2,4.4 -2.29,0.98 -4.76,1.47 -7.4,1.47 -2.62,0 -5.03,-0.42 -7.23,-1.27 -2.19,-0.84 -4.19,-2.1 -5.99,-3.78 -2.07,-1.95 -3.62,-4.15 -4.67,-6.61 -1.05,-2.45 -1.58,-5.13 -1.58,-8 0,-5.51 1.87,-10.14 5.6,-13.88 3.73,-3.74 8.36,-5.61 13.86,-5.61zm-18.73 61.65l0 -17.26 37.01 0 0 3.78 -33.42 0 0 13.48 -3.59 0zm18.67 5.04c-4.51,0 -8.29,1.52 -11.34,4.56 -3.05,3.04 -4.57,6.79 -4.57,11.24 0,4.35 1.55,8.03 4.63,11.03 3.09,3 6.88,4.5 11.39,4.5 4.2,0 7.83,-1.55 10.86,-4.64 3.05,-3.08 4.56,-6.81 4.56,-11.16 0,-1.77 -0.3,-3.48 -0.88,-5.11 -0.58,-1.65 -1.45,-3.16 -2.58,-4.55 -1.49,-1.82 -3.31,-3.26 -5.47,-4.31 -2.15,-1.04 -4.36,-1.56 -6.61,-1.56zm0.06 -3.94c2.58,0 5.03,0.51 7.38,1.54 2.33,1.03 4.42,2.52 6.27,4.47 1.78,1.88 3.12,3.95 4.02,6.2 0.89,2.26 1.35,4.7 1.35,7.34 0,2.68 -0.45,5.17 -1.36,7.46 -0.9,2.29 -2.26,4.39 -4.05,6.28 -1.85,1.95 -3.91,3.42 -6.2,4.4 -2.29,0.98 -4.76,1.47 -7.4,1.47 -2.62,0 -5.03,-0.42 -7.23,-1.27 -2.19,-0.84 -4.19,-2.1 -5.99,-3.78 -2.07,-1.95 -3.62,-4.15 -4.67,-6.62 -1.05,-2.45 -1.58,-5.12 -1.58,-8 0,-5.51 1.87,-10.14 5.6,-13.88 3.73,-3.74 8.36,-5.61 13.86,-5.61zm-0.98 57.77l0 23.84c-5.39,-0.31 -9.81,-2.33 -13.28,-6.03 -3.46,-3.7 -5.2,-8.25 -5.2,-13.64 0,-5.53 1.87,-10.16 5.59,-13.89 3.73,-3.73 8.36,-5.6 13.88,-5.6 2.59,0 5.05,0.51 7.38,1.53 2.32,1.02 4.41,2.51 6.27,4.48 1.81,1.89 3.16,3.99 4.04,6.29 0.88,2.3 1.32,4.86 1.32,7.67 0,3.72 -0.87,7.05 -2.61,10.01 -1.74,2.97 -4.22,5.34 -7.44,7.13l0 -4.64c2.22,-1.81 3.86,-3.75 4.92,-5.81 1.06,-2.07 1.59,-4.37 1.59,-6.92 0,-4.4 -1.52,-8.13 -4.56,-11.18 -3.04,-3.05 -6.7,-4.57 -10.97,-4.57 -4.54,0 -8.33,1.52 -11.37,4.56 -3.03,3.04 -4.55,6.79 -4.55,11.24 0,3.52 1.09,6.66 3.26,9.45 2.17,2.79 4.99,4.59 8.45,5.44l0 -19.36 3.28 0zm-17.75 32.8l0 -3.77 37.01 0 0 3.77 -37.01 0zm0 6.2l0 -3.98 37.01 14.88 0 4.53 -37.01 14.83 0 -4.03 11.61 -4.58 0 -17.07 -11.61 -4.58zm14.94 20.33l18.59 -7.27 -18.59 -7.16 0 14.44zm5.47 31.79l0 16.13 -3.64 0 0 -16.13 -13.17 0 0 16.13 -3.59 0 0 -19.9 37.01 0 0 19.9 -3.64 0 0 -16.13 -12.96 0zm-20.41 23.51l37.01 0 0 5.54 -32.18 13.28 32.18 13.21 0 5.56 -37.01 0 0 -3.61 32.69 0 -32.69 -13.48 0 -3.4 32.69 -13.48 -32.69 0 0 -3.61zm0 67.75l0 -3.77 33.37 0 0 -7.66 3.64 0 0 19.09 -3.64 0 0 -7.66 -33.37 0zm20.41 15.32l0 16.13 -3.64 0 0 -16.13 -13.17 0 0 16.13 -3.59 0 0 -19.9 37.01 0 0 19.9 -3.64 0 0 -16.13 -12.96 0zm-15.98 48.75l32.59 -0.43 0 3.72 -37.01 0 0 -4.53 32.64 -21.03 -32.64 0.43 0 -3.72 37.01 0 0 4.53 -32.59 21.03zm6.14 8.47l0 3.61c-2.29,0.07 -4.1,0.75 -5.47,2.02 -1.35,1.28 -2.03,2.96 -2.03,5.03 0,2.24 0.68,4.01 2.02,5.32 1.35,1.31 3.18,1.97 5.47,1.97 3.36,0 5.89,-2.69 7.6,-8.07 0.14,-0.42 0.24,-0.74 0.3,-0.95 0.94,-2.81 2.12,-4.82 3.55,-6.06 1.43,-1.23 3.3,-1.85 5.61,-1.85 2.95,0 5.36,0.96 7.24,2.86 1.88,1.9 2.82,4.36 2.82,7.38 0,2.88 -0.86,5.16 -2.57,6.85 -1.71,1.68 -4.12,2.63 -7.22,2.81l0 -3.56c2.01,-0.19 3.57,-0.82 4.66,-1.87 1.09,-1.05 1.64,-2.47 1.64,-4.24 0,-1.9 -0.6,-3.44 -1.79,-4.65 -1.2,-1.2 -2.72,-1.81 -4.56,-1.81 -0.96,0 -1.8,0.18 -2.51,0.54 -0.7,0.36 -1.34,0.94 -1.92,1.73 -0.57,0.81 -1.21,2.35 -1.93,4.64 -0.41,1.31 -0.74,2.32 -0.99,3 -0.94,2.49 -2.13,4.29 -3.58,5.38 -1.45,1.1 -3.35,1.64 -5.7,1.64 -3.59,0 -6.48,-1.02 -8.68,-3.05 -2.2,-2.02 -3.29,-4.72 -3.29,-8.07 0,-3.13 1.03,-5.66 3.11,-7.61 2.07,-1.95 4.81,-2.95 8.19,-3zm8.1 29.11c-4.51,0 -8.29,1.52 -11.34,4.56 -3.05,3.04 -4.57,6.79 -4.57,11.24 0,4.35 1.55,8.03 4.63,11.03 3.09,3 6.88,4.5 11.39,4.5 4.2,0 7.83,-1.55 10.86,-4.64 3.05,-3.08 4.56,-6.81 4.56,-11.16 0,-1.77 -0.3,-3.48 -0.88,-5.11 -0.58,-1.65 -1.45,-3.16 -2.58,-4.55 -1.49,-1.82 -3.31,-3.26 -5.47,-4.3 -2.15,-1.04 -4.36,-1.56 -6.61,-1.56zm0.06 -3.94c2.58,0 5.03,0.51 7.38,1.54 2.33,1.03 4.42,2.52 6.27,4.47 1.78,1.88 3.12,3.95 4.02,6.2 0.89,2.26 1.35,4.7 1.35,7.34 0,2.68 -0.45,5.17 -1.36,7.46 -0.9,2.29 -2.26,4.39 -4.05,6.28 -1.85,1.95 -3.91,3.42 -6.2,4.4 -2.29,0.98 -4.76,1.47 -7.4,1.47 -2.62,0 -5.03,-0.42 -7.23,-1.27 -2.19,-0.84 -4.19,-2.1 -5.99,-3.78 -2.07,-1.95 -3.62,-4.15 -4.67,-6.62 -1.05,-2.45 -1.58,-5.12 -1.58,-8 0,-5.51 1.87,-10.14 5.6,-13.88 3.73,-3.74 8.36,-5.61 13.86,-5.61zm1.67 48.17l0 16.12 -3.64 0 0 -16.12 -13.17 0 0 16.12 -3.59 0 0 -19.9 37.01 0 0 19.9 -3.64 0 0 -16.12 -12.96 0zm-9.84 21.25l0 3.61c-2.29,0.07 -4.1,0.75 -5.47,2.02 -1.35,1.28 -2.03,2.96 -2.03,5.03 0,2.24 0.68,4.01 2.02,5.32 1.35,1.31 3.18,1.97 5.47,1.97 3.36,0 5.89,-2.69 7.6,-8.07 0.14,-0.42 0.24,-0.74 0.3,-0.95 0.94,-2.8 2.12,-4.82 3.55,-6.06 1.43,-1.23 3.3,-1.85 5.61,-1.85 2.95,0 5.36,0.96 7.24,2.86 1.88,1.9 2.82,4.36 2.82,7.38 0,2.88 -0.86,5.16 -2.57,6.85 -1.71,1.68 -4.12,2.63 -7.22,2.82l0 -3.56c2.01,-0.19 3.57,-0.82 4.66,-1.87 1.09,-1.05 1.64,-2.47 1.64,-4.24 0,-1.9 -0.6,-3.44 -1.79,-4.65 -1.2,-1.2 -2.72,-1.8 -4.56,-1.8 -0.96,0 -1.8,0.18 -2.51,0.54 -0.7,0.36 -1.34,0.94 -1.92,1.73 -0.57,0.81 -1.21,2.35 -1.93,4.64 -0.41,1.31 -0.74,2.32 -0.99,3 -0.94,2.49 -2.13,4.29 -3.58,5.38 -1.45,1.1 -3.35,1.64 -5.7,1.64 -3.59,0 -6.48,-1.02 -8.68,-3.05 -2.2,-2.02 -3.29,-4.72 -3.29,-8.07 0,-3.13 1.03,-5.66 3.11,-7.61 2.07,-1.95 4.81,-2.95 8.19,-3zm-10.57 35.31l0 -3.77 33.37 0 0 -7.66 3.64 0 0 19.09 -3.64 0 0 -7.66 -33.37 0zm33.37 14.73l-33.37 0 0 -3.72 37.01 0 0 10.31c0,2.26 -0.16,4.09 -0.49,5.47 -0.33,1.38 -0.88,2.63 -1.64,3.76 -1.03,1.53 -2.41,2.73 -4.14,3.62 -1.73,0.89 -3.57,1.33 -5.49,1.33 -2.86,0 -5.33,-0.88 -7.39,-2.65 -2.07,-1.76 -3.19,-3.97 -3.38,-6.63l-14.47 9.28 0 -4.48 17.86 -11.39 0 3.64c0,2.42 0.69,4.39 2.06,5.91 1.37,1.52 3.13,2.27 5.29,2.27 1.3,0 2.48,-0.23 3.55,-0.7 1.07,-0.46 2,-1.15 2.79,-2.06 0.66,-0.75 1.14,-1.66 1.41,-2.72 0.28,-1.07 0.42,-2.96 0.42,-5.67l0 -5.56zm3.64 26.22l0 3.77 -23.41 0c-1.81,0 -3.17,0.07 -4.06,0.22 -0.9,0.14 -1.69,0.4 -2.4,0.75 -1.41,0.69 -2.51,1.69 -3.3,3.02 -0.8,1.32 -1.2,2.82 -1.2,4.49 0,2.89 0.95,5.03 2.86,6.43 1.9,1.39 4.85,2.08 8.85,2.08l22.65 0 0 3.72 -23.53 0c-4.8,0 -8.37,-0.99 -10.73,-2.97 -2.35,-1.98 -3.53,-4.98 -3.53,-8.99 0,-4.31 1.15,-7.47 3.45,-9.49 2.31,-2.02 5.91,-3.03 10.81,-3.03l23.53 0zm-37.01 39.26l0 -3.77 33.37 0 0 -7.66 3.64 0 0 19.09 -3.64 0 0 -7.66 -33.37 0zm37.01 10.96l0 3.77 -23.41 0c-1.81,0 -3.17,0.07 -4.06,0.23 -0.9,0.14 -1.69,0.4 -2.4,0.75 -1.41,0.69 -2.51,1.69 -3.3,3.02 -0.8,1.32 -1.2,2.82 -1.2,4.49 0,2.89 0.95,5.03 2.86,6.43 1.9,1.39 4.85,2.08 8.85,2.08l22.65 0 0 3.72 -23.53 0c-4.8,0 -8.37,-0.99 -10.73,-2.97 -2.35,-1.98 -3.53,-4.98 -3.53,-9 0,-4.31 1.15,-7.47 3.45,-9.49 2.31,-2.02 5.91,-3.03 10.81,-3.03l23.53 0zm-3.64 34.24l-33.37 0 0 -3.72 37.01 0 0 10.31c0,2.26 -0.16,4.09 -0.49,5.46 -0.33,1.39 -0.88,2.63 -1.64,3.76 -1.03,1.53 -2.41,2.73 -4.14,3.62 -1.73,0.89 -3.57,1.33 -5.49,1.33 -2.86,0 -5.33,-0.88 -7.39,-2.65 -2.07,-1.76 -3.19,-3.97 -3.38,-6.62l-14.47 9.28 0 -4.48 17.86 -11.39 0 3.64c0,2.42 0.69,4.39 2.06,5.91 1.37,1.52 3.13,2.27 5.29,2.27 1.3,0 2.48,-0.23 3.55,-0.7 1.07,-0.46 2,-1.15 2.79,-2.06 0.66,-0.76 1.14,-1.66 1.41,-2.72 0.28,-1.07 0.42,-2.96 0.42,-5.67l0 -5.56zm-33.37 25.89l0 -3.98 37.01 14.89 0 4.53 -37.01 14.83 0 -4.03 11.61 -4.58 0 -17.07 -11.61 -4.58zm14.94 20.33l18.59 -7.27 -18.59 -7.16 0 14.44zm-4.37 12.25l0 3.61c-2.29,0.07 -4.1,0.75 -5.47,2.02 -1.35,1.28 -2.03,2.96 -2.03,5.03 0,2.24 0.68,4.01 2.02,5.32 1.35,1.31 3.18,1.97 5.47,1.97 3.36,0 5.89,-2.69 7.6,-8.07 0.14,-0.42 0.24,-0.74 0.3,-0.95 0.94,-2.8 2.12,-4.82 3.55,-6.06 1.43,-1.23 3.3,-1.85 5.61,-1.85 2.95,0 5.36,0.95 7.24,2.86 1.88,1.9 2.82,4.36 2.82,7.38 0,2.88 -0.86,5.16 -2.57,6.85 -1.71,1.68 -4.12,2.62 -7.22,2.81l0 -3.56c2.01,-0.19 3.57,-0.82 4.66,-1.87 1.09,-1.05 1.64,-2.47 1.64,-4.24 0,-1.9 -0.6,-3.44 -1.79,-4.65 -1.2,-1.2 -2.72,-1.81 -4.56,-1.81 -0.96,0 -1.8,0.18 -2.51,0.54 -0.7,0.36 -1.34,0.94 -1.92,1.73 -0.57,0.81 -1.21,2.35 -1.93,4.64 -0.41,1.31 -0.74,2.32 -0.99,3 -0.94,2.49 -2.13,4.29 -3.58,5.39 -1.45,1.1 -3.35,1.64 -5.7,1.64 -3.59,0 -6.48,-1.02 -8.68,-3.05 -2.2,-2.02 -3.29,-4.72 -3.29,-8.07 0,-3.13 1.03,-5.66 3.11,-7.61 2.07,-1.95 4.81,-2.95 8.19,-3z"/>
    <path class="fil0" d="M174.89 727.27c7.14,-7.14 11.56,-17 11.56,-27.9 0,-10.9 -4.42,-20.76 -11.56,-27.9 -7.14,-7.14 -17,-11.56 -27.9,-11.56 -10.9,0 -20.76,4.42 -27.9,11.56 -7.14,7.14 -11.56,17 -11.56,27.9 0,10.9 4.42,20.76 11.56,27.9 7.14,7.14 17,11.56 27.9,11.56 10.9,0 20.76,-4.42 27.9,-11.56z"/>
    <path class="fil3" d="M146.34 489.04c-10.07,0 -18.75,3.76 -25.98,11.28 -7.28,7.42 -10.9,16.24 -10.9,26.42 0,10.27 3.61,19.09 10.9,26.56 7.23,7.52 15.91,11.28 25.98,11.28 6.56,0 12.58,-1.74 18.08,-5.21 5.54,-3.52 9.98,-8.15 13.26,-13.98 3.28,-5.78 4.97,-12 4.97,-18.65 0,-6.51 -1.69,-12.68 -4.97,-18.51 -3.28,-5.83 -7.71,-10.51 -13.26,-13.98 -5.49,-3.47 -11.52,-5.21 -18.08,-5.21zm53.02 210.34c0,14.46 -5.86,27.56 -15.34,37.03 -9.48,9.48 -22.57,15.34 -37.03,15.34 -14.46,0 -27.55,-5.86 -37.03,-15.34 -9.48,-9.48 -15.34,-22.57 -15.34,-37.03 0,-14.46 5.86,-27.56 15.34,-37.03 9.48,-9.48 22.57,-15.34 37.03,-15.34 14.46,0 27.56,5.86 37.03,15.34 9.48,9.48 15.34,22.57 15.34,37.03zm75.21 -255.41l0.14 45.07 -59.63 0 1.45 3.23 1.4 3.23c3.66,10.17 5.49,20.58 5.49,31.24 0,10.7 -1.83,21.16 -5.49,31.33 -3.66,9.88 -9.06,18.8 -16.25,26.7 -7.04,7.81 -15.28,13.89 -24.73,18.22 -9.5,4.43 -19.72,6.65 -30.61,6.65 -11.23,0 -21.5,-2.17 -30.8,-6.51 -9.3,-4.34 -17.6,-10.46 -24.88,-18.37 -7.23,-8 -12.63,-16.92 -16.25,-26.7 -3.86,-9.88 -5.78,-20.34 -5.78,-31.33 0,-14.41 3.42,-28.01 10.17,-40.83 6.7,-12.82 15.91,-22.95 27.72,-30.51 11.57,-7.52 24.49,-11.33 38.81,-11.43l129.24 0zm-205.94 255.49c0,-14.41 3.42,-28.01 10.17,-40.83 6.8,-12.82 16.05,-22.95 27.81,-30.51 11.91,-7.62 25.17,-11.43 39.87,-11.43 10.99,0 21.26,2.22 30.75,6.65 9.55,4.43 17.74,10.51 24.73,18.22 7.04,7.81 12.49,16.68 16.24,26.66 3.76,10.17 5.64,20.58 5.64,31.24 0,10.7 -1.88,21.16 -5.64,31.33 -3.57,9.88 -8.97,18.8 -16.1,26.7 -7.18,7.81 -15.43,13.89 -24.88,18.22 -9.5,4.43 -19.76,6.65 -30.75,6.65 -11.23,0 -21.5,-2.17 -30.8,-6.51 -9.4,-4.34 -17.74,-10.46 -25.02,-18.37 -7.13,-8 -12.53,-16.92 -16.25,-26.7 -3.86,-9.88 -5.78,-20.34 -5.78,-31.33zm105.67 201.26c3.37,-4.05 5.93,-8.48 7.62,-13.31 1.69,-4.97 2.56,-10.27 2.56,-15.81 0,-10.37 -3.38,-19.09 -10.03,-26.27 -6.7,-7.23 -14.99,-10.85 -24.88,-10.85 -7.71,0 -14.65,1.54 -20.78,4.63 -6.12,3.04 -10.94,7.52 -14.51,13.45 -3.71,5.74 -5.55,12.34 -5.55,19.91 0,11.09 3.57,20.58 10.61,28.54l-31.33 24.68c-3.76,-3.57 -7.13,-8.58 -10.03,-14.94 -2.94,-6.51 -5.11,-13.21 -6.51,-20.05 -1.4,-6.89 -2.12,-13.26 -2.12,-19.09 0,-16.39 3.42,-30.85 10.32,-43.34 6.94,-12.53 16.1,-22.13 27.38,-28.83 11.47,-6.7 23.77,-10.03 36.88,-10.03 11.96,0 22.8,2.03 32.49,6.07 9.88,4.14 18.37,9.84 25.4,17.06 6.89,7.18 12.29,15.91 16.25,26.13 3.86,10.17 5.78,21.16 5.78,32.93 0,9.59 -1.49,18.99 -4.53,28.1 -3.08,9.26 -7.47,17.35 -13.11,24.44l-31.91 -23.43zm-9.59 66.53c5.54,3.47 9.98,8.15 13.26,13.98 3.18,5.83 4.82,12 4.82,18.51 0,6.65 -1.64,12.87 -4.82,18.66 -3.28,5.83 -7.71,10.46 -13.26,13.98 -5.59,3.47 -11.67,5.21 -18.22,5.21 -9.98,0 -18.61,-3.76 -25.89,-11.28 -7.13,-7.47 -10.7,-16.29 -10.7,-26.56 0,-10.17 3.57,-18.99 10.7,-26.42 7.28,-7.52 15.91,-11.28 25.89,-11.28 6.56,0 12.63,1.74 18.22,5.21zm-91.4 70.48l-0.43 44.78 73.61 0.14c10.99,0 21.26,-2.22 30.75,-6.65 9.26,-4.34 17.45,-10.46 24.59,-18.37 6.99,-7.52 12.34,-16.39 16.1,-26.56 3.76,-10.17 5.64,-20.63 5.64,-31.33 0,-10.85 -1.93,-21.31 -5.79,-31.38 -3.66,-10.07 -8.97,-18.9 -15.96,-26.51 -6.94,-7.71 -15.14,-13.79 -24.59,-18.22 -9.5,-4.44 -19.76,-6.65 -30.75,-6.65 -14.61,0 -27.86,3.81 -39.72,11.43 -11.67,7.57 -20.87,17.69 -27.67,30.51 -6.7,12.82 -10.03,26.42 -10.03,40.83 0,10.9 1.93,21.36 5.78,31.33 0.48,1.44 1.4,3.61 2.7,6.65l-4.24 0zm149.58 126.11c0.43,-2.99 0.72,-6.07 0.82,-9.16l0 -2.56c-2.07,-41.6 -23.67,-62.43 -64.84,-62.43l-85.56 0 0 45.22 85.56 0c15.57,0 23.57,5.74 24.01,17.21l0 2.56c-0.14,3.76 -1.06,6.8 -2.65,9.16l42.66 0zm0 81.23c0.43,-2.99 0.72,-6.07 0.82,-9.16l0 -2.55c-2.07,-41.6 -23.67,-62.43 -64.84,-62.43l-85.56 0 0 45.22 85.56 0c15.57,0 23.57,5.74 24.01,17.21l0 2.55c-0.14,3.76 -1.06,6.8 -2.65,9.16l42.66 0zm-58.19 57.36c5.54,3.47 9.98,8.15 13.26,13.98 3.18,5.83 4.82,12 4.82,18.51 0,6.65 -1.64,12.87 -4.82,18.65 -3.28,5.83 -7.71,10.46 -13.26,13.98 -5.59,3.47 -11.67,5.21 -18.22,5.21 -9.98,0 -18.61,-3.76 -25.89,-11.28 -7.13,-7.47 -10.7,-16.3 -10.7,-26.56 0,-10.17 3.57,-18.99 10.7,-26.42 7.28,-7.52 15.91,-11.28 25.89,-11.28 6.56,0 12.63,1.74 18.22,5.21zm-91.4 70.48l-0.43 44.78 73.61 0.15c10.99,0 21.26,-2.22 30.75,-6.65 9.26,-4.34 17.45,-10.46 24.59,-18.37 6.99,-7.52 12.34,-16.39 16.1,-26.56 3.76,-10.17 5.64,-20.63 5.64,-31.33 0,-10.85 -1.93,-21.31 -5.79,-31.38 -3.66,-10.07 -8.97,-18.9 -15.96,-26.51 -6.94,-7.71 -15.14,-13.79 -24.59,-18.22 -9.5,-4.43 -19.76,-6.65 -30.75,-6.65 -14.61,0 -27.86,3.81 -39.72,11.43 -11.67,7.57 -20.87,17.69 -27.67,30.51 -6.7,12.82 -10.03,26.42 -10.03,40.83 0,10.89 1.93,21.36 5.78,31.33 0.48,1.44 1.4,3.61 2.7,6.65l-4.24 0zm100.99 200.83c3.37,-4.05 5.93,-8.48 7.62,-13.31 1.69,-4.97 2.56,-10.27 2.56,-15.81 0,-10.37 -3.38,-19.09 -10.03,-26.27 -6.7,-7.23 -14.99,-10.85 -24.88,-10.85 -7.71,0 -14.65,1.54 -20.78,4.63 -6.12,3.04 -10.94,7.52 -14.51,13.45 -3.71,5.74 -5.55,12.34 -5.55,19.91 0,11.09 3.57,20.58 10.61,28.54l-31.33 24.68c-3.76,-3.57 -7.13,-8.58 -10.03,-14.94 -2.94,-6.51 -5.11,-13.21 -6.51,-20.05 -1.4,-6.89 -2.12,-13.26 -2.12,-19.09 0,-16.39 3.42,-30.85 10.32,-43.34 6.94,-12.53 16.1,-22.13 27.38,-28.83 11.47,-6.7 23.77,-10.03 36.88,-10.03 11.96,0 22.8,2.03 32.49,6.07 9.88,4.14 18.37,9.84 25.4,17.06 6.89,7.18 12.29,15.91 16.25,26.13 3.86,10.17 5.78,21.16 5.78,32.93 0,9.59 -1.49,18.99 -4.53,28.1 -3.08,9.26 -7.47,17.35 -13.11,24.44l-31.91 -23.43zm43.48 78.82l-144.76 0 0 -45.07 144.62 0 0.14 45.07zm40.98 0.14c-4.53,0 -8.53,-1.06 -12.01,-3.13 -3.52,-2.07 -6.31,-4.87 -8.48,-8.48 -2.17,-3.57 -3.28,-7.52 -3.28,-11.86 0,-4.34 1.06,-8.24 3.13,-11.72 2.17,-3.57 5.01,-6.41 8.63,-8.48 3.76,-2.17 7.76,-3.23 12.01,-3.23 4.34,0 8.29,1.01 11.86,3.09 3.66,2.26 6.56,5.16 8.63,8.63 2.02,3.47 3.08,7.38 3.08,11.72 0,4.34 -1.06,8.29 -3.08,11.86 -2.07,3.52 -4.96,6.31 -8.63,8.48 -3.57,2.07 -7.52,3.13 -11.86,3.13zm-35.87 81.18c0.43,-2.99 0.72,-6.07 0.82,-9.16l0 -2.55c-2.07,-41.6 -23.67,-62.43 -64.84,-62.43l-85.56 0 0 45.22 85.56 0c15.57,0 23.57,5.74 24.01,17.21l0 2.55c-0.14,3.76 -1.06,6.8 -2.65,9.16l42.66 0zm-48.59 118.39c3.37,-4.05 5.93,-8.48 7.62,-13.31 1.69,-4.97 2.56,-10.27 2.56,-15.81 0,-10.37 -3.38,-19.09 -10.03,-26.27 -6.7,-7.23 -14.99,-10.85 -24.88,-10.85 -7.71,0 -14.65,1.54 -20.78,4.63 -6.12,3.04 -10.94,7.52 -14.51,13.45 -3.71,5.74 -5.55,12.34 -5.55,19.91 0,11.09 3.57,20.58 10.61,28.54l-31.33 24.68c-3.76,-3.57 -7.13,-8.58 -10.03,-14.94 -2.94,-6.51 -5.11,-13.21 -6.51,-20.05 -1.4,-6.89 -2.12,-13.26 -2.12,-19.09 0,-16.39 3.42,-30.85 10.32,-43.34 6.94,-12.53 16.1,-22.13 27.38,-28.83 11.47,-6.7 23.77,-10.03 36.88,-10.03 11.96,0 22.8,2.03 32.49,6.07 9.88,4.14 18.37,9.83 25.4,17.06 6.89,7.18 12.29,15.91 16.25,26.13 3.86,10.17 5.78,21.16 5.78,32.93 0,9.59 -1.49,18.99 -4.53,28.1 -3.08,9.26 -7.47,17.35 -13.11,24.44l-31.91 -23.43zm-64.4 94.48c0.39,-11.47 8.34,-17.21 23.86,-17.21l84.17 0 0 -45.22 -84.17 0c-40.98,0 -62.57,20.83 -64.84,62.43l0 2.55c2.26,41.6 23.86,62.43 64.84,62.43l84.17 0 0 -45.22 -84.17 0c-15.52,0 -23.48,-5.74 -23.86,-17.21l0 -2.55zm8.87 94.92c-8.92,8.92 -13.4,19.86 -13.4,32.73 0,13.5 3.95,20.2 11.86,20.2 4.15,0 7.23,-3.71 9.21,-11.14 1.21,-5.3 3.33,-13.64 6.31,-25.16 2.46,-9.3 6.99,-17.16 13.59,-23.57 6.46,-6.31 16.44,-9.45 29.94,-9.45 10.36,0 19.09,2.6 26.27,7.76 7.13,5.25 12.44,12.1 15.81,20.49 3.47,8.53 5.21,17.93 5.21,28.1 0,5.74 -0.77,11.57 -2.41,17.5 -1.98,6.41 -4.39,12.15 -7.33,17.21 -3.09,5.59 -6.61,10.46 -10.46,14.7l-24.68 -24.83c5.45,-7.28 8.15,-15.18 8.15,-23.77 0,-10.27 -2.84,-15.38 -8.58,-15.38 -5.21,0 -8.82,3.81 -10.89,11.42 -2.27,8.39 -4.39,16.82 -6.36,25.31 -2.31,9.3 -6.65,17.06 -12.97,23.28 -6.41,6.31 -16.49,9.45 -30.23,9.45 -10.27,0 -19.14,-2.7 -26.56,-8.2 -7.52,-5.45 -13.11,-12.73 -16.82,-21.89 -3.86,-9.11 -5.78,-18.56 -5.78,-28.39 0,-8.15 0.67,-15.57 1.98,-22.13 1.25,-6.6 3.33,-12.77 6.22,-18.51 2.94,-5.93 6.85,-12.15 11.71,-18.66l30.23 22.9z"/>
    <path class="fil0" d="M95.63 2143.62c4.63,0 8.82,1.16 12.58,3.52 3.95,2.46 6.99,5.59 9.16,9.5 2.27,3.95 3.38,8.15 3.38,12.53 0,4.43 -1.11,8.63 -3.38,12.58 -2.36,3.86 -5.45,6.99 -9.3,9.3 -3.76,2.36 -7.91,3.57 -12.44,3.57 -7.52,0 -13.74,-2.46 -18.65,-7.38 -4.97,-4.96 -7.47,-10.99 -7.47,-18.08 0,-4.68 1.11,-8.97 3.38,-12.82 2.26,-3.95 5.45,-7.09 9.5,-9.35 4.1,-2.27 8.53,-3.37 13.26,-3.37z"/>
   </g>
  </g>
 </g>
</svg>
