<svg width="514" height="63" viewBox="0 0 514 63" fill="none" xmlns="http://www.w3.org/2000/svg">
<path fill-rule="evenodd" clip-rule="evenodd" d="M83.8327 31.779C81.7436 29.6899 78.8571 28.3975 75.6687 28.3975C72.4802 28.3975 69.5934 29.6899 67.5046 31.779C65.4155 33.8682 64.123 36.7546 64.123 39.9431C64.123 43.1315 65.4155 46.0184 67.5046 48.1067C69.5937 50.1958 72.4802 51.4883 75.6687 51.4883C78.8571 51.4883 81.744 50.1958 83.8323 48.1071C85.9214 46.018 87.2139 43.1315 87.2139 39.9431C87.2139 36.7546 85.9214 33.8678 83.8327 31.779Z" fill="#D03438"/>
<path fill-rule="evenodd" clip-rule="evenodd" d="M14.1192 40.1316C14.1192 43.0796 15.2193 45.6188 17.4201 47.7349C19.5921 49.8649 22.1737 50.9229 25.1502 50.9229C28.1545 50.9229 30.7364 49.8649 32.9227 47.7349C35.1232 45.6188 36.2232 43.0796 36.2232 40.1316C36.2232 38.2131 35.7158 36.4496 34.6997 34.8417C33.6702 33.2191 32.3158 31.9218 30.6093 30.9624C28.9166 30.003 27.0964 29.509 25.1502 29.509C23.2456 29.509 21.4401 30.003 19.7335 30.9624C18.0262 31.9218 16.658 33.2191 15.6427 34.8417C14.627 36.4496 14.1192 38.2131 14.1192 40.1316ZM75.6684 24.6182C79.8998 24.6182 83.7315 26.3341 86.5047 29.1069C89.2772 31.8798 90.9931 35.7118 90.9931 39.9433C90.9931 44.1748 89.2772 48.0064 86.5044 50.7797C83.7319 53.5521 79.8998 55.268 75.6684 55.268C71.4369 55.268 67.6052 53.5521 64.832 50.7793C62.0592 48.0068 60.3432 44.1748 60.3432 39.9433C60.3432 35.7118 62.0592 31.8802 64.832 29.1069C67.6049 26.3341 71.4369 24.6182 75.6684 24.6182ZM0.929688 2.60864L14.1192 2.56664V20.0158L15.0644 19.5923L16.0091 19.1835C18.9857 18.1112 22.0327 17.5752 25.1502 17.5752C28.2816 17.5752 31.3425 18.1112 34.3194 19.1835C37.2111 20.2558 39.8209 21.8356 42.1339 23.9374C44.4195 25.9969 46.1969 28.4089 47.4665 31.1739C48.7639 33.9528 49.4131 36.9435 49.4131 40.1312C49.4131 43.4179 48.7785 46.4225 47.5089 49.1451C46.239 51.8673 44.4477 54.294 42.1343 56.424C39.7927 58.5397 37.183 60.1195 34.3198 61.1779C31.4277 62.3061 28.3668 62.8702 25.1506 62.8702C20.9326 62.8702 16.9547 61.8688 13.2025 59.8937C9.45039 57.9329 6.48776 55.2388 4.27338 51.7826C2.0725 48.3972 0.958184 44.6166 0.930054 40.4271V2.60827L0.929688 2.60864ZM75.6931 62.871C71.4752 62.871 67.4972 61.8696 63.7451 59.8945C59.9929 57.9055 57.0303 55.1972 54.8159 51.7552C52.5873 48.2708 51.4726 44.3916 51.4726 40.0892C51.4726 36.8726 52.1215 33.868 53.4196 31.0895C54.7169 28.2964 56.4947 25.8983 58.7519 23.853C61.0371 21.7936 63.6322 20.1995 66.5524 19.0991C69.529 17.999 72.576 17.4484 75.6935 17.4484C78.8249 17.4484 81.8858 17.9987 84.8627 19.0991C87.7545 20.1429 90.3641 21.7227 92.6772 23.8107C94.9628 25.9125 96.7402 28.3246 98.0098 31.0895C99.3072 33.8684 99.9564 36.873 99.9564 40.0892C99.9564 43.3759 99.3218 46.3805 98.0522 49.1031C96.7822 51.8538 94.9909 54.2944 92.6775 56.4244C90.336 58.5124 87.7263 60.0921 84.8631 61.1783C81.971 62.3065 78.9101 62.8706 75.6939 62.8706L75.6931 62.871ZM134.587 31.9499C133.402 30.9628 132.104 30.2153 130.694 29.7213C129.24 29.2277 127.689 28.9738 126.067 28.9738C123.034 28.9738 120.481 29.9613 118.379 31.9079C116.263 33.8688 115.205 36.2951 115.205 39.1868C115.205 41.4439 115.656 43.4749 116.559 45.2666C117.448 47.0579 118.76 48.4689 120.495 49.5123C122.173 50.5985 124.106 51.1348 126.321 51.1348C129.565 51.1348 132.344 50.091 134.672 48.0316L141.894 57.2004C140.85 58.3008 139.383 59.2884 137.521 60.1349C135.616 60.9953 133.656 61.6299 131.653 62.0391C129.635 62.4483 127.773 62.6598 126.067 62.6598C121.27 62.6598 117.038 61.6588 113.385 59.6413C109.717 57.6103 106.91 54.9297 104.949 51.6292C102.988 48.272 102.015 44.6747 102.015 40.8378C102.015 37.3396 102.608 34.1654 103.793 31.3299C105.006 28.4382 106.67 25.9556 108.786 23.8962C110.888 21.8791 113.441 20.2993 116.432 19.1422C119.408 18.0137 122.625 17.4496 126.067 17.4496C128.874 17.4496 131.624 17.8869 134.291 18.7758C136.999 19.6782 139.369 20.9624 141.443 22.6123L134.587 31.9507V31.9499ZM154.054 34.7573C155.07 33.1348 156.438 31.8374 158.145 30.878C159.852 29.9467 161.657 29.467 163.561 29.467C165.508 29.467 167.328 29.9467 169.02 30.878C170.727 31.8374 172.081 33.1348 173.111 34.7573C174.127 36.3933 174.634 38.1711 174.634 40.0896C174.634 43.0094 173.534 45.5344 171.334 47.6644C169.147 49.7523 166.566 50.7962 163.561 50.7962C160.584 50.7962 158.003 49.7523 155.831 47.6644C153.63 45.5344 152.53 43.0094 152.53 40.0896C152.53 38.1711 153.038 36.3937 154.054 34.7573ZM174.677 61.5027L187.782 61.6299L187.824 40.0896C187.824 36.873 187.175 33.8684 185.878 31.0899C184.608 28.3816 182.816 25.9834 180.503 23.8954C178.302 21.8498 175.707 20.2839 172.731 19.1839C169.754 18.0838 166.693 17.5332 163.562 17.5332C160.388 17.5332 157.327 18.0973 154.378 19.2259C151.43 20.2982 148.849 21.8494 146.62 23.895C144.363 25.926 142.585 28.3242 141.288 31.0895C139.99 33.8684 139.341 36.873 139.341 40.0892C139.341 44.3634 140.455 48.2423 142.684 51.7128C144.898 55.1267 147.861 57.8207 151.613 59.8097C155.365 61.7705 159.343 62.7438 163.561 62.7438C166.749 62.7438 169.81 62.1801 172.731 61.0515C173.154 60.9101 173.789 60.6423 174.677 60.2617V61.5027ZM211.579 17.7309C210.705 17.6037 209.802 17.5193 208.899 17.4908H208.151C195.978 18.0973 189.884 24.4171 189.884 36.4642V61.5027H203.116V36.4642C203.116 31.9075 204.794 29.566 208.152 29.4392H208.899C210 29.4816 210.888 29.7494 211.58 30.2153V17.7312L211.579 17.7309ZM235.348 17.7309C234.474 17.6037 233.571 17.5193 232.668 17.4908H231.92C219.747 18.0973 213.653 24.4171 213.653 36.4642V61.5027H226.885V36.4642C226.885 31.9075 228.563 29.566 231.921 29.4392H232.668C233.768 29.4816 234.657 29.7494 235.349 30.2153V17.7312L235.348 17.7309ZM252.135 34.7573C253.15 33.1348 254.519 31.8374 256.225 30.878C257.932 29.9467 259.738 29.467 261.642 29.467C263.589 29.467 265.409 29.9467 267.101 30.878C268.808 31.8374 270.162 33.1348 271.192 34.7573C272.208 36.3933 272.715 38.1711 272.715 40.0896C272.715 43.0094 271.615 45.5344 269.415 47.6644C267.228 49.7523 264.646 50.7962 261.642 50.7962C258.665 50.7962 256.084 49.7523 253.912 47.6644C251.711 45.5344 250.611 43.0094 250.611 40.0896C250.611 38.1711 251.119 36.3937 252.135 34.7573ZM272.758 61.5027L285.863 61.6299L285.905 40.0896C285.905 36.873 285.256 33.8684 283.958 31.0899C282.689 28.3816 280.897 25.9834 278.584 23.8954C276.383 21.8498 273.788 20.2839 270.812 19.1839C267.835 18.0838 264.774 17.5332 261.643 17.5332C258.468 17.5332 255.407 18.0973 252.459 19.2259C249.511 20.2982 246.93 21.8494 244.701 23.895C242.444 25.926 240.666 28.3242 239.369 31.0895C238.071 33.8684 237.422 36.873 237.422 40.0892C237.422 44.3634 238.536 48.2423 240.765 51.7128C242.979 55.1267 245.942 57.8207 249.694 59.8097C253.446 61.7705 257.424 62.7438 261.642 62.7438C264.83 62.7438 267.891 62.1801 270.811 61.0515C271.234 60.9101 271.869 60.6423 272.758 60.2617V61.5027ZM331.525 31.9499C330.34 30.9628 329.042 30.2153 327.632 29.7213C326.178 29.2277 324.627 28.9738 323.005 28.9738C319.972 28.9738 317.419 29.9613 315.317 31.9079C313.201 33.8688 312.143 36.2951 312.143 39.1868C312.143 41.4439 312.594 43.4749 313.497 45.2666C314.386 47.0579 315.698 48.4689 317.433 49.5123C319.111 50.5985 321.044 51.1348 323.259 51.1348C326.503 51.1348 329.282 50.091 331.61 48.0316L338.832 57.2004C337.788 58.3008 336.321 59.2884 334.459 60.1349C332.554 60.9953 330.594 61.6299 328.591 62.0391C326.573 62.4483 324.711 62.6598 323.005 62.6598C318.208 62.6598 313.976 61.6588 310.323 59.6413C306.655 57.6103 303.848 54.9297 301.887 51.6292C299.926 48.272 298.953 44.6747 298.953 40.8378C298.953 37.3396 299.546 34.1654 300.731 31.3299C301.944 28.4382 303.608 25.9556 305.724 23.8962C307.826 21.8791 310.379 20.2993 313.37 19.1422C316.346 18.0137 319.563 17.4496 323.005 17.4496C325.811 17.4496 328.562 17.8869 331.229 18.7758C333.937 19.6782 336.307 20.9624 338.381 22.6123L331.525 31.9507V31.9499ZM354.589 19.2262V61.5875H341.399V19.2686L354.589 19.2262ZM354.631 7.23581C354.631 8.56204 354.321 9.73299 353.714 10.7487C353.108 11.7782 352.29 12.5966 351.231 13.2316C350.188 13.8662 349.031 14.191 347.761 14.191C346.491 14.191 345.349 13.8808 344.333 13.274C343.289 12.639 342.457 11.8067 341.85 10.749C341.215 9.64898 340.905 8.47803 340.905 7.23619C340.905 5.9666 341.202 4.81027 341.808 3.76609C342.471 2.69378 343.317 1.84764 344.333 1.24116C345.349 0.648935 346.491 0.338379 347.761 0.338379C349.03 0.338379 350.187 0.648935 351.231 1.24116C352.261 1.84764 353.079 2.69416 353.714 3.76609C354.32 4.8099 354.631 5.9666 354.631 7.23619L354.631 7.23581ZM378.386 17.7312C377.512 17.6041 376.609 17.5197 375.706 17.4912H374.958C362.785 18.0977 356.691 24.4175 356.691 36.4646V61.5031H369.922V36.4646C369.922 31.9079 371.601 29.5664 374.958 29.4396H375.706C376.806 29.482 377.695 29.7498 378.387 30.2156V17.7316L378.386 17.7312ZM413.031 31.9503C411.846 30.9631 410.548 30.2156 409.138 29.7217C407.685 29.2281 406.133 28.9742 404.511 28.9742C401.478 28.9742 398.925 29.9617 396.823 31.9083C394.707 33.8691 393.649 36.2954 393.649 39.1872C393.649 41.4443 394.1 43.4753 395.003 45.267C395.892 47.0583 397.204 48.4693 398.939 49.5127C400.618 50.5989 402.55 51.1352 404.765 51.1352C408.009 51.1352 410.788 50.0914 413.116 48.0319L420.338 57.2008C419.294 58.3012 417.828 59.2887 415.965 60.1353C414.061 60.9957 412.1 61.6303 410.097 62.0395C408.08 62.4487 406.218 62.6602 404.511 62.6602C399.715 62.6602 395.483 61.6591 391.829 59.6417C388.161 57.6107 385.354 54.9301 383.394 51.6296C381.433 48.2724 380.46 44.6751 380.46 40.8382C380.46 37.34 381.052 34.1658 382.237 31.3303C383.45 28.4386 385.115 25.956 387.231 23.8965C389.332 21.8794 391.886 20.2997 394.876 19.1426C397.853 18.014 401.069 17.4499 404.511 17.4499C407.318 17.4499 410.069 17.8873 412.735 18.7762C415.443 19.6786 417.813 20.9628 419.887 22.6127L413.031 31.951V31.9503ZM440.679 50.7965C437.322 50.6836 435.643 48.356 435.643 43.814V19.1842H422.412V43.814C422.412 55.8044 428.506 62.1239 440.679 62.787H441.427C453.6 62.1239 459.695 55.8048 459.695 43.814V19.1842H446.463V43.814C446.463 48.3564 444.784 50.6836 441.426 50.7965H440.679H440.679ZM468.455 48.2007C471.065 50.8104 474.267 52.1224 478.033 52.1224C481.983 52.1224 483.944 50.9657 483.944 48.6523C483.944 47.439 482.857 46.5362 480.685 45.9578C479.133 45.6053 476.693 44.9845 473.322 44.1099C470.599 43.3901 468.3 42.0643 466.423 40.132C464.576 38.2413 463.659 35.3218 463.659 31.372C463.659 28.3392 464.421 25.7857 465.93 23.6839C467.467 21.5959 469.471 20.0446 471.925 19.0571C474.422 18.0414 477.172 17.5336 480.149 17.5336C481.828 17.5336 483.535 17.7594 485.269 18.2387C487.145 18.8174 488.824 19.5225 490.306 20.3829C491.942 21.2857 493.367 22.3156 494.608 23.4442L487.343 30.6665C485.214 29.0724 482.9 28.2822 480.389 28.2822C477.384 28.2822 475.889 29.1144 475.889 30.7932C475.889 32.3167 477.003 33.3748 479.232 33.9813C481.686 34.6444 484.155 35.2647 486.638 35.8431C489.36 36.5205 491.632 37.79 493.451 39.6376C495.299 41.5137 496.216 44.4621 496.216 48.4824C496.216 51.487 495.426 54.0825 493.818 56.2548C492.224 58.4553 490.094 60.0918 487.414 61.1779C484.748 62.3061 481.983 62.8702 479.105 62.8702C476.721 62.8702 474.549 62.6729 472.63 62.2919C470.698 61.9254 468.892 61.3186 467.214 60.4721C465.479 59.6117 463.659 58.4692 461.755 57.0444L468.455 48.1996V48.2007Z" fill="#FEFEFE"/>
<path fill-rule="evenodd" clip-rule="evenodd" d="M498.289 54.9715C498.289 53.6171 498.628 52.3899 499.319 51.2898C500.038 50.1331 500.955 49.2442 502.098 48.6096C503.255 47.9465 504.482 47.6221 505.766 47.6221C507.063 47.6221 508.291 47.9469 509.447 48.6096C510.576 49.3009 511.493 50.2033 512.17 51.3318C512.861 52.4319 513.214 53.6452 513.214 54.9711C513.214 57.172 512.494 58.9918 511.055 60.4301C509.602 61.8835 507.839 62.6171 505.765 62.6171C504.397 62.6171 503.142 62.2923 502.013 61.6296C500.856 60.9665 499.94 60.0356 499.277 58.8504C498.613 57.6517 498.289 56.3536 498.289 54.9711V54.9715Z" fill="#D03438"/>
</svg>
