<svg width="125" height="178" viewBox="0 0 125 178" fill="none" xmlns="http://www.w3.org/2000/svg">
<path fill-rule="evenodd" clip-rule="evenodd" d="M114.583 62.5V114.583C114.583 143.348 91.2648 166.667 62.5 166.667C33.7352 166.667 10.4167 143.348 10.4167 114.583V62.5C10.4167 33.7352 33.7352 10.4167 62.5 10.4167C91.2648 10.4167 114.583 33.7352 114.583 62.5ZM0 62.5C0 27.9822 27.9822 0 62.5 0C97.0178 0 125 27.9822 125 62.5V114.583C125 149.101 97.0178 177.083 62.5 177.083C27.9822 177.083 0 149.101 0 114.583V62.5ZM67.7083 35.4166C67.7083 32.5402 65.3765 30.2083 62.5 30.2083C59.6235 30.2083 57.2917 32.5402 57.2917 35.4166V70.8333C57.2917 73.7098 59.6235 76.0416 62.5 76.0416C65.3765 76.0416 67.7083 73.7098 67.7083 70.8333V35.4166Z" fill="#ACACAC"/>
</svg>
