<?xml version="1.0" encoding="UTF-8"?>
<!DOCTYPE svg PUBLIC "-//W3C//DTD SVG 1.1//EN" "http://www.w3.org/Graphics/SVG/1.1/DTD/svg11.dtd">
<!-- Creator: CorelDRAW 2018 (64 Bit Versão de avaliação) -->
<svg xmlns="http://www.w3.org/2000/svg" xml:space="preserve" width="57.5959mm" height="34.4376mm" version="1.1" style="shape-rendering:geometricPrecision; text-rendering:geometricPrecision; image-rendering:optimizeQuality; fill-rule:evenodd; clip-rule:evenodd"
viewBox="0 0 2334.97 1396.12"
 xmlns:xlink="http://www.w3.org/1999/xlink">
 <defs>
  <style type="text/css">
   <![CDATA[
    .str0 {stroke:#D03438;stroke-width:8.11;stroke-miterlimit:22.9256}
    .fil1 {fill:#FEFEFE}
    .fil0 {fill:#D03438}
   ]]>
  </style>
 </defs>
 <g id="Camada_x0020_1">
  <metadata id="CorelCorpID_0Corel-Layer"/>
  <g id="_2661411394224">
   <rect class="fil0 str0" x="4.06" y="4.05" width="2326.86" height="1388.01" rx="50.35" ry="35.04"/>
   <path class="fil1" d="M743.53 504.74c4.96,-12.82 4.86,-20.37 12.88,-36.91 6.32,-13.06 55.01,-63.71 68.95,-79.65 2.38,-2.46 1.57,-1.12 2.92,-4.21 -6.93,1.8 -16.8,6.73 -23.94,9.36 -24.92,9.17 -60.06,14.59 -87.9,14.59 -20.52,0 -22.2,-0.08 -40.98,12.4l-19.23 14.25c-1.75,1.41 -1.96,2.18 -3.66,3.58l-14.77 13.25c-6.1,6.09 -22.05,22.58 -26.54,28.63 -1.71,2.31 -1.34,1.47 -3.04,3.29l-7.65 9.54c-0.92,1.09 -0.52,0.49 -1.67,1.94 -2.04,2.57 -4.03,5.98 -6.36,8.04 -14.68,3.04 -50.05,-5.64 -62.45,-10.77 -30.75,-12.71 -46.81,-12.26 -79.54,-12.26 -18.24,0 -43.37,3.05 -59.46,8.23 19.09,2.91 30.21,2.25 51.94,7 15.9,3.47 30.33,8.98 42.75,16.05 5.91,3.36 11.3,7.95 16.82,12.12l16.92 12.93c9.7,7.31 18.64,15.27 28.89,21.75 1.28,0.81 0.43,0.03 2.19,1.43 0.21,0.17 0.79,0.68 0.97,0.86 1.28,1.24 0.2,-0.18 1.3,1.52 -3.81,4.29 -17.45,9.96 -26.7,20.45 -2.01,2.28 -4.22,3.36 -6.18,5.58 -22.81,25.85 -30.59,57.43 -36.28,93.01 -9.11,56.96 -4.78,83.86 -8.06,133.31 -1.19,17.98 -2.22,26.21 -16.22,36.9l-9.24 8.85c-12.99,11.23 -20.61,26.49 -28.44,42.14 -10.54,21.07 -17.44,48.59 -20.91,74.01 -3.85,28.3 -3.33,58.97 -6.25,87.79 -2.05,20.22 -4.76,40.52 -10.61,59.97 -1.6,5.31 -6.09,13.84 -6.69,17.96 10.38,10.46 9.28,11.79 23.53,22.34 17.58,13.01 38.21,20.39 62.38,20.39 6.79,0 12.59,-1.71 18.45,-1.97 7.63,-0.35 47.06,25.02 108.12,-3.08 11.91,-5.48 35.12,-1.54 35.12,-37.03 0,-20.44 -20.23,-50.42 -32.56,-67.62 -4.11,-5.73 -8.42,-9.9 -13.7,-14.32 -3.51,-2.94 -6.24,-6.05 -11.41,-7.78 -5.73,0.38 -30.44,19.87 -66.29,18.56 1.87,-3.69 3.94,-3.43 7.92,-5.31 3.05,-1.45 5.56,-2.61 8.58,-4.12 15.84,-7.93 34.43,-17.61 47.78,-27.76 0.55,-9.22 0.9,-18.02 1.26,-27.34 0.38,-9.98 3.23,-13.5 7.98,-20.76 5.69,-8.68 13.07,-15.88 19.42,-24l16.12 -19.15c1.78,-2.41 1.69,-1.78 3.51,-3.73 1.37,-1.48 1.84,-2.75 3.04,-4.19 1.35,-1.63 2.32,-1.93 3.7,-3.54 1.52,-1.77 1.41,-2.46 3.03,-4.19 1.74,-1.85 2.12,-1.54 3.72,-3.53 1.67,-2.09 1.19,-2.25 3.1,-4.13l10.56 -11.13c3.01,-2.78 3.97,-5.47 6.51,-7.96 10.8,-10.57 21.15,-21.9 32.76,-31.45l10.86 -10.85c2.23,-2.82 3.92,-5.3 6.11,-8.38 26.22,-36.83 31.04,-90.5 29.52,-136.9l-4.05 -61.63c3.7,3.36 5.98,21.43 6.91,26.22 8.52,43.83 16.37,90.88 6.77,135.14 31.62,0 62.9,7.11 87.2,21.37 3.41,2.01 4.89,3 8.12,5.45 2.96,2.24 5.04,4.17 7.42,6.15l46.71 34.69c10.35,7.56 21.36,14.09 32.44,21.81 21.26,14.82 44.72,28.15 67.83,40.75 15.84,8.63 23.11,11.54 43.6,11.54 22.18,0 115.19,-9.24 133.09,-16.3l-2.5 -1.22c-17.57,-6.26 -107.63,-24.56 -111.53,-28.63 -4.39,-4.57 -5.93,-51.86 -5.93,-61.5 0,-60.39 16.34,-112.76 50.98,-157.46l12.96 -14.17c2.09,-2.14 6.57,-7.36 8.91,-9.19l9.97 -8.1c1.67,-1.4 3.26,-2.59 5.07,-3.96 2.27,-1.71 3.59,-3.09 6.69,-3.46 -2.47,4.59 -7.2,8.34 -10.45,12.35 -51.39,63.5 -76.97,141.17 -54.76,222.86 1.45,5.33 1.32,4.77 6.47,6.21 33.26,9.31 66.35,20.1 99.34,30l158.36 48.92c-11.7,0.64 -57.26,-11.98 -64.33,-10.91 -1.9,0.29 -0.92,0.02 -2.05,0.72 8.07,4.16 51.52,40.2 60.22,48.34 -5.55,-1.48 -60.62,-40.24 -68.17,-45.41 -2.76,-1.89 -4.35,-4.19 -8.59,-3.44 -4.34,0.76 -14.73,4.63 -19.07,6.36 -10.24,4.1 -20.66,8.7 -27.92,16.41 -1.71,1.81 -2.01,1.37 -2.01,5.01 0,23.55 4.14,65.94 19.17,83.73 3.66,4.33 5.49,6.8 9.81,10.97 10.65,10.26 22.86,19.16 35.89,26.52 14.12,7.97 4.39,-1.89 16.36,14.38l4.78 6.08c5.97,7.21 14.94,13.78 23.3,18.3 19.01,10.3 40.07,13.06 61.76,12.08 3.46,-10.99 31.84,-66.88 39.19,-82.76 2.68,-5.78 5.99,-6.19 11.81,-8.95l27.43 -13.34c9.87,-4.93 15.49,-10.22 23.22,-17.47 2.11,-1.98 1.95,-3 4.64,-5.29 3.69,-3.14 2.65,-2.14 5.26,-5.59 21.99,-29.09 35.65,-59.46 12.85,-94.7 -7.83,-12.11 -11.36,-11.61 -17.92,-19.15l-117.17 -105.32c-2.89,-3.31 -3.48,-3.19 -6.79,-5.85 -2.7,-2.17 -3.5,-4.14 -6.36,-6.31l-32.63 -29.85c5.18,0.79 28.82,15.43 34.72,18.71l43.18 24.71c5.01,2.8 4.78,2.04 8.74,-1.08 9.73,-7.67 21.39,-15.38 32.71,-21.6 4.48,-2.46 15.35,-6.4 17.88,-8.94 -3.43,-8.43 -38.48,-94.25 -39.61,-101.38 4.07,2.21 19.75,32.35 22.17,36.79l42.45 75.12c12.26,20.46 23.64,32.69 36.82,50.92l9.47 12.23c10.43,12.92 19.1,22.35 38.15,28.78 26.67,9 103.91,7.49 139.56,7.2 8.84,-0.07 14.17,4.18 21.26,8.31 15.77,9.18 30.99,17.82 45.6,27.66l8.32 6.16c5.52,5.23 7.44,11.63 19.69,8.27 22.99,-6.3 44.83,-24.78 63.34,-38.89 5.4,-4.11 10.91,-9.15 16.99,-12.86 6.46,-3.96 15.62,-4.68 9.58,-16.38l-6.51 -8.85c-4.42,-5.06 -10.39,-9.13 -17.27,-11.7l-42.66 -16.13c-6.19,-2.34 -17.65,-4.53 -19.66,-10.34 13.84,-8.96 99.48,29.68 115.84,29.68 16.11,0 22.3,-9.32 27.56,-22.93 2.21,-5.7 17.79,-20.51 20.53,-26.29 12.06,-25.4 -2.66,-34.38 -0.85,-45.09 4.13,-24.36 5.41,-57.66 -10.49,-78.76 -2.97,-3.94 -5.43,-4.87 -9.1,-8.26l12.82 -13.58c2.58,-2.58 2.31,-1.58 4.48,-4.57l14.79 -21.4c9.48,-15.11 16.08,-32.51 21.68,-50.68 21.11,-68.6 18.72,-147.88 11.32,-219.21 -4.64,8.95 -9.24,23.22 -13.62,33.34 -17.48,40.33 -36.04,70.8 -61.88,103.61l-26.19 26.27c-12.53,9.96 -24.86,18.65 -39.92,25.21 -9.45,4.12 -27.32,10.48 -38.67,8.46 -0.76,-3.77 5.26,-43.09 6.12,-51.11 1.69,-15.64 3.97,-38.76 2.13,-54.31 -0.18,-0.08 -0.51,-0.31 -0.59,-0.11l-22.56 16.36c-7.61,5.44 -15.81,11.12 -24.53,16.18 -15.45,8.97 -40.52,22.46 -62.27,19.76l-26.36 -30.36c-3.81,-5.53 -9.25,-9.62 -13.42,-14.63 -2.99,-3.59 -2.98,-4.56 -6.71,-7.74 -5.16,-4.41 -8.31,-10.13 -13.46,-14.57 -3.79,-3.27 -4.05,-3.94 -7.19,-7.28l-11.83 -9.88c-1.79,-1.39 -2.21,-1.83 -4.02,-3.2 -12.97,-9.83 -22.26,-13.68 -35.12,-21.68 6.88,-26.89 23.76,-64.11 22.54,-93.17 -19.31,4.13 -47.1,21.85 -63.25,33.09l-21.74 17.16c-7.28,5.86 -12.48,13.03 -19.84,19.04l-14.82 17.74c-13.82,18.29 -25.36,38.23 -33.02,60.15 -0.89,2.55 -1.5,4.94 -3.26,6.86 -1.08,-13.66 16.36,-76.06 26.19,-93.41 1.54,-2.71 2.01,-2.85 3.07,-5.69l-30.36 -25.51c-5.39,-4.38 -10.26,-8.19 -15.6,-12.44l-24.39 -18.11c-59.12,-44.32 -154.82,-97.27 -228.32,-97.27 -60.6,0 -69.68,13.61 -112.85,39.1 -10.35,6.11 -19.88,12 -29.91,18.04 -76.88,46.23 -163.04,91.5 -233.53,144.48l-56.64 49.18c-5,4.41 -11.94,14.16 -15.66,19.61 -5.79,8.46 -10.23,17.73 -14.36,27.15 -2.08,4.73 0.36,2.41 -2.83,3.65zm902.61 23.8c-3.51,-3.32 -6.96,-1.25 -7.86,2.95 -1.8,9.82 -3.6,19.64 -5.4,29.46 -0.31,4.72 2.93,8.04 8.84,10.31 16.37,7.37 32.74,14.73 49.11,22.1 5,2.32 9.82,-2.96 5.89,-9.33 -16.86,-18.49 -33.72,-36.99 -50.58,-55.49zm-459.74 423.35c-22.07,3.15 -60.54,5.74 -88.37,13.37 -19.24,9.87 -88.43,67.82 -103.16,111.36 -4.31,12.45 -4.53,24.88 -0.98,37.33 42.3,51.83 99.12,64.92 161.07,64.33 42.31,-2.98 93.41,-9.96 64.82,-63.84 -47.1,-26.37 -37.59,-110.09 -25.53,-154.2 0.28,-5.7 -2.25,-8.56 -7.86,-8.35zm-524.24 -44.31c31.1,-21.45 54.84,-54.43 74.15,-84.22 77.68,5.53 123.14,62 189.07,110.98 -21.12,7.53 -57.12,19.99 -95.27,19.65 6.71,77.91 -24.72,122.1 -58.93,192.51 -5.82,5.97 -15.62,7.95 -29.96,5.4 -62.66,-14.39 -103.65,-52.06 -113.93,-122.77 -0.8,-9 3.04,-13.97 10.8,-16.21 12.6,-3.77 26.19,-4.09 37.82,-11.29 6.59,-4.95 12.86,-11.45 10.31,-19.15 -9.17,-25.7 -29.63,-48.21 -24.06,-74.89zm994.67 -495.99c29,-10.16 56.12,-25.04 82.5,-41.74 6.3,-1.98 8.93,-0.79 7.37,4.42 -9.27,30.01 -21.01,59.7 -40.76,88.39 -19.68,-22.51 -35.34,-38.38 -49.11,-51.07z"/>
  </g>
 </g>
</svg>
