<?xml version="1.0" encoding="UTF-8"?>
<!DOCTYPE svg PUBLIC "-//W3C//DTD SVG 1.1//EN" "http://www.w3.org/Graphics/SVG/1.1/DTD/svg11.dtd">
<!-- Creator: CorelDRAW 2018 (64 Bit Versão de avaliação) -->
<svg xmlns="http://www.w3.org/2000/svg" xml:space="preserve" width="57.5764mm" height="74.7278mm" version="1.1" style="shape-rendering:geometricPrecision; text-rendering:geometricPrecision; image-rendering:optimizeQuality; fill-rule:evenodd; clip-rule:evenodd"
viewBox="0 0 2333.39 3028.49"
 xmlns:xlink="http://www.w3.org/1999/xlink">
 <defs>
  <style type="text/css">
   <![CDATA[
    .str0 {stroke:#D03438;stroke-width:8.11;stroke-miterlimit:22.9256}
    .fil1 {fill:#FEFEFE}
    .fil0 {fill:#D03438}
   ]]>
  </style>
 </defs>
 <g id="Camada_x0020_1">
  <metadata id="CorelCorpID_0Corel-Layer"/>
  <g id="_2661411396144">
   <rect class="fil0 str0" x="4.05" y="4.05" width="2325.29" height="3020.38" rx="50.31" ry="76.24"/>
   <path class="fil1" d="M743.03 1321.06c4.96,-12.81 4.86,-20.35 12.87,-36.89 6.32,-13.05 54.97,-63.66 68.9,-79.6 2.37,-2.46 1.57,-1.11 2.92,-4.21 -6.93,1.8 -16.79,6.73 -23.93,9.35 -24.91,9.16 -60.02,14.59 -87.84,14.59 -20.5,0 -22.19,-0.08 -40.95,12.39l-19.22 14.24c-1.75,1.41 -1.96,2.18 -3.66,3.57l-14.76 13.24c-6.1,6.08 -22.04,22.56 -26.52,28.61 -1.71,2.31 -1.34,1.48 -3.04,3.29l-7.64 9.53c-0.92,1.09 -0.52,0.49 -1.67,1.94 -2.03,2.56 -4.03,5.97 -6.36,8.04 -14.67,3.04 -50.02,-5.64 -62.41,-10.76 -30.73,-12.71 -46.78,-12.26 -79.49,-12.26 -18.22,0 -43.34,3.05 -59.42,8.23 19.08,2.91 30.19,2.25 51.91,6.99 15.89,3.47 30.31,8.98 42.72,16.04 5.9,3.36 11.29,7.95 16.81,12.11l16.91 12.93c9.69,7.3 18.62,15.25 28.87,21.73 1.28,0.81 0.43,0.03 2.19,1.43 0.21,0.17 0.79,0.67 0.97,0.85 1.28,1.24 0.2,-0.18 1.3,1.52 -3.81,4.28 -17.43,9.95 -26.67,20.43 -2.01,2.28 -4.23,3.36 -6.18,5.57 -22.8,25.84 -30.57,57.39 -36.26,92.95 -9.11,56.92 -4.77,83.81 -8.05,133.22 -1.19,17.97 -2.21,26.2 -16.21,36.88l-9.23 8.85c-12.98,11.22 -20.59,26.47 -28.43,42.12 -10.54,21.05 -17.43,48.56 -20.89,73.96 -3.85,28.28 -3.33,58.93 -6.25,87.73 -2.04,20.21 -4.76,40.49 -10.6,59.92 -1.6,5.31 -6.09,13.84 -6.69,17.96 10.38,10.44 9.28,11.79 23.51,22.32 17.56,13.01 38.18,20.38 62.34,20.38 6.78,0 12.58,-1.71 18.43,-1.97 7.62,-0.35 47.02,25 108.04,-3.08 11.91,-5.48 35.1,-1.54 35.1,-37.01 0,-20.42 -20.22,-50.39 -32.54,-67.57 -4.11,-5.73 -8.42,-9.89 -13.69,-14.31 -3.51,-2.94 -6.23,-6.05 -11.4,-7.78 -5.73,0.38 -30.42,19.86 -66.25,18.55 1.87,-3.69 3.94,-3.43 7.91,-5.31 3.05,-1.45 5.56,-2.61 8.57,-4.12 15.83,-7.93 34.4,-17.59 47.74,-27.74 0.55,-9.22 0.9,-18.01 1.26,-27.32 0.38,-9.97 3.22,-13.49 7.98,-20.75 5.69,-8.67 13.06,-15.87 19.41,-23.98l16.11 -19.14c1.78,-2.41 1.69,-1.77 3.51,-3.73 1.37,-1.48 1.84,-2.75 3.04,-4.19 1.35,-1.63 2.32,-1.93 3.7,-3.54 1.52,-1.77 1.41,-2.46 3.03,-4.19 1.74,-1.85 2.12,-1.53 3.71,-3.53 1.67,-2.09 1.19,-2.25 3.1,-4.13l10.56 -11.12c3.01,-2.78 3.96,-5.47 6.5,-7.96 10.79,-10.56 21.14,-21.89 32.75,-31.42l10.84 -10.84c2.22,-2.82 3.92,-5.3 6.1,-8.37 26.2,-36.8 31.02,-90.44 29.5,-136.81l-4.04 -61.58c3.7,3.35 5.98,21.42 6.9,26.2 8.51,43.8 16.36,90.82 6.76,135.05 31.59,0 62.86,7.1 87.14,21.36 3.41,2.01 4.89,2.99 8.12,5.45 2.95,2.24 5.03,4.16 7.41,6.14l46.68 34.66c10.35,7.55 21.34,14.08 32.42,21.8 21.25,14.81 44.69,28.13 67.78,40.72 15.83,8.63 23.1,11.54 43.57,11.54 22.16,0 115.11,-9.23 133,-16.29l-2.5 -1.22c-17.55,-6.27 -107.55,-24.54 -111.46,-28.61 -4.39,-4.56 -5.92,-51.83 -5.92,-61.45 0,-60.34 16.33,-112.69 50.94,-157.35l12.95 -14.16c2.09,-2.14 6.57,-7.36 8.91,-9.19l9.97 -8.09c1.67,-1.4 3.25,-2.59 5.07,-3.96 2.27,-1.71 3.59,-3.08 6.68,-3.46 -2.47,4.59 -7.19,8.33 -10.44,12.35 -51.35,63.45 -76.92,141.07 -54.72,222.71 1.44,5.32 1.32,4.77 6.46,6.2 33.24,9.31 66.31,20.09 99.28,29.98l158.25 48.88c-11.69,0.64 -57.22,-11.97 -64.29,-10.89 -1.89,0.29 -0.91,0.02 -2.05,0.72 8.06,4.16 51.48,40.18 60.18,48.3 -5.55,-1.48 -60.58,-40.21 -68.13,-45.38 -2.76,-1.89 -4.34,-4.19 -8.58,-3.44 -4.34,0.76 -14.72,4.62 -19.06,6.36 -10.23,4.1 -20.65,8.69 -27.91,16.4 -1.71,1.81 -2.01,1.37 -2.01,5.01 0,23.53 4.14,65.9 19.16,83.68 3.66,4.33 5.48,6.79 9.81,10.96 10.64,10.25 22.85,19.15 35.87,26.5 14.11,7.97 4.39,-1.88 16.35,14.37l4.77 6.07c5.97,7.21 14.93,13.77 23.28,18.29 19,10.29 40.04,13.05 61.72,12.07 3.46,-10.99 31.82,-66.83 39.17,-82.71 2.67,-5.78 5.99,-6.18 11.81,-8.94l27.41 -13.33c9.86,-4.93 15.49,-10.22 23.21,-17.46 2.11,-1.98 1.95,-3 4.64,-5.29 3.68,-3.13 2.64,-2.14 5.25,-5.58 21.97,-29.07 35.63,-59.41 12.84,-94.64 -7.83,-12.09 -11.35,-11.6 -17.91,-19.13l-117.09 -105.24c-2.89,-3.3 -3.48,-3.19 -6.79,-5.85 -2.71,-2.18 -3.5,-4.14 -6.36,-6.31l-32.6 -29.83c5.18,0.79 28.81,15.42 34.7,18.71l43.14 24.68c5.01,2.8 4.78,2.03 8.74,-1.08 9.72,-7.66 21.38,-15.37 32.69,-21.59 4.47,-2.46 15.34,-6.4 17.86,-8.94 -3.43,-8.42 -38.45,-94.18 -39.58,-101.31 4.06,2.21 19.74,32.32 22.16,36.76l42.43 75.06c12.24,20.45 23.62,32.67 36.79,50.89l9.47 12.22c10.42,12.91 19.09,22.33 38.13,28.76 26.64,8.99 103.84,7.48 139.47,7.2 8.83,-0.07 14.16,4.18 21.25,8.31 15.76,9.18 30.96,17.81 45.56,27.64l8.32 6.16c5.52,5.23 7.44,11.63 19.68,8.28 22.97,-6.3 44.79,-24.77 63.29,-38.87 5.39,-4.11 10.91,-9.15 16.98,-12.86 6.45,-3.95 15.61,-4.68 9.57,-16.36l-6.5 -8.84c-4.42,-5.05 -10.38,-9.12 -17.26,-11.69l-42.63 -16.11c-6.18,-2.33 -17.64,-4.53 -19.65,-10.33 13.84,-8.96 99.42,29.67 115.76,29.67 16.11,0 22.29,-9.32 27.54,-22.91 2.2,-5.69 17.78,-20.5 20.51,-26.27 12.06,-25.38 -2.66,-34.35 -0.85,-45.05 4.13,-24.34 5.41,-57.62 -10.48,-78.71 -2.97,-3.94 -5.43,-4.87 -9.1,-8.26l12.81 -13.56c2.58,-2.58 2.31,-1.58 4.47,-4.57l14.78 -21.39c9.48,-15.09 16.07,-32.48 21.67,-50.64 21.1,-68.56 18.71,-147.77 11.31,-219.06 -4.64,8.95 -9.23,23.21 -13.62,33.32 -17.46,40.31 -36.02,70.76 -61.83,103.54l-26.17 26.25c-12.52,9.96 -24.85,18.63 -39.89,25.2 -9.44,4.11 -27.3,10.47 -38.64,8.45 -0.76,-3.77 5.26,-43.07 6.12,-51.08 1.68,-15.63 3.96,-38.74 2.12,-54.27 -0.18,-0.08 -0.51,-0.31 -0.59,-0.11l-22.54 16.34c-7.61,5.44 -15.8,11.12 -24.51,16.17 -15.44,8.96 -40.5,22.44 -62.22,19.75l-26.35 -30.33c-3.81,-5.52 -9.24,-9.62 -13.41,-14.62 -2.99,-3.59 -2.98,-4.56 -6.71,-7.74 -5.16,-4.41 -8.3,-10.12 -13.45,-14.56 -3.79,-3.26 -4.04,-3.93 -7.18,-7.28l-11.83 -9.87c-1.79,-1.39 -2.2,-1.83 -4.02,-3.2 -12.96,-9.82 -22.25,-13.67 -35.1,-21.66 6.87,-26.88 23.75,-64.07 22.53,-93.11 -19.3,4.13 -47.08,21.84 -63.21,33.07l-21.73 17.14c-7.27,5.86 -12.47,13.02 -19.83,19.03l-14.8 17.73c-13.81,18.28 -25.35,38.21 -33,60.11 -0.89,2.55 -1.5,4.94 -3.26,6.85 -1.08,-13.65 16.35,-76.01 26.17,-93.35 1.54,-2.71 2.01,-2.85 3.07,-5.69l-30.34 -25.49c-5.38,-4.38 -10.26,-8.18 -15.59,-12.43l-24.38 -18.1c-59.08,-44.29 -154.72,-97.2 -228.17,-97.2 -60.56,0 -69.63,13.6 -112.78,39.07 -10.34,6.1 -19.86,12 -29.9,18.03 -76.82,46.2 -162.93,91.44 -233.37,144.39l-56.6 49.14c-5,4.41 -11.94,14.16 -15.66,19.6 -5.78,8.46 -10.23,17.72 -14.35,27.13 -2.07,4.73 0.36,2.41 -2.83,3.65zm902 23.79c-3.51,-3.32 -6.95,-1.26 -7.85,2.94 -1.8,9.82 -3.59,19.63 -5.39,29.44 -0.31,4.73 2.93,8.04 8.83,10.31 16.36,7.36 32.71,14.72 49.07,22.08 4.99,2.32 9.82,-2.95 5.89,-9.33 -16.85,-18.48 -33.7,-36.96 -50.55,-55.45zm-459.43 423.06c-22.06,3.14 -60.5,5.73 -88.31,13.36 -19.23,9.86 -88.37,67.78 -103.09,111.29 -4.3,12.43 -4.52,24.86 -0.98,37.3 42.27,51.79 99.05,64.88 160.96,64.29 42.28,-2.98 93.34,-9.96 64.78,-63.8 -47.06,-26.35 -37.56,-110.02 -25.52,-154.1 0.28,-5.69 -2.25,-8.55 -7.85,-8.34zm-523.88 -44.28c31.08,-21.43 54.8,-54.39 74.1,-84.16 77.63,5.53 123.05,61.96 188.94,110.91 -21.1,7.53 -57.08,19.97 -95.21,19.63 6.71,77.86 -24.7,122.01 -58.89,192.37 -5.81,5.97 -15.61,7.94 -29.93,5.4 -62.61,-14.38 -103.59,-52.03 -113.86,-122.69 -0.81,-8.99 3.04,-13.96 10.8,-16.19 12.6,-3.76 26.17,-4.09 37.79,-11.29 6.59,-4.94 12.86,-11.44 10.31,-19.14 -9.16,-25.69 -29.61,-48.18 -24.05,-74.85zm994 -495.65c28.98,-10.15 56.08,-25.02 82.45,-41.71 6.3,-1.98 8.92,-0.79 7.36,4.42 -9.26,29.99 -21,59.66 -40.74,88.34 -19.66,-22.49 -35.32,-38.35 -49.07,-51.04z"/>
  </g>
 </g>
</svg>
