<svg width="45" height="18" viewBox="0 0 45 18" fill="none" xmlns="http://www.w3.org/2000/svg">
<g clip-path="url(#clip0_249_106)">
<path d="M17.4163 14.9828C13.7001 14.6429 11.6166 14.8029 7.90039 14.9828C11.0538 14.2929 12.9213 13.8997 16.8653 14.0158C19.5198 14.1834 20.0246 14.2253 21.9488 14.8023C23.3011 15.3181 24.478 15.7951 23.7142 17.149C23.2903 17.6465 23.0256 17.9355 21.9488 17.9355C22.6124 17.4842 23.251 16.3694 21.5231 15.7951C20.195 15.3537 19.2958 15.1773 17.4163 14.9828Z" fill="#D03438"/>
<path d="M18.231 13.1333C13.744 13.5248 11.2822 14.0057 6.91211 14.9643C11.4294 13.4252 13.9701 12.697 18.5315 11.9084C20.1592 11.6982 21.0363 11.648 22.5256 11.7021C26.2163 11.6433 27.9116 12.0605 29.9881 13.9456C30.6051 14.7732 30.7907 15.2781 30.8144 16.2537C30.5237 17.0969 30.3687 17.3878 29.2118 17.917C28.3501 18.0119 27.4839 18.0588 26.7827 17.6204C27.9221 17.5689 28.4748 17.3176 28.8236 16.9113C29.5874 16.0216 29.0866 14.7838 28.2978 14.1906C27.6805 13.7264 27.1208 13.4934 26.0941 13.2365C24.8325 12.9208 23.5899 12.9915 22.2001 12.927C20.5469 12.9428 19.6964 12.9996 18.231 13.1333Z" fill="#2C1A53"/>
<path d="M24.4654 10.6246C18.4804 9.70915 12.1202 11.1453 6.34766 14.841C12.9093 10.5922 16.2216 7.90786 23.9144 8.98709C31.6073 10.0663 37.5497 9.37391 39.0897 8.65185C40.6298 7.92978 42.5623 3.17822 34.9829 1.76646C33.4338 1.78281 32.1632 2.02586 31.1765 4.60314C30.1771 2.40461 31.4896 0.0128776 33.8059 0.0128784C36.1223 0.0128793 42.9462 2.50142 44.5363 6.27935C46.1265 10.0573 43.447 12.5845 39.0897 12.8295C34.7325 13.0745 30.4503 11.5401 24.4654 10.6246Z" fill="#D03438"/>
<path d="M22.0495 7.41405C19.8224 7.25058 18.8412 7.49613 17.4043 8.32952C18.2818 7.06839 18.8383 6.74052 19.8959 6.53726C21.1692 6.33369 21.503 6.48519 22.8133 6.35674C24.1236 6.22829 25.8296 5.1444 24.9293 3.62322C24.1594 2.44363 23.2576 1.88274 21.0729 1.00574C23.1419 1.31665 23.8025 1.27651 25.9686 2.75932C28.1347 4.24213 27.2582 7.0917 25.355 7.41405C23.4519 7.7364 22.0495 7.41405 22.0495 7.41405Z" fill="#1A1756"/>
<path d="M10.7549 9.15475C6.85149 9.99394 5.69596 11.2082 5.70903 14.8668C4.95913 12.0692 5.17064 9.86392 7.58716 8.89687C10.0037 7.92982 14.0104 6.60174 14.674 5.47996C15.3376 4.35818 14.9369 3.84243 14.5738 3.45561C14.2107 3.06879 13.1719 2.33678 11.4561 1.80518C11.4561 1.80518 17.8216 2.30194 16.9027 6.15045C16.0944 7.62364 14.7757 8.28657 10.7549 9.15475Z" fill="#D03438"/>
<path d="M4.24456 10.7407C4.08722 12.0227 4.30676 12.6334 4.70783 13.7192C3.4934 12.388 3.20532 10.8954 3.51835 10.2765C3.83137 9.65759 2.80466 9.15472 2.12853 9.15472C1.4524 9.15472 -0.0612383 9.86389 0.0250218 9.65759C0.111282 9.45128 0.688628 8.79369 1.82803 8.53581C2.96743 8.27793 4.88843 9.27732 4.24456 10.7407Z" fill="white"/>
</g>
<defs>
<clipPath id="clip0_249_106">
<rect width="45" height="18" fill="white"/>
</clipPath>
</defs>
</svg>
