<svg width="34" height="22" viewBox="0 0 34 22" fill="none" xmlns="http://www.w3.org/2000/svg">
<path d="M15.1487 21.3719C15.9266 16.8735 16.1138 14.2717 16.4836 7.73077H16.1138C15.654 12.8213 15.0954 16.467 13.3516 21.3719H15.1487Z" fill="#1A1756"/>
<path d="M2.67886 21.3719C8.64543 15.8766 11.0086 14.7823 13.268 7.73077H12.4157C11.207 13.445 6.28225 17.0923 0 21.3719H2.67886Z" fill="#D03438"/>
<path d="M15.7262 7.73077C15.0852 14.7182 13.0163 17.634 11.1165 21.3719H9.19531C12.9643 15.8992 14.6253 12.8213 15.0852 7.73077H15.7262Z" fill="#D03438"/>
<path d="M14.5528 7.76392C14.1439 11.2167 12.7218 16.469 6.71461 21.4051L4.43262 21.3719C10.3045 16.7155 12.719 13.7515 13.9845 7.76392H14.5528Z" fill="#2C1A53"/>
<path d="M16.9431 6.2114H12.1147C12.0378 6.2114 12.0136 6.07061 12.0828 6.0254C13.6932 4.97302 15.9585 3.4239 16.7589 1.06194C16.7941 0.958117 16.9431 0.99273 16.9431 1.10701V6.2114Z" fill="#D03438"/>
<path d="M12.0596 7.5837V6.21136H16.8618C16.9117 6.21136 16.9521 6.26621 16.9521 6.33389V7.70622H12.1498C12.1 7.70622 12.0596 7.65136 12.0596 7.5837Z" fill="#D03438"/>
<path d="M18.7937 21.3719C18.0157 16.8735 17.8285 14.2717 17.4587 7.73077H17.8285C18.2884 12.8213 18.847 16.467 20.5908 21.3719H18.7937Z" fill="#2C1A53"/>
<path d="M31.2625 21.3719C25.296 15.8766 22.9328 14.7823 20.6734 7.73077H21.5257C22.7344 13.445 27.6592 17.0923 33.9414 21.3719H31.2625Z" fill="#D03438"/>
<path d="M18.2162 7.73077C18.8572 14.7182 20.926 17.634 22.8259 21.3719H24.7471C20.9781 15.8992 19.3171 12.8213 18.8572 7.73077H18.2162Z" fill="#D03438"/>
<path d="M19.3896 7.76392C19.7985 11.2167 21.2206 16.469 27.2278 21.4051L29.5098 21.3719C23.6379 16.7155 21.2233 13.7515 19.9578 7.76392H19.3896Z" fill="#2C1A53"/>
<path d="M16.9983 6.2114H21.8267C21.9036 6.2114 21.9278 6.07061 21.8586 6.0254C20.2483 4.97302 17.9829 3.4239 17.1825 1.06194C17.1473 0.958117 16.9983 0.99273 16.9983 1.10701V6.2114Z" fill="#D03438"/>
<path d="M21.8818 7.5837V6.21136H17.0796C17.0297 6.21136 16.9893 6.26621 16.9893 6.33389V7.70622H21.7916C21.8414 7.70622 21.8818 7.65136 21.8818 7.5837Z" fill="#D03438"/>
<path d="M17.0078 1.56572C17.0078 1.54667 16.9991 1.53135 16.9991 1.51221C16.9991 1.49833 16.9991 1.48446 16.9991 1.47058" stroke="#D03438" stroke-width="0.610837" stroke-linecap="round"/>
<path d="M17.1043 7.17544C17.1063 7.14913 17.0952 7.13986 17.0789 7.12566C17.0669 7.11527 17.0564 7.10173 17.0423 7.09682C17.0187 7.08856 16.9934 7.08461 16.9693 7.07882C16.9479 7.07371 16.9257 7.058 16.9046 7.05641C16.885 7.05494 16.9271 7.02568 16.9289 7.02482C16.9726 7.00412 17.0189 6.99943 17.0643 6.98955C17.1 6.98176 17.1354 6.97421 17.1717 6.97375C17.1771 6.97369 17.1971 6.97136 17.1832 6.98257C17.1678 6.99501 17.1501 7.00294 17.134 7.01343C17.1013 7.03465 17.0692 7.05728 17.0365 7.07827C17.0059 7.09792 16.972 7.11291 16.9433 7.1376C16.9256 7.15279 16.9788 7.15372 16.9828 7.15413C16.9908 7.15494 17.1056 7.16764 17.099 7.18389C17.0928 7.19942 17.0609 7.19868 17.0513 7.20042C17.0187 7.20633 16.9848 7.20319 16.9525 7.21107C16.9142 7.22042 17.03 7.22173 17.0689 7.22173C17.0857 7.22173 17.0356 7.22859 17.0188 7.23091C17.0005 7.23344 16.9822 7.23576 16.9639 7.23752C16.9596 7.23793 16.952 7.23997 16.9476 7.23826C16.9449 7.2372 16.9529 7.23568 16.9556 7.2344C16.9704 7.22728 16.9851 7.22206 17.0007 7.21897C17.0146 7.2162 17.0285 7.21511 17.0425 7.21511C17.0551 7.21511 17.0383 7.21511 17.0369 7.21511C17.0076 7.21511 16.9783 7.21511 16.949 7.21511C16.9449 7.21511 16.9349 7.21511 16.946 7.21511C16.96 7.21511 16.974 7.21497 16.9879 7.21585C17.0076 7.21709 17.0322 7.21301 17.0513 7.22026C17.0629 7.22468 17.0131 7.24232 17.0101 7.24322C16.9887 7.24971 16.9639 7.25037 16.9433 7.26067C16.9299 7.26735 16.9713 7.25166 16.9855 7.25148C16.9931 7.25139 17.0158 7.25053 17.0082 7.25167C16.9906 7.25433 16.9713 7.25939 16.9549 7.26912C16.9411 7.27731 16.9847 7.26283 16.9996 7.25956C17.0047 7.25845 17.0202 7.2581 17.015 7.2581C17.0087 7.2581 17.0024 7.25818 16.9961 7.25883C16.9914 7.25932 16.9634 7.26956 16.9775 7.26287C16.9801 7.26164 16.9952 7.25702 16.9906 7.25846C16.9884 7.25917 16.9746 7.26963 16.9768 7.27059C16.9865 7.27462 17.0007 7.26607 17.0088 7.25956C17.0118 7.25715 16.9933 7.26391 16.9898 7.26508C16.9871 7.26599 16.9597 7.27786 16.9756 7.27426C16.9825 7.2727 16.9961 7.26801 16.9961 7.26801C16.9961 7.26801 16.9867 7.2697 16.989 7.27059C16.998 7.274 17.0255 7.25683 16.9958 7.27132C16.9651 7.28628 16.9897 7.26949 17.0039 7.26801C17.0088 7.2675 16.9729 7.27793 16.99 7.27793C17.0155 7.27793 16.9889 7.28569 17.0063 7.27867C17.0114 7.27663 16.9996 7.28224 16.9985 7.28289C16.9872 7.28944 17.0026 7.2856 17.0066 7.28289C17.0249 7.27049 16.9937 7.29111 17.0007 7.28638C17.0037 7.28433 17.0134 7.28016 17.0101 7.28142C17.0056 7.2832 16.9919 7.28882 16.9966 7.28767C17.0013 7.28651 17.014 7.27998 17.0107 7.28455C17.009 7.28679 17.0028 7.28785 17.0093 7.28785" stroke="#D03438" stroke-width="0.610837" stroke-linecap="round"/>
<path d="M17.3401 6.71583C17.3179 6.7067 17.2953 6.7004 17.2724 6.69526C17.1807 6.67463 17.0878 6.66324 16.9949 6.65907C16.8964 6.65466 16.7972 6.66003 16.6995 6.63979C16.682 6.63616 16.6338 6.6326 16.6213 6.60838C16.6011 6.56956 16.8556 6.44524 16.8708 6.43682C16.9299 6.40413 16.9899 6.37156 17.0467 6.33193C17.0574 6.32446 17.0752 6.31427 17.0552 6.30438C17.0273 6.29055 16.9936 6.29894 16.9652 6.30401C16.8878 6.31787 16.8109 6.34028 16.7355 6.3672C16.7171 6.37375 16.6933 6.38315 16.6746 6.39071C16.6674 6.39361 16.6541 6.39691 16.6471 6.40302C16.638 6.41095 16.6683 6.39715 16.6786 6.39292C16.7264 6.37337 16.7727 6.34743 16.8207 6.32918C16.8279 6.32644 16.8674 6.32095 16.8713 6.30732C16.8719 6.30533 16.8483 6.32056 16.8456 6.32238" stroke="#D03438" stroke-width="0.610837" stroke-linecap="round"/>
<path d="M17.0515 5.98193C17.0603 5.87756 17.1116 5.78455 17.1462 5.69326C17.1781 5.60924 16.9381 5.59094 16.9061 5.59027C16.9058 5.59026 16.8342 5.59355 16.8427 5.5806C16.8824 5.52043 16.9476 5.47664 16.9934 5.42442C17.0317 5.38074 17.0788 5.33637 17.111 5.28371C17.1449 5.22817 17.0372 5.22996 17.0237 5.23052C16.9475 5.23367 16.8712 5.25402 16.7971 5.27694C16.7922 5.27845 16.6545 5.31619 16.7066 5.32868C16.8638 5.36633 17.0363 5.30196 17.194 5.28758C17.2063 5.28645 17.2283 5.28949 17.2039 5.30499C17.1428 5.34384 17.0695 5.35834 17.0044 5.3809C16.9743 5.39134 16.9062 5.43297 16.8741 5.42007C16.85 5.41038 16.95 5.25849 16.9531 5.25373C17.0119 5.16594 17.0739 5.08201 17.1305 4.99166C17.1508 4.9593 17.258 4.80406 17.226 4.74941C17.193 4.69307 17.0731 4.69871 17.0294 4.69815C16.8956 4.69644 16.7611 4.73184 16.6297 4.7615C16.5873 4.77106 16.4631 4.81444 16.5029 4.79244C16.5859 4.74655 16.6712 4.71247 16.7537 4.66237C16.8685 4.59253 16.9887 4.52572 17.096 4.4356C17.1293 4.40759 17.1523 4.37783 17.1056 4.35436C17.0544 4.3286 16.9963 4.32789 16.9425 4.33019C16.9082 4.33165 16.8694 4.33652 16.8356 4.34276C16.8216 4.34534 16.7273 4.38344 16.7141 4.36645C16.7114 4.36301 16.8827 4.1679 16.8919 4.15612C16.9426 4.09067 17.0247 3.98831 17.0123 3.87954C16.9928 3.7095 16.7704 3.71886 16.6838 3.73786C16.683 3.73805 16.5819 3.7849 16.63 3.7485C16.6918 3.70176 16.7462 3.63413 16.7957 3.56621C16.8073 3.55032 16.909 3.40696 16.8399 3.39842C16.836 3.39794 16.8137 3.4019 16.8171 3.41341C16.8255 3.44195 16.9009 3.34208 16.9033 3.33895C16.9502 3.27781 17.1138 3.08022 17.0361 2.97727C17.0118 2.94502 16.9753 2.93762 16.9428 2.93762C16.9249 2.93762 16.9111 2.93934 16.894 2.94536C16.8839 2.94892 16.8681 2.97429 16.8648 2.96083C16.862 2.94957 16.8976 2.90024 16.8976 2.87476C16.8976 2.84801 16.8976 2.82125 16.8976 2.79449C16.8976 2.67361 16.8932 2.55262 16.8912 2.43281C16.89 2.36518 16.9104 2.30258 16.9104 2.23457C16.9104 2.19926 16.9168 2.16717 16.9168 2.13303C16.9168 2.09176 16.9022 1.92293 16.936 1.89996" stroke="#D03438" stroke-width="0.610837" stroke-linecap="round"/>
<path d="M16.9365 1.55975C16.9478 1.54253 16.9539 1.54959 16.9672 1.54059C16.9821 1.5305 16.984 1.50145 16.9925 1.48707C16.9985 1.47683 16.9979 1.41332 16.9979 1.3992C16.9979 1.38136 16.9979 1.36352 16.9979 1.34568C16.9979 1.33266 16.9902 1.32204 16.9891 1.31C16.988 1.29839 16.9686 1.29487 16.9638 1.28027C16.9591 1.26612 16.9584 1.25493 16.9584 1.23865" stroke="#D03438" stroke-width="0.610837" stroke-linecap="round"/>
</svg>
