<svg width="60" height="20" viewBox="0 0 60 20" fill="none" xmlns="http://www.w3.org/2000/svg">
<path d="M13.6601 4.68502C14.632 3.44284 15.1759 2.4563 15.5244 0.115628C15.5473 -0.0385426 15.7348 -0.0385426 15.7577 0.115628C16.1062 2.4563 16.6501 3.44284 17.622 4.68502C17.6893 4.77109 17.644 4.92339 17.5504 4.92339H13.7316C13.6381 4.92339 13.5928 4.77109 13.6601 4.68502Z" fill="#D03438"/>
<path d="M0 19.916C8.47048 15.4149 11.4014 12.1861 13.691 4.9234H17.5658C19.5879 14.2148 27.5733 15.2284 29.9308 15.352L29.948 19.916H0Z" fill="white"/>
<path d="M29.9637 16.0967C28.4999 16.1735 26.3171 15.015 23.9707 13.7775C26.0632 15.1636 28.6747 16.6325 29.9637 17.9307V16.0967Z" fill="#D03438"/>
<path d="M17.1883 19.8932C16.3571 14.785 16.1856 11.0632 15.8105 4.9234H16.3961C16.913 10.5483 17.4669 14.4962 19.427 19.916L17.1883 19.8932Z" fill="#D03438"/>
<path d="M21.6355 19.916C19.5001 15.7856 17.0509 11.0632 16.6758 4.9234H16.9685C17.4855 10.5483 19.7929 13.8688 24.0293 19.916H21.6355Z" fill="#D03438"/>
<path d="M27.1209 19.916C20.2495 14.8956 17.7596 9.03096 17.1152 4.9234H17.3736C18.796 11.5395 22.385 14.348 29.9279 19.916H27.1209Z" fill="#D03438"/>
<path d="M14.0181 19.8932C14.8493 14.785 15.0207 11.0632 15.3958 4.9234H14.8103C14.2933 10.5483 13.7394 14.4962 11.7793 19.916L14.0181 19.8932Z" fill="#D03438"/>
<path d="M9.83129 19.916C11.9667 15.7856 14.1576 11.0632 14.5327 4.9234H14.24C13.723 10.5483 11.8634 13.8688 7.62695 19.916H9.83129Z" fill="#D03438"/>
<path d="M5.28451 19.916C11.565 13.7775 13.3292 9.03922 14.0846 4.9234H13.8263C12.4039 11.5395 9.00433 14.9869 2.23633 19.916H5.28451Z" fill="#D03438"/>
<path d="M46.3389 4.68502C45.3671 3.44284 44.8231 2.4563 44.4746 0.115628C44.4517 -0.0385426 44.2643 -0.0385426 44.2413 0.115628C43.8928 2.4563 43.3489 3.44284 42.377 4.68502C42.3097 4.77109 42.355 4.92339 42.4486 4.92339H46.2674C46.3609 4.92339 46.4063 4.77109 46.3389 4.68502Z" fill="#D03438"/>
<path d="M60 19.916C51.5295 15.4149 48.5986 12.1861 46.309 4.9234H42.4342C40.4121 14.2148 32.4267 15.2284 30.0692 15.352L30.052 19.916H60Z" fill="white"/>
<path d="M30.0363 16.0967C31.5001 16.1735 33.6829 15.015 36.0293 13.7775C33.9368 15.1636 31.3253 16.6325 30.0363 17.9307V16.0967Z" fill="#D03438"/>
<path d="M42.8117 19.8932C43.6429 14.785 43.8144 11.0632 44.1895 4.9234H43.6039C43.087 10.5483 42.5331 14.4962 40.573 19.916L42.8117 19.8932Z" fill="#D03438"/>
<path d="M38.3645 19.916C40.4999 15.7856 42.9491 11.0632 43.3242 4.9234H43.0315C42.5145 10.5483 40.2071 13.8688 35.9707 19.916H38.3645Z" fill="#D03438"/>
<path d="M32.8782 19.916C39.7495 14.8956 42.2395 9.03096 42.8838 4.9234H42.6255C41.203 11.5395 37.614 14.348 30.0711 19.916H32.8782Z" fill="#D03438"/>
<path d="M45.9819 19.8932C45.1507 14.785 44.9793 11.0632 44.6042 4.9234H45.1897C45.7067 10.5483 46.2606 14.4962 48.2207 19.916L45.9819 19.8932Z" fill="#D03438"/>
<path d="M50.1677 19.916C48.0323 15.7856 45.8414 11.0632 45.4663 4.9234H45.7591C46.276 10.5483 48.1356 13.8688 52.3721 19.916H50.1677Z" fill="#D03438"/>
<path d="M54.7155 19.916C48.435 13.7775 46.6708 9.03922 45.9154 4.9234H46.1737C47.5961 11.5395 50.9957 14.9869 57.7637 19.916H54.7155Z" fill="#D03438"/>
</svg>
